<?xml version="1.0" encoding="UTF-8" standalone="no"?>
<!-- Created with Inkscape (http://www.inkscape.org/) -->

<svg
   xmlns:dc="http://purl.org/dc/elements/1.1/"
   xmlns:cc="http://creativecommons.org/ns#"
   xmlns:rdf="http://www.w3.org/1999/02/22-rdf-syntax-ns#"
   xmlns:svg="http://www.w3.org/2000/svg"
   xmlns="http://www.w3.org/2000/svg"
   xmlns:sodipodi="http://sodipodi.sourceforge.net/DTD/sodipodi-0.dtd"
   xmlns:inkscape="http://www.inkscape.org/namespaces/inkscape"
   width="220mm"
   height="120mm"
   viewBox="0 0 220 120"
   version="1.1"
   id="svg8"
   inkscape:version="0.92.4 (5da689c313, 2019-01-14)"
   sodipodi:docname="unoriented_vs_oriented_curves.svg">
  <defs
     id="defs2" />
  <sodipodi:namedview
     id="base"
     pagecolor="#ffffff"
     bordercolor="#666666"
     borderopacity="1.0"
     inkscape:pageopacity="0.0"
     inkscape:pageshadow="2"
     inkscape:zoom="0.98994949"
     inkscape:cx="487.81906"
     inkscape:cy="226.83521"
     inkscape:document-units="mm"
     inkscape:current-layer="layer1"
     showgrid="true"
     inkscape:window-width="1920"
     inkscape:window-height="1017"
     inkscape:window-x="-8"
     inkscape:window-y="-8"
     inkscape:window-maximized="1"
     inkscape:snap-global="false">
    <inkscape:grid
       type="xygrid"
       id="grid815"
       units="mm"
       spacingx="1"
       spacingy="1" />
  </sodipodi:namedview>
  <metadata
     id="metadata5">
    <rdf:RDF>
      <cc:Work
         rdf:about="">
        <dc:format>image/svg+xml</dc:format>
        <dc:type
           rdf:resource="http://purl.org/dc/dcmitype/StillImage" />
        <dc:title></dc:title>
      </cc:Work>
    </rdf:RDF>
  </metadata>
  <g
     inkscape:label="Layer 1"
     inkscape:groupmode="layer"
     id="layer1"
     transform="translate(0,-177)">
    <path
       style="fill:none;stroke:#000000;stroke-width:1.5;stroke-linecap:butt;stroke-linejoin:miter;stroke-miterlimit:4;stroke-dasharray:none;stroke-opacity:1"
       d="M 6.2657729,262.70334 C 32.458186,286.49032 44.752585,295.04295 55.176097,288.89575 65.599608,282.74856 65.599608,272.05778 62.125103,262.70334 58.6506,253.34891 50.365244,249.0726 42.079889,235.70912 34.552134,223.56758 30.052761,198.29139 38.070848,189.73876 c 8.018084,-8.55262 24.856064,-7.21627 29.666916,-2.40542 4.81085,4.81085 5.34539,20.04521 7.750816,33.67596 2.576057,14.59766 11.22532,27.52875 22.450642,34.74503"
       id="path816"
       inkscape:connector-curvature="0"
       sodipodi:nodetypes="cssssssc" />
    <g
       id="g894"
       transform="translate(-0.26726953,4.8108515)">
      <path
         sodipodi:nodetypes="cssssssc"
         inkscape:connector-curvature="0"
         id="path816-9"
         d="m 120.75595,257.75595 c 26.19241,23.78698 38.48681,32.33961 48.91032,26.19241 10.42352,-6.14719 10.42352,-16.83797 6.94901,-26.19241 -3.4745,-9.35443 -11.75986,-13.63074 -20.04521,-26.99422 -7.52776,-12.14154 -12.02713,-37.41773 -4.00904,-45.97036 8.01808,-8.55262 24.85606,-7.21627 29.66691,-2.40542 4.81085,4.81085 5.34539,20.04521 7.75082,33.67596 2.57606,14.59766 11.22532,27.52875 22.45064,34.74503"
         style="fill:none;stroke:#000000;stroke-width:1.5;stroke-linecap:butt;stroke-linejoin:miter;stroke-miterlimit:4;stroke-dasharray:none;stroke-opacity:1" />
      <path
         inkscape:connector-curvature="0"
         id="path833-5"
         d="m 131.66728,271.34624 8.89185,3.30682 -5.12939,-7.98057 0.45564,4.21811 z"
         style="fill:#000000;fill-opacity:1;stroke:none;stroke-width:0.26458332px;stroke-linecap:butt;stroke-linejoin:miter;stroke-opacity:1" />
      <path
         inkscape:connector-curvature="0"
         id="path833-3"
         d="m 171.79957,286.55534 4.21755,-8.49779 -8.4727,4.26771 4.24263,-0.0125 z"
         style="fill:#000000;fill-opacity:1;stroke:none;stroke-width:0.26458332px;stroke-linecap:butt;stroke-linejoin:miter;stroke-opacity:1" />
      <path
         inkscape:connector-curvature="0"
         id="path833-7"
         d="m 175.29495,249.14073 -8.13269,-4.88461 3.57538,8.7873 0.32731,-4.22999 z"
         style="fill:#000000;fill-opacity:1;stroke:none;stroke-width:0.26458332px;stroke-linecap:butt;stroke-linejoin:miter;stroke-opacity:1" />
      <path
         inkscape:connector-curvature="0"
         id="path833-30"
         d="m 154.39061,219.12575 -4.97663,-8.07671 -0.86472,9.44734 2.23536,-3.60599 z"
         style="fill:#000000;fill-opacity:1;stroke:none;stroke-width:0.26458332px;stroke-linecap:butt;stroke-linejoin:miter;stroke-opacity:1" />
      <path
         inkscape:connector-curvature="0"
         id="path833-1"
         d="m 155.83807,184.80213 7.48616,-5.82731 -9.48531,0.17015 3.82815,1.829 z"
         style="fill:#000000;fill-opacity:1;stroke:none;stroke-width:0.26458332px;stroke-linecap:butt;stroke-linejoin:miter;stroke-opacity:1" />
      <path
         inkscape:connector-curvature="0"
         id="path833-6"
         d="m 181.63272,185.4919 4.98745,8.07003 0.85205,-9.44849 -2.23052,3.60898 z"
         style="fill:#000000;fill-opacity:1;stroke:none;stroke-width:0.26458332px;stroke-linecap:butt;stroke-linejoin:miter;stroke-opacity:1" />
      <path
         inkscape:connector-curvature="0"
         id="path833-57"
         d="m 186.44709,214.04466 4.79517,8.18574 1.07531,-9.42568 -2.31527,3.55521 z"
         style="fill:#000000;fill-opacity:1;stroke:none;stroke-width:0.26458332px;stroke-linecap:butt;stroke-linejoin:miter;stroke-opacity:1" />
    </g>
  </g>
</svg>
