<?xml version="1.0" encoding="UTF-8" standalone="no"?>
<!-- Created with Inkscape (http://www.inkscape.org/) -->

<svg
   xmlns:dc="http://purl.org/dc/elements/1.1/"
   xmlns:cc="http://creativecommons.org/ns#"
   xmlns:rdf="http://www.w3.org/1999/02/22-rdf-syntax-ns#"
   xmlns:svg="http://www.w3.org/2000/svg"
   xmlns="http://www.w3.org/2000/svg"
   xmlns:sodipodi="http://sodipodi.sourceforge.net/DTD/sodipodi-0.dtd"
   xmlns:inkscape="http://www.inkscape.org/namespaces/inkscape"
   width="110mm"
   height="120mm"
   viewBox="0 0 110 120"
   version="1.1"
   id="svg8"
   inkscape:version="0.92.4 (5da689c313, 2019-01-14)"
   sodipodi:docname="3D_model_foam_2.svg">
  <defs
     id="defs2" />
  <sodipodi:namedview
     id="base"
     pagecolor="#ffffff"
     bordercolor="#666666"
     borderopacity="1.0"
     inkscape:pageopacity="0.0"
     inkscape:pageshadow="2"
     inkscape:zoom="2.8"
     inkscape:cx="224.48711"
     inkscape:cy="224.19862"
     inkscape:document-units="mm"
     inkscape:current-layer="layer1"
     showgrid="true"
     inkscape:window-width="1920"
     inkscape:window-height="1017"
     inkscape:window-x="-8"
     inkscape:window-y="-8"
     inkscape:window-maximized="1"
     inkscape:snap-object-midpoints="true"
     inkscape:snap-global="false">
    <inkscape:grid
       type="xygrid"
       id="grid815"
       units="mm"
       spacingx="1"
       spacingy="1" />
  </sodipodi:namedview>
  <metadata
     id="metadata5">
    <rdf:RDF>
      <cc:Work
         rdf:about="">
        <dc:format>image/svg+xml</dc:format>
        <dc:type
           rdf:resource="http://purl.org/dc/dcmitype/StillImage" />
        <dc:title></dc:title>
      </cc:Work>
    </rdf:RDF>
  </metadata>
  <g
     inkscape:label="Layer 1"
     inkscape:groupmode="layer"
     id="layer1"
     transform="translate(0,-177)">
    <path
       style="opacity:1;vector-effect:none;fill:none;fill-opacity:1;stroke:#7f0000;stroke-width:1;stroke-linecap:butt;stroke-linejoin:miter;stroke-miterlimit:4;stroke-dasharray:none;stroke-dashoffset:0;stroke-opacity:1"
       d="m 45,242 c 0,0 7.962186,-6.5981 10.801809,-10.06908 C 58.709405,228.37686 60,217 60,217"
       id="path1203"
       inkscape:connector-curvature="0"
       sodipodi:nodetypes="csc" />
    <path
       style="opacity:1;vector-effect:none;fill:none;fill-opacity:1;stroke:#7f0000;stroke-width:1;stroke-linecap:butt;stroke-linejoin:miter;stroke-miterlimit:4;stroke-dasharray:none;stroke-dashoffset:0;stroke-opacity:1"
       d="m 79.999998,237 c 0,0 2.202003,-6.63339 2.72369,-10.13816 C 83.227936,223.47423 83.467722,219.00678 83,216"
       id="path1201"
       inkscape:connector-curvature="0"
       sodipodi:nodetypes="csc" />
    <path
       style="opacity:1;vector-effect:none;fill:none;fill-opacity:1;stroke:#7f0000;stroke-width:1;stroke-linecap:butt;stroke-linejoin:miter;stroke-miterlimit:4;stroke-dasharray:none;stroke-dashoffset:0;stroke-opacity:1"
       d="m 79.999998,237 c -1.417411,6.61458 -3.278273,13.1183 -4.066964,15.28348 C 74.175759,257.1077 72.173363,263.59821 70,267"
       id="path1030"
       inkscape:connector-curvature="0"
       sodipodi:nodetypes="csc" />
    <path
       style="opacity:1;vector-effect:none;fill:none;fill-opacity:1;stroke:#7f0000;stroke-width:1;stroke-linecap:butt;stroke-linejoin:miter;stroke-miterlimit:4;stroke-dasharray:none;stroke-dashoffset:0;stroke-opacity:1"
       d="m 40,202 c 0,0 0.845741,-7.37796 1.011905,-10.87798 C 41.12872,188.66146 41.228423,186.9137 40,182"
       id="path1044"
       inkscape:connector-curvature="0"
       sodipodi:nodetypes="csc" />
    <path
       style="opacity:1;vector-effect:none;fill:none;fill-opacity:1;stroke:#7f0000;stroke-width:1;stroke-linecap:butt;stroke-linejoin:miter;stroke-miterlimit:4;stroke-dasharray:none;stroke-dashoffset:0;stroke-opacity:1"
       d="m 75,207 c 2.362351,-4.63021 3.372768,-6.81101 4.539435,-10.31101 C 80.706101,193.18899 80,182 80,182"
       id="path1046"
       inkscape:connector-curvature="0"
       sodipodi:nodetypes="csc" />
    <path
       style="opacity:1;vector-effect:none;fill:none;fill-opacity:1;stroke:#7f0000;stroke-width:1;stroke-linecap:butt;stroke-linejoin:miter;stroke-miterlimit:4;stroke-dasharray:none;stroke-dashoffset:0;stroke-opacity:1"
       d="m 45,242 c 0,0 -7.716518,4.69568 -11.716518,5.86235 C 29.283482,249.02902 20,247 20,247"
       id="path1024"
       inkscape:connector-curvature="0"
       sodipodi:nodetypes="csc" />
    <path
       style="opacity:1;vector-effect:none;fill:none;fill-opacity:1;stroke:#7f0000;stroke-width:1;stroke-linecap:butt;stroke-linejoin:miter;stroke-miterlimit:4;stroke-dasharray:none;stroke-dashoffset:0;stroke-opacity:1"
       d="m 40,202 c 0,0 -9.034226,1.86607 -12.700892,3.36607 C 23.632441,206.86607 20,212 20,212"
       id="path1026"
       inkscape:connector-curvature="0"
       sodipodi:nodetypes="csc" />
    <path
       style="opacity:1;vector-effect:none;fill:none;fill-opacity:1;stroke:#7f0000;stroke-width:1;stroke-linecap:butt;stroke-linejoin:miter;stroke-miterlimit:4;stroke-dasharray:none;stroke-dashoffset:0;stroke-opacity:1"
       d="m 45,242 c 0,0 -2.699942,10.73218 -3.350446,14.71652 C 40.893601,261.34673 40,272 40,272"
       id="path1028"
       inkscape:connector-curvature="0"
       sodipodi:nodetypes="csc" />
    <path
       style="opacity:1;vector-effect:none;fill:none;fill-opacity:1;stroke:#00007f;stroke-width:1;stroke-linecap:butt;stroke-linejoin:miter;stroke-miterlimit:4;stroke-dasharray:1, 1;stroke-dashoffset:0;stroke-opacity:1"
       d="m 63,217 c 3.02381,-8.78795 0,-20 0,-20"
       id="path1230"
       inkscape:connector-curvature="0"
       sodipodi:nodetypes="cc" />
    <g
       id="g1018"
       transform="translate(45,75)">
      <path
         sodipodi:nodetypes="cscscscsc"
         inkscape:connector-curvature="0"
         id="path993"
         d="m 0,167 c 0,0 9.9657731,-5.25744 15.799106,-6.09077 C 21.632439,160.0759 34.999998,162 34.999998,162 35.28348,158.97619 35.619402,150.0414 35.429315,147 35.240327,143.97618 32.267857,136.53572 30,132 30,132 19.750744,126.36458 13.917411,125.53125 8.0840774,124.69792 -5,127 -5,127 c 0,0 7.6220238,14.05506 7.9806548,20.47247 C 3.3240145,153.61662 0,167 0,167 Z"
         style="opacity:1;vector-effect:none;fill:#007f00;fill-opacity:0.49803922;stroke:none;stroke-width:1;stroke-linecap:butt;stroke-linejoin:miter;stroke-miterlimit:4;stroke-dasharray:none;stroke-dashoffset:0;stroke-opacity:1" />
      <path
         sodipodi:nodetypes="csc"
         inkscape:connector-curvature="0"
         id="path1039"
         d="m 0,167 c 0,0 9.7767857,-5.25744 15.610119,-6.09077 C 21.443452,160.07589 35,162 35,162"
         style="opacity:1;vector-effect:none;fill:none;fill-opacity:1;stroke:#7f0000;stroke-width:1;stroke-linecap:butt;stroke-linejoin:miter;stroke-miterlimit:4;stroke-dasharray:none;stroke-dashoffset:0;stroke-opacity:1" />
      <path
         sodipodi:nodetypes="csc"
         inkscape:connector-curvature="0"
         id="path987"
         d="m 0,167 c 0,0 3.7789482,-13.30391 3,-20 -0.829671,-7.13212 -8,-20 -8,-20"
         style="opacity:1;vector-effect:none;fill:none;fill-opacity:1;stroke:#7f0000;stroke-width:1;stroke-linecap:butt;stroke-linejoin:miter;stroke-miterlimit:4;stroke-dasharray:none;stroke-dashoffset:0;stroke-opacity:1" />
      <circle
         r="2"
         cy="167"
         cx="-2.29166e-08"
         id="path817-1-0"
         style="opacity:1;vector-effect:none;fill:#000000;fill-opacity:1;stroke:none;stroke-width:0.25;stroke-linecap:butt;stroke-linejoin:miter;stroke-miterlimit:4;stroke-dasharray:none;stroke-dashoffset:0;stroke-opacity:1" />
      <path
         sodipodi:nodetypes="csc"
         inkscape:connector-curvature="0"
         id="path989"
         d="m 34.999998,162 c 0,0 1.262649,-10.66146 0.429316,-15.66146 C 34.595981,141.33854 30,132 30,132"
         style="opacity:1;vector-effect:none;fill:none;fill-opacity:1;stroke:#7f0000;stroke-width:1;stroke-linecap:butt;stroke-linejoin:miter;stroke-miterlimit:4;stroke-dasharray:none;stroke-dashoffset:0;stroke-opacity:1" />
      <circle
         r="2"
         cy="162"
         cx="35"
         id="path817-1-07"
         style="opacity:1;vector-effect:none;fill:#000000;fill-opacity:1;stroke:none;stroke-width:0.25;stroke-linecap:butt;stroke-linejoin:miter;stroke-miterlimit:4;stroke-dasharray:none;stroke-dashoffset:0;stroke-opacity:1" />
      <path
         sodipodi:nodetypes="csc"
         inkscape:connector-curvature="0"
         id="path991"
         d="m 30,132 c 0,0 -9.682292,-5.44643 -15.515625,-6.27976 C 8.6510417,124.88691 -5,127 -5,127"
         style="opacity:1;vector-effect:none;fill:none;fill-opacity:1;stroke:#7f0000;stroke-width:1;stroke-linecap:butt;stroke-linejoin:miter;stroke-miterlimit:4;stroke-dasharray:none;stroke-dashoffset:0;stroke-opacity:1" />
      <circle
         r="2"
         cy="127"
         cx="-5"
         id="path817-1-53"
         style="opacity:1;vector-effect:none;fill:#000000;fill-opacity:1;stroke:none;stroke-width:0.25;stroke-linecap:butt;stroke-linejoin:miter;stroke-miterlimit:4;stroke-dasharray:none;stroke-dashoffset:0;stroke-opacity:1" />
      <circle
         r="2"
         cy="132"
         cx="30"
         id="path817-1-9"
         style="opacity:1;vector-effect:none;fill:#000000;fill-opacity:1;stroke:none;stroke-width:0.25;stroke-linecap:butt;stroke-linejoin:miter;stroke-miterlimit:4;stroke-dasharray:none;stroke-dashoffset:0;stroke-opacity:1" />
    </g>
    <path
       style="opacity:1;vector-effect:none;fill:none;fill-opacity:1;stroke:#7f0000;stroke-width:1;stroke-linecap:butt;stroke-linejoin:miter;stroke-miterlimit:4;stroke-dasharray:none;stroke-dashoffset:0;stroke-opacity:1"
       d="m 79.999998,237 c 0,0 9.133929,2.53274 13.13393,4.36607 C 97.133928,243.1994 105,247 105,247"
       id="path1022"
       inkscape:connector-curvature="0"
       sodipodi:nodetypes="csc" />
    <path
       style="opacity:1;vector-effect:none;fill:none;fill-opacity:1;stroke:#7f0000;stroke-width:1;stroke-linecap:butt;stroke-linejoin:miter;stroke-miterlimit:4;stroke-dasharray:none;stroke-dashoffset:0;stroke-opacity:1"
       d="m 75,207 c 4.346726,1.88988 9.561756,5 13.728423,7.5 C 92.895089,217 98.015625,223.40923 100,227"
       id="path1020"
       inkscape:connector-curvature="0"
       sodipodi:nodetypes="csc" />
    <circle
       style="opacity:1;vector-effect:none;fill:#000000;fill-opacity:0.49803922;stroke:#000000;stroke-width:0.25;stroke-linecap:butt;stroke-linejoin:miter;stroke-miterlimit:4;stroke-dasharray:0.50000002, 0.25;stroke-dashoffset:0;stroke-opacity:1"
       id="path1205-9"
       cx="63"
       cy="197"
       r="2" />
    <path
       style="opacity:1;vector-effect:none;fill:none;fill-opacity:1;stroke:#7f0000;stroke-width:1;stroke-linecap:butt;stroke-linejoin:miter;stroke-miterlimit:4;stroke-dasharray:none;stroke-dashoffset:0;stroke-opacity:1"
       d="m 75,207 c 0,0 -9.330357,-20.36979 -15,-25"
       id="path1032"
       inkscape:connector-curvature="0"
       sodipodi:nodetypes="cc" />
    <path
       style="opacity:1;vector-effect:none;fill:none;fill-opacity:1;stroke:#7f0000;stroke-width:1;stroke-linecap:butt;stroke-linejoin:miter;stroke-miterlimit:4;stroke-dasharray:none;stroke-dashoffset:0;stroke-opacity:1"
       d="m 40,202 c 0,0 -6.881696,-11.97619 -10,-15"
       id="path1034"
       inkscape:connector-curvature="0"
       sodipodi:nodetypes="cc" />
    <path
       style="opacity:1;vector-effect:none;fill:none;fill-opacity:1;stroke:#7f0000;stroke-width:1;stroke-linecap:butt;stroke-linejoin:miter;stroke-miterlimit:4;stroke-dasharray:none;stroke-dashoffset:0;stroke-opacity:1"
       d="m 45,242 c 0,0 -7.262649,6.67187 -9.429315,10.33854 C 33.404018,256.00521 30,267 30,267"
       id="path1036"
       inkscape:connector-curvature="0"
       sodipodi:nodetypes="csc" />
    <path
       style="opacity:1;vector-effect:none;fill:none;fill-opacity:1;stroke:#7f0000;stroke-width:1;stroke-linecap:butt;stroke-linejoin:miter;stroke-miterlimit:4;stroke-dasharray:none;stroke-dashoffset:0;stroke-opacity:1"
       d="m 79.999998,237 c 0,0 -4.108542,10.48748 -6.244046,13.90178 C 72.002161,253.70578 68.02381,259.44866 65,262"
       id="path1038"
       inkscape:connector-curvature="0"
       sodipodi:nodetypes="csc" />
    <path
       style="opacity:1;vector-effect:none;fill:none;fill-opacity:1;stroke:#00007f;stroke-width:1;stroke-linecap:butt;stroke-linejoin:miter;stroke-miterlimit:4;stroke-dasharray:1, 1;stroke-dashoffset:0;stroke-opacity:1"
       d="m 38,233 c -4.44122,1.70089 -17,6 -17,6"
       id="path1234"
       inkscape:connector-curvature="0"
       sodipodi:nodetypes="cc" />
    <path
       style="opacity:1;vector-effect:none;fill:#007f00;fill-opacity:0.49803922;stroke:none;stroke-width:1;stroke-linecap:butt;stroke-linejoin:miter;stroke-miterlimit:4;stroke-dasharray:none;stroke-dashoffset:0;stroke-opacity:1"
       d="m 30,267 c 0,0 2.674104,-9.79206 5.637649,-14.62202 C 37.765571,248.90991 45,242 45,242 c 0,0 3.863658,-13.36465 2.960565,-20.43304 C 47.072418,214.61554 40,202 40,202 c 0,0 -0.421823,8.93124 -3.795387,13.96057 C 33.159117,220.50081 25,227 25,227 c 0,0 5.553082,9.61076 6.511905,14.47247 C 32.991065,248.97255 30,267 30,267 Z"
       id="path1048"
       inkscape:connector-curvature="0"
       sodipodi:nodetypes="cscscscsc" />
    <path
       style="opacity:1;vector-effect:none;fill:none;fill-opacity:1;stroke:#7f0000;stroke-width:1;stroke-linecap:butt;stroke-linejoin:miter;stroke-miterlimit:4;stroke-dasharray:none;stroke-dashoffset:0;stroke-opacity:1"
       d="m 40,202 c 0,0.5 -0.198661,7.13393 -2.948661,12.50893 C 34.301339,219.88393 25,227 25,227"
       id="path1040"
       inkscape:connector-curvature="0"
       sodipodi:nodetypes="csc" />
    <path
       style="opacity:1;vector-effect:none;fill:none;fill-opacity:1;stroke:#00007f;stroke-width:1;stroke-linecap:butt;stroke-linejoin:miter;stroke-miterlimit:4;stroke-dasharray:1, 1;stroke-dashoffset:0;stroke-opacity:1"
       d="m 55,247 c 1.795387,5.57515 0,18 0,18"
       id="path1236"
       inkscape:connector-curvature="0"
       sodipodi:nodetypes="cc" />
    <path
       style="opacity:1;vector-effect:none;fill:#007f00;fill-opacity:0.49803922;stroke:none;stroke-width:1;stroke-linecap:butt;stroke-linejoin:miter;stroke-miterlimit:4;stroke-dasharray:none;stroke-dashoffset:0;stroke-opacity:1"
       d="m 30,267 c 0,0 11.872511,-7.46118 19,-8.11012 C 54.564668,258.38324 65,262 65,262 c 0,0 6.316562,-6.84531 8.866071,-11.09449 C 76.415581,246.65632 79.999998,237 79.999998,237 79.999998,237 67.336382,234.81489 61,235.79539 55.107284,236.70723 45,242 45,242 c 0,0 -6.822411,6.35944 -9.244048,10.13393 C 32.738622,256.8369 30,267 30,267 Z"
       id="path1147"
       inkscape:connector-curvature="0"
       sodipodi:nodetypes="cscscscsc" />
    <path
       style="opacity:1;vector-effect:none;fill:none;fill-opacity:1;stroke:#00007f;stroke-width:1;stroke-linecap:butt;stroke-linejoin:miter;stroke-miterlimit:4;stroke-dasharray:1.00000001, 1.00000001;stroke-dashoffset:0;stroke-opacity:1"
       d="m 52.999999,230 c 2.834821,-0.37798 12.723958,-0.83482 20,2"
       id="path1211"
       inkscape:connector-curvature="0"
       sodipodi:nodetypes="cc" />
    <path
       style="opacity:1;vector-effect:none;fill:#007f00;fill-opacity:0.49803922;stroke:none;stroke-width:1;stroke-linecap:butt;stroke-linejoin:miter;stroke-miterlimit:4;stroke-dasharray:none;stroke-dashoffset:0;stroke-opacity:1"
       d="m 79.999998,237 c 0,0 1.258346,-9.68168 0.558781,-14.90551 C 79.761152,216.13841 75,207 75,207 c 0,0 -4.332818,6.40971 -6.511905,9.43304 C 65.731745,220.25727 60,227 60,227 c 0,0 4.155765,9.79759 5,15 1.067882,6.58058 0,20 0,20 0,0 6.104269,-6.55696 8.582589,-10.56696 C 76.353435,246.94971 79.999998,237 79.999998,237 Z"
       id="path1096"
       inkscape:connector-curvature="0"
       sodipodi:nodetypes="cscscscsc" />
    <path
       style="opacity:1;vector-effect:none;fill:none;fill-opacity:1;stroke:#00007f;stroke-width:1;stroke-linecap:butt;stroke-linejoin:miter;stroke-miterlimit:4;stroke-dasharray:1, 1;stroke-dashoffset:0;stroke-opacity:1"
       d="M 52.999999,230 C 57.157737,227.54315 61.204613,221.8192 63,217"
       id="path1226"
       inkscape:connector-curvature="0"
       sodipodi:nodetypes="cc" />
    <path
       style="opacity:1;vector-effect:none;fill:none;fill-opacity:1;stroke:#00007f;stroke-width:1;stroke-linecap:butt;stroke-linejoin:miter;stroke-miterlimit:4;stroke-dasharray:1, 1;stroke-dashoffset:0;stroke-opacity:1"
       d="m 52.999999,230 c 0.47247,-7.37054 0.133929,-14.59821 -1,-18"
       id="path1222"
       inkscape:connector-curvature="0"
       sodipodi:nodetypes="cc" />
    <path
       style="opacity:1;vector-effect:none;fill:#007f00;fill-opacity:0.49803922;stroke:none;stroke-width:1;stroke-linecap:butt;stroke-linejoin:miter;stroke-miterlimit:4;stroke-dasharray:none;stroke-dashoffset:0;stroke-opacity:1"
       d="m 25,227 c 1,0 12.43164,-4.16559 18.755952,-4.11012 C 49.764973,222.94259 60,227 60,227 c 0,0 5.441373,-6.58304 8,-10 2.438812,-3.25695 7,-10 7,-10 0,0 -9.003628,-5.09776 -14,-6 -6.896392,-1.24535 -21,1 -21,1 0,1.88988 -0.844127,9.11027 -3,13 -2.742265,4.94773 -12,12 -12,12 z"
       id="path1131"
       inkscape:connector-curvature="0"
       sodipodi:nodetypes="cscscscsc" />
    <path
       style="opacity:1;vector-effect:none;fill:none;fill-opacity:1;stroke:#7f0000;stroke-width:1;stroke-linecap:butt;stroke-linejoin:miter;stroke-miterlimit:4;stroke-dasharray:none;stroke-dashoffset:0;stroke-opacity:1"
       d="m 75,207 c 0,0 -4.532739,6.99479 -7.271578,10.35045 C 65.041617,220.64235 60,227 60,227"
       id="path1042"
       inkscape:connector-curvature="0"
       sodipodi:nodetypes="csc" />
    <circle
       style="opacity:1;vector-effect:none;fill:#000000;fill-opacity:0.49803922;stroke:#000000;stroke-width:0.25;stroke-linecap:butt;stroke-linejoin:miter;stroke-miterlimit:4;stroke-dasharray:0.50000002, 0.25;stroke-dashoffset:0;stroke-opacity:1"
       id="path1205-6"
       cx="53"
       cy="230"
       r="2" />
    <path
       style="opacity:1;vector-effect:none;fill:none;fill-opacity:1;stroke:#00007f;stroke-width:1;stroke-linecap:butt;stroke-linejoin:miter;stroke-miterlimit:4;stroke-dasharray:1, 1;stroke-dashoffset:0;stroke-opacity:1"
       d="m 38,233 c 2.456845,-1.13393 10.180803,-2.52753 14.999999,-3"
       id="path1218"
       inkscape:connector-curvature="0"
       sodipodi:nodetypes="cc" />
    <path
       style="opacity:1;vector-effect:none;fill:none;fill-opacity:1;stroke:#00007f;stroke-width:1;stroke-linecap:butt;stroke-linejoin:miter;stroke-miterlimit:4;stroke-dasharray:1, 1;stroke-dashoffset:0;stroke-opacity:1"
       d="M 52.999999,230 C 49.503719,233.40179 47.755952,238.22024 47,242"
       id="path1228"
       inkscape:connector-curvature="0"
       sodipodi:nodetypes="cc" />
    <path
       style="opacity:1;vector-effect:none;fill:none;fill-opacity:1;stroke:#00007f;stroke-width:1;stroke-linecap:butt;stroke-linejoin:miter;stroke-miterlimit:4;stroke-dasharray:1, 1;stroke-dashoffset:0;stroke-opacity:1"
       d="M 52.999999,230 C 52.622023,237.65402 54.05506,244.44866 55,247"
       id="path1224"
       inkscape:connector-curvature="0"
       sodipodi:nodetypes="cc" />
    <path
       style="opacity:1;vector-effect:none;fill:#007f00;fill-opacity:0.49803922;stroke:none;stroke-width:1;stroke-linecap:butt;stroke-linejoin:miter;stroke-miterlimit:4;stroke-dasharray:none;stroke-dashoffset:0;stroke-opacity:1"
       d="m 25,227 c 0,0 5.279466,9.15327 6.50372,14.75595 C 33.387737,250.37798 30,267 30,267 c 0,0 11.721667,-7.03165 18.417411,-7.8817 C 54.691608,258.32178 65,262 65,262 c 0,0 1.281485,-11.88003 0.448661,-17.90551 C 64.591191,237.89071 60,227 60,227 60,227 49.434887,223.31856 44.05506,223.07887 37.101753,222.76907 25,227 25,227 Z"
       id="path1163"
       inkscape:connector-curvature="0"
       sodipodi:nodetypes="cscscscsc" />
    <path
       style="opacity:1;vector-effect:none;fill:none;fill-opacity:1;stroke:#7f0000;stroke-width:1;stroke-linecap:butt;stroke-linejoin:miter;stroke-miterlimit:4;stroke-dasharray:none;stroke-dashoffset:0;stroke-opacity:1"
       d="m 25,227 c 0,0 12.528974,-4.12129 19,-4 5.496509,0.10302 16,4 16,4"
       id="path1103"
       inkscape:connector-curvature="0"
       sodipodi:nodetypes="csc" />
    <path
       style="opacity:1;vector-effect:none;fill:none;fill-opacity:1;stroke:#7f0000;stroke-width:1;stroke-linecap:butt;stroke-linejoin:miter;stroke-miterlimit:4;stroke-dasharray:none;stroke-dashoffset:0;stroke-opacity:1"
       d="m 30,267 c 0,0 12.167155,-7.26894 19,-8 5.395479,-0.57728 16,3 16,3"
       id="path1105"
       inkscape:connector-curvature="0"
       sodipodi:nodetypes="csc" />
    <path
       style="opacity:1;vector-effect:none;fill:none;fill-opacity:1;stroke:#7f0000;stroke-width:1;stroke-linecap:butt;stroke-linejoin:miter;stroke-miterlimit:4;stroke-dasharray:none;stroke-dashoffset:0;stroke-opacity:1"
       d="m 25,227 c 0,0 6.162847,11.55742 6.622024,15.09449 C 32.952971,252.34688 30,267 30,267"
       id="path1107"
       inkscape:connector-curvature="0"
       sodipodi:nodetypes="csc" />
    <path
       style="opacity:1;vector-effect:none;fill:none;fill-opacity:1;stroke:#7f0000;stroke-width:1;stroke-linecap:butt;stroke-linejoin:miter;stroke-miterlimit:4;stroke-dasharray:none;stroke-dashoffset:0;stroke-opacity:1"
       d="m 30,267 c 0,0 -1.609895,8.33066 -2.307292,12.28348 C 26.863482,283.9835 30,292 30,292"
       id="path1121"
       inkscape:connector-curvature="0"
       sodipodi:nodetypes="csc" />
    <path
       style="opacity:1;vector-effect:none;fill:none;fill-opacity:1;stroke:#7f0000;stroke-width:1;stroke-linecap:butt;stroke-linejoin:miter;stroke-miterlimit:4;stroke-dasharray:none;stroke-dashoffset:0;stroke-opacity:1"
       d="m 30,267 c 0,0 -6.600621,3.89927 -10.188988,4.90551 C 15.946222,272.98925 5,272 5,272"
       id="path1117"
       inkscape:connector-curvature="0"
       sodipodi:nodetypes="csc" />
    <circle
       style="opacity:1;vector-effect:none;fill:#000000;fill-opacity:1;stroke:none;stroke-width:0.25;stroke-linecap:butt;stroke-linejoin:miter;stroke-miterlimit:4;stroke-dasharray:none;stroke-dashoffset:0;stroke-opacity:1"
       id="path817-1"
       cx="30"
       cy="267"
       r="2" />
    <path
       style="opacity:1;vector-effect:none;fill:none;fill-opacity:1;stroke:#7f0000;stroke-width:1;stroke-linecap:butt;stroke-linejoin:miter;stroke-miterlimit:4;stroke-dasharray:none;stroke-dashoffset:0;stroke-opacity:1"
       d="m 60,227 c 0,0 4.058322,9.57059 4.960565,14.56696 C 66.205913,248.46336 65,262 65,262"
       id="path1109"
       inkscape:connector-curvature="0"
       sodipodi:nodetypes="csc" />
    <path
       style="opacity:1;vector-effect:none;fill:none;fill-opacity:1;stroke:#7f0000;stroke-width:1;stroke-linecap:butt;stroke-linejoin:miter;stroke-miterlimit:4;stroke-dasharray:none;stroke-dashoffset:0;stroke-opacity:1"
       d="m 25,227 c 0,0 -6.75173,2.47107 -10,4 -3.778966,1.77872 -10,6 -10,6"
       id="path1113"
       inkscape:connector-curvature="0"
       sodipodi:nodetypes="csc" />
    <path
       style="opacity:1;vector-effect:none;fill:none;fill-opacity:1;stroke:#7f0000;stroke-width:1;stroke-linecap:butt;stroke-linejoin:miter;stroke-miterlimit:4;stroke-dasharray:none;stroke-dashoffset:0;stroke-opacity:1"
       d="m 25,227 c 0,0 -5.025839,-8.61899 -8.283481,-12.52753 C 13.84531,211.02758 5,207 5,207"
       id="path1123"
       inkscape:connector-curvature="0"
       sodipodi:nodetypes="csc" />
    <path
       style="opacity:1;vector-effect:none;fill:none;fill-opacity:1;stroke:#7f0000;stroke-width:1;stroke-linecap:butt;stroke-linejoin:miter;stroke-miterlimit:4;stroke-dasharray:none;stroke-dashoffset:0;stroke-opacity:1"
       d="m 65,262 c 0,0 0.386072,10.18441 -1,15 -1.361319,4.72959 -9,15 -9,15"
       id="path1127"
       inkscape:connector-curvature="0"
       sodipodi:nodetypes="csc" />
    <circle
       style="opacity:1;vector-effect:none;fill:#000000;fill-opacity:1;stroke:none;stroke-width:0.25;stroke-linecap:butt;stroke-linejoin:miter;stroke-miterlimit:4;stroke-dasharray:none;stroke-dashoffset:0;stroke-opacity:1"
       id="path817-1-5"
       cx="65"
       cy="262"
       r="2" />
    <path
       style="opacity:1;vector-effect:none;fill:none;fill-opacity:1;stroke:#7f0000;stroke-width:1;stroke-linecap:butt;stroke-linejoin:miter;stroke-miterlimit:4;stroke-dasharray:none;stroke-dashoffset:0;stroke-opacity:1"
       d="m 65,262 c 0,0 8.541508,3.16472 11.999999,6 C 79.939151,270.40953 85,277 85,277"
       id="path1115"
       inkscape:connector-curvature="0"
       sodipodi:nodetypes="csc" />
    <path
       style="opacity:1;vector-effect:none;fill:none;fill-opacity:1;stroke:#7f0000;stroke-width:1;stroke-linecap:butt;stroke-linejoin:miter;stroke-miterlimit:4;stroke-dasharray:none;stroke-dashoffset:0;stroke-opacity:1"
       d="m 65,262 c 0,0 -5.079744,5.02205 -7,8 -2.182711,3.38497 -8,12 -8,12"
       id="path1119"
       inkscape:connector-curvature="0"
       sodipodi:nodetypes="csc" />
    <path
       style="opacity:1;vector-effect:none;fill:none;fill-opacity:1;stroke:#7f0000;stroke-width:1;stroke-linecap:butt;stroke-linejoin:miter;stroke-miterlimit:4;stroke-dasharray:none;stroke-dashoffset:0;stroke-opacity:1"
       d="m 30,267 c 0,0 -1.9029,7.11213 -3.354167,11.18899 C 24.969905,282.89696 15,292 15,292"
       id="path1129"
       inkscape:connector-curvature="0"
       sodipodi:nodetypes="csc" />
    <circle
       style="opacity:1;vector-effect:none;fill:#000000;fill-opacity:1;stroke:none;stroke-width:0.25;stroke-linecap:butt;stroke-linejoin:miter;stroke-miterlimit:4;stroke-dasharray:none;stroke-dashoffset:0;stroke-opacity:1"
       id="path817-1-1"
       cx="25"
       cy="227"
       r="2" />
    <path
       style="opacity:1;vector-effect:none;fill:none;fill-opacity:1;stroke:#7f0000;stroke-width:1;stroke-linecap:butt;stroke-linejoin:miter;stroke-miterlimit:4;stroke-dasharray:none;stroke-dashoffset:0;stroke-opacity:1"
       d="m 25,227 c 0,0 -7.26067,4.8447 -9.36235,6.79539 C 11.821322,237.33753 5,247 5,247"
       id="path1172"
       inkscape:connector-curvature="0"
       sodipodi:nodetypes="csc" />
    <circle
       style="opacity:1;vector-effect:none;fill:#000000;fill-opacity:1;stroke:none;stroke-width:0.25;stroke-linecap:butt;stroke-linejoin:miter;stroke-miterlimit:4;stroke-dasharray:none;stroke-dashoffset:0;stroke-opacity:1"
       id="path817-1-56"
       cx="60"
       cy="227"
       r="2" />
    <path
       style="opacity:1;vector-effect:none;fill:none;fill-opacity:1;stroke:#7f0000;stroke-width:1;stroke-linecap:butt;stroke-linejoin:miter;stroke-miterlimit:4;stroke-dasharray:none;stroke-dashoffset:0;stroke-opacity:1"
       d="m 60,227 c 0,0 -4.598798,-11.1737 -7.133929,-16.62202 C 50.092537,204.4173 43,195 43,195"
       id="path1125"
       inkscape:connector-curvature="0"
       sodipodi:nodetypes="csc" />
    <path
       style="opacity:1;vector-effect:none;fill:none;fill-opacity:1;stroke:#7f0000;stroke-width:1;stroke-linecap:butt;stroke-linejoin:miter;stroke-miterlimit:4;stroke-dasharray:none;stroke-dashoffset:0;stroke-opacity:1"
       d="m 60,227 c 0,0 9.72858,4.73751 14,8 3.371655,2.57526 11,12 11,12"
       id="path1111"
       inkscape:connector-curvature="0"
       sodipodi:nodetypes="csc" />
    <path
       style="opacity:1;vector-effect:none;fill:none;fill-opacity:1;stroke:#7f0000;stroke-width:1;stroke-linecap:butt;stroke-linejoin:miter;stroke-miterlimit:4;stroke-dasharray:none;stroke-dashoffset:0;stroke-opacity:1"
       d="m 60,227 c 0,0 -5.457555,5.88591 -8.228423,8.09449 C 47.922959,238.16213 40,242 40,242"
       id="path1170"
       inkscape:connector-curvature="0"
       sodipodi:nodetypes="csc" />
    <path
       style="opacity:1;vector-effect:none;fill:none;fill-opacity:1;stroke:#00007f;stroke-width:1;stroke-linecap:butt;stroke-linejoin:miter;stroke-miterlimit:4;stroke-dasharray:1, 1;stroke-dashoffset:0;stroke-opacity:1"
       d="M 51.999999,212 Z"
       id="path1220"
       inkscape:connector-curvature="0" />
    <path
       style="opacity:1;vector-effect:none;fill:none;fill-opacity:1;stroke:#00007f;stroke-width:1;stroke-linecap:butt;stroke-linejoin:miter;stroke-miterlimit:4;stroke-dasharray:1, 1;stroke-dashoffset:0;stroke-opacity:1"
       d="M 51.999999,212 C 49.354166,203.59003 37,193 37,193"
       id="path1232"
       inkscape:connector-curvature="0"
       sodipodi:nodetypes="cc" />
    <path
       style="opacity:1;vector-effect:none;fill:none;fill-opacity:1;stroke:#00007f;stroke-width:1;stroke-linecap:butt;stroke-linejoin:miter;stroke-miterlimit:4;stroke-dasharray:1, 1;stroke-dashoffset:0;stroke-opacity:1"
       d="m 47,242 c 0,0 -1.409226,11.22024 -5,15"
       id="path1238"
       inkscape:connector-curvature="0"
       sodipodi:nodetypes="cc" />
    <path
       style="opacity:1;vector-effect:none;fill:none;fill-opacity:1;stroke:#00007f;stroke-width:1;stroke-linecap:butt;stroke-linejoin:miter;stroke-miterlimit:4;stroke-dasharray:1, 1;stroke-dashoffset:0;stroke-opacity:1"
       d="m 72.999999,232 c 7.236607,2.36235 17.070684,7.50372 19.999999,11"
       id="path1240"
       inkscape:connector-curvature="0"
       sodipodi:nodetypes="cc" />
    <circle
       style="opacity:1;vector-effect:none;fill:#000000;fill-opacity:0.49803922;stroke:#000000;stroke-width:0.25;stroke-linecap:butt;stroke-linejoin:miter;stroke-miterlimit:4;stroke-dasharray:0.50000002, 0.25;stroke-dashoffset:0;stroke-opacity:1"
       id="path1205-9-7"
       cx="93"
       cy="243"
       r="2" />
    <circle
       style="opacity:1;vector-effect:none;fill:#000000;fill-opacity:0.49803922;stroke:#000000;stroke-width:0.25;stroke-linecap:butt;stroke-linejoin:miter;stroke-miterlimit:4;stroke-dasharray:0.50000002, 0.25;stroke-dashoffset:0;stroke-opacity:1"
       id="path1205-9-4"
       cx="37"
       cy="193"
       r="2" />
    <circle
       style="opacity:1;vector-effect:none;fill:#000000;fill-opacity:0.49803922;stroke:#000000;stroke-width:0.25;stroke-linecap:butt;stroke-linejoin:miter;stroke-miterlimit:4;stroke-dasharray:0.50000002, 0.25;stroke-dashoffset:0;stroke-opacity:1"
       id="path1205-9-5"
       cx="21"
       cy="239"
       r="2" />
    <circle
       style="opacity:1;vector-effect:none;fill:#000000;fill-opacity:0.49803922;stroke:#000000;stroke-width:0.25;stroke-linecap:butt;stroke-linejoin:miter;stroke-miterlimit:4;stroke-dasharray:0.50000002, 0.25;stroke-dashoffset:0;stroke-opacity:1"
       id="path1205-9-8"
       cx="55"
       cy="264"
       r="2" />
    <circle
       style="opacity:1;vector-effect:none;fill:#000000;fill-opacity:0.49803922;stroke:#000000;stroke-width:0.25;stroke-linecap:butt;stroke-linejoin:miter;stroke-miterlimit:4;stroke-dasharray:0.50000002, 0.25;stroke-dashoffset:0;stroke-opacity:1"
       id="path1205-9-0"
       cx="42"
       cy="257"
       r="2" />
  </g>
</svg>
