<?xml version="1.0" encoding="UTF-8" standalone="no"?>
<!-- Created with Inkscape (http://www.inkscape.org/) -->

<svg
   xmlns:ns1="http://www.iki.fi/pav/software/textext/"
   xmlns:dc="http://purl.org/dc/elements/1.1/"
   xmlns:cc="http://creativecommons.org/ns#"
   xmlns:rdf="http://www.w3.org/1999/02/22-rdf-syntax-ns#"
   xmlns:svg="http://www.w3.org/2000/svg"
   xmlns="http://www.w3.org/2000/svg"
   xmlns:sodipodi="http://sodipodi.sourceforge.net/DTD/sodipodi-0.dtd"
   xmlns:inkscape="http://www.inkscape.org/namespaces/inkscape"
   width="120mm"
   height="125mm"
   viewBox="0 0 120 125"
   version="1.1"
   id="svg8"
   inkscape:version="0.92.4 (5da689c313, 2019-01-14)"
   sodipodi:docname="surface_volume_intersections_and_volume_surfaces.svg">
  <sodipodi:namedview
     id="base"
     pagecolor="#ffffff"
     bordercolor="#666666"
     borderopacity="1.0"
     inkscape:pageopacity="0.0"
     inkscape:pageshadow="2"
     inkscape:zoom="1.4"
     inkscape:cx="360.68836"
     inkscape:cy="274.28571"
     inkscape:document-units="mm"
     inkscape:current-layer="layer1"
     showgrid="true"
     inkscape:window-width="1920"
     inkscape:window-height="1017"
     inkscape:window-x="-8"
     inkscape:window-y="-8"
     inkscape:window-maximized="1"
     inkscape:snap-global="false"
     inkscape:snap-smooth-nodes="true">
    <inkscape:grid
       spacingy="1"
       spacingx="1"
       units="mm"
       id="grid4485"
       type="xygrid" />
  </sodipodi:namedview>
  <defs
     id="defs2">
    <marker
       inkscape:stockid="Arrow1Mend"
       orient="auto"
       refY="0"
       refX="0"
       id="marker5414"
       style="overflow:visible"
       inkscape:isstock="true">
      <path
         id="path5412"
         d="M 0,0 5,-5 -12.5,0 5,5 Z"
         style="fill:#0000ff;fill-opacity:1;fill-rule:evenodd;stroke:#0000ff;stroke-width:1.00000003pt;stroke-opacity:1"
         transform="matrix(-0.4,0,0,-0.4,-4,0)"
         inkscape:connector-curvature="0" />
    </marker>
    <marker
       inkscape:stockid="Arrow1Mend"
       orient="auto"
       refY="0"
       refX="0"
       id="marker5380"
       style="overflow:visible"
       inkscape:isstock="true">
      <path
         id="path5378"
         d="M 0,0 5,-5 -12.5,0 5,5 Z"
         style="fill:#0000ff;fill-opacity:1;fill-rule:evenodd;stroke:#0000ff;stroke-width:1.00000003pt;stroke-opacity:1"
         transform="matrix(-0.4,0,0,-0.4,-4,0)"
         inkscape:connector-curvature="0" />
    </marker>
    <marker
       inkscape:stockid="Arrow1Mend"
       orient="auto"
       refY="0"
       refX="0"
       id="marker5354"
       style="overflow:visible"
       inkscape:isstock="true">
      <path
         id="path5352"
         d="M 0,0 5,-5 -12.5,0 5,5 Z"
         style="fill:#0000ff;fill-opacity:1;fill-rule:evenodd;stroke:#0000ff;stroke-width:1.00000003pt;stroke-opacity:1"
         transform="matrix(-0.4,0,0,-0.4,-4,0)"
         inkscape:connector-curvature="0" />
    </marker>
    <marker
       inkscape:stockid="Arrow1Mend"
       orient="auto"
       refY="0"
       refX="0"
       id="marker5324"
       style="overflow:visible"
       inkscape:isstock="true">
      <path
         id="path5322"
         d="M 0,0 5,-5 -12.5,0 5,5 Z"
         style="fill:#0000ff;fill-opacity:1;fill-rule:evenodd;stroke:#0000ff;stroke-width:1.00000003pt;stroke-opacity:1"
         transform="matrix(-0.4,0,0,-0.4,-4,0)"
         inkscape:connector-curvature="0" />
    </marker>
    <marker
       inkscape:stockid="Arrow1Mend"
       orient="auto"
       refY="0"
       refX="0"
       id="Arrow1Mend"
       style="overflow:visible"
       inkscape:isstock="true">
      <path
         id="path4943"
         d="M 0,0 5,-5 -12.5,0 5,5 Z"
         style="fill:#0000ff;fill-opacity:1;fill-rule:evenodd;stroke:#0000ff;stroke-width:1.00000003pt;stroke-opacity:1"
         transform="matrix(-0.4,0,0,-0.4,-4,0)"
         inkscape:connector-curvature="0" />
    </marker>
    <marker
       inkscape:stockid="Arrow1Send"
       orient="auto"
       refY="0"
       refX="0"
       id="Arrow1Send"
       style="overflow:visible"
       inkscape:isstock="true">
      <path
         id="path4949"
         d="M 0,0 5,-5 -12.5,0 5,5 Z"
         style="fill:#000000;fill-opacity:1;fill-rule:evenodd;stroke:#000000;stroke-width:1.00000003pt;stroke-opacity:1"
         transform="matrix(-0.2,0,0,-0.2,-1.2,0)"
         inkscape:connector-curvature="0" />
    </marker>
  </defs>
  <metadata
     id="metadata5">
    <rdf:RDF>
      <cc:Work
         rdf:about="">
        <dc:format>image/svg+xml</dc:format>
        <dc:type
           rdf:resource="http://purl.org/dc/dcmitype/StillImage" />
        <dc:title></dc:title>
      </cc:Work>
    </rdf:RDF>
  </metadata>
  <g
     id="layer1"
     inkscape:groupmode="layer"
     inkscape:label="Layer 1"
     transform="translate(0,-172)">
    <path
       sodipodi:nodetypes="sssssssssss"
       inkscape:connector-curvature="0"
       id="path4524"
       d="M 17.939322,263.09046 C 5.410121,248.20224 5.644925,231.55266 6.179463,219.52554 c 0.693785,-15.61014 6.147199,-32.60688 21.648833,-38.75408 15.501632,-6.1472 26.192412,-3.20724 40.090427,1.60362 13.898015,4.81085 39.555877,1.33634 42.495847,13.36347 2.93996,12.02713 -6.1472,14.69983 -12.82894,23.51972 -6.681728,8.8199 -10.95804,10.15624 -9.354422,19.51068 1.60362,9.35443 5.345394,10.42351 11.225312,21.38157 5.87992,10.95803 -6.270038,13.90138 -16.303433,16.83798 -10.958052,3.20724 -32.07234,2.40541 -41.159507,1.87087 -7.682039,-0.45189 -12.996801,-2.62953 -24.054258,-15.76891 z"
       style="fill:#000000;fill-opacity:0.24705882;stroke:none;stroke-width:0.26458332px;stroke-linecap:butt;stroke-linejoin:miter;stroke-opacity:1" />
    <path
       sodipodi:nodetypes="sssssss"
       inkscape:connector-curvature="0"
       id="path4487"
       d="m 27.261412,226.03226 c -4.34837,-15.34719 3.40179,-21.54465 10.58334,-24.56846 7.18154,-3.02381 23.43452,-5.29166 30.99404,0.37798 7.55953,5.66964 9.44941,11.33929 8.31548,17.76488 -1.13393,6.4256 -17.00893,6.04762 -21.54464,13.98512 -4.53572,7.9375 -7.18155,18.14285 -14.3631,15.49702 -7.18154,-2.64583 -11.89877,-15.69297 -13.98512,-23.05654 z"
       style="fill:#7f0000;fill-opacity:0.49803922;stroke:none;stroke-width:2;stroke-linecap:butt;stroke-linejoin:miter;stroke-miterlimit:4;stroke-dasharray:none;stroke-opacity:1" />
    <path
       sodipodi:nodetypes="sssssss"
       inkscape:connector-curvature="0"
       id="path4487-7"
       d="m 27.261412,226.03226 c -4.34837,-15.34719 3.40179,-21.54465 10.58334,-24.56846 7.18154,-3.02381 23.43452,-5.29166 30.99404,0.37798 7.55953,5.66964 9.44941,11.33929 8.31548,17.76488 -1.13393,6.4256 -17.00893,6.04762 -21.54464,13.98512 -4.53572,7.9375 -7.18155,18.14285 -14.3631,15.49702 -7.18154,-2.64583 -11.89877,-15.69297 -13.98512,-23.05654 z"
       style="fill:none;fill-opacity:0.49803922;stroke:#000000;stroke-width:2;stroke-linecap:butt;stroke-linejoin:miter;stroke-miterlimit:4;stroke-dasharray:none;stroke-opacity:1" />
    <path
       inkscape:connector-curvature="0"
       id="path4489-9"
       d="m 18.779322,211.17217 6.57594,-2.59945 -2.59945,-6.57593 11.77482,10.55241 z"
       style="fill:#000000;fill-opacity:1;stroke:none;stroke-width:0.26499999;stroke-linecap:butt;stroke-linejoin:miter;stroke-miterlimit:4;stroke-dasharray:none;stroke-opacity:1" />
    <path
       inkscape:connector-curvature="0"
       id="path4489-05-9"
       d="m 74.232582,195.49673 -0.57108,7.04797 7.04797,0.57107 -14.66702,5.90582 z"
       style="fill:#000000;fill-opacity:1;stroke:none;stroke-width:0.26499999;stroke-linecap:butt;stroke-linejoin:miter;stroke-miterlimit:4;stroke-dasharray:none;stroke-opacity:1" />
    <path
       inkscape:connector-curvature="0"
       id="path4489-2-3"
       d="m 67.077892,231.67881 -7.04842,0.56552 0.56553,7.04842 -8.17947,-13.53131 z"
       style="fill:#000000;fill-opacity:1;stroke:none;stroke-width:0.26499999;stroke-linecap:butt;stroke-linejoin:miter;stroke-miterlimit:4;stroke-dasharray:none;stroke-opacity:1" />
    <g
       id="g4806"
       transform="translate(20.637925,149.97978)">
      <g
         id="g4804"
         transform="matrix(0.3,0,0,-0.3,-52.5,222.75)"
         xml:space="preserve"
         stroke-miterlimit="10.433"
         font-style="normal"
         font-variant="normal"
         font-weight="normal"
         font-stretch="normal"
         font-size-adjust="none"
         letter-spacing="normal"
         word-spacing="normal"
         style="font-style:normal;font-variant:normal;font-weight:normal;font-stretch:normal;letter-spacing:normal;word-spacing:normal;text-anchor:start;fill:none;fill-opacity:1;fill-rule:evenodd;stroke:#000000;stroke-linecap:butt;stroke-linejoin:miter;stroke-miterlimit:10.43299961;stroke-dasharray:none;stroke-dashoffset:0;stroke-opacity:1"><path
           d="m 487.16,435 0.1,0.37 0.05,0.19 0.06,0.18 0.06,0.17 0.07,0.17 0.07,0.17 0.08,0.16 0.08,0.16 0.1,0.16 0.09,0.15 0.11,0.14 0.11,0.14 0.13,0.14 0.13,0.12 0.14,0.13 0.15,0.12 0.17,0.11 0.17,0.11 0.19,0.1 0.19,0.09 0.21,0.09 0.23,0.08 0.23,0.08 0.26,0.07 0.26,0.06 0.28,0.06 0.3,0.04 0.31,0.05 0.33,0.03 0.35,0.03 0.18,0.01 h 0.19 c 0.25,0 0.84,0.05 0.84,1 0,0.05 0,0.55 -0.64,0.55 -1.64,0 -3.39,-0.16 -5.08,-0.16 -1.7,0 -3.55,0.16 -5.19,0.16 -0.29,0 -0.89,0 -0.89,-1 0,-0.55 0.5,-0.55 0.89,-0.55 2.85,-0.04 3.39,-1.09 3.39,-2.18 0,-0.16 -0.11,-0.91 -0.15,-1.05 l -4.49,-17.8 c -1.68,-6.67 -7.42,-11 -12.4,-11 -3.38,0 -6.08,2.19 -6.08,6.47 0,0.11 0,1.7 0.55,3.89 l 4.84,19.38 c 0.44,1.79 0.55,2.29 4.19,2.29 1.28,0 1.68,0 1.68,1 0,0.55 -0.54,0.55 -0.7,0.55 -1.39,0 -4.98,-0.16 -6.37,-0.16 -1.44,0 -4.99,0.16 -6.43,0.16 -0.4,0 -0.95,0 -0.95,-1 0,-0.55 0.45,-0.55 1.41,-0.55 0.09,0 1.04,0 1.89,-0.09 0.89,-0.11 1.34,-0.16 1.34,-0.8 0,-0.31 -0.55,-2.39 -0.84,-3.54 l -1.11,-4.38 c -0.44,-1.95 -2.83,-11.36 -3.03,-12.31 -0.35,-1.39 -0.35,-2.14 -0.35,-2.89 0,-6.08 4.53,-9.56 9.77,-9.56 6.26,0 12.45,5.62 14.09,12.2 z"
           id="path4802"
           inkscape:connector-curvature="0"
           style="fill:#000000;stroke-width:0" /></g>    </g>
    <g
       id="g4888"
       transform="translate(-7.0155325,192.04489)">
      <g
         word-spacing="normal"
         letter-spacing="normal"
         font-size-adjust="none"
         font-stretch="normal"
         font-weight="normal"
         font-variant="normal"
         font-style="normal"
         stroke-miterlimit="10.433"
         xml:space="preserve"
         transform="matrix(0.3,0,0,-0.3,-52.5,222.75)"
         id="g4886"
         style="font-style:normal;font-variant:normal;font-weight:normal;font-stretch:normal;letter-spacing:normal;word-spacing:normal;text-anchor:start;fill:none;fill-opacity:1;fill-rule:evenodd;stroke:#000000;stroke-linecap:butt;stroke-linejoin:miter;stroke-miterlimit:10.43299961;stroke-dasharray:none;stroke-dashoffset:0;stroke-opacity:1"><path
           id="path4882"
           d="m 494.38,439.14 0.01,0.01 0.01,0.02 0.01,0.01 0.01,0.02 0.01,0.02 0.01,0.02 0.01,0.02 0.01,0.02 0.01,0.02 0.01,0.02 0.01,0.02 0.01,0.03 0.02,0.04 0.02,0.05 0.02,0.05 0.01,0.05 0.01,0.03 0.01,0.02 0.01,0.02 v 0.03 l 0.01,0.02 v 0.02 l 0.01,0.03 v 0.02 l 0.01,0.02 v 0.02 0.02 0.01 c 0,0.36 -0.05,0.41 -1.19,0.41 h -34.39 c -1.14,0 -1.19,-0.05 -1.19,-0.41 0,-0.18 0.14,-0.54 0.25,-0.68 l 16.78,-33.64 c 0.36,-0.64 0.5,-0.94 1.35,-0.94 0.86,0 1,0.3 1.36,0.94 l 0.14,3.75 -13.7,27.39 h 27.35 l -13.65,-27.39 -0.14,-3.75 z"
           inkscape:connector-curvature="0"
           style="fill:#000000;stroke-width:0" /><path
           id="path4884"
           d="m 528.68,435 0.1,0.37 0.05,0.19 0.06,0.18 0.06,0.17 0.07,0.17 0.07,0.17 0.08,0.16 0.08,0.16 0.1,0.16 0.09,0.15 0.11,0.14 0.11,0.14 0.13,0.14 0.13,0.12 0.14,0.13 0.15,0.12 0.17,0.11 0.17,0.11 0.18,0.1 0.2,0.09 0.21,0.09 0.23,0.08 0.23,0.08 0.26,0.07 0.26,0.06 0.28,0.06 0.3,0.04 0.31,0.05 0.33,0.03 0.35,0.03 0.18,0.01 h 0.18 c 0.25,0 0.85,0.05 0.85,1 0,0.05 0,0.55 -0.64,0.55 -1.64,0 -3.39,-0.16 -5.08,-0.16 -1.7,0 -3.55,0.16 -5.19,0.16 -0.29,0 -0.89,0 -0.89,-1 0,-0.55 0.5,-0.55 0.89,-0.55 2.85,-0.04 3.39,-1.09 3.39,-2.18 0,-0.16 -0.11,-0.91 -0.15,-1.05 l -4.49,-17.8 c -1.69,-6.67 -7.42,-11 -12.4,-11 -3.38,0 -6.08,2.19 -6.08,6.47 0,0.11 0,1.7 0.54,3.89 l 4.85,19.38 c 0.44,1.79 0.55,2.29 4.19,2.29 1.28,0 1.68,0 1.68,1 0,0.55 -0.54,0.55 -0.7,0.55 -1.39,0 -4.98,-0.16 -6.37,-0.16 -1.44,0 -4.99,0.16 -6.43,0.16 -0.4,0 -0.95,0 -0.95,-1 0,-0.55 0.45,-0.55 1.41,-0.55 0.09,0 1.04,0 1.89,-0.09 0.89,-0.11 1.34,-0.16 1.34,-0.8 0,-0.31 -0.55,-2.39 -0.84,-3.54 l -1.11,-4.38 c -0.44,-1.95 -2.83,-11.36 -3.03,-12.31 -0.35,-1.39 -0.35,-2.14 -0.35,-2.89 0,-6.08 4.53,-9.56 9.77,-9.56 6.26,0 12.45,5.62 14.09,12.2 z"
           inkscape:connector-curvature="0"
           style="fill:#000000;stroke-width:0" /></g>    </g>
    <path
       style="fill:none;stroke:#0000ff;stroke-width:0.5;stroke-linecap:butt;stroke-linejoin:miter;stroke-miterlimit:4;stroke-dasharray:1, 0.5;stroke-dashoffset:0;stroke-opacity:1;marker-end:url(#marker5354)"
       d="M 103.07973,243.73174 62.337535,217.88297"
       id="path5350"
       inkscape:connector-curvature="0"
       sodipodi:nodetypes="cc" />
    <path
       style="fill:none;stroke:#0000ff;stroke-width:0.5;stroke-linecap:butt;stroke-linejoin:miter;stroke-miterlimit:4;stroke-dasharray:1, 0.5;stroke-dashoffset:0;stroke-opacity:1;marker-end:url(#marker5380)"
       d="M 25.1556,281.53206 35.846379,246.51975"
       id="path5376"
       inkscape:connector-curvature="0"
       sodipodi:nodetypes="cc" />
    <path
       style="fill:none;stroke:#0000ff;stroke-width:0.5;stroke-linecap:butt;stroke-linejoin:miter;stroke-miterlimit:4;stroke-dasharray:1, 0.5;stroke-dashoffset:0;stroke-opacity:1;marker-end:url(#marker5414)"
       d="M 86.36032,281.53206 50.546204,245.1834"
       id="path5410"
       inkscape:connector-curvature="0"
       sodipodi:nodetypes="cc" />
    <text
       xml:space="preserve"
       style="font-style:normal;font-weight:normal;font-size:11.28888893px;line-height:1.25;font-family:sans-serif;letter-spacing:0px;word-spacing:0px;fill:#000000;fill-opacity:1;stroke:none;stroke-width:0.26458332"
       x="40.168152"
       y="220.82143"
       id="text955"><tspan
         sodipodi:role="line"
         id="tspan953"
         x="40.168152"
         y="220.82143"
         style="font-size:7.05555534px;stroke-width:0.26458332">real</tspan></text>
    <text
       xml:space="preserve"
       style="font-style:normal;font-weight:normal;font-size:11.28888893px;line-height:1.25;font-family:sans-serif;letter-spacing:0px;word-spacing:0px;fill:#000000;fill-opacity:1;stroke:none;stroke-width:0.26458332"
       x="35.443451"
       y="266.55655"
       id="text959"><tspan
         sodipodi:role="line"
         id="tspan957"
         x="35.443451"
         y="266.55655"
         style="font-size:7.05555534px;stroke-width:0.26458332">not real</tspan></text>
    <g
       id="g1022"
       ns1:jacobian_sqrt="1.411112"
       inkscapeversion="0.92.4"
       ns1:alignment="middle center"
       ns1:scale="4.0"
       ns1:preamble="C:\\Users\\shawn\\AppData\\Roaming\\inkscape\\extensions\\textext\\default_packages.tex"
       ns1:text="$\\nabla$"
       ns1:pdfconverter="pdf2svg"
       ns1:texconverter="pdflatex"
       ns1:version="0.11.0"
       transform="matrix(1.411112,0,0,1.411112,-193.94427,101.53753)">
      <g
         id="surface1">
        <g
           id="g1019"
           style="fill:#000000;fill-opacity:1">
          <path
             id="path1017"
             transform="translate(148.712,134.765)"
             d="M 7.78125,-6.59375 C 7.796875,-6.625 7.828125,-6.6875 7.828125,-6.734375 7.828125,-6.796875 7.8125,-6.8125 7.59375,-6.8125 H 0.703125 c -0.21875,0 -0.234375,0.015625 -0.234375,0.078125 0,0.046875 0.03125,0.109375 0.046875,0.140625 L 3.875,0.140625 c 0.078125,0.125 0.109375,0.1875 0.265625,0.1875 0.171875,0 0.203125,-0.0625 0.28125,-0.1875 z m -6.078125,0.5 h 5.46875 l -2.71875,5.484375 z m 0,0"
             style="stroke:none;stroke-width:0"
             inkscape:connector-curvature="0" />
        </g>
      </g>
    </g>
  </g>
</svg>
