<?xml version="1.0" encoding="UTF-8" standalone="no"?>
<!-- Created with Inkscape (http://www.inkscape.org/) -->

<svg
   xmlns:dc="http://purl.org/dc/elements/1.1/"
   xmlns:cc="http://creativecommons.org/ns#"
   xmlns:rdf="http://www.w3.org/1999/02/22-rdf-syntax-ns#"
   xmlns:svg="http://www.w3.org/2000/svg"
   xmlns="http://www.w3.org/2000/svg"
   xmlns:sodipodi="http://sodipodi.sourceforge.net/DTD/sodipodi-0.dtd"
   xmlns:inkscape="http://www.inkscape.org/namespaces/inkscape"
   width="160mm"
   height="65mm"
   viewBox="0 0 160 65"
   version="1.1"
   id="svg8"
   inkscape:version="0.92.1 r15371"
   sodipodi:docname="oriented_paths.svg">
  <defs
     id="defs2" />
  <sodipodi:namedview
     id="base"
     pagecolor="#ffffff"
     bordercolor="#666666"
     borderopacity="1.0"
     inkscape:pageopacity="0.0"
     inkscape:pageshadow="2"
     inkscape:zoom="1.4"
     inkscape:cx="315.36057"
     inkscape:cy="113.67656"
     inkscape:document-units="mm"
     inkscape:current-layer="layer1"
     showgrid="true"
     inkscape:window-width="1366"
     inkscape:window-height="706"
     inkscape:window-x="-8"
     inkscape:window-y="-8"
     inkscape:window-maximized="1"
     inkscape:snap-global="false">
    <inkscape:grid
       type="xygrid"
       id="grid4491"
       units="mm"
       spacingx="1"
       spacingy="1" />
  </sodipodi:namedview>
  <metadata
     id="metadata5">
    <rdf:RDF>
      <cc:Work
         rdf:about="">
        <dc:format>image/svg+xml</dc:format>
        <dc:type
           rdf:resource="http://purl.org/dc/dcmitype/StillImage" />
        <dc:title></dc:title>
      </cc:Work>
    </rdf:RDF>
  </metadata>
  <g
     inkscape:label="Layer 1"
     inkscape:groupmode="layer"
     id="layer1"
     transform="translate(0,-232)">
    <g
       id="g_oriented_path_1"
       transform="translate(-4.2763124,1.0690781)">
      <path
         inkscape:connector-curvature="0"
         id="path4485"
         d="m 12.851191,280.18006 c 9.260416,7.37053 21.166666,6.80358 23.812499,-3.2128 2.645834,-10.01637 -6.236607,-9.07143 -6.614583,-18.89881 -0.377976,-9.82738 11.339285,-15.11905 17.764881,-12.28422"
         style="fill:none;stroke:#000000;stroke-width:1;stroke-linecap:butt;stroke-linejoin:miter;stroke-miterlimit:4;stroke-dasharray:none;stroke-opacity:1" />
      <path
         inkscape:connector-curvature="0"
         id="path4493-2"
         d="m 9.6316627,280.0652 5.9828663,2.05069 -3.555883,-5.23027 0.3763,2.80328 z"
         style="fill:#000000;fill-opacity:1;stroke:none;stroke-width:0.26458332px;stroke-linecap:butt;stroke-linejoin:miter;stroke-opacity:1" />
      <path
         inkscape:connector-curvature="0"
         id="path4493-6"
         d="m 33.483457,285.49004 2.209205,-5.92616 -5.323062,3.41541 2.812306,-0.30156 z"
         style="fill:#000000;fill-opacity:1;stroke:none;stroke-width:0.26458332px;stroke-linecap:butt;stroke-linejoin:miter;stroke-opacity:1" />
      <path
         inkscape:connector-curvature="0"
         id="path4493-8"
         d="m 33.294419,263.92461 -3.302042,-5.39412 -0.594838,6.29652 1.497239,-2.39964 z"
         style="fill:#000000;fill-opacity:1;stroke:none;stroke-width:0.26458332px;stroke-linecap:butt;stroke-linejoin:miter;stroke-opacity:1" />
      <path
         inkscape:connector-curvature="0"
         id="path4493-9"
         d="m 43.631581,246.72813 6.310605,-0.41985 -5.300391,-3.45049 1.430059,2.44028 z"
         style="fill:#000000;fill-opacity:1;stroke:none;stroke-width:0.26458332px;stroke-linecap:butt;stroke-linejoin:miter;stroke-opacity:1" />
    </g>
    <g
       id="g_oriented_path_2"
       transform="translate(-16.57071,5.3453906)">
      <path
         sodipodi:nodetypes="csssc"
         inkscape:connector-curvature="0"
         id="path4487"
         d="m 87.501488,282.8259 c -13.418156,-9.26042 -17.575895,-14.93007 -10.394346,-24.0015 7.181548,-9.07143 12.662201,-20.22172 6.047618,-23.43452 -6.614584,-3.2128 -14.930058,3.02381 -15.119046,8.69345 -0.186985,5.60954 13.796129,18.89881 24.568452,17.00893"
         style="fill:none;stroke:#000000;stroke-width:1;stroke-linecap:butt;stroke-linejoin:miter;stroke-miterlimit:4;stroke-dasharray:none;stroke-opacity:1" />
      <path
         inkscape:connector-curvature="0"
         id="path4493-23"
         d="m 91.269732,282.79472 -6.119781,-1.59632 3.93804,4.94892 -0.585431,-2.76717 z"
         style="fill:#000000;fill-opacity:1;stroke:none;stroke-width:0.26458332px;stroke-linecap:butt;stroke-linejoin:miter;stroke-opacity:1" />
      <path
         inkscape:connector-curvature="0"
         id="path4493-25"
         d="m 75.619371,269.89151 -1.708289,-6.08948 -2.287056,5.89656 2.094133,-1.90121 z"
         style="fill:#000000;fill-opacity:1;stroke:none;stroke-width:0.26458332px;stroke-linecap:butt;stroke-linejoin:miter;stroke-opacity:1" />
      <path
         inkscape:connector-curvature="0"
         id="path4493-61"
         d="m 86.93134,247.32093 -0.594497,-6.29655 -3.302334,5.39394 2.399722,-1.49711 z"
         style="fill:#000000;fill-opacity:1;stroke:none;stroke-width:0.26458332px;stroke-linecap:butt;stroke-linejoin:miter;stroke-opacity:1" />
      <path
         inkscape:connector-curvature="0"
         id="path4493-84"
         d="m 66.776042,247.90949 5.147155,3.67515 -1.912629,-6.02842 -0.440632,2.7939 z"
         style="fill:#000000;fill-opacity:1;stroke:none;stroke-width:0.26458332px;stroke-linecap:butt;stroke-linejoin:miter;stroke-opacity:1" />
      <path
         inkscape:connector-curvature="0"
         id="path4493-0"
         d="m 89.804685,263.27612 5.936456,-2.1814 -6.058003,-1.81676 2.05985,1.93831 z"
         style="fill:#000000;fill-opacity:1;stroke:none;stroke-width:0.26458332px;stroke-linecap:butt;stroke-linejoin:miter;stroke-opacity:1" />
    </g>
    <g
       id="g_oriented_path_3"
       transform="translate(-15.768902,0.53453906)">
      <path
         sodipodi:nodetypes="sssscss"
         inkscape:connector-curvature="0"
         id="path4489"
         d="m 116.98363,246.35119 c 11.35382,-1.25026 16.44196,12.85118 11.1503,15.87499 -5.29167,3.02381 -11.90626,3.59078 -12.09524,8.50448 -0.28733,7.47084 7.37053,8.12647 -0.37798,14.36309 -5.45523,4.3908 -13.60714,-6.99257 -13.22916,-14.36309 0.37797,-7.37054 -0.0805,-9.73993 4.34672,-17.38691 2.07887,-3.59078 4.05757,-6.31558 10.20536,-6.99256 z"
         style="fill:none;stroke:#000000;stroke-width:1;stroke-linecap:butt;stroke-linejoin:miter;stroke-miterlimit:4;stroke-dasharray:none;stroke-opacity:1" />
      <path
         inkscape:connector-curvature="0"
         id="path4493-7"
         d="m 108.09629,281.01306 -4.53084,-4.41266 0.97708,6.24863 0.85889,-2.69487 z"
         style="fill:#000000;fill-opacity:1;stroke:none;stroke-width:0.26458332px;stroke-linecap:butt;stroke-linejoin:miter;stroke-opacity:1" />
      <path
         inkscape:connector-curvature="0"
         id="path4493-80"
         d="m 106.61645,258.23701 0.96029,-6.25123 -4.51897,4.4248 2.69255,-0.86612 z"
         style="fill:#000000;fill-opacity:1;stroke:none;stroke-width:0.26458332px;stroke-linecap:butt;stroke-linejoin:miter;stroke-opacity:1" />
      <path
         inkscape:connector-curvature="0"
         id="path4493-1"
         d="m 123.92196,249.57883 5.29783,3.45442 -2.16561,-5.94223 -0.3222,2.81002 z"
         style="fill:#000000;fill-opacity:1;stroke:none;stroke-width:0.26458332px;stroke-linecap:butt;stroke-linejoin:miter;stroke-opacity:1" />
      <path
         inkscape:connector-curvature="0"
         id="path4493-3"
         d="m 124.84602,261.68448 -4.81848,4.09661 6.31275,-0.3862 -2.60234,-1.10807 z"
         style="fill:#000000;fill-opacity:1;stroke:none;stroke-width:0.26458332px;stroke-linecap:butt;stroke-linejoin:miter;stroke-opacity:1" />
      <path
         inkscape:connector-curvature="0"
         id="path4493-15"
         d="m 114.3163,274.41299 4.6172,4.3222 -1.10044,-6.22808 -0.80544,2.71132 z"
         style="fill:#000000;fill-opacity:1;stroke:none;stroke-width:0.26458332px;stroke-linecap:butt;stroke-linejoin:miter;stroke-opacity:1" />
    </g>
    <g
       id="g_oriented_path_4"
       transform="translate(-5.4806548,1.3229167)">
      <path
         sodipodi:nodetypes="sssssssssss"
         inkscape:connector-curvature="0"
         id="path4629"
         d="m 126.05505,270.16369 c -1.5119,-8.31549 0.94495,-17.19793 8.31548,-21.73364 8.36492,-5.14765 17.76488,-3.21279 21.35565,0 3.59078,3.2128 4.9137,6.04763 4.72471,10.01637 -0.29719,6.24098 -2.07887,9.82737 -8.31548,13.79612 -6.23661,3.96875 -10.39435,2.26788 -10.39435,-2.8348 0,-5.1027 2.07887,-8.31549 6.23661,-7.55954 4.15774,0.75596 9.28683,5.59944 12.09524,11.52828 1.7009,3.59077 -0.24388,8.62375 -2.83482,10.77231 -4.33997,3.59895 -16.25297,3.77977 -21.16667,1.7009 -4.91368,-2.07887 -8.62881,-8.05441 -10.01637,-15.686 z"
         style="fill:none;stroke:#000000;stroke-width:1;stroke-linecap:butt;stroke-linejoin:miter;stroke-miterlimit:4;stroke-dasharray:none;stroke-opacity:1" />
      <path
         inkscape:connector-curvature="0"
         id="path4493-06"
         d="m 160.51222,283.81579 0.25401,-6.31944 -3.99486,4.90317 2.57858,-1.1623 z"
         style="fill:#000000;fill-opacity:1;stroke:none;stroke-width:0.26458332px;stroke-linecap:butt;stroke-linejoin:miter;stroke-opacity:1" />
      <path
         inkscape:connector-curvature="0"
         id="path4493-03"
         d="m 140.26699,264.22427 1.33792,6.18142 2.63852,-5.74789 -2.20499,1.77145 z"
         style="fill:#000000;fill-opacity:1;stroke:none;stroke-width:0.26458332px;stroke-linecap:butt;stroke-linejoin:miter;stroke-opacity:1" />
      <path
         inkscape:connector-curvature="0"
         id="path4493-4"
         d="m 160.93261,251.16333 -5.54316,-3.04521 2.6074,5.76207 0.10945,-2.82631 z"
         style="fill:#000000;fill-opacity:1;stroke:none;stroke-width:0.26458332px;stroke-linecap:butt;stroke-linejoin:miter;stroke-opacity:1" />
      <path
         inkscape:connector-curvature="0"
         id="path4493-39"
         d="m 135.21748,245.41693 -3.63806,5.17344 6.01451,-1.95592 -2.79699,-0.42053 z"
         style="fill:#000000;fill-opacity:1;stroke:none;stroke-width:0.26458332px;stroke-linecap:butt;stroke-linejoin:miter;stroke-opacity:1" />
      <path
         inkscape:connector-curvature="0"
         id="path4493-95"
         d="m 126.66128,279.16223 5.08983,3.75415 -1.81937,-6.05722 -0.4837,2.78677 z"
         style="fill:#000000;fill-opacity:1;stroke:none;stroke-width:0.26458332px;stroke-linecap:butt;stroke-linejoin:miter;stroke-opacity:1" />
    </g>
  </g>
</svg>
