<?xml version="1.0" encoding="UTF-8" standalone="no"?>
<!-- Created with Inkscape (http://www.inkscape.org/) -->

<svg
   xmlns:ns1="http://www.iki.fi/pav/software/textext/"
   xmlns:dc="http://purl.org/dc/elements/1.1/"
   xmlns:cc="http://creativecommons.org/ns#"
   xmlns:rdf="http://www.w3.org/1999/02/22-rdf-syntax-ns#"
   xmlns:svg="http://www.w3.org/2000/svg"
   xmlns="http://www.w3.org/2000/svg"
   xmlns:sodipodi="http://sodipodi.sourceforge.net/DTD/sodipodi-0.dtd"
   xmlns:inkscape="http://www.inkscape.org/namespaces/inkscape"
   width="205mm"
   height="140mm"
   viewBox="0 0 205 140"
   version="1.1"
   id="svg8"
   inkscape:version="0.92.4 (5da689c313, 2019-01-14)"
   sodipodi:docname="bicycle_gears.svg">
  <defs
     id="defs2">
    <marker
       inkscape:stockid="Arrow1Mend"
       orient="auto"
       refY="0"
       refX="0"
       id="marker7959"
       style="overflow:visible"
       inkscape:isstock="true">
      <path
         id="path7957"
         d="M 0,0 5,-5 -12.5,0 5,5 Z"
         style="fill:#7f00ff;fill-opacity:1;fill-rule:evenodd;stroke:#7f00ff;stroke-width:1.00000003pt;stroke-opacity:1"
         transform="matrix(-0.4,0,0,-0.4,-4,0)"
         inkscape:connector-curvature="0" />
    </marker>
    <marker
       inkscape:stockid="Arrow1Mend"
       orient="auto"
       refY="0"
       refX="0"
       id="marker7728"
       style="overflow:visible"
       inkscape:isstock="true">
      <path
         id="path7726"
         d="M 0,0 5,-5 -12.5,0 5,5 Z"
         style="fill:#00ff00;fill-opacity:1;fill-rule:evenodd;stroke:#00ff00;stroke-width:1.00000003pt;stroke-opacity:1"
         transform="matrix(-0.4,0,0,-0.4,-4,0)"
         inkscape:connector-curvature="0" />
    </marker>
    <marker
       inkscape:stockid="Arrow1Send"
       orient="auto"
       refY="0"
       refX="0"
       id="marker7658"
       style="overflow:visible"
       inkscape:isstock="true">
      <path
         id="path7656"
         d="M 0,0 5,-5 -12.5,0 5,5 Z"
         style="fill:#000000;fill-opacity:1;fill-rule:evenodd;stroke:#000000;stroke-width:1.00000003pt;stroke-opacity:1"
         transform="matrix(-0.2,0,0,-0.2,-1.2,0)"
         inkscape:connector-curvature="0" />
    </marker>
    <marker
       inkscape:stockid="Arrow1Mend"
       orient="auto"
       refY="0"
       refX="0"
       id="marker7412"
       style="overflow:visible"
       inkscape:isstock="true">
      <path
         id="path7410"
         d="M 0,0 5,-5 -12.5,0 5,5 Z"
         style="fill:#7f00ff;fill-opacity:1;fill-rule:evenodd;stroke:#7f00ff;stroke-width:1.00000003pt;stroke-opacity:1"
         transform="matrix(-0.4,0,0,-0.4,-4,0)"
         inkscape:connector-curvature="0" />
    </marker>
    <inkscape:path-effect
       effect="skeletal"
       id="path-effect7342"
       is_visible="true"
       pattern="M 0.25,0.25 H 5.2500001 V 5.2500001 H 0.25 Z"
       copytype="repeated_stretched"
       prop_scale="0.5"
       scale_y_rel="false"
       spacing="1"
       normal_offset="0"
       tang_offset="0"
       prop_units="false"
       vertical_pattern="false"
       fuse_tolerance="0" />
    <inkscape:path-effect
       effect="skeletal"
       id="path-effect7274"
       is_visible="true"
       pattern="M 0,0 H 1"
       copytype="single_stretched"
       prop_scale="1"
       scale_y_rel="false"
       spacing="0"
       normal_offset="0"
       tang_offset="0"
       prop_units="false"
       vertical_pattern="false"
       fuse_tolerance="0" />
    <marker
       inkscape:stockid="Arrow1Send"
       orient="auto"
       refY="0"
       refX="0"
       id="marker6167"
       style="overflow:visible"
       inkscape:isstock="true">
      <path
         id="path6165"
         d="M 0,0 5,-5 -12.5,0 5,5 Z"
         style="fill:#0000ff;fill-opacity:1;fill-rule:evenodd;stroke:#0000ff;stroke-width:1.00000003pt;stroke-opacity:1"
         transform="matrix(-0.2,0,0,-0.2,-1.2,0)"
         inkscape:connector-curvature="0" />
    </marker>
    <marker
       inkscape:stockid="Arrow1Mend"
       orient="auto"
       refY="0"
       refX="0"
       id="marker5801"
       style="overflow:visible"
       inkscape:isstock="true">
      <path
         id="path5799"
         d="M 0,0 5,-5 -12.5,0 5,5 Z"
         style="fill:#00ff00;fill-opacity:1;fill-rule:evenodd;stroke:#00ff00;stroke-width:1.00000003pt;stroke-opacity:1"
         transform="matrix(-0.4,0,0,-0.4,-4,0)"
         inkscape:connector-curvature="0" />
    </marker>
    <inkscape:path-effect
       effect="skeletal"
       id="path-effect5790"
       is_visible="true"
       pattern="M 0,3.1250102 H 3.0000001 V 0.12501 H 6.0000002 V 3.1250102 L 9,3.1250001 V 0.125 h 3 v 3.0000001 h 3 V 0.125 h 3 v 3.0000001 h 3 V 0.125 h 3 v 3.0000001 h 3.000002 V 0.125 h 2.999999 V 3.1250001 H 33 V 0.125 h 2.999999 v 3.0000001"
       copytype="single_stretched"
       prop_scale="0.75855318"
       scale_y_rel="false"
       spacing="0"
       normal_offset="0"
       tang_offset="0"
       prop_units="false"
       vertical_pattern="false"
       fuse_tolerance="0" />
    <marker
       inkscape:stockid="Arrow1Send"
       orient="auto"
       refY="0"
       refX="0"
       id="marker5633"
       style="overflow:visible"
       inkscape:isstock="true">
      <path
         id="path5631"
         d="M 0,0 5,-5 -12.5,0 5,5 Z"
         style="fill:#0000ff;fill-opacity:1;fill-rule:evenodd;stroke:#0000ff;stroke-width:1.00000003pt;stroke-opacity:1"
         transform="matrix(-0.2,0,0,-0.2,-1.2,0)"
         inkscape:connector-curvature="0" />
    </marker>
    <marker
       inkscape:stockid="Arrow1Mend"
       orient="auto"
       refY="0"
       refX="0"
       id="marker5041"
       style="overflow:visible"
       inkscape:isstock="true">
      <path
         id="path5039"
         d="M 0,0 5,-5 -12.5,0 5,5 Z"
         style="fill:#0000ff;fill-opacity:1;fill-rule:evenodd;stroke:#0000ff;stroke-width:1.00000003pt;stroke-opacity:1"
         transform="matrix(-0.4,0,0,-0.4,-4,0)"
         inkscape:connector-curvature="0" />
    </marker>
    <marker
       inkscape:stockid="Arrow1Mend"
       orient="auto"
       refY="0"
       refX="0"
       id="marker4983"
       style="overflow:visible"
       inkscape:isstock="true">
      <path
         id="path4981"
         d="M 0,0 5,-5 -12.5,0 5,5 Z"
         style="fill:#0000ff;fill-opacity:1;fill-rule:evenodd;stroke:#0000ff;stroke-width:1.00000003pt;stroke-opacity:1"
         transform="matrix(-0.4,0,0,-0.4,-4,0)"
         inkscape:connector-curvature="0" />
    </marker>
    <marker
       inkscape:stockid="Arrow1Mend"
       orient="auto"
       refY="0"
       refX="0"
       id="Arrow1Mend"
       style="overflow:visible"
       inkscape:isstock="true">
      <path
         id="path4603"
         d="M 0,0 5,-5 -12.5,0 5,5 Z"
         style="fill:#00ff00;fill-opacity:1;fill-rule:evenodd;stroke:#00ff00;stroke-width:1.00000003pt;stroke-opacity:1"
         transform="matrix(-0.4,0,0,-0.4,-4,0)"
         inkscape:connector-curvature="0" />
    </marker>
    <marker
       inkscape:stockid="Arrow1Send"
       orient="auto"
       refY="0"
       refX="0"
       id="Arrow1Send"
       style="overflow:visible"
       inkscape:isstock="true">
      <path
         id="path4609"
         d="M 0,0 5,-5 -12.5,0 5,5 Z"
         style="fill:#00ff00;fill-opacity:1;fill-rule:evenodd;stroke:#00ff00;stroke-width:1.00000003pt;stroke-opacity:1"
         transform="matrix(-0.2,0,0,-0.2,-1.2,0)"
         inkscape:connector-curvature="0" />
    </marker>
    <inkscape:path-effect
       effect="skeletal"
       id="path-effect4585"
       is_visible="true"
       pattern="M 0,0 H 1"
       copytype="single_stretched"
       prop_scale="1"
       scale_y_rel="false"
       spacing="0"
       normal_offset="0"
       tang_offset="0"
       prop_units="false"
       vertical_pattern="false"
       fuse_tolerance="0" />
    <inkscape:path-effect
       effect="skeletal"
       id="path-effect4565"
       is_visible="true"
       pattern="M 0,3.1250102 H 3.0000001 V 0.12501 H 6.0000002 V 3.1250102 L 9,3.1250001 V 0.125 h 3 v 3.0000001 h 3 V 0.125 h 3 v 3.0000001 h 3 V 0.125 h 3 v 3.0000001 h 3.000002 V 0.125 h 2.999999 V 3.1250001 H 33 V 0.125 h 2.999999 v 3.0000001"
       copytype="repeated_stretched"
       prop_scale="0.6666644"
       scale_y_rel="false"
       spacing="0"
       normal_offset="0"
       tang_offset="0"
       prop_units="false"
       vertical_pattern="false"
       fuse_tolerance="0" />
    <inkscape:path-effect
       effect="skeletal"
       id="path-effect823"
       is_visible="true"
       pattern="M 0,0 H 1"
       copytype="single_stretched"
       prop_scale="-1000000"
       scale_y_rel="false"
       spacing="0"
       normal_offset="0"
       tang_offset="0"
       prop_units="false"
       vertical_pattern="false"
       fuse_tolerance="0" />
  </defs>
  <sodipodi:namedview
     id="base"
     pagecolor="#ffffff"
     bordercolor="#666666"
     borderopacity="1.0"
     inkscape:pageopacity="0.0"
     inkscape:pageshadow="2"
     inkscape:zoom="0.98994949"
     inkscape:cx="583.97115"
     inkscape:cy="350.42653"
     inkscape:document-units="mm"
     inkscape:current-layer="layer1"
     showgrid="true"
     inkscape:window-width="1920"
     inkscape:window-height="1017"
     inkscape:window-x="-8"
     inkscape:window-y="-8"
     inkscape:window-maximized="1"
     inkscape:snap-global="false"
     inkscape:snap-object-midpoints="true">
    <inkscape:grid
       type="xygrid"
       id="grid815"
       units="mm"
       spacingx="1"
       spacingy="1" />
  </sodipodi:namedview>
  <metadata
     id="metadata5">
    <rdf:RDF>
      <cc:Work
         rdf:about="">
        <dc:format>image/svg+xml</dc:format>
        <dc:type
           rdf:resource="http://purl.org/dc/dcmitype/StillImage" />
        <dc:title></dc:title>
      </cc:Work>
    </rdf:RDF>
  </metadata>
  <g
     inkscape:label="Layer 1"
     inkscape:groupmode="layer"
     id="layer1"
     transform="translate(0,-157)">
    <g
       id="g7652"
       transform="translate(-150,-4.9999984)">
      <path
         inkscape:connector-curvature="0"
         id="path7588"
         d="m 290,236.99999 h 60"
         style="fill:none;stroke:#000000;stroke-width:1;stroke-linecap:butt;stroke-linejoin:miter;stroke-miterlimit:4;stroke-dasharray:none;stroke-opacity:1" />
      <path
         inkscape:connector-curvature="0"
         id="path7588-6"
         d="m 290,236.99999 v -60"
         style="fill:none;stroke:#000000;stroke-width:1;stroke-linecap:butt;stroke-linejoin:miter;stroke-miterlimit:4;stroke-dasharray:none;stroke-opacity:1" />
      <path
         inkscape:connector-curvature="0"
         id="path7588-0"
         d="M 290,236.99999 H 230"
         style="fill:none;stroke:#000000;stroke-width:1;stroke-linecap:butt;stroke-linejoin:miter;stroke-miterlimit:4;stroke-dasharray:none;stroke-opacity:1" />
      <path
         inkscape:connector-curvature="0"
         id="path7588-66"
         d="m 290,236.99999 v 60"
         style="fill:none;stroke:#000000;stroke-width:1;stroke-linecap:butt;stroke-linejoin:miter;stroke-miterlimit:4;stroke-dasharray:none;stroke-opacity:1" />
      <path
         inkscape:connector-curvature="0"
         id="path7588-5"
         d="m 290,236.99999 42.42641,-42.42641"
         style="fill:none;stroke:#000000;stroke-width:1;stroke-linecap:butt;stroke-linejoin:miter;stroke-miterlimit:4;stroke-dasharray:none;stroke-opacity:1" />
      <path
         inkscape:connector-curvature="0"
         id="path7588-7"
         d="M 290,236.99999 247.57359,194.57358"
         style="fill:none;stroke:#000000;stroke-width:1;stroke-linecap:butt;stroke-linejoin:miter;stroke-miterlimit:4;stroke-dasharray:none;stroke-opacity:1" />
      <path
         inkscape:connector-curvature="0"
         id="path7588-71"
         d="M 290,236.99999 247.57359,279.4264"
         style="fill:none;stroke:#000000;stroke-width:1;stroke-linecap:butt;stroke-linejoin:miter;stroke-miterlimit:4;stroke-dasharray:none;stroke-opacity:1" />
      <path
         inkscape:connector-curvature="0"
         id="path7588-50"
         d="m 290,236.99999 42.42641,42.42641"
         style="fill:none;stroke:#000000;stroke-width:1;stroke-linecap:butt;stroke-linejoin:miter;stroke-miterlimit:4;stroke-dasharray:none;stroke-opacity:1" />
      <circle
         r="60"
         cy="236.99998"
         cx="290"
         id="path7641"
         style="fill:none;fill-opacity:1;stroke:#000000;stroke-width:2;stroke-miterlimit:4;stroke-dasharray:none;stroke-dashoffset:0;stroke-opacity:1" />
    </g>
    <path
       style="fill:#c8c8c8;fill-opacity:1;stroke:none;stroke-width:0.5;stroke-miterlimit:4;stroke-dasharray:none;stroke-dashoffset:0;stroke-opacity:1"
       d="m 74,236.99999 c 0.0052,1.19961 -0.177296,2.39655 -0.518375,3.55532 l 1.914228,0.5605 c -0.387854,1.33068 -0.952477,2.60827 -1.664754,3.7973 l -1.719343,-1.03145 c -0.6229,1.03661 -1.372718,2.00103 -2.221194,2.85883 -0.0085,0.009 -0.01703,0.0171 -0.02557,0.0256 l 1.415515,1.41309 c -0.975602,0.98054 -2.075733,1.84123 -3.264637,2.55362 l -1.031337,-1.71869 c -1.046259,0.62885 -2.166707,1.12774 -3.325587,1.46821 l 0.559651,1.91433 c -1.330693,0.38735 -2.714402,0.59795 -4.115373,0.60336 l -4.58e-4,-1.99997 c -9.23e-4,-1e-5 -0.0018,-1e-5 -0.0028,-1e-5 -1.200908,0.004 -2.400007,-0.17408 -3.560865,-0.50918 l -0.551226,1.91768 c -1.33219,-0.38151 -2.612626,-0.93863 -3.804794,-1.6451 l 1.022182,-1.72303 c -1.048636,-0.62288 -2.022456,-1.37639 -2.884943,-2.23429 l -1.412417,1.41607 c -0.005,-0.005 -0.01003,-0.01 -0.01505,-0.0151 -0.975179,-0.97282 -1.828638,-2.06934 -2.534533,-3.25359 l 1.720456,-1.02659 c -0.625546,-1.0471 -1.120724,-2.16938 -1.459288,-3.33035 l -1.916256,0.55646 c -0.385111,-1.33112 -0.59489,-2.71437 -0.603093,-4.11324 l 1.999739,-0.006 c 1.5e-5,-0.0114 4e-5,-0.0228 8.2e-5,-0.0342 -0.0059,-1.1864 0.176143,-2.36934 0.515594,-3.51508 l -1.91239,-0.56325 c 0.389803,-1.33035 0.95786,-2.60672 1.672831,-3.79442 l 1.717716,1.03596 c 0.632288,-1.04619 1.393701,-2.01977 2.2529,-2.88604 l -1.416302,-1.41227 c 0.0058,-0.006 0.01153,-0.0115 0.0173,-0.0172 0.968438,-0.97306 2.059009,-1.83208 3.237619,-2.54627 l 1.040956,1.71478 c 1.044475,-0.63533 2.161971,-1.1419 3.317786,-1.48838 l -0.569385,-1.91072 c 1.32907,-0.394 2.712524,-0.61012 4.115658,-0.61702 l 0.0014,1.99992 c 0.0028,1e-5 0.0055,2e-5 0.0083,3e-5 1.199968,-0.004 2.398491,0.17233 3.559096,0.50407 l 0.546484,-1.91945 c 1.332952,0.3782 2.614861,0.93129 3.808999,1.63403 l -1.016626,1.72588 c 1.050375,0.61939 2.025928,1.36959 2.889934,2.22534 l 1.409072,-1.41936 c 0.0027,0.003 0.0054,0.005 0.0081,0.008 0.980859,0.9729 1.838396,2.07135 2.546569,3.25861 l -1.719956,1.02698 c 0.625467,1.04628 1.119736,2.16839 1.45655,3.3293 l 1.916942,-0.55387 c 0.383488,1.33207 0.590531,2.7164 0.594873,4.11594 l -1.999993,-10e-6"
       id="path817"
       inkscape:path-effect="#path-effect4565"
       inkscape:original-d="M 75,236.99999 C 75,244.85397 68,252.00003 60,252 52,251.99999 45,244.99999 45,236.99999 45,229.14601 52.146016,222 59.999995,222 68,221.99999 75,228.93543 75,236.93543"
       inkscape:connector-curvature="0"
       sodipodi:nodetypes="ccccc"
       transform="matrix(1.33333,0,0,1.33333,-49.99983,-83.999213)" />
    <path
       style="fill:none;stroke:#000000;stroke-width:0.25;stroke-linecap:butt;stroke-linejoin:miter;stroke-miterlimit:4;stroke-dasharray:none;stroke-opacity:1"
       d="m 10,192 h 3 v -3 h 3 v 3 l 3,-1e-5 v -3 h 3 v 3 h 3 v -3 h 3 v 3 h 3 v -3 h 3 v 3 h 3 v -3 h 3 v 3 h 3 v -3 h 3 v 3"
       id="path819"
       inkscape:connector-curvature="0" />
    <g
       id="g4925"
       ns1:jacobian_sqrt="0.705556"
       inkscapeversion="0.92.4"
       ns1:alignment="middle center"
       ns1:scale="1.99999997165"
       ns1:preamble="C:\\Users\\shawn\\AppData\\Roaming\\inkscape\\extensions\\textext\\default_packages.tex"
       ns1:text="$r_F$"
       ns1:pdfconverter="pdf2svg"
       ns1:texconverter="pdflatex"
       ns1:version="0.11.0"
       transform="matrix(0.705556,0,0,0.705556,-75.221961,131.84193)"
       style="fill:#007f00;fill-opacity:1">
      <g
         id="surface1"
         style="fill:#007f00;fill-opacity:1">
        <g
           id="g4918"
           style="fill:#007f00;fill-opacity:1">
          <path
             id="path4916"
             transform="translate(148.712,134.765)"
             d="m 0.875,-0.59375 c -0.03125,0.15625 -0.09375,0.390625 -0.09375,0.4375 0,0.171875 0.140625,0.265625 0.296875,0.265625 0.125,0 0.296875,-0.078125 0.375,-0.28125 C 1.46875,-0.203125 1.796875,-1.5625 1.84375,-1.75 c 0.078125,-0.328125 0.265625,-1.015625 0.3125,-1.296875 0.046875,-0.125 0.328125,-0.59375 0.5625,-0.8125 0.078125,-0.0625 0.375,-0.328125 0.796875,-0.328125 0.265625,0 0.40625,0.125 0.421875,0.125 -0.296875,0.046875 -0.515625,0.28125 -0.515625,0.546875 0,0.15625 0.109375,0.34375 0.375,0.34375 0.265625,0 0.546875,-0.234375 0.546875,-0.59375 0,-0.34375 -0.3125,-0.640625 -0.828125,-0.640625 C 2.875,-4.40625 2.4375,-3.921875 2.25,-3.640625 2.15625,-4.09375 1.796875,-4.40625 1.328125,-4.40625 0.875,-4.40625 0.6875,-4.015625 0.59375,-3.84375 0.421875,-3.5 0.296875,-2.90625 0.296875,-2.875 c 0,0.109375 0.09375,0.109375 0.109375,0.109375 0.109375,0 0.109375,-0.015625 0.171875,-0.234375 0.171875,-0.703125 0.375,-1.1875 0.734375,-1.1875 0.15625,0 0.296875,0.078125 0.296875,0.453125 0,0.21875 -0.03125,0.328125 -0.15625,0.84375 z m 0,0"
             style="fill:#007f00;fill-opacity:1;stroke:none;stroke-width:0"
             inkscape:connector-curvature="0" />
        </g>
        <g
           id="g4922"
           style="fill:#007f00;fill-opacity:1">
          <path
             id="path4920"
             transform="translate(153.207,136.259)"
             d="M 2.390625,-2.25 H 3.125 c 0.53125,0 0.625,0.09375 0.625,0.3125 0,0.109375 0,0.125 -0.046875,0.328125 -0.015625,0.03125 -0.03125,0.0625 -0.03125,0.078125 0,0.0625 0.0625,0.109375 0.125,0.109375 0.09375,0 0.09375,-0.046875 0.140625,-0.171875 l 0.375,-1.46875 c 0,-0.03125 0.015625,-0.125 0.015625,-0.140625 0,-0.078125 -0.046875,-0.109375 -0.109375,-0.109375 -0.09375,0 -0.109375,0.046875 -0.140625,0.171875 C 3.9375,-2.59375 3.734375,-2.5 3.140625,-2.5 h -0.6875 l 0.4375,-1.75 c 0.046875,-0.203125 0.0625,-0.234375 0.34375,-0.234375 H 4.3125 c 0.921875,0 1.09375,0.21875 1.09375,0.8125 0,0.21875 -0.03125,0.375 -0.03125,0.421875 0,0.0625 0.03125,0.125 0.125,0.125 0.109375,0 0.109375,-0.0625 0.125,-0.1875 L 5.75,-4.515625 c 0.015625,-0.21875 -0.03125,-0.21875 -0.203125,-0.21875 h -3.71875 c -0.140625,0 -0.21875,0 -0.21875,0.15625 0,0.09375 0.078125,0.09375 0.21875,0.09375 0,0 0.140625,0 0.265625,0.015625 C 2.234375,-4.453125 2.25,-4.4375 2.25,-4.375 c 0,0.046875 -0.015625,0.125 -0.03125,0.15625 L 1.3125,-0.578125 C 1.234375,-0.296875 1.234375,-0.25 0.6875,-0.25 c -0.109375,0 -0.203125,0 -0.203125,0.140625 C 0.484375,-0.03125 0.53125,0 0.59375,0 0.796875,0 1.3125,-0.03125 1.515625,-0.03125 l 0.53125,0.015625 C 2.234375,-0.015625 2.421875,0 2.59375,0 2.640625,0 2.75,0 2.75,-0.15625 2.75,-0.25 2.671875,-0.25 2.515625,-0.25 c -0.015625,0 -0.1875,0 -0.375,-0.015625 C 2,-0.28125 1.9375,-0.28125 1.9375,-0.390625 c 0,-0.015625 0,-0.046875 0.015625,-0.125 z m 0,0"
             style="fill:#007f00;fill-opacity:1;stroke:none;stroke-width:0"
             inkscape:connector-curvature="0" />
        </g>
      </g>
    </g>
    <path
       style="fill:none;fill-opacity:1;stroke:#0000ff;stroke-width:0.5;stroke-miterlimit:4;stroke-dasharray:none;stroke-dashoffset:0;stroke-opacity:1;marker-end:url(#marker5633)"
       id="path4979"
       transform="scale(1,-1)"
       sodipodi:type="arc"
       sodipodi:cx="30"
       sodipodi:cy="-231.99997"
       sodipodi:rx="5"
       sodipodi:ry="5"
       sodipodi:start="2.6030332"
       sodipodi:end="4.7095217"
       sodipodi:open="true"
       d="m 25.707758,-229.43547 a 5,5 0 0 1 -0.06,-5.0258 5,5 0 0 1 4.337904,-2.53868" />
    <g
       id="g5768"
       style="fill:#0000ff;fill-opacity:1"
       ns1:jacobian_sqrt="0.529167"
       inkscapeversion="0.92.4"
       ns1:alignment="middle center"
       ns1:scale="1.5"
       ns1:preamble="C:\\Users\\shawn\\AppData\\Roaming\\inkscape\\extensions\\textext\\default_packages.tex"
       ns1:text="$\\omega_F$"
       ns1:pdfconverter="pdf2svg"
       ns1:texconverter="pdflatex"
       ns1:version="0.11.0"
       transform="matrix(0.529167,0,0,0.529167,-59.942605,165.29896)">
      <g
         style="fill:#0000ff;fill-opacity:1"
         id="g5766">
        <g
           id="g5760"
           style="fill:#0000ff;fill-opacity:1">
          <path
             id="path5758"
             transform="translate(148.712,134.765)"
             d="m 6.03125,-3.703125 c 0,-0.453125 -0.171875,-0.703125 -0.40625,-0.703125 -0.25,0 -0.515625,0.234375 -0.515625,0.46875 0,0.09375 0.046875,0.203125 0.140625,0.296875 0.171875,0.15625 0.359375,0.421875 0.359375,0.84375 0,0.390625 -0.203125,0.96875 -0.5,1.421875 C 4.8125,-0.953125 4.4375,-0.609375 3.96875,-0.609375 3.40625,-0.609375 3.09375,-0.96875 3,-1.5 c 0.109375,-0.265625 0.34375,-0.90625 0.34375,-1.1875 0,-0.109375 -0.046875,-0.21875 -0.1875,-0.21875 -0.078125,0 -0.1875,0.03125 -0.265625,0.171875 C 2.78125,-2.53125 2.65625,-1.890625 2.65625,-1.53125 2.328125,-1.0625 1.9375,-0.609375 1.3125,-0.609375 c -0.671875,0 -0.875,-0.59375 -0.875,-1.140625 0,-1.25 1.015625,-2.296875 1.015625,-2.421875 0,-0.109375 -0.078125,-0.1875 -0.1875,-0.1875 -0.125,0 -0.203125,0.125 -0.265625,0.21875 -0.5,0.734375 -0.875,1.921875 -0.875,2.828125 0,0.6875 0.21875,1.421875 1.046875,1.421875 0.703125,0 1.171875,-0.5 1.53125,-1.046875 0.09375,0.578125 0.484375,1.046875 1.09375,1.046875 0.78125,0 1.25,-0.609375 1.609375,-1.359375 0.25,-0.484375 0.625,-1.84375 0.625,-2.453125 z m 0,0"
             style="fill:#0000ff;fill-opacity:1;stroke:none;stroke-width:0"
             inkscape:connector-curvature="0" />
        </g>
        <g
           id="g5764"
           style="fill:#0000ff;fill-opacity:1">
          <path
             id="path5762"
             transform="translate(154.914,136.259)"
             d="M 2.390625,-2.25 H 3.125 c 0.53125,0 0.625,0.09375 0.625,0.3125 0,0.109375 0,0.125 -0.046875,0.328125 -0.015625,0.03125 -0.03125,0.0625 -0.03125,0.078125 0,0.0625 0.0625,0.109375 0.125,0.109375 0.09375,0 0.09375,-0.046875 0.140625,-0.171875 l 0.375,-1.46875 c 0,-0.03125 0.015625,-0.125 0.015625,-0.140625 0,-0.078125 -0.046875,-0.109375 -0.109375,-0.109375 -0.09375,0 -0.109375,0.046875 -0.140625,0.171875 C 3.9375,-2.59375 3.734375,-2.5 3.140625,-2.5 h -0.6875 l 0.4375,-1.75 c 0.046875,-0.203125 0.0625,-0.234375 0.34375,-0.234375 H 4.3125 c 0.921875,0 1.09375,0.21875 1.09375,0.8125 0,0.21875 -0.03125,0.375 -0.03125,0.421875 0,0.0625 0.03125,0.125 0.125,0.125 0.109375,0 0.109375,-0.0625 0.125,-0.1875 L 5.75,-4.515625 c 0.015625,-0.21875 -0.03125,-0.21875 -0.203125,-0.21875 h -3.71875 c -0.140625,0 -0.21875,0 -0.21875,0.15625 0,0.09375 0.078125,0.09375 0.21875,0.09375 0,0 0.140625,0 0.265625,0.015625 C 2.234375,-4.453125 2.25,-4.4375 2.25,-4.375 c 0,0.046875 -0.015625,0.125 -0.03125,0.15625 L 1.3125,-0.578125 C 1.234375,-0.296875 1.234375,-0.25 0.6875,-0.25 c -0.109375,0 -0.203125,0 -0.203125,0.140625 C 0.484375,-0.03125 0.53125,0 0.59375,0 0.796875,0 1.3125,-0.03125 1.515625,-0.03125 l 0.53125,0.015625 C 2.234375,-0.015625 2.421875,0 2.59375,0 2.640625,0 2.75,0 2.75,-0.15625 2.75,-0.25 2.671875,-0.25 2.515625,-0.25 c -0.015625,0 -0.1875,0 -0.375,-0.015625 C 2,-0.28125 1.9375,-0.28125 1.9375,-0.390625 c 0,-0.015625 0,-0.046875 0.015625,-0.125 z m 0,0"
             style="fill:#0000ff;fill-opacity:1;stroke:none;stroke-width:0"
             inkscape:connector-curvature="0" />
        </g>
      </g>
    </g>
    <path
       style="fill:#c8c8c8;fill-opacity:1;stroke:none;stroke-width:0.5;stroke-miterlimit:4;stroke-dasharray:none;stroke-dashoffset:0;stroke-opacity:1"
       id="path5779"
       inkscape:path-effect="#path-effect5790"
       sodipodi:type="arc"
       sodipodi:cx="170"
       sodipodi:cy="236.99998"
       sodipodi:rx="10"
       sodipodi:ry="10"
       d="m 178.86217,236.99998 c 0.0228,1.51528 -0.44921,3.01265 -1.25703,4.33316 l 1.93164,1.17309 c -0.99159,1.64245 -2.38809,3.03895 -4.03054,4.03053 l -1.17309,-1.93164 c -1.32051,0.80783 -2.81788,1.27983 -4.33315,1.25704 0,0 0,0 0,-10e-6 v 2.27566 c -1.9754,-0.0228 -3.8638,-0.60946 -5.50625,-1.60105 l 1.17309,-1.93164 c -1.32052,-0.80782 -2.46417,-1.95147 -3.27199,-3.27199 l -1.93164,1.17309 c -0.99158,-1.64245 -1.57825,-3.53085 -1.60104,-5.50624 l 1e-5,0 h 2.27565 c -0.0228,-1.51528 0.44921,-3.01265 1.25703,-4.33316 l -1.93163,-1.17309 c 0.99158,-1.64245 2.38809,-3.03895 4.03054,-4.03054 l 1.17309,1.93164 c 1.32051,-0.80782 2.81787,-1.27981 4.33314,-1.25702 1e-5,0 1e-5,0 2e-5,0 l 1e-5,-2.27566 c 1.97539,0.0228 3.86379,0.60947 5.50624,1.60107 l -1.17309,1.93163 c 1.32051,0.80783 2.46415,1.95148 3.27197,3.272 l 1.93165,-1.17309 c 0.99158,1.64246 1.57825,3.53086 1.60103,5.50625 l -2.27566,0"
       transform="translate(-30,-5)" />
    <path
       style="fill:none;fill-opacity:1;stroke:#0000ff;stroke-width:0.5;stroke-miterlimit:4;stroke-dasharray:none;stroke-dashoffset:0;stroke-opacity:1;marker-end:url(#marker6167)"
       id="path6163"
       transform="scale(1,-1)"
       sodipodi:type="arc"
       sodipodi:cx="140"
       sodipodi:cy="-231.99997"
       sodipodi:rx="5"
       sodipodi:ry="5"
       sodipodi:start="1.204771"
       sodipodi:end="4.5619268"
       sodipodi:open="true"
       d="m 141.78953,-227.33118 a 5,5 0 0 1 -5.20878,-1.02068 5,5 0 0 1 -1.35553,-5.13183 5,5 0 0 1 4.0253,-3.45979" />
    <g
       id="g7188"
       style="fill:#007f00;fill-opacity:1"
       ns1:jacobian_sqrt="0.529167"
       inkscapeversion="0.92.4"
       ns1:alignment="middle center"
       ns1:scale="1.5"
       ns1:preamble="C:\\Users\\shawn\\AppData\\Roaming\\inkscape\\extensions\\textext\\default_packages.tex"
       ns1:text="$r_B$"
       ns1:pdfconverter="pdf2svg"
       ns1:texconverter="pdflatex"
       ns1:version="0.11.0"
       transform="matrix(0.529167,0,0,0.529167,64.09272,162.79168)">
      <g
         style="fill:#007f00;fill-opacity:1"
         id="g7186">
        <g
           id="g7180"
           style="fill:#007f00;fill-opacity:1">
          <path
             id="path7178"
             transform="translate(148.712,134.765)"
             d="m 0.875,-0.59375 c -0.03125,0.15625 -0.09375,0.390625 -0.09375,0.4375 0,0.171875 0.140625,0.265625 0.296875,0.265625 0.125,0 0.296875,-0.078125 0.375,-0.28125 C 1.46875,-0.203125 1.796875,-1.5625 1.84375,-1.75 c 0.078125,-0.328125 0.265625,-1.015625 0.3125,-1.296875 0.046875,-0.125 0.328125,-0.59375 0.5625,-0.8125 0.078125,-0.0625 0.375,-0.328125 0.796875,-0.328125 0.265625,0 0.40625,0.125 0.421875,0.125 -0.296875,0.046875 -0.515625,0.28125 -0.515625,0.546875 0,0.15625 0.109375,0.34375 0.375,0.34375 0.265625,0 0.546875,-0.234375 0.546875,-0.59375 0,-0.34375 -0.3125,-0.640625 -0.828125,-0.640625 C 2.875,-4.40625 2.4375,-3.921875 2.25,-3.640625 2.15625,-4.09375 1.796875,-4.40625 1.328125,-4.40625 0.875,-4.40625 0.6875,-4.015625 0.59375,-3.84375 0.421875,-3.5 0.296875,-2.90625 0.296875,-2.875 c 0,0.109375 0.09375,0.109375 0.109375,0.109375 0.109375,0 0.109375,-0.015625 0.171875,-0.234375 0.171875,-0.703125 0.375,-1.1875 0.734375,-1.1875 0.15625,0 0.296875,0.078125 0.296875,0.453125 0,0.21875 -0.03125,0.328125 -0.15625,0.84375 z m 0,0"
             style="fill:#007f00;fill-opacity:1;stroke:none;stroke-width:0"
             inkscape:connector-curvature="0" />
        </g>
        <g
           id="g7184"
           style="fill:#007f00;fill-opacity:1">
          <path
             id="path7182"
             transform="translate(153.207,136.259)"
             d="M 1.328125,-0.546875 C 1.265625,-0.3125 1.25,-0.25 0.703125,-0.25 0.59375,-0.25 0.5,-0.25 0.5,-0.109375 0.5,0 0.578125,0 0.703125,0 H 3.40625 c 1.171875,0 2.078125,-0.796875 2.078125,-1.484375 0,-0.5 -0.453125,-0.921875 -1.203125,-1 0.84375,-0.15625 1.546875,-0.6875 1.546875,-1.28125 0,-0.53125 -0.53125,-1 -1.4375,-1 h -2.53125 c -0.140625,0 -0.234375,0 -0.234375,0.15625 0,0.09375 0.09375,0.09375 0.234375,0.09375 0,0 0.140625,0 0.265625,0.015625 0.140625,0.015625 0.15625,0.03125 0.15625,0.109375 0,0 0,0.046875 -0.03125,0.140625 z m 1.109375,-2.03125 0.421875,-1.6875 c 0.0625,-0.21875 0.0625,-0.25 0.359375,-0.25 h 1.0625 c 0.703125,0 0.875,0.46875 0.875,0.734375 0,0.5625 -0.640625,1.203125 -1.578125,1.203125 z M 2.109375,-0.25 C 1.890625,-0.25 1.875,-0.265625 1.875,-0.328125 c 0,0 0,-0.03125 0.03125,-0.140625 L 2.390625,-2.375 H 3.875 c 0.640625,0 0.90625,0.4375 0.90625,0.828125 0,0.703125 -0.71875,1.296875 -1.5625,1.296875 z m 0,0"
             style="fill:#007f00;fill-opacity:1;stroke:none;stroke-width:0"
             inkscape:connector-curvature="0" />
        </g>
      </g>
    </g>
    <g
       id="g7259"
       style="fill:#0000ff;fill-opacity:1"
       ns1:jacobian_sqrt="0.529167"
       inkscapeversion="0.92.4"
       ns1:alignment="middle center"
       ns1:scale="1.50000002835"
       ns1:preamble="C:\\Users\\shawn\\AppData\\Roaming\\inkscape\\extensions\\textext\\default_packages.tex"
       ns1:text="$\\omega_B$"
       ns1:pdfconverter="pdf2svg"
       ns1:texconverter="pdflatex"
       ns1:version="0.11.0"
       transform="matrix(0.529167,0,0,0.529167,49.654902,164.12803)">
      <g
         style="fill:#0000ff;fill-opacity:1"
         id="g7257">
        <g
           id="g7251"
           style="fill:#0000ff;fill-opacity:1">
          <path
             id="path7249"
             transform="translate(148.712,134.765)"
             d="m 6.03125,-3.703125 c 0,-0.453125 -0.171875,-0.703125 -0.40625,-0.703125 -0.25,0 -0.515625,0.234375 -0.515625,0.46875 0,0.09375 0.046875,0.203125 0.140625,0.296875 0.171875,0.15625 0.359375,0.421875 0.359375,0.84375 0,0.390625 -0.203125,0.96875 -0.5,1.421875 C 4.8125,-0.953125 4.4375,-0.609375 3.96875,-0.609375 3.40625,-0.609375 3.09375,-0.96875 3,-1.5 c 0.109375,-0.265625 0.34375,-0.90625 0.34375,-1.1875 0,-0.109375 -0.046875,-0.21875 -0.1875,-0.21875 -0.078125,0 -0.1875,0.03125 -0.265625,0.171875 C 2.78125,-2.53125 2.65625,-1.890625 2.65625,-1.53125 2.328125,-1.0625 1.9375,-0.609375 1.3125,-0.609375 c -0.671875,0 -0.875,-0.59375 -0.875,-1.140625 0,-1.25 1.015625,-2.296875 1.015625,-2.421875 0,-0.109375 -0.078125,-0.1875 -0.1875,-0.1875 -0.125,0 -0.203125,0.125 -0.265625,0.21875 -0.5,0.734375 -0.875,1.921875 -0.875,2.828125 0,0.6875 0.21875,1.421875 1.046875,1.421875 0.703125,0 1.171875,-0.5 1.53125,-1.046875 0.09375,0.578125 0.484375,1.046875 1.09375,1.046875 0.78125,0 1.25,-0.609375 1.609375,-1.359375 0.25,-0.484375 0.625,-1.84375 0.625,-2.453125 z m 0,0"
             style="fill:#0000ff;fill-opacity:1;stroke:none;stroke-width:0"
             inkscape:connector-curvature="0" />
        </g>
        <g
           id="g7255"
           style="fill:#0000ff;fill-opacity:1">
          <path
             id="path7253"
             transform="translate(154.914,136.259)"
             d="M 1.328125,-0.546875 C 1.265625,-0.3125 1.25,-0.25 0.703125,-0.25 0.59375,-0.25 0.5,-0.25 0.5,-0.109375 0.5,0 0.578125,0 0.703125,0 H 3.40625 c 1.171875,0 2.078125,-0.796875 2.078125,-1.484375 0,-0.5 -0.453125,-0.921875 -1.203125,-1 0.84375,-0.15625 1.546875,-0.6875 1.546875,-1.28125 0,-0.53125 -0.53125,-1 -1.4375,-1 h -2.53125 c -0.140625,0 -0.234375,0 -0.234375,0.15625 0,0.09375 0.09375,0.09375 0.234375,0.09375 0,0 0.140625,0 0.265625,0.015625 0.140625,0.015625 0.15625,0.03125 0.15625,0.109375 0,0 0,0.046875 -0.03125,0.140625 z m 1.109375,-2.03125 0.421875,-1.6875 c 0.0625,-0.21875 0.0625,-0.25 0.359375,-0.25 h 1.0625 c 0.703125,0 0.875,0.46875 0.875,0.734375 0,0.5625 -0.640625,1.203125 -1.578125,1.203125 z M 2.109375,-0.25 C 1.890625,-0.25 1.875,-0.265625 1.875,-0.328125 c 0,0 0,-0.03125 0.03125,-0.140625 L 2.390625,-2.375 H 3.875 c 0.640625,0 0.90625,0.4375 0.90625,0.828125 0,0.703125 -0.71875,1.296875 -1.5625,1.296875 z m 0,0"
             style="fill:#0000ff;fill-opacity:1;stroke:none;stroke-width:0"
             inkscape:connector-curvature="0" />
        </g>
      </g>
    </g>
    <path
       style="fill:#c83f00;fill-opacity:1;stroke:#c83f00;stroke-width:0.26458332px;stroke-linecap:butt;stroke-linejoin:miter;stroke-opacity:1"
       d="m 170.93892,227.68566 c -0.006,-5.8e-4 -0.0128,-0.001 -0.0192,-0.002 -0.0185,-0.002 -0.0371,-0.003 -0.0556,-0.005 0,0 0,0 0,0 -0.0727,-0.007 -0.14549,-0.0133 -0.21823,-0.0199 -0.2831,-0.0258 -0.56621,-0.0516 -0.84932,-0.0774 l 0,0 0,0 v 0 c -1.07564,-0.098 -2.15131,-0.19588 -3.22701,-0.29369 -0.22545,-0.0205 -0.45091,-0.041 -0.67636,-0.0615 l 0.22631,-2.48973 c 0.22547,0.0205 0.45095,0.041 0.67643,0.0615 l 0,0 c 1.07581,0.0978 2.15163,0.19572 3.22746,0.29373 l 0,0 c 0.28316,0.0258 0.56634,0.0516 0.84952,0.0774 0,0 0,0 0,0 0.0728,0.007 0.14553,0.0133 0.2183,0.0199 0,0 0,0 0,0 0.0185,0.002 0.0371,0.003 0.0556,0.005 0.006,5.8e-4 0.0128,0.001 0.0192,0.002 z m -6.05485,-0.55102 c -1.68196,-0.15282 -3.36393,-0.30545 -5.04593,-0.45793 l 0.2257,-2.48979 c 1.68215,0.15249 3.3643,0.30514 5.04644,0.45797 z m -6.05513,-0.54939 c -1.28044,-0.11602 -2.56089,-0.23196 -3.84134,-0.34781 -0.40158,-0.0363 -0.80316,-0.0726 -1.20474,-0.10897 l 0.22517,-2.48984 c 0.40161,0.0363 0.80322,0.0726 1.20483,0.10898 1.28057,0.11586 2.56113,0.23181 3.84168,0.34784 z m -6.0553,-0.54803 c -1.68205,-0.15206 -3.3641,-0.30397 -5.04617,-0.45573 l 0.22464,-2.48989 c 1.68222,0.15177 3.36442,0.3037 5.04661,0.45577 z m -6.05541,-0.54677 c -1.68207,-0.1517 -3.36415,-0.30324 -5.04625,-0.45461 l 0.22407,-2.48994 c 1.68226,0.15139 3.3645,0.30294 5.04673,0.45465 z m -6.05551,-0.54542 c -1.6821,-0.1513 -3.36421,-0.30244 -5.04633,-0.45339 l 0.22345,-2.48999 c 1.6823,0.15097 3.36459,0.30212 5.04685,0.45344 z m -6.05561,-0.54394 c -1.68213,-0.15088 -3.36428,-0.30157 -5.04644,-0.45207 l 0.22278,-2.49006 c 1.68236,0.15052 3.36469,0.30123 5.047,0.45213 z m -6.05573,-0.54235 c -1.68217,-0.15042 -3.36435,-0.30064 -5.04654,-0.45066 l 0.22206,-2.49011 c 1.6824,0.15003 3.36478,0.30027 5.04714,0.45071 z m -6.05586,-0.54064 c -1.10006,-0.098 -2.20012,-0.196 -3.30019,-0.29386 -0.58217,-0.0518 -1.16434,-0.10356 -1.7465,-0.15531 l 0.22136,-2.49018 c 0.58223,0.0518 1.16445,0.10353 1.74666,0.15533 1.10021,0.0979 2.20041,0.19584 3.3006,0.29389 z m -6.05605,-0.53887 c -1.68225,-0.14948 -3.36451,-0.29876 -5.04676,-0.44778 l 0.22059,-2.49025 c 1.68252,0.14904 3.365,0.29835 5.04743,0.44784 z m -6.05612,-0.53716 c -1.68225,-0.1489 -3.36451,-0.29752 -5.04679,-0.44577 l 0.21946,-2.49035 c 1.68264,0.14828 3.36522,0.29693 5.04776,0.44586 z m -6.05615,-0.53467 c -1.68228,-0.1481 -3.36457,-0.29581 -5.046884,-0.44304 l 0.217964,-2.49048 c 1.68278,0.14727 3.36549,0.29502 5.04815,0.44315 z m -6.056274,-0.53132 c -1.682319,-0.14705 -3.36466,-0.2936 -5.04703,-0.43958 l 0.216112,-2.49064 c 1.682934,0.14603 3.365798,0.29263 5.048599,0.43971 z m -6.056455,-0.52709 c -1.682382,-0.14575 -3.364793,-0.2909 -5.047242,-0.43538 l 0.213899,-2.49084 c 1.683113,0.14454 3.366148,0.28975 5.049111,0.43554 z M 86.157756,220.127 c -1.524694,-0.13068 -3.049419,-0.2608 -4.574181,-0.39028 -0.157788,-0.0134 -0.315573,-0.0268 -0.473357,-0.0402 l 0.211375,-2.49105 c 0.157844,0.0134 0.315684,0.0268 0.473522,0.0402 1.525448,0.12955 3.050825,0.25972 4.576136,0.39045 z m -6.057083,-0.51604 c -1.682538,-0.14247 -3.364902,-0.28408 -5.047169,-0.42382 l 0.206953,-2.49142 c 1.684091,0.13989 3.367782,0.28161 5.051152,0.42415 z m -6.056519,-0.50743 c -1.682231,-0.13896 -3.364382,-0.27584 -5.04653,-0.40965 l 0.198246,-2.49213 c 1.685162,0.13405 3.36983,0.27114 5.054084,0.41026 z m -6.055819,-0.48956 c -0.08592,-0.007 -0.171836,-0.0135 -0.257754,-0.0203 -1.56764,-0.1232 -3.13335,-0.24374 -4.697681,-0.35354 l 0,0 c -0.02887,-0.002 -0.05774,-0.004 -0.08658,-0.006 l 0.175239,-2.49389 c 0.02881,0.002 0.05761,0.004 0.0864,0.006 1.575557,0.1106 3.148211,0.23166 4.718508,0.35509 l 10e-7,0 c 0.08608,0.007 0.172168,0.0135 0.25825,0.0203 z m -6.048588,-0.44947 c -0.578699,-0.0386 -1.152526,-0.0732 -1.721796,-0.0964 -1.016556,-0.0482 -2.034332,0.0133 -3.042465,0.17125 l -0.382926,-2.45582 c 1.159843,-0.18014 2.339479,-0.25572 3.528045,-0.21333 0.600709,0.0248 1.195767,0.0605 1.785492,0.0998 z m -5.687051,0.24654 c -1.532427,0.33004 -3.034471,0.87614 -4.467181,1.59011 l -1.116129,-2.25029 c 1.607843,-0.79412 3.308799,-1.40116 5.063916,-1.77291 z m -5.318175,2.03825 c -1.300194,0.72188 -2.53419,1.57956 -3.671014,2.53474 -0.08885,0.0773 -0.177292,0.15523 -0.265277,0.23394 l -1.652361,-1.8867 c 0.09952,-0.0855 0.199598,-0.17002 0.300194,-0.25352 1.249444,-1.06954 2.61647,-2.0251 4.070103,-2.82836 z m -4.643104,3.42637 c -1.15842,1.12174 -2.21186,2.36873 -3.055705,3.7017 l -2.13319,-1.33069 c 0.954157,-1.54936 2.137286,-2.96112 3.444771,-4.19601 z m -3.536024,4.51148 c -0.755822,1.36579 -1.281124,2.8097 -1.47129,4.29247 l -2.446609,-0.3287 c 0.253975,-1.82304 0.862464,-3.55561 1.720847,-5.15843 z m -1.544337,5.18648 c -0.0056,0.16113 -0.0071,0.32261 -0.0043,0.4844 0.0048,1.45299 0.100653,2.91154 0.29882,4.35077 l -2.487459,0.34358 c -0.216088,-1.55996 -0.316141,-3.13303 -0.311361,-4.69435 0.0028,-0.20184 0.01007,-0.40277 0.02169,-0.60275 z m 0.443346,5.7997 c 0.27409,1.60177 0.679798,3.1723 1.232889,4.67663 l -2.340621,0.86419 c -0.614586,-1.65828 -1.064533,-3.37498 -1.365608,-5.11514 z m 1.582556,5.571 c 0.493172,1.18846 1.083881,2.32948 1.780352,3.40484 0.16656,0.25771 0.339959,0.51112 0.519974,0.75957 l -2.028414,1.46666 c -0.206528,-0.28614 -0.404771,-0.5778 -0.594506,-0.87433 -0.773887,-1.21187 -1.430833,-2.48436 -1.979059,-3.79925 z m 2.874691,4.91232 c 0.991247,1.21808 2.150339,2.28807 3.447092,3.12106 l -1.349534,2.09797 c -1.53798,-0.99048 -2.894425,-2.23286 -4.03915,-3.63821 z m 4.241422,3.5917 c 0.106027,0.0577 0.212866,0.11377 0.320502,0.16826 1.258237,0.65363 2.629233,1.08476 4.05376,1.333 l -0.435669,2.45914 c -1.637356,-0.29422 -3.242388,-0.80303 -4.755869,-1.56605 -0.128491,-0.0662 -0.255915,-0.13411 -0.382257,-0.20368 z m 5.308752,1.63746 c 1.388649,0.16406 2.814866,0.16716 4.226081,0.0444 0.19288,-0.0177 0.385761,-0.0353 0.578643,-0.0527 l 0.22568,2.48978 c -0.192053,0.0174 -0.384091,0.0349 -0.576113,0.0525 -1.56773,0.15035 -3.170046,0.14559 -4.754381,-0.0494 z m 5.816153,-0.0991 c 1.685731,-0.1499 3.371533,-0.29285 5.057221,-0.43095 l 0.204114,2.49164 c -1.680956,0.13769 -3.360977,0.28014 -5.039879,0.42946 z m 6.068619,-0.51324 c 1.685635,-0.13625 3.371118,-0.26808 5.056265,-0.39762 l 0.191607,2.49269 c -1.682931,0.12936 -3.36515,0.26091 -5.046472,0.39679 z m 6.067312,-0.47509 c 1.685005,-0.12871 3.369636,-0.25555 5.053708,-0.38265 l 0.188156,2.49297 c -1.684371,0.12713 -3.368254,0.25392 -5.051462,0.38248 z m 6.064082,-0.45895 c 1.079128,-0.0816 2.15801,-0.16343 3.236599,-0.24613 0.604819,-0.0464 1.209636,-0.0927 1.814453,-0.13905 l 0.190933,2.49269 c -0.604755,0.0463 -1.209505,0.0927 -1.814249,0.13904 -1.079911,0.0828 -2.159685,0.16476 -3.239274,0.24638 z m 6.061527,-0.46256 c 1.684122,-0.12894 3.36823,-0.25772 5.052317,-0.38644 l 0.19054,2.49272 c -1.684039,0.12873 -3.368048,0.2575 -5.05202,0.38642 z m 6.062766,-0.46368 c 1.684078,-0.12871 3.368132,-0.25739 5.052155,-0.38615 l 0.190587,2.49273 c -1.684097,0.12876 -3.368175,0.25744 -5.052225,0.38615 z m 6.062565,-0.46341 c 1.68401,-0.12879 3.367983,-0.25767 5.051923,-0.38676 l 0.19108,2.49269 c -1.68414,0.1291 -3.36826,0.25799 -5.052365,0.38679 z m 6.062283,-0.46423 c 1.68392,-0.12917 3.36779,-0.25855 5.05162,-0.38826 l 0.19201,2.49262 c -1.68415,0.12973 -3.3683,0.25914 -5.05243,0.38832 z m 6.06191,-0.46612 c 1.6838,-0.12984 3.36756,-0.26002 5.05125,-0.39065 l 0.19338,2.49251 c -1.68414,0.13067 -3.36828,0.26088 -5.05243,0.39074 z m 6.06146,-0.46908 c 0.77877,-0.0605 1.55752,-0.12111 2.33626,-0.18182 0.90496,-0.0706 1.80989,-0.14117 2.71479,-0.21188 l 0.19476,2.49241 c -0.90509,0.0707 -1.81017,0.14134 -2.71523,0.2119 -0.77897,0.0607 -1.55795,0.12136 -2.33693,0.18188 z m 6.06124,-0.47268 c 1.68363,-0.13172 3.36714,-0.26385 5.05051,-0.39674 l 0.19674,2.49226 c -1.68412,0.13294 -3.36821,0.26512 -5.05226,0.39687 z m 6.06052,-0.47656 c 1.68332,-0.13319 3.36649,-0.2672 5.04948,-0.40235 l 0.20011,2.49199 c -1.68412,0.13524 -3.36826,0.26933 -5.05239,0.40258 z m 6.05925,-0.48358 c 1.68292,-0.13562 3.36566,-0.27244 5.04819,-0.41081 l 0.2049,2.49159 c -1.68405,0.13849 -3.36815,0.27543 -5.05227,0.41115 z m 6.05768,-0.49402 c 1.68245,-0.13899 3.36467,-0.27958 5.04665,-0.42211 l 0.21109,2.49106 c -1.68389,0.14269 -3.36787,0.28344 -5.0519,0.42256 z m 6.05581,-0.50786 c 1.68188,-0.14332 3.36351,-0.28863 5.04486,-0.43627 l 0.21868,2.49041 c -1.68365,0.14784 -3.36742,0.29334 -5.05128,0.43682 z m 6.05371,-0.52514 c 1.68155,-0.14853 3.36191,-0.29871 5.04059,-0.45493 l 0.23167,2.48926 c -1.68475,0.15681 -3.36902,0.30734 -5.05233,0.45599 z m 6.04759,-0.54943 c 1.67799,-0.15881 3.35421,-0.32454 5.02818,-0.50158 l 0.2629,2.48614 c -1.68524,0.17818 -3.37057,0.34483 -5.0555,0.50432 z m 6.03207,-0.60918 c 1.02937,-0.11199 2.05324,-0.22966 3.06993,-0.36507 0.65377,-0.0895 1.26515,-0.16022 1.81816,-0.28286 l 0.53673,2.44032 c -0.71292,0.15579 -1.39326,0.23909 -2.02504,0.32068 -1.04618,0.13917 -2.08988,0.25926 -3.12941,0.37233 z m 5.80127,-0.88698 c 1.54234,-0.43894 3.03203,-1.02838 4.34169,-1.83249 l 1.31015,2.11827 c -1.55251,0.96615 -3.25338,1.65476 -4.97524,2.13003 z m 5.10486,-2.34124 c 0.44824,-0.3246 0.86931,-0.67928 1.25707,-1.06715 0.66407,-0.6581 1.22703,-1.42959 1.63868,-2.2604 l 2.24332,1.09964 c -0.53381,1.09798 -1.26088,2.09772 -2.13099,2.94512 -0.48906,0.47257 -1.00724,0.90364 -1.54841,1.29631 z m 3.2375,-4.12683 c 0.2672,-0.73988 0.41152,-1.51087 0.40129,-2.27886 -0.009,-0.70705 -0.0607,-1.41436 -0.17021,-2.09958 l 2.47915,-0.40779 c 0.14076,0.83659 0.19971,1.67982 0.19106,2.50737 -0.0102,1.07535 -0.20586,2.12507 -0.55521,3.11505 z m 0.0517,-5.26867 c -0.25099,-1.01859 -0.65332,-1.96151 -1.25888,-2.74723 -0.2456,-0.34969 -0.52857,-0.67021 -0.84255,-0.96409 l 1.68208,-1.80489 c 0.41864,0.38889 0.81045,0.81487 1.16905,1.28049 0.80148,1.11292 1.34223,2.34645 1.67415,3.61905 z m -2.76788,-4.26363 c -1.17318,-0.86397 -2.64294,-1.45156 -4.1743,-1.85634 l 0.62728,-2.44255 c 1.76896,0.44279 3.52248,1.18432 5.0256,2.31817 z"
       id="path7270"
       inkscape:connector-curvature="0"
       inkscape:path-effect="#path-effect7342"
       inkscape:original-d="m 171.0525,226.44083 c 0,0 -101.027884,-9.22079 -110.783222,-9.6217 -9.755338,-0.4009 -20.312483,8.55263 -20.312483,17.23889 0,8.68626 4.009041,23.78698 20.045214,22.317 16.036171,-1.46998 103.299671,-7.61718 109.847771,-9.2208 6.54811,-1.60362 10.42351,-5.47902 10.42351,-10.15624 0,-4.67722 -1.87088,-9.08716 -9.22079,-10.55715 z"
       transform="translate(-30,-5)" />
    <rect
       style="fill:#7f7f7f;fill-opacity:1;stroke:none;stroke-width:0.5;stroke-miterlimit:4;stroke-dasharray:none;stroke-dashoffset:0;stroke-opacity:1"
       id="rect4936"
       width="2"
       height="60.000008"
       x="-105.46661"
       y="179.31009"
       ry="6.8664549e-06"
       transform="rotate(-33.89182)" />
    <path
       style="fill:none;stroke:#00ff00;stroke-width:0.5;stroke-linecap:butt;stroke-linejoin:miter;stroke-miterlimit:4;stroke-dasharray:none;stroke-opacity:1;marker-end:url(#marker5801)"
       d="m 140,231.99999 7.86184,-5.59005"
       id="path5797"
       inkscape:connector-curvature="0"
       sodipodi:nodetypes="cc" />
    <path
       style="fill:#c83f00;fill-opacity:1;stroke:#c83f00;stroke-width:0.5;stroke-miterlimit:4;stroke-dasharray:none;stroke-dashoffset:0;stroke-opacity:1"
       d="m 60,186.99999 h 5 v 5 h -5 z"
       id="rect7272"
       inkscape:connector-curvature="0" />
    <path
       style="fill:none;stroke:#7f00ff;stroke-width:0.5;stroke-linecap:butt;stroke-linejoin:miter;stroke-miterlimit:4;stroke-dasharray:none;stroke-opacity:1;marker-end:url(#marker7412)"
       d="M 102.29841,215.29363 57.263501,211.01732"
       id="path7408"
       inkscape:connector-curvature="0" />
    <rect
       style="fill:#000000;fill-opacity:1;stroke:none;stroke-width:0.5;stroke-miterlimit:4;stroke-dasharray:none;stroke-dashoffset:0;stroke-opacity:1"
       id="rect4962"
       width="11"
       height="2"
       x="7.9999962"
       y="205.99998" />
    <rect
       style="fill:#000000;fill-opacity:1;stroke:none;stroke-width:0.5;stroke-miterlimit:4;stroke-dasharray:none;stroke-dashoffset:0;stroke-opacity:1"
       id="rect4962-9"
       width="11"
       height="2"
       x="41"
       y="256" />
    <path
       style="fill:none;stroke:#00ff00;stroke-width:0.5;stroke-linecap:butt;stroke-linejoin:miter;stroke-miterlimit:4;stroke-dasharray:none;stroke-opacity:1;marker-end:url(#Arrow1Mend)"
       d="M 29.999998,231.99999 47.119162,222.2648"
       id="path4592"
       inkscape:connector-curvature="0"
       sodipodi:nodetypes="cc" />
    <g
       id="g7577"
       ns1:jacobian_sqrt="0.529167"
       inkscapeversion="0.92.4"
       ns1:alignment="middle center"
       ns1:scale="1.50000002835"
       ns1:preamble="C:\\Users\\shawn\\AppData\\Roaming\\inkscape\\extensions\\textext\\default_packages.tex"
       ns1:text="$v_C$"
       ns1:pdfconverter="pdf2svg"
       ns1:texconverter="pdflatex"
       ns1:version="0.11.0"
       transform="matrix(0.529167,0,0,0.529167,-6.470498,138.40117)"
       style="fill:#7f00ff;fill-opacity:1">
      <g
         id="g7575"
         style="fill:#7f00ff;fill-opacity:1">
        <g
           id="g7569"
           style="fill:#7f00ff;fill-opacity:1">
          <path
             id="path7567"
             transform="translate(148.712,134.765)"
             d="m 4.671875,-3.703125 c 0,-0.546875 -0.265625,-0.703125 -0.4375,-0.703125 -0.25,0 -0.5,0.265625 -0.5,0.484375 0,0.125 0.046875,0.1875 0.15625,0.296875 0.21875,0.203125 0.34375,0.453125 0.34375,0.8125 0,0.421875 -0.609375,2.703125 -1.765625,2.703125 -0.515625,0 -0.75,-0.34375 -0.75,-0.875 0,-0.546875 0.28125,-1.28125 0.578125,-2.109375 0.078125,-0.171875 0.125,-0.3125 0.125,-0.5 0,-0.4375 -0.3125,-0.8125 -0.8125,-0.8125 -0.9375,0 -1.3125,1.453125 -1.3125,1.53125 0,0.109375 0.09375,0.109375 0.109375,0.109375 0.109375,0 0.109375,-0.03125 0.15625,-0.1875 0.296875,-1 0.71875,-1.234375 1.015625,-1.234375 0.078125,0 0.25,0 0.25,0.3125 0,0.25 -0.109375,0.53125 -0.171875,0.703125 -0.4375,1.15625 -0.5625,1.609375 -0.5625,2.046875 0,1.078125 0.875,1.234375 1.328125,1.234375 1.671875,0 2.25,-3.296875 2.25,-3.8125 z m 0,0"
             style="fill:#7f00ff;fill-opacity:1;stroke:none;stroke-width:0"
             inkscape:connector-curvature="0" />
        </g>
        <g
           id="g7573"
           style="fill:#7f00ff;fill-opacity:1">
          <path
             id="path7571"
             transform="translate(153.541,136.259)"
             d="m 5.875,-4.8125 c 0,-0.03125 -0.015625,-0.09375 -0.09375,-0.09375 -0.046875,0 -0.0625,0.015625 -0.125,0.09375 l -0.5,0.53125 c -0.0625,-0.078125 -0.453125,-0.625 -1.3125,-0.625 -1.703125,0 -3.359375,1.5 -3.359375,3.078125 0,1.140625 0.890625,1.96875 2.140625,1.96875 0.375,0 1.046875,-0.078125 1.765625,-0.6875 0.546875,-0.46875 0.703125,-1.0625 0.703125,-1.125 0,-0.09375 -0.078125,-0.09375 -0.125,-0.09375 -0.078125,0 -0.09375,0.03125 -0.125,0.109375 -0.28125,0.953125 -1.25,1.546875 -2.09375,1.546875 -0.75,0 -1.5625,-0.40625 -1.5625,-1.5 0,-0.203125 0.046875,-1.296875 0.84375,-2.1875 0.484375,-0.53125 1.21875,-0.84375 1.875,-0.84375 0.8125,0 1.28125,0.578125 1.28125,1.359375 0,0.1875 -0.015625,0.25 -0.015625,0.28125 0,0.09375 0.09375,0.09375 0.125,0.09375 0.109375,0 0.109375,-0.015625 0.140625,-0.15625 z m 0,0"
             style="fill:#7f00ff;fill-opacity:1;stroke:none;stroke-width:0"
             inkscape:connector-curvature="0" />
        </g>
      </g>
    </g>
    <path
       style="fill:none;stroke:#00ff00;stroke-width:0.5;stroke-linecap:butt;stroke-linejoin:miter;stroke-miterlimit:4;stroke-dasharray:none;stroke-opacity:1;marker-end:url(#marker7728)"
       d="m 140,231.99999 -25,-55"
       id="path7654"
       inkscape:connector-curvature="0" />
    <g
       id="g7944"
       style="fill:#007f00;fill-opacity:1"
       ns1:jacobian_sqrt="0.705556"
       inkscapeversion="0.92.4"
       ns1:alignment="middle center"
       ns1:scale="1.9999999433"
       ns1:preamble="C:\\Users\\shawn\\AppData\\Roaming\\inkscape\\extensions\\textext\\default_packages.tex"
       ns1:text="$r_W$"
       ns1:pdfconverter="pdf2svg"
       ns1:texconverter="pdflatex"
       ns1:version="0.11.0"
       transform="matrix(0.705556,0,0,0.705556,21.602855,103.74133)">
      <g
         style="fill:#007f00;fill-opacity:1"
         id="g7942">
        <g
           id="g7936"
           style="fill:#007f00;fill-opacity:1">
          <path
             id="path7934"
             transform="translate(148.712,134.765)"
             d="m 0.875,-0.59375 c -0.03125,0.15625 -0.09375,0.390625 -0.09375,0.4375 0,0.171875 0.140625,0.265625 0.296875,0.265625 0.125,0 0.296875,-0.078125 0.375,-0.28125 C 1.46875,-0.203125 1.796875,-1.5625 1.84375,-1.75 c 0.078125,-0.328125 0.265625,-1.015625 0.3125,-1.296875 0.046875,-0.125 0.328125,-0.59375 0.5625,-0.8125 0.078125,-0.0625 0.375,-0.328125 0.796875,-0.328125 0.265625,0 0.40625,0.125 0.421875,0.125 -0.296875,0.046875 -0.515625,0.28125 -0.515625,0.546875 0,0.15625 0.109375,0.34375 0.375,0.34375 0.265625,0 0.546875,-0.234375 0.546875,-0.59375 0,-0.34375 -0.3125,-0.640625 -0.828125,-0.640625 C 2.875,-4.40625 2.4375,-3.921875 2.25,-3.640625 2.15625,-4.09375 1.796875,-4.40625 1.328125,-4.40625 0.875,-4.40625 0.6875,-4.015625 0.59375,-3.84375 0.421875,-3.5 0.296875,-2.90625 0.296875,-2.875 c 0,0.109375 0.09375,0.109375 0.109375,0.109375 0.109375,0 0.109375,-0.015625 0.171875,-0.234375 0.171875,-0.703125 0.375,-1.1875 0.734375,-1.1875 0.15625,0 0.296875,0.078125 0.296875,0.453125 0,0.21875 -0.03125,0.328125 -0.15625,0.84375 z m 0,0"
             style="fill:#007f00;fill-opacity:1;stroke:none;stroke-width:0"
             inkscape:connector-curvature="0" />
        </g>
        <g
           id="g7940"
           style="fill:#007f00;fill-opacity:1">
          <path
             id="path7938"
             transform="translate(153.207,136.259)"
             d="m 7.21875,-3.9375 0.125,-0.1875 C 7.484375,-4.3125 7.65625,-4.484375 8,-4.515625 c 0.078125,0 0.15625,0 0.15625,-0.140625 0,-0.046875 -0.03125,-0.109375 -0.09375,-0.109375 -0.15625,0 -0.359375,0.03125 -0.53125,0.03125 -0.234375,0 -0.546875,-0.03125 -0.765625,-0.03125 -0.046875,0 -0.15625,0 -0.15625,0.15625 0,0.09375 0.09375,0.09375 0.125,0.09375 0.15625,0.015625 0.390625,0.0625 0.390625,0.25 0,0.078125 -0.078125,0.203125 -0.109375,0.25 l -1.96875,3.234375 -0.375,-3.53125 c 0,-0.1875 0.40625,-0.203125 0.484375,-0.203125 0.09375,0 0.1875,0 0.1875,-0.140625 0,-0.015625 0,-0.109375 -0.125,-0.109375 -0.125,0 -0.296875,0.015625 -0.421875,0.03125 -0.140625,0 -0.328125,0 -0.46875,0 -0.15625,0 -0.5625,-0.03125 -0.71875,-0.03125 -0.046875,0 -0.140625,0 -0.140625,0.15625 0,0.09375 0.078125,0.09375 0.171875,0.09375 0.296875,0 0.34375,0.0625 0.359375,0.125 0,0.046875 0.015625,0.234375 0.046875,0.453125 L 2.125,-0.78125 1.765625,-4.203125 C 1.765625,-4.234375 1.75,-4.296875 1.75,-4.3125 c 0,-0.203125 0.4375,-0.203125 0.484375,-0.203125 0.09375,0 0.1875,0 0.1875,-0.140625 0,-0.03125 -0.015625,-0.109375 -0.109375,-0.109375 -0.203125,0 -0.703125,0.03125 -0.890625,0.03125 -0.234375,0 -0.53125,-0.03125 -0.734375,-0.03125 -0.078125,0 -0.140625,0.03125 -0.140625,0.15625 0,0.09375 0.078125,0.09375 0.1875,0.09375 0.328125,0 0.328125,0.046875 0.359375,0.21875 l 0.453125,4.25 c 0.015625,0.140625 0.03125,0.1875 0.15625,0.1875 C 1.8125,0.140625 1.875,0.078125 1.90625,0 l 2.171875,-3.578125 0.390625,3.53125 c 0.015625,0.15625 0.046875,0.1875 0.15625,0.1875 0.109375,0 0.15625,-0.0625 0.203125,-0.140625 z m 0,0"
             style="fill:#007f00;fill-opacity:1;stroke:none;stroke-width:0"
             inkscape:connector-curvature="0" />
        </g>
      </g>
    </g>
    <path
       style="fill:none;stroke:#7f00ff;stroke-width:0.5;stroke-linecap:butt;stroke-linejoin:miter;stroke-miterlimit:4;stroke-dasharray:none;stroke-opacity:1;marker-end:url(#marker7959)"
       d="m 140,167.66816 c -6.66667,0 -14.66968,1.46999 -21.33635,4.40995"
       id="path7955"
       inkscape:connector-curvature="0"
       sodipodi:nodetypes="cc" />
    <g
       id="g8478"
       style="fill:#7f00ff;fill-opacity:1"
       ns1:jacobian_sqrt="0.529167"
       inkscapeversion="0.92.4"
       ns1:alignment="middle center"
       ns1:scale="1.5000000567"
       ns1:preamble="C:\\Users\\shawn\\AppData\\Roaming\\inkscape\\extensions\\textext\\default_packages.tex"
       ns1:text="$v_W$"
       ns1:pdfconverter="pdf2svg"
       ns1:texconverter="pdflatex"
       ns1:version="0.11.0"
       transform="matrix(0.529167,0,0,0.529167,44.813133,94.333474)">
      <g
         style="fill:#7f00ff;fill-opacity:1"
         id="g8476">
        <g
           id="g8470"
           style="fill:#7f00ff;fill-opacity:1">
          <path
             id="path8468"
             transform="translate(148.712,134.765)"
             d="m 4.671875,-3.703125 c 0,-0.546875 -0.265625,-0.703125 -0.4375,-0.703125 -0.25,0 -0.5,0.265625 -0.5,0.484375 0,0.125 0.046875,0.1875 0.15625,0.296875 0.21875,0.203125 0.34375,0.453125 0.34375,0.8125 0,0.421875 -0.609375,2.703125 -1.765625,2.703125 -0.515625,0 -0.75,-0.34375 -0.75,-0.875 0,-0.546875 0.28125,-1.28125 0.578125,-2.109375 0.078125,-0.171875 0.125,-0.3125 0.125,-0.5 0,-0.4375 -0.3125,-0.8125 -0.8125,-0.8125 -0.9375,0 -1.3125,1.453125 -1.3125,1.53125 0,0.109375 0.09375,0.109375 0.109375,0.109375 0.109375,0 0.109375,-0.03125 0.15625,-0.1875 0.296875,-1 0.71875,-1.234375 1.015625,-1.234375 0.078125,0 0.25,0 0.25,0.3125 0,0.25 -0.109375,0.53125 -0.171875,0.703125 -0.4375,1.15625 -0.5625,1.609375 -0.5625,2.046875 0,1.078125 0.875,1.234375 1.328125,1.234375 1.671875,0 2.25,-3.296875 2.25,-3.8125 z m 0,0"
             style="fill:#7f00ff;fill-opacity:1;stroke:none;stroke-width:0"
             inkscape:connector-curvature="0" />
        </g>
        <g
           id="g8474"
           style="fill:#7f00ff;fill-opacity:1">
          <path
             id="path8472"
             transform="translate(153.541,136.259)"
             d="m 7.21875,-3.9375 0.125,-0.1875 C 7.484375,-4.3125 7.65625,-4.484375 8,-4.515625 c 0.078125,0 0.15625,0 0.15625,-0.140625 0,-0.046875 -0.03125,-0.109375 -0.09375,-0.109375 -0.15625,0 -0.359375,0.03125 -0.53125,0.03125 -0.234375,0 -0.546875,-0.03125 -0.765625,-0.03125 -0.046875,0 -0.15625,0 -0.15625,0.15625 0,0.09375 0.09375,0.09375 0.125,0.09375 0.15625,0.015625 0.390625,0.0625 0.390625,0.25 0,0.078125 -0.078125,0.203125 -0.109375,0.25 l -1.96875,3.234375 -0.375,-3.53125 c 0,-0.1875 0.40625,-0.203125 0.484375,-0.203125 0.09375,0 0.1875,0 0.1875,-0.140625 0,-0.015625 0,-0.109375 -0.125,-0.109375 -0.125,0 -0.296875,0.015625 -0.421875,0.03125 -0.140625,0 -0.328125,0 -0.46875,0 -0.15625,0 -0.5625,-0.03125 -0.71875,-0.03125 -0.046875,0 -0.140625,0 -0.140625,0.15625 0,0.09375 0.078125,0.09375 0.171875,0.09375 0.296875,0 0.34375,0.0625 0.359375,0.125 0,0.046875 0.015625,0.234375 0.046875,0.453125 L 2.125,-0.78125 1.765625,-4.203125 C 1.765625,-4.234375 1.75,-4.296875 1.75,-4.3125 c 0,-0.203125 0.4375,-0.203125 0.484375,-0.203125 0.09375,0 0.1875,0 0.1875,-0.140625 0,-0.03125 -0.015625,-0.109375 -0.109375,-0.109375 -0.203125,0 -0.703125,0.03125 -0.890625,0.03125 -0.234375,0 -0.53125,-0.03125 -0.734375,-0.03125 -0.078125,0 -0.140625,0.03125 -0.140625,0.15625 0,0.09375 0.078125,0.09375 0.1875,0.09375 0.328125,0 0.328125,0.046875 0.359375,0.21875 l 0.453125,4.25 c 0.015625,0.140625 0.03125,0.1875 0.15625,0.1875 C 1.8125,0.140625 1.875,0.078125 1.90625,0 l 2.171875,-3.578125 0.390625,3.53125 c 0.015625,0.15625 0.046875,0.1875 0.15625,0.1875 0.109375,0 0.15625,-0.0625 0.203125,-0.140625 z m 0,0"
             style="fill:#7f00ff;fill-opacity:1;stroke:none;stroke-width:0"
             inkscape:connector-curvature="0" />
        </g>
      </g>
    </g>
    <rect
       style="fill:#ffffff;fill-opacity:1;stroke:none;stroke-width:0.5;stroke-miterlimit:4;stroke-dasharray:none;stroke-dashoffset:0;stroke-opacity:1"
       id="rect8489"
       width="65"
       height="15"
       x="5"
       y="181.99998" />
  </g>
</svg>
