<?xml version="1.0" encoding="UTF-8" standalone="no"?>
<!-- Created with Inkscape (http://www.inkscape.org/) -->

<svg
   xmlns:ns1="http://www.iki.fi/pav/software/textext/"
   xmlns:dc="http://purl.org/dc/elements/1.1/"
   xmlns:cc="http://creativecommons.org/ns#"
   xmlns:rdf="http://www.w3.org/1999/02/22-rdf-syntax-ns#"
   xmlns:svg="http://www.w3.org/2000/svg"
   xmlns="http://www.w3.org/2000/svg"
   xmlns:sodipodi="http://sodipodi.sourceforge.net/DTD/sodipodi-0.dtd"
   xmlns:inkscape="http://www.inkscape.org/namespaces/inkscape"
   width="100mm"
   height="90mm"
   viewBox="0 0 100 90"
   version="1.1"
   id="svg8"
   inkscape:version="0.92.4 (5da689c313, 2019-01-14)"
   sodipodi:docname="point_line_closest_distance.svg">
  <defs
     id="defs2">
    <marker
       inkscape:stockid="Arrow1Send"
       orient="auto"
       refY="0.0"
       refX="0.0"
       id="marker2210"
       style="overflow:visible;"
       inkscape:isstock="true">
      <path
         id="path1962"
         d="M 0.0,0.0 L 5.0,-5.0 L -12.5,0.0 L 5.0,5.0 L 0.0,0.0 z "
         style="fill-rule:evenodd;stroke:#6400c8;stroke-width:1pt;stroke-opacity:1;fill:#6400c8;fill-opacity:1"
         transform="scale(0.2) rotate(180) translate(6,0)" />
    </marker>
    <marker
       inkscape:stockid="Arrow1Send"
       orient="auto"
       refY="0"
       refX="0"
       id="Arrow1Send"
       style="overflow:visible"
       inkscape:isstock="true">
      <path
         id="path1045"
         d="M 0,0 5,-5 -12.5,0 5,5 Z"
         style="fill:#c86400;fill-opacity:1;fill-rule:evenodd;stroke:#c86400;stroke-width:1.00000003pt;stroke-opacity:1"
         transform="matrix(-0.2,0,0,-0.2,-1.2,0)"
         inkscape:connector-curvature="0" />
    </marker>
    <marker
       inkscape:stockid="Arrow2Send"
       orient="auto"
       refY="0"
       refX="0"
       id="Arrow2Send"
       style="overflow:visible"
       inkscape:isstock="true">
      <path
         id="path1063"
         style="fill:#00c800;fill-opacity:1;fill-rule:evenodd;stroke:#00c800;stroke-width:0.625;stroke-linejoin:round;stroke-opacity:1"
         d="M 8.7185878,4.0337352 -2.2072895,0.01601326 8.7185884,-4.0017078 c -1.7454984,2.3720609 -1.7354408,5.6174519 -6e-7,8.035443 z"
         transform="matrix(-0.3,0,0,-0.3,0.69,0)"
         inkscape:connector-curvature="0" />
    </marker>
  </defs>
  <sodipodi:namedview
     id="base"
     pagecolor="#ffffff"
     bordercolor="#666666"
     borderopacity="1.0"
     inkscape:pageopacity="0.0"
     inkscape:pageshadow="2"
     inkscape:zoom="1.979899"
     inkscape:cx="169.28818"
     inkscape:cy="220.85549"
     inkscape:document-units="mm"
     inkscape:current-layer="layer1"
     showgrid="false"
     inkscape:window-width="1920"
     inkscape:window-height="1017"
     inkscape:window-x="-8"
     inkscape:window-y="-8"
     inkscape:window-maximized="1"
     inkscape:snap-global="false"
     inkscape:snap-object-midpoints="true"
     inkscape:snap-smooth-nodes="true"
     inkscape:snap-intersection-paths="true">
    <inkscape:grid
       spacingy="1"
       spacingx="1"
       units="mm"
       id="grid815"
       type="xygrid" />
  </sodipodi:namedview>
  <metadata
     id="metadata5">
    <rdf:RDF>
      <cc:Work
         rdf:about="">
        <dc:format>image/svg+xml</dc:format>
        <dc:type
           rdf:resource="http://purl.org/dc/dcmitype/StillImage" />
        <dc:title />
      </cc:Work>
    </rdf:RDF>
  </metadata>
  <g
     inkscape:label="Layer 1"
     inkscape:groupmode="layer"
     id="layer1"
     transform="translate(0,-207)">
    <path
       style="fill:none;stroke:#c86400;stroke-width:1;stroke-linecap:butt;stroke-linejoin:miter;stroke-miterlimit:4;stroke-dasharray:none;stroke-dashoffset:0;stroke-opacity:1;marker-end:url(#Arrow1Send)"
       d="M 22.412368,239.78955 72.162776,221.49634"
       id="path941"
       inkscape:connector-curvature="0"
       sodipodi:nodetypes="cc" />
    <path
       style="fill:none;stroke:#6400c8;stroke-width:1;stroke-linecap:butt;stroke-linejoin:miter;stroke-miterlimit:4;stroke-dasharray:none;stroke-dashoffset:0;stroke-opacity:1;marker-end:url(#marker2210)"
       d="M 45.71786,257.37723 72.625749,221.8514"
       id="path817-8"
       inkscape:connector-curvature="0"
       sodipodi:nodetypes="cc" />
    <path
       style="fill:none;stroke:#000000;stroke-width:1;stroke-linecap:butt;stroke-linejoin:miter;stroke-miterlimit:4;stroke-dasharray:none;stroke-opacity:1"
       d="M 5.0781209,226.70811 91.138909,291.65462"
       id="path817"
       inkscape:connector-curvature="0" />
    <g
       id="g829"
       ns1:jacobian_sqrt="0.705556"
       inkscapeversion="0.92.4"
       ns1:alignment="middle center"
       ns1:scale="1.99999997165"
       ns1:preamble="C:\\Users\\shawn\\AppData\\Roaming\\inkscape\\extensions\\textext\\default_packages.tex"
       ns1:text="$L$"
       ns1:pdfconverter="pdf2svg"
       ns1:texconverter="pdflatex"
       ns1:version="0.11.0"
       transform="matrix(0.705556,0,0,0.705556,-35.196583,177.15941)">
      <g
         id="surface1">
        <g
           id="g826"
           style="fill:#000000;fill-opacity:1">
          <path
             id="path824"
             transform="translate(148.712,134.765)"
             d="M 3.734375,-6.03125 C 3.8125,-6.390625 3.84375,-6.5 4.78125,-6.5 c 0.296875,0 0.375,0 0.375,-0.1875 0,-0.125 -0.109375,-0.125 -0.15625,-0.125 -0.328125,0 -1.140625,0.03125 -1.46875,0.03125 -0.296875,0 -1.03125,-0.03125 -1.328125,-0.03125 -0.0625,0 -0.1875,0 -0.1875,0.203125 0,0.109375 0.09375,0.109375 0.28125,0.109375 0.015625,0 0.203125,0 0.375,0.015625 0.171875,0.03125 0.265625,0.03125 0.265625,0.171875 0,0.03125 0,0.0625 -0.03125,0.1875 L 1.5625,-0.78125 c -0.09375,0.390625 -0.109375,0.46875 -0.90625,0.46875 -0.171875,0 -0.265625,0 -0.265625,0.203125 C 0.390625,0 0.484375,0 0.65625,0 h 4.625 C 5.515625,0 5.515625,0 5.578125,-0.171875 L 6.375,-2.328125 c 0.03125,-0.109375 0.03125,-0.125 0.03125,-0.140625 0,-0.03125 -0.03125,-0.109375 -0.109375,-0.109375 -0.09375,0 -0.109375,0.0625 -0.171875,0.21875 -0.34375,0.90625 -0.78125,2.046875 -2.5,2.046875 H 2.6875 c -0.140625,0 -0.171875,0 -0.21875,0 -0.109375,-0.015625 -0.140625,-0.03125 -0.140625,-0.109375 0,-0.03125 0,-0.046875 0.046875,-0.21875 z m 0,0"
             style="stroke:none;stroke-width:0"
             inkscape:connector-curvature="0" />
        </g>
      </g>
    </g>
    <circle
       style="fill:#c800c8;fill-opacity:1;stroke:none;stroke-width:1;stroke-miterlimit:4;stroke-dasharray:none;stroke-dashoffset:0;stroke-opacity:1"
       id="path838"
       cx="73.098221"
       cy="221.09544"
       r="1.5" />
    <circle
       style="fill:#c80000;fill-opacity:1;stroke:none;stroke-width:1;stroke-miterlimit:4;stroke-dasharray:none;stroke-dashoffset:0;stroke-opacity:1"
       id="path838-7"
       cx="22.412369"
       cy="239.78955"
       r="1.5" />
    <path
       style="fill:none;stroke:#000000;stroke-width:0.5;stroke-linecap:butt;stroke-linejoin:miter;stroke-miterlimit:4;stroke-dasharray:none;stroke-opacity:1"
       d="m 41.528142,254.0916 3.292104,-4.36238 4.362378,3.29211"
       id="path973"
       inkscape:connector-curvature="0"
       sodipodi:nodetypes="ccc" />
    <path
       style="fill:none;stroke:#00c800;stroke-width:1;stroke-linecap:butt;stroke-linejoin:miter;stroke-miterlimit:4;stroke-dasharray:none;stroke-opacity:1;marker-end:url(#Arrow2Send)"
       d="m 45.71786,257.37723 11.918051,8.95238"
       id="path1028"
       inkscape:connector-curvature="0"
       sodipodi:nodetypes="cc" />
    <circle
       style="fill:#0000c8;fill-opacity:1;stroke:none;stroke-width:1;stroke-miterlimit:4;stroke-dasharray:none;stroke-dashoffset:0;stroke-opacity:1"
       id="path838-9"
       cx="45.717857"
       cy="257.37723"
       r="1.5" />
    <g
       id="g965"
       style="fill:#00c800;fill-opacity:1"
       ns1:jacobian_sqrt="0.705556"
       inkscapeversion="0.92.4"
       ns1:alignment="middle center"
       ns1:scale="1.99999997165"
       ns1:preamble="C:\\Users\\shawn\\AppData\\Roaming\\inkscape\\extensions\\textext\\default_packages.tex"
       ns1:text="$\\mathbf{v}$"
       ns1:pdfconverter="pdf2svg"
       ns1:texconverter="pdflatex"
       ns1:version="0.11.0"
       transform="matrix(0.705556,0,0,0.705556,-51.443621,167.34137)">
      <g
         style="fill:#00c800;fill-opacity:1"
         id="g963">
        <g
           id="g961"
           style="fill:#00c800;fill-opacity:1">
          <path
             id="path959"
             transform="translate(148.712,134.765)"
             d="m 5.046875,-3.75 c 0.0625,-0.140625 0.09375,-0.203125 0.734375,-0.203125 v -0.46875 C 5.53125,-4.40625 5.25,-4.390625 5,-4.390625 c -0.25,0 -0.703125,-0.03125 -0.90625,-0.03125 v 0.46875 c 0.1875,0 0.46875,0.03125 0.46875,0.109375 0,0 0,0.03125 -0.046875,0.109375 l -1.15625,2.5 -1.265625,-2.71875 H 2.625 v -0.46875 c -0.328125,0.015625 -1.21875,0.03125 -1.234375,0.03125 -0.28125,0 -0.71875,-0.03125 -1.125,-0.03125 v 0.46875 h 0.625 l 1.75,3.75 c 0.125,0.25 0.25,0.25 0.375,0.25 0.171875,0 0.28125,-0.03125 0.375,-0.25 z m 0,0"
             style="fill:#00c800;fill-opacity:1;stroke:none;stroke-width:0"
             inkscape:connector-curvature="0" />
        </g>
      </g>
    </g>
    <g
       id="g1045"
       style="fill:#c80000;fill-opacity:1"
       ns1:jacobian_sqrt="0.705556"
       inkscapeversion="0.92.4"
       ns1:alignment="middle center"
       ns1:scale="1.99999997165"
       ns1:preamble="C:\\Users\\shawn\\AppData\\Roaming\\inkscape\\extensions\\textext\\default_packages.tex"
       ns1:text="$\\mathbf{q}_0$"
       ns1:pdfconverter="pdf2svg"
       ns1:texconverter="pdflatex"
       ns1:version="0.11.0"
       transform="matrix(0.705556,0.000000,0.000000,0.705556,-90.606062,148.495902)">
      <g
         style="fill:#c80000;fill-opacity:1"
         id="g1043">
        <g
           id="g1037"
           style="fill-opacity:1;fill:#c80000">
          <path
             id="path1035"
             transform="translate(148.712,134.765)"
             d="M 4.234375 -1.421875 C 4.234375 -1.234375 4.234375 -1.203125 4.078125 -1 C 3.671875 -0.40625 3.171875 -0.296875 2.875 -0.296875 C 2.25 -0.296875 1.65625 -0.875 1.65625 -2.203125 C 1.65625 -3.625 2.390625 -4.09375 2.984375 -4.09375 C 3.75 -4.09375 4.234375 -3.296875 4.234375 -2.796875 Z M 4.359375 -3.703125 C 4.015625 -4.1875 3.453125 -4.484375 2.859375 -4.484375 C 1.40625 -4.484375 0.375 -3.59375 0.375 -2.21875 C 0.375 -0.8125 1.390625 0.0625 2.765625 0.0625 C 3.265625 0.0625 3.703125 -0.078125 4.171875 -0.484375 L 4.171875 1.46875 L 3.484375 1.46875 L 3.484375 1.9375 C 3.765625 1.921875 4.359375 1.90625 4.734375 1.90625 C 5.125 1.90625 5.71875 1.921875 5.984375 1.9375 L 5.984375 1.46875 L 5.296875 1.46875 L 5.296875 -4.484375 L 4.890625 -4.484375 Z M 4.359375 -3.703125 "
             style="fill-opacity:1;stroke:none;stroke-width:0;fill:#c80000" />
        </g>
        <g
           id="g1041"
           style="fill-opacity:1;fill:#c80000">
          <path
             id="path1039"
             transform="translate(154.759,136.259)"
             d="M 3.59375 -2.21875 C 3.59375 -2.984375 3.5 -3.546875 3.1875 -4.03125 C 2.96875 -4.34375 2.53125 -4.625 1.984375 -4.625 C 0.359375 -4.625 0.359375 -2.71875 0.359375 -2.21875 C 0.359375 -1.71875 0.359375 0.140625 1.984375 0.140625 C 3.59375 0.140625 3.59375 -1.71875 3.59375 -2.21875 Z M 1.984375 -0.0625 C 1.65625 -0.0625 1.234375 -0.25 1.09375 -0.8125 C 1 -1.21875 1 -1.796875 1 -2.3125 C 1 -2.828125 1 -3.359375 1.09375 -3.734375 C 1.25 -4.28125 1.6875 -4.4375 1.984375 -4.4375 C 2.359375 -4.4375 2.71875 -4.203125 2.84375 -3.796875 C 2.953125 -3.421875 2.96875 -2.921875 2.96875 -2.3125 C 2.96875 -1.796875 2.96875 -1.28125 2.875 -0.84375 C 2.734375 -0.203125 2.265625 -0.0625 1.984375 -0.0625 Z M 1.984375 -0.0625 "
             style="fill-opacity:1;stroke:none;stroke-width:0;fill:#c80000" />
        </g>
      </g>
    </g>
    <g
       id="g1129"
       style="fill:#c80000;fill-opacity:1"
       ns1:jacobian_sqrt="0.705556"
       inkscapeversion="0.92.4"
       ns1:alignment="middle center"
       ns1:scale="1.99999997165"
       ns1:preamble="C:\\Users\\shawn\\AppData\\Roaming\\inkscape\\extensions\\textext\\default_packages.tex"
       ns1:text="$\\mathbf{q}_Q$"
       ns1:pdfconverter="pdf2svg"
       ns1:texconverter="pdflatex"
       ns1:version="0.11.0"
       transform="matrix(0.705556,0.000000,0.000000,0.705556,-36.034756,121.476681)">
      <g
         style="fill:#c80000;fill-opacity:1"
         id="g1127">
        <g
           id="g1121"
           style="fill-opacity:1;fill:#c80000">
          <path
             id="path1119"
             transform="translate(148.712,134.765)"
             d="M 4.234375 -1.421875 C 4.234375 -1.234375 4.234375 -1.203125 4.078125 -1 C 3.671875 -0.40625 3.171875 -0.296875 2.875 -0.296875 C 2.25 -0.296875 1.65625 -0.875 1.65625 -2.203125 C 1.65625 -3.625 2.390625 -4.09375 2.984375 -4.09375 C 3.75 -4.09375 4.234375 -3.296875 4.234375 -2.796875 Z M 4.359375 -3.703125 C 4.015625 -4.1875 3.453125 -4.484375 2.859375 -4.484375 C 1.40625 -4.484375 0.375 -3.59375 0.375 -2.21875 C 0.375 -0.8125 1.390625 0.0625 2.765625 0.0625 C 3.265625 0.0625 3.703125 -0.078125 4.171875 -0.484375 L 4.171875 1.46875 L 3.484375 1.46875 L 3.484375 1.9375 C 3.765625 1.921875 4.359375 1.90625 4.734375 1.90625 C 5.125 1.90625 5.71875 1.921875 5.984375 1.9375 L 5.984375 1.46875 L 5.296875 1.46875 L 5.296875 -4.484375 L 4.890625 -4.484375 Z M 4.359375 -3.703125 "
             style="fill-opacity:1;stroke:none;stroke-width:0;fill:#c80000" />
        </g>
        <g
           id="g1125"
           style="fill-opacity:1;fill:#c80000">
          <path
             id="path1123"
             transform="translate(154.759,136.259)"
             d="M 3.234375 0.421875 C 3.234375 0.875 3.328125 1.359375 3.90625 1.359375 C 4.75 1.359375 5.15625 0.15625 5.15625 0 C 5.15625 -0.046875 5.109375 -0.09375 5.046875 -0.09375 C 4.984375 -0.09375 4.96875 -0.03125 4.953125 0 C 4.78125 0.484375 4.328125 0.625 4.09375 0.625 C 3.8125 0.625 3.671875 0.5 3.546875 -0.0625 C 4.78125 -0.5 5.78125 -1.734375 5.78125 -2.96875 C 5.78125 -4.0625 4.984375 -4.90625 3.75 -4.90625 C 2.09375 -4.90625 0.484375 -3.34375 0.484375 -1.765625 C 0.484375 -0.640625 1.3125 0.140625 2.515625 0.140625 C 2.640625 0.140625 2.875 0.125 3.234375 0.046875 Z M 2.03125 -0.171875 C 1.671875 -0.296875 1.15625 -0.65625 1.15625 -1.59375 C 1.15625 -2.046875 1.296875 -2.96875 1.9375 -3.75 C 2.375 -4.296875 3.046875 -4.671875 3.703125 -4.671875 C 4.453125 -4.671875 5.09375 -4.171875 5.09375 -3.15625 C 5.09375 -2.453125 4.765625 -0.953125 3.484375 -0.328125 C 3.375 -0.765625 3.1875 -1.046875 2.78125 -1.046875 C 2.390625 -1.046875 2 -0.71875 2 -0.359375 C 2 -0.234375 2.015625 -0.21875 2.03125 -0.171875 Z M 3.234375 -0.203125 C 3.09375 -0.15625 2.828125 -0.078125 2.5625 -0.078125 C 2.453125 -0.078125 2.203125 -0.078125 2.203125 -0.359375 C 2.203125 -0.625 2.484375 -0.859375 2.78125 -0.859375 C 3.03125 -0.859375 3.21875 -0.75 3.234375 -0.203125 Z M 3.234375 -0.203125 "
             style="fill-opacity:1;stroke:none;stroke-width:0;fill:#c80000" />
        </g>
      </g>
    </g>
    <g
       id="g1327"
       style="fill:#0000c8;fill-opacity:1"
       ns1:jacobian_sqrt="0.705556"
       inkscapeversion="0.92.4"
       ns1:alignment="middle center"
       ns1:scale="1.99999997165"
       ns1:preamble="C:\\Users\\shawn\\AppData\\Roaming\\inkscape\\extensions\\textext\\default_packages.tex"
       ns1:text="$\\mathbf{q}_R$"
       ns1:pdfconverter="pdf2svg"
       ns1:texconverter="pdflatex"
       ns1:version="0.11.0"
       transform="matrix(0.705556,0,0,0.705556,-64.726815,168.3239)">
      <g
         style="fill:#0000c8;fill-opacity:1"
         id="g1325">
        <g
           id="g1319"
           style="fill:#0000c8;fill-opacity:1">
          <path
             id="path1317"
             transform="translate(148.712,134.765)"
             d="m 4.234375,-1.421875 c 0,0.1875 0,0.21875 -0.15625,0.421875 -0.40625,0.59375 -0.90625,0.703125 -1.203125,0.703125 -0.625,0 -1.21875,-0.578125 -1.21875,-1.90625 0,-1.421875 0.734375,-1.890625 1.328125,-1.890625 0.765625,0 1.25,0.796875 1.25,1.296875 z m 0.125,-2.28125 c -0.34375,-0.484375 -0.90625,-0.78125 -1.5,-0.78125 -1.453125,0 -2.484375,0.890625 -2.484375,2.265625 0,1.40625 1.015625,2.28125 2.390625,2.28125 0.5,0 0.9375,-0.140625 1.40625,-0.546875 V 1.46875 h -0.6875 V 1.9375 c 0.28125,-0.015625 0.875,-0.03125 1.25,-0.03125 0.390625,0 0.984375,0.015625 1.25,0.03125 V 1.46875 h -0.6875 v -5.953125 h -0.40625 z m 0,0"
             style="fill:#0000c8;fill-opacity:1;stroke:none;stroke-width:0"
             inkscape:connector-curvature="0" />
        </g>
        <g
           id="g1323"
           style="fill:#0000c8;fill-opacity:1">
          <path
             id="path1321"
             transform="translate(154.759,136.259)"
             d="m 2.875,-4.265625 c 0.046875,-0.203125 0.0625,-0.21875 0.21875,-0.25 h 0.453125 c 0.640625,0 1.4375,0 1.4375,0.71875 0,0.296875 -0.125,0.734375 -0.453125,0.984375 C 4.25,-2.59375 3.8125,-2.484375 3.328125,-2.484375 H 2.4375 Z M 4.140625,-2.375 c 0.828125,-0.1875 1.5625,-0.6875 1.5625,-1.3125 0,-0.59375 -0.703125,-1.078125 -1.71875,-1.078125 H 1.84375 c -0.125,0 -0.21875,0 -0.21875,0.15625 0,0.09375 0.078125,0.09375 0.21875,0.09375 0.015625,0 0.140625,0 0.265625,0.015625 0.15625,0.015625 0.15625,0.03125 0.15625,0.109375 0,0 0,0.046875 -0.015625,0.140625 L 1.3125,-0.546875 C 1.265625,-0.3125 1.25,-0.25 0.703125,-0.25 0.578125,-0.25 0.5,-0.25 0.5,-0.109375 0.5,-0.03125 0.546875,0 0.609375,0 c 0.125,0 0.296875,-0.015625 0.421875,-0.015625 0.140625,0 0.34375,-0.015625 0.46875,-0.015625 0.140625,0 0.296875,0.015625 0.4375,0.015625 C 2.09375,-0.015625 2.265625,0 2.40625,0 2.453125,0 2.5625,0 2.5625,-0.140625 2.5625,-0.25 2.484375,-0.25 2.328125,-0.25 2.21875,-0.25 2.1875,-0.25 2.0625,-0.265625 1.90625,-0.28125 1.90625,-0.296875 1.90625,-0.375 c 0,0 0,-0.046875 0.03125,-0.140625 L 2.375,-2.28125 h 0.953125 c 0.59375,0 0.859375,0.296875 0.859375,0.625 0,0.09375 -0.0625,0.328125 -0.109375,0.484375 C 4,-0.84375 3.96875,-0.75 3.96875,-0.625 c 0,0.546875 0.515625,0.765625 1.03125,0.765625 0.640625,0 0.921875,-0.6875 0.921875,-0.8125 0,-0.015625 -0.015625,-0.09375 -0.125,-0.09375 -0.09375,0 -0.109375,0.046875 -0.125,0.125 C 5.578125,-0.34375 5.3125,-0.0625 5.03125,-0.0625 c -0.1875,0 -0.328125,-0.0625 -0.328125,-0.453125 0,-0.171875 0.046875,-0.53125 0.078125,-0.71875 0.03125,-0.1875 0.03125,-0.25 0.03125,-0.328125 0,-0.078125 0,-0.3125 -0.203125,-0.515625 C 4.484375,-2.21875 4.296875,-2.3125 4.140625,-2.375 Z m 0,0"
             style="fill:#0000c8;fill-opacity:1;stroke:none;stroke-width:0"
             inkscape:connector-curvature="0" />
        </g>
      </g>
    </g>
    <g
       id="g2743"
       ns1:jacobian_sqrt="0.529167"
       inkscapeversion="0.92.4"
       ns1:alignment="middle center"
       ns1:scale="1.5"
       ns1:preamble="C:\\Users\\shawn\\AppData\\Roaming\\inkscape\\extensions\\textext\\default_packages.tex"
       ns1:text="$\\mathbf{q}_Q - \\mathbf{q}_R$"
       ns1:pdfconverter="pdf2svg"
       ns1:texconverter="pdflatex"
       ns1:version="0.11.0"
       transform="matrix(0.529167,0,0,0.529167,-13.182393,164.41424)"
       style="fill:#c800c8;fill-opacity:1">
      <g
         id="g2741"
         style="fill:#c800c8;fill-opacity:1">
        <g
           id="g2723"
           style="fill:#c800c8;fill-opacity:1">
          <path
             id="path2721"
             transform="translate(148.712,134.765)"
             d="m 4.234375,-1.421875 c 0,0.1875 0,0.21875 -0.15625,0.421875 -0.40625,0.59375 -0.90625,0.703125 -1.203125,0.703125 -0.625,0 -1.21875,-0.578125 -1.21875,-1.90625 0,-1.421875 0.734375,-1.890625 1.328125,-1.890625 0.765625,0 1.25,0.796875 1.25,1.296875 z m 0.125,-2.28125 c -0.34375,-0.484375 -0.90625,-0.78125 -1.5,-0.78125 -1.453125,0 -2.484375,0.890625 -2.484375,2.265625 0,1.40625 1.015625,2.28125 2.390625,2.28125 0.5,0 0.9375,-0.140625 1.40625,-0.546875 V 1.46875 h -0.6875 V 1.9375 c 0.28125,-0.015625 0.875,-0.03125 1.25,-0.03125 0.390625,0 0.984375,0.015625 1.25,0.03125 V 1.46875 h -0.6875 v -5.953125 h -0.40625 z m 0,0"
             style="fill:#c800c8;fill-opacity:1;stroke:none;stroke-width:0"
             inkscape:connector-curvature="0" />
        </g>
        <g
           id="g2727"
           style="fill:#c800c8;fill-opacity:1">
          <path
             id="path2725"
             transform="translate(154.759,136.259)"
             d="m 3.234375,0.421875 c 0,0.453125 0.09375,0.9375 0.671875,0.9375 0.84375,0 1.25,-1.203125 1.25,-1.359375 0,-0.046875 -0.046875,-0.09375 -0.109375,-0.09375 -0.0625,0 -0.078125,0.0625 -0.09375,0.09375 C 4.78125,0.484375 4.328125,0.625 4.09375,0.625 3.8125,0.625 3.671875,0.5 3.546875,-0.0625 4.78125,-0.5 5.78125,-1.734375 5.78125,-2.96875 c 0,-1.09375 -0.796875,-1.9375 -2.03125,-1.9375 -1.65625,0 -3.265625,1.5625 -3.265625,3.140625 0,1.125 0.828125,1.90625 2.03125,1.90625 0.125,0 0.359375,-0.015625 0.71875,-0.09375 z M 2.03125,-0.171875 c -0.359375,-0.125 -0.875,-0.484375 -0.875,-1.421875 0,-0.453125 0.140625,-1.375 0.78125,-2.15625 0.4375,-0.546875 1.109375,-0.921875 1.765625,-0.921875 0.75,0 1.390625,0.5 1.390625,1.515625 0,0.703125 -0.328125,2.203125 -1.609375,2.828125 C 3.375,-0.765625 3.1875,-1.046875 2.78125,-1.046875 2.390625,-1.046875 2,-0.71875 2,-0.359375 c 0,0.125 0.015625,0.140625 0.03125,0.1875 z m 1.203125,-0.03125 c -0.140625,0.046875 -0.40625,0.125 -0.671875,0.125 -0.109375,0 -0.359375,0 -0.359375,-0.28125 0,-0.265625 0.28125,-0.5 0.578125,-0.5 0.25,0 0.4375,0.109375 0.453125,0.65625 z m 0,0"
             style="fill:#c800c8;fill-opacity:1;stroke:none;stroke-width:0"
             inkscape:connector-curvature="0" />
        </g>
        <g
           id="g2731"
           style="fill:#c800c8;fill-opacity:1">
          <path
             id="path2729"
             transform="translate(163.745,134.765)"
             d="m 6.5625,-2.296875 c 0.171875,0 0.359375,0 0.359375,-0.203125 0,-0.1875 -0.1875,-0.1875 -0.359375,-0.1875 H 1.171875 c -0.171875,0 -0.34375,0 -0.34375,0.1875 0,0.203125 0.171875,0.203125 0.34375,0.203125 z m 0,0"
             style="fill:#c800c8;fill-opacity:1;stroke:none;stroke-width:0"
             inkscape:connector-curvature="0" />
        </g>
        <g
           id="g2735"
           style="fill:#c800c8;fill-opacity:1">
          <path
             id="path2733"
             transform="translate(173.708,134.765)"
             d="m 4.234375,-1.421875 c 0,0.1875 0,0.21875 -0.15625,0.421875 -0.40625,0.59375 -0.90625,0.703125 -1.203125,0.703125 -0.625,0 -1.21875,-0.578125 -1.21875,-1.90625 0,-1.421875 0.734375,-1.890625 1.328125,-1.890625 0.765625,0 1.25,0.796875 1.25,1.296875 z m 0.125,-2.28125 c -0.34375,-0.484375 -0.90625,-0.78125 -1.5,-0.78125 -1.453125,0 -2.484375,0.890625 -2.484375,2.265625 0,1.40625 1.015625,2.28125 2.390625,2.28125 0.5,0 0.9375,-0.140625 1.40625,-0.546875 V 1.46875 h -0.6875 V 1.9375 c 0.28125,-0.015625 0.875,-0.03125 1.25,-0.03125 0.390625,0 0.984375,0.015625 1.25,0.03125 V 1.46875 h -0.6875 v -5.953125 h -0.40625 z m 0,0"
             style="fill:#c800c8;fill-opacity:1;stroke:none;stroke-width:0"
             inkscape:connector-curvature="0" />
        </g>
        <g
           id="g2739"
           style="fill:#c800c8;fill-opacity:1">
          <path
             id="path2737"
             transform="translate(179.755,136.259)"
             d="m 2.875,-4.265625 c 0.046875,-0.203125 0.0625,-0.21875 0.21875,-0.25 h 0.453125 c 0.640625,0 1.4375,0 1.4375,0.71875 0,0.296875 -0.125,0.734375 -0.453125,0.984375 C 4.25,-2.59375 3.8125,-2.484375 3.328125,-2.484375 H 2.4375 Z M 4.140625,-2.375 c 0.828125,-0.1875 1.5625,-0.6875 1.5625,-1.3125 0,-0.59375 -0.703125,-1.078125 -1.71875,-1.078125 H 1.84375 c -0.125,0 -0.21875,0 -0.21875,0.15625 0,0.09375 0.078125,0.09375 0.21875,0.09375 0.015625,0 0.140625,0 0.265625,0.015625 0.15625,0.015625 0.15625,0.03125 0.15625,0.109375 0,0 0,0.046875 -0.015625,0.140625 L 1.3125,-0.546875 C 1.265625,-0.3125 1.25,-0.25 0.703125,-0.25 0.578125,-0.25 0.5,-0.25 0.5,-0.109375 0.5,-0.03125 0.546875,0 0.609375,0 c 0.125,0 0.296875,-0.015625 0.421875,-0.015625 0.140625,0 0.34375,-0.015625 0.46875,-0.015625 0.140625,0 0.296875,0.015625 0.4375,0.015625 C 2.09375,-0.015625 2.265625,0 2.40625,0 2.453125,0 2.5625,0 2.5625,-0.140625 2.5625,-0.25 2.484375,-0.25 2.328125,-0.25 2.21875,-0.25 2.1875,-0.25 2.0625,-0.265625 1.90625,-0.28125 1.90625,-0.296875 1.90625,-0.375 c 0,0 0,-0.046875 0.03125,-0.140625 L 2.375,-2.28125 h 0.953125 c 0.59375,0 0.859375,0.296875 0.859375,0.625 0,0.09375 -0.0625,0.328125 -0.109375,0.484375 C 4,-0.84375 3.96875,-0.75 3.96875,-0.625 c 0,0.546875 0.515625,0.765625 1.03125,0.765625 0.640625,0 0.921875,-0.6875 0.921875,-0.8125 0,-0.015625 -0.015625,-0.09375 -0.125,-0.09375 -0.09375,0 -0.109375,0.046875 -0.125,0.125 C 5.578125,-0.34375 5.3125,-0.0625 5.03125,-0.0625 c -0.1875,0 -0.328125,-0.0625 -0.328125,-0.453125 0,-0.171875 0.046875,-0.53125 0.078125,-0.71875 0.03125,-0.1875 0.03125,-0.25 0.03125,-0.328125 0,-0.078125 0,-0.3125 -0.203125,-0.515625 C 4.484375,-2.21875 4.296875,-2.3125 4.140625,-2.375 Z m 0,0"
             style="fill:#c800c8;fill-opacity:1;stroke:none;stroke-width:0"
             inkscape:connector-curvature="0" />
        </g>
      </g>
    </g>
    <g
       id="g2907"
       style="fill:#c86400;fill-opacity:1"
       ns1:jacobian_sqrt="0.529167"
       inkscapeversion="0.92.4"
       ns1:alignment="middle center"
       ns1:scale="1.5"
       ns1:preamble="C:\\Users\\shawn\\AppData\\Roaming\\inkscape\\extensions\\textext\\default_packages.tex"
       ns1:text="$\\mathbf{q}_Q - \\mathbf{q}_0$"
       ns1:pdfconverter="pdf2svg"
       ns1:texconverter="pdflatex"
       ns1:version="0.11.0"
       transform="matrix(0.529167,0,0,0.529167,-44.465364,154.75803)">
      <g
         style="fill:#c86400;fill-opacity:1"
         id="g2905">
        <g
           id="g2887"
           style="fill:#c86400;fill-opacity:1">
          <path
             id="path2885"
             transform="translate(148.712,134.765)"
             d="m 4.234375,-1.421875 c 0,0.1875 0,0.21875 -0.15625,0.421875 -0.40625,0.59375 -0.90625,0.703125 -1.203125,0.703125 -0.625,0 -1.21875,-0.578125 -1.21875,-1.90625 0,-1.421875 0.734375,-1.890625 1.328125,-1.890625 0.765625,0 1.25,0.796875 1.25,1.296875 z m 0.125,-2.28125 c -0.34375,-0.484375 -0.90625,-0.78125 -1.5,-0.78125 -1.453125,0 -2.484375,0.890625 -2.484375,2.265625 0,1.40625 1.015625,2.28125 2.390625,2.28125 0.5,0 0.9375,-0.140625 1.40625,-0.546875 V 1.46875 h -0.6875 V 1.9375 c 0.28125,-0.015625 0.875,-0.03125 1.25,-0.03125 0.390625,0 0.984375,0.015625 1.25,0.03125 V 1.46875 h -0.6875 v -5.953125 h -0.40625 z m 0,0"
             style="fill:#c86400;fill-opacity:1;stroke:none;stroke-width:0"
             inkscape:connector-curvature="0" />
        </g>
        <g
           id="g2891"
           style="fill:#c86400;fill-opacity:1">
          <path
             id="path2889"
             transform="translate(154.759,136.259)"
             d="m 3.234375,0.421875 c 0,0.453125 0.09375,0.9375 0.671875,0.9375 0.84375,0 1.25,-1.203125 1.25,-1.359375 0,-0.046875 -0.046875,-0.09375 -0.109375,-0.09375 -0.0625,0 -0.078125,0.0625 -0.09375,0.09375 C 4.78125,0.484375 4.328125,0.625 4.09375,0.625 3.8125,0.625 3.671875,0.5 3.546875,-0.0625 4.78125,-0.5 5.78125,-1.734375 5.78125,-2.96875 c 0,-1.09375 -0.796875,-1.9375 -2.03125,-1.9375 -1.65625,0 -3.265625,1.5625 -3.265625,3.140625 0,1.125 0.828125,1.90625 2.03125,1.90625 0.125,0 0.359375,-0.015625 0.71875,-0.09375 z M 2.03125,-0.171875 c -0.359375,-0.125 -0.875,-0.484375 -0.875,-1.421875 0,-0.453125 0.140625,-1.375 0.78125,-2.15625 0.4375,-0.546875 1.109375,-0.921875 1.765625,-0.921875 0.75,0 1.390625,0.5 1.390625,1.515625 0,0.703125 -0.328125,2.203125 -1.609375,2.828125 C 3.375,-0.765625 3.1875,-1.046875 2.78125,-1.046875 2.390625,-1.046875 2,-0.71875 2,-0.359375 c 0,0.125 0.015625,0.140625 0.03125,0.1875 z m 1.203125,-0.03125 c -0.140625,0.046875 -0.40625,0.125 -0.671875,0.125 -0.109375,0 -0.359375,0 -0.359375,-0.28125 0,-0.265625 0.28125,-0.5 0.578125,-0.5 0.25,0 0.4375,0.109375 0.453125,0.65625 z m 0,0"
             style="fill:#c86400;fill-opacity:1;stroke:none;stroke-width:0"
             inkscape:connector-curvature="0" />
        </g>
        <g
           id="g2895"
           style="fill:#c86400;fill-opacity:1">
          <path
             id="path2893"
             transform="translate(163.745,134.765)"
             d="m 6.5625,-2.296875 c 0.171875,0 0.359375,0 0.359375,-0.203125 0,-0.1875 -0.1875,-0.1875 -0.359375,-0.1875 H 1.171875 c -0.171875,0 -0.34375,0 -0.34375,0.1875 0,0.203125 0.171875,0.203125 0.34375,0.203125 z m 0,0"
             style="fill:#c86400;fill-opacity:1;stroke:none;stroke-width:0"
             inkscape:connector-curvature="0" />
        </g>
        <g
           id="g2899"
           style="fill:#c86400;fill-opacity:1">
          <path
             id="path2897"
             transform="translate(173.708,134.765)"
             d="m 4.234375,-1.421875 c 0,0.1875 0,0.21875 -0.15625,0.421875 -0.40625,0.59375 -0.90625,0.703125 -1.203125,0.703125 -0.625,0 -1.21875,-0.578125 -1.21875,-1.90625 0,-1.421875 0.734375,-1.890625 1.328125,-1.890625 0.765625,0 1.25,0.796875 1.25,1.296875 z m 0.125,-2.28125 c -0.34375,-0.484375 -0.90625,-0.78125 -1.5,-0.78125 -1.453125,0 -2.484375,0.890625 -2.484375,2.265625 0,1.40625 1.015625,2.28125 2.390625,2.28125 0.5,0 0.9375,-0.140625 1.40625,-0.546875 V 1.46875 h -0.6875 V 1.9375 c 0.28125,-0.015625 0.875,-0.03125 1.25,-0.03125 0.390625,0 0.984375,0.015625 1.25,0.03125 V 1.46875 h -0.6875 v -5.953125 h -0.40625 z m 0,0"
             style="fill:#c86400;fill-opacity:1;stroke:none;stroke-width:0"
             inkscape:connector-curvature="0" />
        </g>
        <g
           id="g2903"
           style="fill:#c86400;fill-opacity:1">
          <path
             id="path2901"
             transform="translate(179.755,136.259)"
             d="M 3.59375,-2.21875 C 3.59375,-2.984375 3.5,-3.546875 3.1875,-4.03125 2.96875,-4.34375 2.53125,-4.625 1.984375,-4.625 c -1.625,0 -1.625,1.90625 -1.625,2.40625 0,0.5 0,2.359375 1.625,2.359375 1.609375,0 1.609375,-1.859375 1.609375,-2.359375 z M 1.984375,-0.0625 c -0.328125,0 -0.75,-0.1875 -0.890625,-0.75 C 1,-1.21875 1,-1.796875 1,-2.3125 1,-2.828125 1,-3.359375 1.09375,-3.734375 1.25,-4.28125 1.6875,-4.4375 1.984375,-4.4375 c 0.375,0 0.734375,0.234375 0.859375,0.640625 0.109375,0.375 0.125,0.875 0.125,1.484375 0,0.515625 0,1.03125 -0.09375,1.46875 -0.140625,0.640625 -0.609375,0.78125 -0.890625,0.78125 z m 0,0"
             style="fill:#c86400;fill-opacity:1;stroke:none;stroke-width:0"
             inkscape:connector-curvature="0" />
        </g>
      </g>
    </g>
    <g
       id="g1044"
       ns1:jacobian_sqrt="0.529167"
       inkscapeversion="0.92.4"
       ns1:alignment="middle center"
       ns1:scale="1.5"
       ns1:preamble="C:\\Users\\shawn\\AppData\\Roaming\\inkscape\\extensions\\textext\\default_packages.tex"
       ns1:text="$= \\text{perp}((\\mathbf{q}_Q - \\mathbf{q}_0)|\\mathbf{v})$"
       ns1:pdfconverter="pdf2svg"
       ns1:texconverter="pdflatex"
       ns1:version="0.11.0"
       transform="matrix(0.529167,0,0,0.529167,-38.538793,171.22157)"
       style="fill:#c800c8;fill-opacity:1">
      <g
         id="g1042"
         style="fill:#c800c8;fill-opacity:1">
        <g
           id="g986"
           style="fill:#c800c8;fill-opacity:1">
          <path
             id="path984"
             transform="translate(148.712,134.765)"
             d="m 6.84375,-3.265625 c 0.15625,0 0.34375,0 0.34375,-0.1875 C 7.1875,-3.65625 7,-3.65625 6.859375,-3.65625 h -5.96875 c -0.140625,0 -0.328125,0 -0.328125,0.203125 0,0.1875 0.1875,0.1875 0.328125,0.1875 z m 0.015625,1.9375 c 0.140625,0 0.328125,0 0.328125,-0.203125 0,-0.1875 -0.1875,-0.1875 -0.34375,-0.1875 H 0.890625 c -0.140625,0 -0.328125,0 -0.328125,0.1875 0,0.203125 0.1875,0.203125 0.328125,0.203125 z m 0,0"
             style="fill:#c800c8;fill-opacity:1;stroke:none;stroke-width:0"
             inkscape:connector-curvature="0" />
        </g>
        <g
           id="g990"
           style="fill:#c800c8;fill-opacity:1">
          <path
             id="path988"
             transform="translate(159.23051,134.765)"
             d="m 1.71875,-3.75 v -0.65625 l -1.4375,0.109375 v 0.3125 c 0.703125,0 0.78125,0.0625 0.78125,0.5 v 4.65625 C 1.0625,1.625 0.953125,1.625 0.28125,1.625 V 1.9375 C 0.625,1.921875 1.140625,1.90625 1.390625,1.90625 c 0.28125,0 0.78125,0.015625 1.125,0.03125 V 1.625 C 1.859375,1.625 1.75,1.625 1.75,1.171875 V -0.59375 c 0.046875,0.171875 0.46875,0.703125 1.21875,0.703125 1.1875,0 2.21875,-0.984375 2.21875,-2.265625 0,-1.265625 -0.953125,-2.25 -2.078125,-2.25 -0.78125,0 -1.203125,0.4375 -1.390625,0.65625 z M 1.75,-1.140625 v -2.21875 C 2.03125,-3.875 2.515625,-4.15625 3.03125,-4.15625 c 0.734375,0 1.328125,0.875 1.328125,2 0,1.203125 -0.6875,2.046875 -1.421875,2.046875 -0.40625,0 -0.78125,-0.203125 -1.046875,-0.609375 C 1.75,-0.921875 1.75,-0.9375 1.75,-1.140625 Z m 0,0"
             style="fill:#c800c8;fill-opacity:1;stroke:none;stroke-width:0"
             inkscape:connector-curvature="0" />
        </g>
        <g
           id="g998"
           style="fill:#c800c8;fill-opacity:1">
          <path
             id="path992"
             transform="translate(165.04469,134.765)"
             d="M 1.109375,-2.515625 C 1.171875,-4 2.015625,-4.25 2.359375,-4.25 c 1.015625,0 1.125,1.34375 1.125,1.734375 z m 0,0.21875 h 2.78125 c 0.21875,0 0.25,0 0.25,-0.21875 0,-0.984375 -0.546875,-1.953125 -1.78125,-1.953125 -1.15625,0 -2.078125,1.03125 -2.078125,2.28125 0,1.328125 1.046875,2.296875 2.1875,2.296875 C 3.6875,0.109375 4.140625,-1 4.140625,-1.1875 4.140625,-1.28125 4.0625,-1.3125 4,-1.3125 c -0.078125,0 -0.109375,0.0625 -0.125,0.140625 -0.34375,1.03125 -1.25,1.03125 -1.34375,1.03125 -0.5,0 -0.890625,-0.296875 -1.125,-0.671875 -0.296875,-0.46875 -0.296875,-1.125 -0.296875,-1.484375 z m 0,0"
             style="fill:#c800c8;fill-opacity:1;stroke:none;stroke-width:0"
             inkscape:connector-curvature="0" />
          <path
             id="path994"
             transform="translate(169.47207,134.765)"
             d="M 1.671875,-3.3125 V -4.40625 L 0.28125,-4.296875 v 0.3125 c 0.703125,0 0.78125,0.0625 0.78125,0.5625 V -0.75 c 0,0.4375 -0.109375,0.4375 -0.78125,0.4375 V 0 c 0.390625,-0.015625 0.859375,-0.03125 1.140625,-0.03125 0.390625,0 0.859375,0 1.265625,0.03125 V -0.3125 H 2.46875 c -0.734375,0 -0.75,-0.109375 -0.75,-0.46875 V -2.3125 c 0,-0.984375 0.421875,-1.875 1.171875,-1.875 0.0625,0 0.09375,0 0.109375,0.015625 -0.03125,0 -0.234375,0.125 -0.234375,0.390625 0,0.265625 0.21875,0.421875 0.4375,0.421875 0.171875,0 0.421875,-0.125 0.421875,-0.4375 0,-0.3125 -0.3125,-0.609375 -0.734375,-0.609375 -0.734375,0 -1.09375,0.671875 -1.21875,1.09375 z m 0,0"
             style="fill:#c800c8;fill-opacity:1;stroke:none;stroke-width:0"
             inkscape:connector-curvature="0" />
          <path
             id="path996"
             transform="translate(173.37442,134.765)"
             d="m 1.71875,-3.75 v -0.65625 l -1.4375,0.109375 v 0.3125 c 0.703125,0 0.78125,0.0625 0.78125,0.5 v 4.65625 C 1.0625,1.625 0.953125,1.625 0.28125,1.625 V 1.9375 C 0.625,1.921875 1.140625,1.90625 1.390625,1.90625 c 0.28125,0 0.78125,0.015625 1.125,0.03125 V 1.625 C 1.859375,1.625 1.75,1.625 1.75,1.171875 V -0.59375 c 0.046875,0.171875 0.46875,0.703125 1.21875,0.703125 1.1875,0 2.21875,-0.984375 2.21875,-2.265625 0,-1.265625 -0.953125,-2.25 -2.078125,-2.25 -0.78125,0 -1.203125,0.4375 -1.390625,0.65625 z M 1.75,-1.140625 v -2.21875 C 2.03125,-3.875 2.515625,-4.15625 3.03125,-4.15625 c 0.734375,0 1.328125,0.875 1.328125,2 0,1.203125 -0.6875,2.046875 -1.421875,2.046875 -0.40625,0 -0.78125,-0.203125 -1.046875,-0.609375 C 1.75,-0.921875 1.75,-0.9375 1.75,-1.140625 Z m 0,0"
             style="fill:#c800c8;fill-opacity:1;stroke:none;stroke-width:0"
             inkscape:connector-curvature="0" />
        </g>
        <g
           id="g1004"
           style="fill:#c800c8;fill-opacity:1">
          <path
             id="path1000"
             transform="translate(178.89967,134.765)"
             d="m 3.296875,2.390625 c 0,-0.03125 0,-0.046875 -0.171875,-0.21875 C 1.890625,0.921875 1.5625,-0.96875 1.5625,-2.5 c 0,-1.734375 0.375,-3.46875 1.609375,-4.703125 0.125,-0.125 0.125,-0.140625 0.125,-0.171875 0,-0.078125 -0.03125,-0.109375 -0.09375,-0.109375 -0.109375,0 -1,0.6875 -1.59375,1.953125 -0.5,1.09375 -0.625,2.203125 -0.625,3.03125 0,0.78125 0.109375,1.984375 0.65625,3.125 C 2.25,1.84375 3.09375,2.5 3.203125,2.5 c 0.0625,0 0.09375,-0.03125 0.09375,-0.109375 z m 0,0"
             style="fill:#c800c8;fill-opacity:1;stroke:none;stroke-width:0"
             inkscape:connector-curvature="0" />
          <path
             id="path1002"
             transform="translate(182.77413,134.765)"
             d="m 3.296875,2.390625 c 0,-0.03125 0,-0.046875 -0.171875,-0.21875 C 1.890625,0.921875 1.5625,-0.96875 1.5625,-2.5 c 0,-1.734375 0.375,-3.46875 1.609375,-4.703125 0.125,-0.125 0.125,-0.140625 0.125,-0.171875 0,-0.078125 -0.03125,-0.109375 -0.09375,-0.109375 -0.109375,0 -1,0.6875 -1.59375,1.953125 -0.5,1.09375 -0.625,2.203125 -0.625,3.03125 0,0.78125 0.109375,1.984375 0.65625,3.125 C 2.25,1.84375 3.09375,2.5 3.203125,2.5 c 0.0625,0 0.09375,-0.03125 0.09375,-0.109375 z m 0,0"
             style="fill:#c800c8;fill-opacity:1;stroke:none;stroke-width:0"
             inkscape:connector-curvature="0" />
        </g>
        <g
           id="g1008"
           style="fill:#c800c8;fill-opacity:1">
          <path
             id="path1006"
             transform="translate(186.653,134.765)"
             d="m 4.234375,-1.421875 c 0,0.1875 0,0.21875 -0.15625,0.421875 -0.40625,0.59375 -0.90625,0.703125 -1.203125,0.703125 -0.625,0 -1.21875,-0.578125 -1.21875,-1.90625 0,-1.421875 0.734375,-1.890625 1.328125,-1.890625 0.765625,0 1.25,0.796875 1.25,1.296875 z m 0.125,-2.28125 c -0.34375,-0.484375 -0.90625,-0.78125 -1.5,-0.78125 -1.453125,0 -2.484375,0.890625 -2.484375,2.265625 0,1.40625 1.015625,2.28125 2.390625,2.28125 0.5,0 0.9375,-0.140625 1.40625,-0.546875 V 1.46875 h -0.6875 V 1.9375 c 0.28125,-0.015625 0.875,-0.03125 1.25,-0.03125 0.390625,0 0.984375,0.015625 1.25,0.03125 V 1.46875 h -0.6875 v -5.953125 h -0.40625 z m 0,0"
             style="fill:#c800c8;fill-opacity:1;stroke:none;stroke-width:0"
             inkscape:connector-curvature="0" />
        </g>
        <g
           id="g1012"
           style="fill:#c800c8;fill-opacity:1">
          <path
             id="path1010"
             transform="translate(192.7,136.259)"
             d="m 3.234375,0.421875 c 0,0.453125 0.09375,0.9375 0.671875,0.9375 0.84375,0 1.25,-1.203125 1.25,-1.359375 0,-0.046875 -0.046875,-0.09375 -0.109375,-0.09375 -0.0625,0 -0.078125,0.0625 -0.09375,0.09375 C 4.78125,0.484375 4.328125,0.625 4.09375,0.625 3.8125,0.625 3.671875,0.5 3.546875,-0.0625 4.78125,-0.5 5.78125,-1.734375 5.78125,-2.96875 c 0,-1.09375 -0.796875,-1.9375 -2.03125,-1.9375 -1.65625,0 -3.265625,1.5625 -3.265625,3.140625 0,1.125 0.828125,1.90625 2.03125,1.90625 0.125,0 0.359375,-0.015625 0.71875,-0.09375 z M 2.03125,-0.171875 c -0.359375,-0.125 -0.875,-0.484375 -0.875,-1.421875 0,-0.453125 0.140625,-1.375 0.78125,-2.15625 0.4375,-0.546875 1.109375,-0.921875 1.765625,-0.921875 0.75,0 1.390625,0.5 1.390625,1.515625 0,0.703125 -0.328125,2.203125 -1.609375,2.828125 C 3.375,-0.765625 3.1875,-1.046875 2.78125,-1.046875 2.390625,-1.046875 2,-0.71875 2,-0.359375 c 0,0.125 0.015625,0.140625 0.03125,0.1875 z m 1.203125,-0.03125 c -0.140625,0.046875 -0.40625,0.125 -0.671875,0.125 -0.109375,0 -0.359375,0 -0.359375,-0.28125 0,-0.265625 0.28125,-0.5 0.578125,-0.5 0.25,0 0.4375,0.109375 0.453125,0.65625 z m 0,0"
             style="fill:#c800c8;fill-opacity:1;stroke:none;stroke-width:0"
             inkscape:connector-curvature="0" />
        </g>
        <g
           id="g1016"
           style="fill:#c800c8;fill-opacity:1">
          <path
             id="path1014"
             transform="translate(201.686,134.765)"
             d="m 6.5625,-2.296875 c 0.171875,0 0.359375,0 0.359375,-0.203125 0,-0.1875 -0.1875,-0.1875 -0.359375,-0.1875 H 1.171875 c -0.171875,0 -0.34375,0 -0.34375,0.1875 0,0.203125 0.171875,0.203125 0.34375,0.203125 z m 0,0"
             style="fill:#c800c8;fill-opacity:1;stroke:none;stroke-width:0"
             inkscape:connector-curvature="0" />
        </g>
        <g
           id="g1020"
           style="fill:#c800c8;fill-opacity:1">
          <path
             id="path1018"
             transform="translate(211.649,134.765)"
             d="m 4.234375,-1.421875 c 0,0.1875 0,0.21875 -0.15625,0.421875 -0.40625,0.59375 -0.90625,0.703125 -1.203125,0.703125 -0.625,0 -1.21875,-0.578125 -1.21875,-1.90625 0,-1.421875 0.734375,-1.890625 1.328125,-1.890625 0.765625,0 1.25,0.796875 1.25,1.296875 z m 0.125,-2.28125 c -0.34375,-0.484375 -0.90625,-0.78125 -1.5,-0.78125 -1.453125,0 -2.484375,0.890625 -2.484375,2.265625 0,1.40625 1.015625,2.28125 2.390625,2.28125 0.5,0 0.9375,-0.140625 1.40625,-0.546875 V 1.46875 h -0.6875 V 1.9375 c 0.28125,-0.015625 0.875,-0.03125 1.25,-0.03125 0.390625,0 0.984375,0.015625 1.25,0.03125 V 1.46875 h -0.6875 v -5.953125 h -0.40625 z m 0,0"
             style="fill:#c800c8;fill-opacity:1;stroke:none;stroke-width:0"
             inkscape:connector-curvature="0" />
        </g>
        <g
           id="g1024"
           style="fill:#c800c8;fill-opacity:1">
          <path
             id="path1022"
             transform="translate(217.696,136.259)"
             d="M 3.59375,-2.21875 C 3.59375,-2.984375 3.5,-3.546875 3.1875,-4.03125 2.96875,-4.34375 2.53125,-4.625 1.984375,-4.625 c -1.625,0 -1.625,1.90625 -1.625,2.40625 0,0.5 0,2.359375 1.625,2.359375 1.609375,0 1.609375,-1.859375 1.609375,-2.359375 z M 1.984375,-0.0625 c -0.328125,0 -0.75,-0.1875 -0.890625,-0.75 C 1,-1.21875 1,-1.796875 1,-2.3125 1,-2.828125 1,-3.359375 1.09375,-3.734375 1.25,-4.28125 1.6875,-4.4375 1.984375,-4.4375 c 0.375,0 0.734375,0.234375 0.859375,0.640625 0.109375,0.375 0.125,0.875 0.125,1.484375 0,0.515625 0,1.03125 -0.09375,1.46875 -0.140625,0.640625 -0.609375,0.78125 -0.890625,0.78125 z m 0,0"
             style="fill:#c800c8;fill-opacity:1;stroke:none;stroke-width:0"
             inkscape:connector-curvature="0" />
        </g>
        <g
           id="g1028"
           style="fill:#c800c8;fill-opacity:1">
          <path
             id="path1026"
             transform="translate(222.165,134.765)"
             d="m 2.875,-2.5 c 0,-0.765625 -0.109375,-1.96875 -0.65625,-3.109375 -0.59375,-1.21875 -1.453125,-1.875 -1.546875,-1.875 -0.0625,0 -0.109375,0.046875 -0.109375,0.109375 0,0.03125 0,0.046875 0.1875,0.234375 0.984375,0.984375 1.546875,2.5625 1.546875,4.640625 0,1.71875 -0.359375,3.46875 -1.59375,4.71875 C 0.5625,2.34375 0.5625,2.359375 0.5625,2.390625 0.5625,2.453125 0.609375,2.5 0.671875,2.5 0.765625,2.5 1.671875,1.8125 2.25,0.546875 2.765625,-0.546875 2.875,-1.65625 2.875,-2.5 Z m 0,0"
             style="fill:#c800c8;fill-opacity:1;stroke:none;stroke-width:0"
             inkscape:connector-curvature="0" />
        </g>
        <g
           id="g1032"
           style="fill:#c800c8;fill-opacity:1">
          <path
             id="path1030"
             transform="translate(226.039,134.765)"
             d="m 1.578125,-7.125 c 0,-0.171875 0,-0.359375 -0.1875,-0.359375 -0.203125,0 -0.203125,0.1875 -0.203125,0.359375 v 9.265625 c 0,0.171875 0,0.359375 0.203125,0.359375 0.1875,0 0.1875,-0.1875 0.1875,-0.359375 z m 0,0"
             style="fill:#c800c8;fill-opacity:1;stroke:none;stroke-width:0"
             inkscape:connector-curvature="0" />
        </g>
        <g
           id="g1036"
           style="fill:#c800c8;fill-opacity:1">
          <path
             id="path1034"
             transform="translate(228.807,134.765)"
             d="m 5.046875,-3.75 c 0.0625,-0.140625 0.09375,-0.203125 0.734375,-0.203125 v -0.46875 C 5.53125,-4.40625 5.25,-4.390625 5,-4.390625 c -0.25,0 -0.703125,-0.03125 -0.90625,-0.03125 v 0.46875 c 0.1875,0 0.46875,0.03125 0.46875,0.109375 0,0 0,0.03125 -0.046875,0.109375 l -1.15625,2.5 -1.265625,-2.71875 H 2.625 v -0.46875 c -0.328125,0.015625 -1.21875,0.03125 -1.234375,0.03125 -0.28125,0 -0.71875,-0.03125 -1.125,-0.03125 v 0.46875 h 0.625 l 1.75,3.75 c 0.125,0.25 0.25,0.25 0.375,0.25 0.171875,0 0.28125,-0.03125 0.375,-0.25 z m 0,0"
             style="fill:#c800c8;fill-opacity:1;stroke:none;stroke-width:0"
             inkscape:connector-curvature="0" />
        </g>
        <g
           id="g1040"
           style="fill:#c800c8;fill-opacity:1">
          <path
             id="path1038"
             transform="translate(235.013,134.765)"
             d="m 2.875,-2.5 c 0,-0.765625 -0.109375,-1.96875 -0.65625,-3.109375 -0.59375,-1.21875 -1.453125,-1.875 -1.546875,-1.875 -0.0625,0 -0.109375,0.046875 -0.109375,0.109375 0,0.03125 0,0.046875 0.1875,0.234375 0.984375,0.984375 1.546875,2.5625 1.546875,4.640625 0,1.71875 -0.359375,3.46875 -1.59375,4.71875 C 0.5625,2.34375 0.5625,2.359375 0.5625,2.390625 0.5625,2.453125 0.609375,2.5 0.671875,2.5 0.765625,2.5 1.671875,1.8125 2.25,0.546875 2.765625,-0.546875 2.875,-1.65625 2.875,-2.5 Z m 0,0"
             style="fill:#c800c8;fill-opacity:1;stroke:none;stroke-width:0"
             inkscape:connector-curvature="0" />
        </g>
      </g>
    </g>
  </g>
</svg>
