<?xml version="1.0" encoding="UTF-8" standalone="no"?>
<!-- Created with Inkscape (http://www.inkscape.org/) -->

<svg
   xmlns:ns1="http://www.iki.fi/pav/software/textext/"
   xmlns:dc="http://purl.org/dc/elements/1.1/"
   xmlns:cc="http://creativecommons.org/ns#"
   xmlns:rdf="http://www.w3.org/1999/02/22-rdf-syntax-ns#"
   xmlns:svg="http://www.w3.org/2000/svg"
   xmlns="http://www.w3.org/2000/svg"
   xmlns:sodipodi="http://sodipodi.sourceforge.net/DTD/sodipodi-0.dtd"
   xmlns:inkscape="http://www.inkscape.org/namespaces/inkscape"
   width="100mm"
   height="100mm"
   viewBox="0 0 100 100"
   version="1.1"
   id="svg8"
   inkscape:version="0.92.4 (5da689c313, 2019-01-14)"
   sodipodi:docname="surface_surface_intersections_example.svg">
  <defs
     id="defs2">
    <marker
       inkscape:stockid="Arrow1Send"
       orient="auto"
       refY="0.0"
       refX="0.0"
       id="marker5658"
       style="overflow:visible;"
       inkscape:isstock="true">
      <path
         id="path5410"
         d="M 0.0,0.0 L 5.0,-5.0 L -12.5,0.0 L 5.0,5.0 L 0.0,0.0 z "
         style="fill-rule:evenodd;stroke:#007f00;stroke-width:1pt;stroke-opacity:1;fill:#007f00;fill-opacity:1"
         transform="scale(0.2) rotate(180) translate(6,0)" />
    </marker>
    <marker
       inkscape:stockid="Arrow1Mend"
       orient="auto"
       refY="0"
       refX="0"
       id="marker6402"
       style="overflow:visible"
       inkscape:isstock="true">
      <path
         id="path6400"
         d="M 0,0 5,-5 -12.5,0 5,5 Z"
         style="fill:#000000;fill-opacity:1;fill-rule:evenodd;stroke:#000000;stroke-width:1.00000003pt;stroke-opacity:1"
         transform="matrix(-0.4,0,0,-0.4,-4,0)"
         inkscape:connector-curvature="0" />
    </marker>
    <marker
       inkscape:stockid="Arrow1Mend"
       orient="auto"
       refY="0"
       refX="0"
       id="Arrow1Mend"
       style="overflow:visible"
       inkscape:isstock="true">
      <path
         id="path4502"
         d="M 0,0 5,-5 -12.5,0 5,5 Z"
         style="fill:#000000;fill-opacity:1;fill-rule:evenodd;stroke:#000000;stroke-width:1.00000003pt;stroke-opacity:1"
         transform="matrix(-0.4,0,0,-0.4,-4,0)"
         inkscape:connector-curvature="0" />
    </marker>
    <marker
       inkscape:stockid="Arrow1Send"
       orient="auto"
       refY="0"
       refX="0"
       id="marker5777"
       style="overflow:visible"
       inkscape:isstock="true">
      <path
         id="path5775"
         d="M 0,0 5,-5 -12.5,0 5,5 Z"
         style="fill:#7f0000;fill-opacity:1;fill-rule:evenodd;stroke:#7f0000;stroke-width:1.00000003pt;stroke-opacity:1"
         transform="matrix(-0.2,0,0,-0.2,-1.2,0)"
         inkscape:connector-curvature="0" />
    </marker>
    <marker
       inkscape:stockid="Arrow1Send"
       orient="auto"
       refY="0"
       refX="0"
       id="marker5320"
       style="overflow:visible"
       inkscape:isstock="true">
      <path
         id="path5318"
         d="M 0,0 5,-5 -12.5,0 5,5 Z"
         style="fill:#7f0000;fill-opacity:1;fill-rule:evenodd;stroke:#7f0000;stroke-width:1.00000003pt;stroke-opacity:1"
         transform="matrix(-0.2,0,0,-0.2,-1.2,0)"
         inkscape:connector-curvature="0" />
    </marker>
    <marker
       inkscape:stockid="Arrow1Send"
       orient="auto"
       refY="0"
       refX="0"
       id="Arrow1Send"
       style="overflow:visible"
       inkscape:isstock="true">
      <path
         id="path4508"
         d="M 0,0 5,-5 -12.5,0 5,5 Z"
         style="fill:#00007f;fill-opacity:1;fill-rule:evenodd;stroke:#00007f;stroke-width:1.00000003pt;stroke-opacity:1"
         transform="matrix(-0.2,0,0,-0.2,-1.2,0)"
         inkscape:connector-curvature="0" />
    </marker>
    <marker
       inkscape:stockid="Arrow1Send"
       orient="auto"
       refY="0"
       refX="0"
       id="Arrow1Send-0"
       style="overflow:visible"
       inkscape:isstock="true">
      <path
         inkscape:connector-curvature="0"
         id="path4508-7"
         d="M 0,0 5,-5 -12.5,0 5,5 Z"
         style="fill:#00007f;fill-opacity:1;fill-rule:evenodd;stroke:#00007f;stroke-width:1.00000003pt;stroke-opacity:1"
         transform="matrix(-0.2,0,0,-0.2,-1.2,0)" />
    </marker>
    <marker
       inkscape:stockid="Arrow1Send"
       orient="auto"
       refY="0"
       refX="0"
       id="Arrow1Send-9"
       style="overflow:visible"
       inkscape:isstock="true">
      <path
         inkscape:connector-curvature="0"
         id="path4508-4"
         d="M 0,0 5,-5 -12.5,0 5,5 Z"
         style="fill:#00007f;fill-opacity:1;fill-rule:evenodd;stroke:#00007f;stroke-width:1.00000003pt;stroke-opacity:1"
         transform="matrix(-0.2,0,0,-0.2,-1.2,0)" />
    </marker>
    <marker
       inkscape:stockid="Arrow1Send"
       orient="auto"
       refY="0"
       refX="0"
       id="Arrow1Send-4"
       style="overflow:visible"
       inkscape:isstock="true">
      <path
         inkscape:connector-curvature="0"
         id="path4508-74"
         d="M 0,0 5,-5 -12.5,0 5,5 Z"
         style="fill:#007f00;fill-opacity:1;fill-rule:evenodd;stroke:#007f00;stroke-width:1.00000003pt;stroke-opacity:1"
         transform="matrix(-0.2,0,0,-0.2,-1.2,0)" />
    </marker>
    <marker
       inkscape:stockid="Arrow1Send"
       orient="auto"
       refY="0"
       refX="0"
       id="Arrow1Send-3"
       style="overflow:visible"
       inkscape:isstock="true">
      <path
         inkscape:connector-curvature="0"
         id="path4508-0"
         d="M 0,0 5,-5 -12.5,0 5,5 Z"
         style="fill:#007f00;fill-opacity:1;fill-rule:evenodd;stroke:#007f00;stroke-width:1.00000003pt;stroke-opacity:1"
         transform="matrix(-0.2,0,0,-0.2,-1.2,0)" />
    </marker>
    <marker
       inkscape:stockid="Arrow1Send"
       orient="auto"
       refY="0"
       refX="0"
       id="Arrow1Send-2"
       style="overflow:visible"
       inkscape:isstock="true">
      <path
         inkscape:connector-curvature="0"
         id="path4508-1"
         d="M 0,0 5,-5 -12.5,0 5,5 Z"
         style="fill:#007f00;fill-opacity:1;fill-rule:evenodd;stroke:#007f00;stroke-width:1.00000003pt;stroke-opacity:1"
         transform="matrix(-0.2,0,0,-0.2,-1.2,0)" />
    </marker>
    <marker
       inkscape:stockid="Arrow1Send"
       orient="auto"
       refY="0"
       refX="0"
       id="marker5320-5"
       style="overflow:visible"
       inkscape:isstock="true">
      <path
         inkscape:connector-curvature="0"
         id="path5318-7"
         d="M 0,0 5,-5 -12.5,0 5,5 Z"
         style="fill:#7f0000;fill-opacity:1;fill-rule:evenodd;stroke:#7f0000;stroke-width:1.00000003pt;stroke-opacity:1"
         transform="matrix(-0.2,0,0,-0.2,-1.2,0)" />
    </marker>
    <marker
       inkscape:stockid="Arrow1Send"
       orient="auto"
       refY="0"
       refX="0"
       id="marker5320-8"
       style="overflow:visible"
       inkscape:isstock="true">
      <path
         inkscape:connector-curvature="0"
         id="path5318-2"
         d="M 0,0 5,-5 -12.5,0 5,5 Z"
         style="fill:#7f0000;fill-opacity:1;fill-rule:evenodd;stroke:#7f0000;stroke-width:1.00000003pt;stroke-opacity:1"
         transform="matrix(-0.2,0,0,-0.2,-1.2,0)" />
    </marker>
    <marker
       inkscape:stockid="Arrow1Send"
       orient="auto"
       refY="0"
       refX="0"
       id="marker5777-6"
       style="overflow:visible"
       inkscape:isstock="true">
      <path
         inkscape:connector-curvature="0"
         id="path5775-6"
         d="M 0,0 5,-5 -12.5,0 5,5 Z"
         style="fill:#7f0000;fill-opacity:1;fill-rule:evenodd;stroke:#7f0000;stroke-width:1.00000003pt;stroke-opacity:1"
         transform="matrix(-0.2,0,0,-0.2,-1.2,0)" />
    </marker>
    <marker
       inkscape:stockid="Arrow1Send"
       orient="auto"
       refY="0"
       refX="0"
       id="marker5777-4"
       style="overflow:visible"
       inkscape:isstock="true">
      <path
         inkscape:connector-curvature="0"
         id="path5775-7"
         d="M 0,0 5,-5 -12.5,0 5,5 Z"
         style="fill:#7f0000;fill-opacity:1;fill-rule:evenodd;stroke:#7f0000;stroke-width:1.00000003pt;stroke-opacity:1"
         transform="matrix(-0.2,0,0,-0.2,-1.2,0)" />
    </marker>
    <marker
       inkscape:stockid="Arrow1Send"
       orient="auto"
       refY="0"
       refX="0"
       id="marker5658-6"
       style="overflow:visible"
       inkscape:isstock="true">
      <path
         inkscape:connector-curvature="0"
         id="path5410-7"
         d="M 0,0 5,-5 -12.5,0 5,5 Z"
         style="fill:#007f00;fill-opacity:1;fill-rule:evenodd;stroke:#007f00;stroke-width:1.00000003pt;stroke-opacity:1"
         transform="matrix(-0.2,0,0,-0.2,-1.2,0)" />
    </marker>
    <marker
       inkscape:stockid="Arrow1Send"
       orient="auto"
       refY="0"
       refX="0"
       id="marker5658-3"
       style="overflow:visible"
       inkscape:isstock="true">
      <path
         inkscape:connector-curvature="0"
         id="path5410-4"
         d="M 0,0 5,-5 -12.5,0 5,5 Z"
         style="fill:#007f00;fill-opacity:1;fill-rule:evenodd;stroke:#007f00;stroke-width:1.00000003pt;stroke-opacity:1"
         transform="matrix(-0.2,0,0,-0.2,-1.2,0)" />
    </marker>
  </defs>
  <sodipodi:namedview
     id="base"
     pagecolor="#ffffff"
     bordercolor="#666666"
     borderopacity="1.0"
     inkscape:pageopacity="0.0"
     inkscape:pageshadow="2"
     inkscape:zoom="1.4"
     inkscape:cx="38.762655"
     inkscape:cy="273.70998"
     inkscape:document-units="mm"
     inkscape:current-layer="g_intersection"
     showgrid="false"
     inkscape:window-width="1920"
     inkscape:window-height="1017"
     inkscape:window-x="-8"
     inkscape:window-y="-8"
     inkscape:window-maximized="1"
     inkscape:snap-global="false"
     inkscape:object-paths="true"
     inkscape:snap-smooth-nodes="true">
    <inkscape:grid
       type="xygrid"
       id="grid4485"
       units="mm"
       spacingx="1"
       spacingy="1" />
  </sodipodi:namedview>
  <metadata
     id="metadata5">
    <rdf:RDF>
      <cc:Work
         rdf:about="">
        <dc:format>image/svg+xml</dc:format>
        <dc:type
           rdf:resource="http://purl.org/dc/dcmitype/StillImage" />
        <dc:title />
      </cc:Work>
    </rdf:RDF>
  </metadata>
  <g
     inkscape:label="Layer 1"
     inkscape:groupmode="layer"
     id="layer1"
     transform="translate(0,-197)">
    <g
       transform="translate(-31.516508,31.097842)"
       id="g_surface_2_back_slice">
      <path
         sodipodi:nodetypes="cccssscsc"
         inkscape:connector-curvature="0"
         id="surface_2_back_slice-2-3"
         d="m 69.490078,228.579 c 0.26728,10.69078 5.61267,12.2944 10.15625,13.09621 4.54358,0.8018 12.2944,2.13815 19.77795,0 7.483542,-2.13816 10.557142,-5.21176 14.967092,-9.6217 6.50295,-6.50295 8.02012,-10.1639 9.75534,-16.70435 1.73725,-6.54811 1.46998,-12.16077 1.20271,-15.63527 -0.26726,-3.47451 -0.40091,-6.81537 -0.66818,-12.56167 0,0 -12.78439,19.82249 -21.98292,26.72695 -9.198528,6.90447 -33.208242,14.69983 -33.208242,14.69983 z"
         style="fill:#ff0000;fill-opacity:0.49803922;stroke:none;stroke-width:1;stroke-linecap:butt;stroke-linejoin:miter;stroke-miterlimit:4;stroke-dasharray:none;stroke-opacity:1" />
      <path
         inkscape:connector-curvature="0"
         id="path5773"
         d="m 88.819892,230.68827 2.19367,5.74629"
         style="fill:none;stroke:#7f0000;stroke-width:1;stroke-linecap:butt;stroke-linejoin:miter;stroke-miterlimit:4;stroke-dasharray:none;stroke-opacity:1;marker-end:url(#marker5777)"
         sodipodi:nodetypes="cc" />
      <path
         inkscape:connector-curvature="0"
         id="path5773-8"
         d="m 106.98964,224.43632 6.60362,4.00904"
         style="fill:none;stroke:#7f0000;stroke-width:1;stroke-linecap:butt;stroke-linejoin:miter;stroke-miterlimit:4;stroke-dasharray:none;stroke-opacity:1;marker-end:url(#marker5777-6)"
         sodipodi:nodetypes="cc" />
      <path
         sodipodi:nodetypes="cccsssc"
         inkscape:connector-curvature="0"
         id="surface_2_back_slice-2"
         d="m 69.490076,228.579 c 0.267271,10.69078 5.612667,12.2944 10.156248,13.09621 4.543581,0.8018 12.2944,2.13815 19.77795,0 7.483536,-2.13816 10.557136,-5.21176 14.967086,-9.6217 6.50295,-6.50295 8.02012,-10.1639 9.75534,-16.70435 1.73725,-6.54811 1.46998,-12.16077 1.20271,-15.63527 -0.26726,-3.47451 -0.40091,-6.81537 -0.66818,-12.56167"
         style="fill:none;fill-opacity:0.49803922;stroke:#c80000;stroke-width:1;stroke-linecap:butt;stroke-linejoin:miter;stroke-miterlimit:4;stroke-dasharray:none;stroke-opacity:1" />
      <path
         inkscape:connector-curvature="0"
         id="path5773-4"
         d="m 118.74951,207.46471 5.66817,1.46998"
         style="fill:none;stroke:#7f0000;stroke-width:1;stroke-linecap:butt;stroke-linejoin:miter;stroke-miterlimit:4;stroke-dasharray:none;stroke-opacity:1;marker-end:url(#marker5777-4)"
         sodipodi:nodetypes="cc" />
    </g>
    <g
       id="g_surface_1_front_slice"
       transform="translate(-37.277604,35.562529)">
      <path
         sodipodi:nodetypes="cssscsc"
         inkscape:connector-curvature="0"
         id="surface_1_front_slice"
         d="m 47.058036,245.78422 c 7.843004,7.46502 18.190297,9.83541 28.442706,8.97694 7.905336,-0.66195 20.701953,-8.38586 27.308778,-12.47321 8.65146,-5.35229 18.49017,-17.39437 19.0878,-22.77307 0.56696,-5.10268 -0.96468,-8.5885 -13.4379,-10.1004 -7.37054,5.66965 -24.776306,12.18254 -33.208246,14.69983 -6.761242,2.01852 -18.743733,11.27556 -28.193138,21.66991 z"
         style="fill:#00ff00;fill-opacity:0.49803922;stroke:none;stroke-width:0.26458332px;stroke-linecap:butt;stroke-linejoin:miter;stroke-opacity:1" />
      <path
         inkscape:connector-curvature="0"
         id="path4491-8"
         d="m 72.842748,242.21406 -0.377977,-5.37798"
         style="fill:none;stroke:#007f00;stroke-width:1;stroke-linecap:butt;stroke-linejoin:miter;stroke-miterlimit:4;stroke-dasharray:none;stroke-opacity:1;marker-end:url(#Arrow1Send-4)"
         sodipodi:nodetypes="cc" />
      <path
         inkscape:connector-curvature="0"
         id="path4491-4"
         d="m 92.974589,233.11346 0.188988,-4.99999"
         style="fill:none;stroke:#007f00;stroke-width:1;stroke-linecap:butt;stroke-linejoin:miter;stroke-miterlimit:4;stroke-dasharray:none;stroke-opacity:1;marker-end:url(#Arrow1Send-3)"
         sodipodi:nodetypes="cc" />
      <path
         inkscape:connector-curvature="0"
         id="path4491-5"
         d="m 109.49157,223.13278 -2.64583,-3.58259"
         style="fill:none;stroke:#007f00;stroke-width:1;stroke-linecap:butt;stroke-linejoin:miter;stroke-miterlimit:4;stroke-dasharray:none;stroke-opacity:1;marker-end:url(#Arrow1Send-2)"
         sodipodi:nodetypes="cc" />
      <path
         sodipodi:nodetypes="csssc"
         inkscape:connector-curvature="0"
         id="surface_1_front_slice-6"
         d="m 47.058036,245.78422 c 7.843004,7.46502 18.190297,9.83541 28.442706,8.97694 7.90534,-0.66195 20.70196,-8.38586 27.308778,-12.47321 8.65146,-5.35229 18.49017,-17.39437 19.0878,-22.77307 0.56696,-5.10268 -0.96468,-8.5885 -13.4379,-10.1004"
         style="fill:none;fill-opacity:0.49803922;stroke:#00c800;stroke-width:1;stroke-linecap:butt;stroke-linejoin:miter;stroke-miterlimit:4;stroke-dasharray:none;stroke-opacity:1" />
    </g>
    <g
       id="g6806"
       transform="translate(74.438777,15.655209)">
      <path
         style="fill:#00ff00;fill-opacity:0.49803922;stroke:none;stroke-width:0.26458332px;stroke-linecap:butt;stroke-linejoin:miter;stroke-opacity:1"
         d="m -64.658345,265.69154 c -7.327871,-8.41499 -5.021121,-15.53424 -0.689673,-21.89269 4.824092,-7.08163 9.060318,-10.32326 16.350728,-13.00775 6.914208,-2.54596 16.749645,-4.57676 22.1614,-4.59874 6.045986,-0.0246 14.937856,2.50318 23.5789311,3.12944 -7.3705401,5.66965 -24.7763081,12.18254 -33.2082491,14.69983 -6.761241,2.01852 -18.743732,11.27556 -28.193137,21.66991 z"
         id="surface_1_front_slice-7"
         inkscape:connector-curvature="0"
         sodipodi:nodetypes="cssscsc" />
      <path
         style="fill:none;fill-opacity:0.49803922;stroke:#00c800;stroke-width:1;stroke-linecap:butt;stroke-linejoin:miter;stroke-miterlimit:4;stroke-dasharray:none;stroke-opacity:1"
         d="m -64.658345,265.69154 c -7.327871,-8.41499 -5.021121,-15.53424 -0.689673,-21.89269 4.824092,-7.08163 9.060317,-10.32326 16.350727,-13.00775 6.914209,-2.54596 16.749645,-4.57676 22.161401,-4.59874 6.045986,-0.0246 14.937856,2.50318 23.5789311,3.12944"
         id="surface_1_front_slice-7-4"
         inkscape:connector-curvature="0"
         sodipodi:nodetypes="csssc" />
      <path
         sodipodi:nodetypes="cc"
         inkscape:connector-curvature="0"
         id="path5393"
         d="m -57.730218,249.82693 -3.741774,-4.40995"
         style="fill:none;stroke:#007f00;stroke-width:1;stroke-linecap:butt;stroke-linejoin:miter;stroke-miterlimit:4;stroke-dasharray:none;stroke-opacity:1;marker-end:url(#marker5658)" />
      <path
         sodipodi:nodetypes="cc"
         inkscape:connector-curvature="0"
         id="path5393-0"
         d="m -44.946618,239.97023 -2.806331,-6.01356"
         style="fill:none;stroke:#007f00;stroke-width:1;stroke-linecap:butt;stroke-linejoin:miter;stroke-miterlimit:4;stroke-dasharray:none;stroke-opacity:1;marker-end:url(#marker5658-6)" />
      <path
         sodipodi:nodetypes="cc"
         inkscape:connector-curvature="0"
         id="path5393-9"
         d="m -27.306829,233.55575 -0.464504,-6.16068"
         style="fill:none;stroke:#007f00;stroke-width:1;stroke-linecap:butt;stroke-linejoin:miter;stroke-miterlimit:4;stroke-dasharray:none;stroke-opacity:1;marker-end:url(#marker5658-3)" />
    </g>
    <g
       transform="translate(-31.516506,31.097842)"
       id="g_surface_2_front_slice">
      <path
         id="surface_2_front_slice-8"
         style="fill:#ff0000;fill-opacity:0.49803922;stroke:none;stroke-width:0.26458332px;stroke-linecap:butt;stroke-linejoin:miter;stroke-opacity:1"
         d="m 69.490076,228.579 c -0.534538,-13.89802 0.267269,-29.93419 6.949008,-38.21954 6.681738,-8.28536 10.95805,-16.30345 21.381562,-16.83798 10.423514,-0.53454 18.441594,-1.33635 22.717914,3.74177 4.27631,5.07812 4.2095,9.82216 4.2095,9.82216 0,0 -12.85121,19.8893 -22.04974,26.79376 -9.19853,6.90447 -33.208244,14.69983 -33.208244,14.69983"
         inkscape:connector-curvature="0"
         sodipodi:nodetypes="cssscsc" />
      <path
         inkscape:connector-curvature="0"
         id="path5316"
         d="m 82.342073,206.76697 5.188988,2.17337"
         style="fill:none;stroke:#7f0000;stroke-width:1;stroke-linecap:butt;stroke-linejoin:miter;stroke-miterlimit:4;stroke-dasharray:none;stroke-opacity:1;marker-end:url(#marker5320)"
         sodipodi:nodetypes="cc" />
      <path
         inkscape:connector-curvature="0"
         id="path5316-4"
         d="m 93.504812,187.38707 6.133929,-0.85045"
         style="fill:none;stroke:#7f0000;stroke-width:1;stroke-linecap:butt;stroke-linejoin:miter;stroke-miterlimit:4;stroke-dasharray:none;stroke-opacity:1;marker-end:url(#marker5320-5)"
         sodipodi:nodetypes="cc" />
      <path
         inkscape:connector-curvature="0"
         id="path5316-6"
         d="m 111.53879,185.94558 5.85044,-1.79539"
         style="fill:none;stroke:#7f0000;stroke-width:1;stroke-linecap:butt;stroke-linejoin:miter;stroke-miterlimit:4;stroke-dasharray:none;stroke-opacity:1;marker-end:url(#marker5320-8)"
         sodipodi:nodetypes="cc" />
      <path
         sodipodi:nodetypes="csscc"
         inkscape:connector-curvature="0"
         id="surface_2_front_slice-1"
         d="m 69.490074,228.579 c -0.534538,-13.89802 0.267269,-29.93419 6.949008,-38.21954 6.681738,-8.28536 10.95805,-16.30345 21.381562,-16.83798 10.423516,-0.53454 18.441586,-1.33635 22.717906,3.74177 4.27632,5.07812 4.14268,9.88897 4.14268,9.88897"
         style="fill:none;fill-opacity:0.49803922;stroke:#c80000;stroke-width:1;stroke-linecap:butt;stroke-linejoin:miter;stroke-miterlimit:4;stroke-dasharray:none;stroke-opacity:1" />
    </g>
    <g
       transform="translate(-123.05674,66.645821)"
       id="g_intersection">
      <g
         id="g6811"
         transform="translate(29.671131,20.599702)">
        <path
           sodipodi:nodetypes="cc"
           style="fill:none;stroke:#0000ff;stroke-width:1;stroke-linecap:butt;stroke-linejoin:miter;stroke-miterlimit:4;stroke-dasharray:none;stroke-opacity:1"
           d="m 131.35918,172.43132 c 13.85772,-4.88226 23.69725,-8.30567 33.20825,-14.69983"
           id="path6306"
           inkscape:connector-curvature="0" />
        <path
           style="fill:#0000ff;fill-opacity:1;stroke:none;stroke-width:0.26458332px;stroke-linecap:butt;stroke-linejoin:miter;stroke-opacity:1"
           d="m 158.02349,159.35124 -0.81897,2.70726 2.70726,0.81897 -6.23349,1.06934 z"
           id="path6512"
           inkscape:connector-curvature="0"
           sodipodi:nodetypes="ccccc" />
        <path
           style="fill:#0000ff;fill-opacity:1;stroke:none;stroke-width:0.26458332px;stroke-linecap:butt;stroke-linejoin:miter;stroke-opacity:1"
           d="m 144.39467,165.64338 -1.18111,2.57001 2.57,1.18111 -6.32113,0.20779 z"
           id="path6512-7"
           inkscape:connector-curvature="0"
           sodipodi:nodetypes="ccccc" />
      </g>
      <g
         id="g1244"
         ns1:jacobian_sqrt="1.058333"
         inkscapeversion="0.92.4"
         ns1:alignment="middle center"
         ns1:scale="3.0"
         ns1:preamble="C:\\Users\\shawn\\AppData\\Roaming\\inkscape\\extensions\\textext\\default_packages.tex"
         ns1:text="$\\mathbf{F}$"
         ns1:pdfconverter="pdf2svg"
         ns1:texconverter="pdflatex"
         ns1:version="0.11.0"
         transform="matrix(1.058333,0,0,1.058333,32.095848,20.197283)">
        <g
           id="surface1">
          <g
             id="g1241"
             style="fill:#000000;fill-opacity:1">
            <path
               id="path1239"
               transform="translate(148.712,134.765)"
               d="M 6.421875,-6.78125 H 0.390625 V -6.3125 H 1.46875 v 5.84375 H 0.390625 V 0 c 0.375,-0.03125 1.390625,-0.03125 1.828125,-0.03125 0.484375,0 1.5625,0 2.015625,0.03125 V -0.46875 H 2.875 v -2.6875 h 0.5 c 0.96875,0 1.046875,0.421875 1.046875,1.15625 h 0.46875 V -4.796875 H 4.421875 C 4.421875,-4.0625 4.34375,-3.625 3.375,-3.625 h -0.5 v -2.6875 h 1.40625 c 1.59375,0 1.828125,0.765625 1.984375,1.9375 h 0.46875 z m 0,0"
               style="stroke:none;stroke-width:0"
               inkscape:connector-curvature="0" />
          </g>
        </g>
      </g>
      <g
         id="g1332"
         ns1:jacobian_sqrt="1.058333"
         inkscapeversion="0.92.4"
         ns1:alignment="middle center"
         ns1:scale="3.0"
         ns1:preamble="C:\\Users\\shawn\\AppData\\Roaming\\inkscape\\extensions\\textext\\default_packages.tex"
         ns1:text="$\\mathbf{G}$"
         ns1:pdfconverter="pdf2svg"
         ns1:texconverter="pdflatex"
         ns1:version="0.11.0"
         transform="matrix(1.058333,0,0,1.058333,-12.774651,62.563688)">
        <g
           id="g1330">
          <g
             id="g1328"
             style="fill:#000000;fill-opacity:1">
            <path
               id="path1326"
               transform="translate(148.712,134.765)"
               d="M 6.515625,-0.53125 C 6.8125,-0.265625 7.421875,0 7.484375,0 7.625,0 7.625,-0.125 7.625,-0.28125 v -2 H 8.421875 V -2.75 c -0.34375,0.03125 -1.21875,0.03125 -1.609375,0.03125 -0.578125,0 -1.5,0 -2.03125,-0.03125 v 0.46875 h 1.421875 v 1 c 0,0.1875 0,0.484375 -0.375,0.71875 C 5.5625,-0.421875 5.25,-0.359375 4.921875,-0.359375 c -0.859375,0 -1.71875,-0.28125 -2.203125,-0.90625 -0.421875,-0.546875 -0.5625,-1.25 -0.5625,-2.15625 0,-1.125 0.203125,-1.703125 0.578125,-2.1875 0.390625,-0.5 1.15625,-0.875 2.125,-0.875 1.0625,0 2.015625,0.765625 2.234375,2.03125 C 7.125,-4.265625 7.125,-4.25 7.359375,-4.25 c 0.25,0 0.265625,-0.015625 0.265625,-0.28125 v -2.140625 c 0,-0.1875 0,-0.28125 -0.171875,-0.28125 -0.09375,0 -0.109375,0.03125 -0.203125,0.09375 l -0.65625,0.59375 c -0.71875,-0.578125 -1.4375,-0.6875 -1.953125,-0.6875 -2.453125,0 -4,1.46875 -4,3.53125 0,1.984375 1.4375,3.53125 4.015625,3.53125 0.328125,0 1.359375,-0.015625 1.859375,-0.640625 z m 0,0"
               style="stroke:none;stroke-width:0"
               inkscape:connector-curvature="0" />
          </g>
        </g>
      </g>
      <g
         id="g1430"
         ns1:jacobian_sqrt="0.705556"
         inkscapeversion="0.92.4"
         ns1:alignment="middle center"
         ns1:scale="2.0"
         ns1:preamble="C:\\Users\\shawn\\AppData\\Roaming\\inkscape\\extensions\\textext\\default_packages.tex"
         ns1:text="$\\mathbf{F} \\times \\mathbf{G}$"
         ns1:pdfconverter="pdf2svg"
         ns1:texconverter="pdflatex"
         ns1:version="0.11.0"
         transform="matrix(0.705556,0,0,0.705556,65.151356,100.39406)">
        <g
           id="g1428">
          <g
             id="g1418"
             style="fill:#000000;fill-opacity:1">
            <path
               id="path1416"
               transform="translate(148.712,134.765)"
               d="M 6.421875,-6.78125 H 0.390625 V -6.3125 H 1.46875 v 5.84375 H 0.390625 V 0 c 0.375,-0.03125 1.390625,-0.03125 1.828125,-0.03125 0.484375,0 1.5625,0 2.015625,0.03125 V -0.46875 H 2.875 v -2.6875 h 0.5 c 0.96875,0 1.046875,0.421875 1.046875,1.15625 h 0.46875 V -4.796875 H 4.421875 C 4.421875,-4.0625 4.34375,-3.625 3.375,-3.625 h -0.5 v -2.6875 h 1.40625 c 1.59375,0 1.828125,0.765625 1.984375,1.9375 h 0.46875 z m 0,0"
               style="stroke:none;stroke-width:0"
               inkscape:connector-curvature="0" />
          </g>
          <g
             id="g1422"
             style="fill:#000000;fill-opacity:1">
            <path
               id="path1420"
               transform="translate(158.135,134.765)"
               d="M 3.875,-2.765625 1.890625,-4.75 C 1.765625,-4.875 1.75,-4.890625 1.671875,-4.890625 1.5625,-4.890625 1.46875,-4.8125 1.46875,-4.6875 c 0,0.0625 0.015625,0.078125 0.125,0.1875 l 2,2 -2,2.015625 c -0.109375,0.109375 -0.125,0.125 -0.125,0.1875 0,0.125 0.09375,0.203125 0.203125,0.203125 0.078125,0 0.09375,-0.015625 0.21875,-0.140625 L 3.875,-2.21875 l 2.0625,2.0625 c 0.015625,0.015625 0.078125,0.0625 0.140625,0.0625 0.125,0 0.203125,-0.078125 0.203125,-0.203125 0,-0.015625 0,-0.046875 -0.03125,-0.109375 C 6.234375,-0.421875 4.65625,-1.984375 4.15625,-2.5 l 1.828125,-1.8125 c 0.046875,-0.0625 0.203125,-0.1875 0.25,-0.25 0,-0.015625 0.046875,-0.0625 0.046875,-0.125 0,-0.125 -0.078125,-0.203125 -0.203125,-0.203125 C 6,-4.890625 5.96875,-4.859375 5.859375,-4.75 Z m 0,0"
               style="stroke:none;stroke-width:0"
               inkscape:connector-curvature="0" />
          </g>
          <g
             id="g1426"
             style="fill:#000000;fill-opacity:1">
            <path
               id="path1424"
               transform="translate(168.098,134.765)"
               d="M 6.515625,-0.53125 C 6.8125,-0.265625 7.421875,0 7.484375,0 7.625,0 7.625,-0.125 7.625,-0.28125 v -2 H 8.421875 V -2.75 c -0.34375,0.03125 -1.21875,0.03125 -1.609375,0.03125 -0.578125,0 -1.5,0 -2.03125,-0.03125 v 0.46875 h 1.421875 v 1 c 0,0.1875 0,0.484375 -0.375,0.71875 C 5.5625,-0.421875 5.25,-0.359375 4.921875,-0.359375 c -0.859375,0 -1.71875,-0.28125 -2.203125,-0.90625 -0.421875,-0.546875 -0.5625,-1.25 -0.5625,-2.15625 0,-1.125 0.203125,-1.703125 0.578125,-2.1875 0.390625,-0.5 1.15625,-0.875 2.125,-0.875 1.0625,0 2.015625,0.765625 2.234375,2.03125 C 7.125,-4.265625 7.125,-4.25 7.359375,-4.25 c 0.25,0 0.265625,-0.015625 0.265625,-0.28125 v -2.140625 c 0,-0.1875 0,-0.28125 -0.171875,-0.28125 -0.09375,0 -0.109375,0.03125 -0.203125,0.09375 l -0.65625,0.59375 c -0.71875,-0.578125 -1.4375,-0.6875 -1.953125,-0.6875 -2.453125,0 -4,1.46875 -4,3.53125 0,1.984375 1.4375,3.53125 4.015625,3.53125 0.328125,0 1.359375,-0.015625 1.859375,-0.640625 z m 0,0"
               style="stroke:none;stroke-width:0"
               inkscape:connector-curvature="0" />
          </g>
        </g>
      </g>
    </g>
  </g>
</svg>
