<?xml version="1.0" encoding="UTF-8" standalone="no"?>
<!-- Created with Inkscape (http://www.inkscape.org/) -->

<svg
   xmlns:ns1="http://www.iki.fi/pav/software/textext/"
   xmlns:dc="http://purl.org/dc/elements/1.1/"
   xmlns:cc="http://creativecommons.org/ns#"
   xmlns:rdf="http://www.w3.org/1999/02/22-rdf-syntax-ns#"
   xmlns:svg="http://www.w3.org/2000/svg"
   xmlns="http://www.w3.org/2000/svg"
   xmlns:sodipodi="http://sodipodi.sourceforge.net/DTD/sodipodi-0.dtd"
   xmlns:inkscape="http://www.inkscape.org/namespaces/inkscape"
   width="100mm"
   height="110mm"
   viewBox="0 0 100 110"
   version="1.1"
   id="svg8"
   inkscape:version="0.92.4 (5da689c313, 2019-01-14)"
   sodipodi:docname="surface_surface_surface_intersections.svg">
  <defs
     id="defs2">
    <marker
       inkscape:stockid="Arrow1Send"
       orient="auto"
       refY="0"
       refX="0"
       id="marker1224"
       style="overflow:visible"
       inkscape:isstock="true">
      <path
         id="path1222"
         d="M 0,0 5,-5 -12.5,0 5,5 Z"
         style="fill:#00007f;fill-opacity:1;fill-rule:evenodd;stroke:#00007f;stroke-width:1.00000003pt;stroke-opacity:1"
         transform="matrix(-0.2,0,0,-0.2,-1.2,0)"
         inkscape:connector-curvature="0" />
    </marker>
    <marker
       inkscape:stockid="Arrow1Send"
       orient="auto"
       refY="0"
       refX="0"
       id="marker1188"
       style="overflow:visible"
       inkscape:isstock="true">
      <path
         id="path1186"
         d="M 0,0 5,-5 -12.5,0 5,5 Z"
         style="fill:#007f00;fill-opacity:1;fill-rule:evenodd;stroke:#007f00;stroke-width:1.00000003pt;stroke-opacity:1"
         transform="matrix(-0.2,0,0,-0.2,-1.2,0)"
         inkscape:connector-curvature="0" />
    </marker>
    <marker
       inkscape:stockid="Arrow1Send"
       orient="auto"
       refY="0"
       refX="0"
       id="Arrow1Send"
       style="overflow:visible"
       inkscape:isstock="true">
      <path
         id="path911"
         d="M 0,0 5,-5 -12.5,0 5,5 Z"
         style="fill:#7f0000;fill-opacity:1;fill-rule:evenodd;stroke:#7f0000;stroke-width:1.00000003pt;stroke-opacity:1"
         transform="matrix(-0.2,0,0,-0.2,-1.2,0)"
         inkscape:connector-curvature="0" />
    </marker>
  </defs>
  <sodipodi:namedview
     id="base"
     pagecolor="#ffffff"
     bordercolor="#666666"
     borderopacity="1.0"
     inkscape:pageopacity="0.0"
     inkscape:pageshadow="2"
     inkscape:zoom="0.98994949"
     inkscape:cx="435.83696"
     inkscape:cy="336.75119"
     inkscape:document-units="mm"
     inkscape:current-layer="layer1"
     showgrid="true"
     inkscape:window-width="1920"
     inkscape:window-height="1017"
     inkscape:window-x="-8"
     inkscape:window-y="-8"
     inkscape:window-maximized="1"
     inkscape:snap-global="false"
     inkscape:snap-smooth-nodes="true"
     inkscape:snap-object-midpoints="true">
    <inkscape:grid
       spacingy="1"
       spacingx="1"
       units="mm"
       id="grid815"
       type="xygrid" />
  </sodipodi:namedview>
  <metadata
     id="metadata5">
    <rdf:RDF>
      <cc:Work
         rdf:about="">
        <dc:format>image/svg+xml</dc:format>
        <dc:type
           rdf:resource="http://purl.org/dc/dcmitype/StillImage" />
        <dc:title></dc:title>
      </cc:Work>
    </rdf:RDF>
  </metadata>
  <g
     inkscape:label="Layer 1"
     inkscape:groupmode="layer"
     id="layer1"
     transform="translate(0,-187)">
    <path
       style="fill:#ff0000;fill-opacity:0.49803922;stroke:none;stroke-width:1;stroke-linecap:butt;stroke-linejoin:miter;stroke-miterlimit:4;stroke-dasharray:none;stroke-opacity:1"
       d="m 55.592061,242.47702 c -7.483546,6.68173 -26.994222,17.90705 -42.763124,16.30344 13.363477,9.6217 21.916101,20.84702 27.796031,31.80507 16.33645,-4.80017 34.598501,-10.14167 44.901281,-24.85606 -6.1472,-10.42351 -16.30344,-17.63979 -29.934188,-23.25245 z"
       id="path817"
       inkscape:connector-curvature="0"
       sodipodi:nodetypes="ccccc" />
    <path
       style="fill:#00ff00;fill-opacity:0.49803922;stroke:none;stroke-width:1;stroke-linecap:butt;stroke-linejoin:miter;stroke-miterlimit:4;stroke-dasharray:none;stroke-opacity:1"
       d="m 55.592061,242.47702 c -3.74178,-16.03618 -3.4745,-31.80508 3.74177,-42.76313 10.690788,-0.26727 24.321528,3.20724 32.072348,10.69078 -6.38146,16.31412 -10.03551,27.0088 -5.87993,55.3248 -6.1472,-10.42351 -16.30344,-17.63979 -29.934188,-23.25245 z"
       id="path817-5"
       inkscape:connector-curvature="0"
       sodipodi:nodetypes="ccccc" />
    <path
       style="fill:#0000ff;fill-opacity:0.49803922;stroke:none;stroke-width:1;stroke-linecap:butt;stroke-linejoin:miter;stroke-miterlimit:4;stroke-dasharray:none;stroke-opacity:1"
       d="m 55.592062,242.47702 c -7.483546,6.68173 -26.994223,17.90705 -42.763125,16.30344 -4.276312,-19.24341 -3.741774,-36.08139 0.267271,-46.23763 14.732831,2.95064 33.529417,-0.25271 46.237623,-12.82894 -9.951042,15.3233 -5.078116,35.27958 -3.741769,42.76313 z"
       id="path817-2"
       inkscape:connector-curvature="0"
       sodipodi:nodetypes="ccccc" />
    <path
       style="fill:none;fill-opacity:0.49803922;stroke:#7f7f00;stroke-width:1;stroke-linecap:butt;stroke-linejoin:miter;stroke-miterlimit:4;stroke-dasharray:none;stroke-opacity:1"
       d="m 85.526249,265.72947 c -6.1472,-10.42351 -16.30344,-17.63979 -29.934187,-23.25245"
       id="path817-4"
       inkscape:connector-curvature="0"
       sodipodi:nodetypes="cc" />
    <path
       style="fill:none;fill-opacity:0.49803922;stroke:#007f7f;stroke-width:1;stroke-linecap:butt;stroke-linejoin:miter;stroke-miterlimit:4;stroke-dasharray:none;stroke-opacity:1"
       d="m 55.592062,242.47702 c -3.74178,-16.03618 -3.4745,-31.80508 3.74177,-42.76313"
       id="path817-5-6"
       inkscape:connector-curvature="0"
       sodipodi:nodetypes="cc" />
    <path
       style="fill:none;fill-opacity:0.49803922;stroke:#7f007f;stroke-width:1;stroke-linecap:butt;stroke-linejoin:miter;stroke-miterlimit:4;stroke-dasharray:none;stroke-opacity:1"
       d="m 55.592057,242.47702 c -7.48354,6.68173 -26.99422,17.90705 -42.76312,16.30344"
       id="path817-2-8"
       inkscape:connector-curvature="0"
       sodipodi:nodetypes="cc" />
    <path
       style="fill:none;stroke:#7f0000;stroke-width:1.5;stroke-linecap:butt;stroke-linejoin:miter;stroke-miterlimit:4;stroke-dasharray:none;stroke-opacity:1;marker-end:url(#Arrow1Send)"
       d="m 53.714819,263.95529 -0.377976,-7.18154"
       id="path894"
       inkscape:connector-curvature="0" />
    <path
       style="fill:none;stroke:#007f00;stroke-width:1.5;stroke-linecap:butt;stroke-linejoin:miter;stroke-miterlimit:4;stroke-dasharray:none;stroke-opacity:1;marker-end:url(#marker1188)"
       d="m 69.400829,226.15767 -7.181545,2.07887"
       id="path1184"
       inkscape:connector-curvature="0" />
    <path
       style="fill:none;stroke:#00007f;stroke-width:1.5;stroke-linecap:butt;stroke-linejoin:miter;stroke-miterlimit:4;stroke-dasharray:none;stroke-opacity:1;marker-end:url(#marker1224)"
       d="M 34.060058,232.39428 40.485652,236.93"
       id="path1220"
       inkscape:connector-curvature="0" />
    <path
       style="fill:#7f7f00;fill-opacity:1;stroke:none;stroke-width:0.26458332px;stroke-linecap:butt;stroke-linejoin:miter;stroke-opacity:1"
       d="m 67.492729,250.6887 6.06547,1.79166 -3.77737,-5.07261 0.49643,2.78452 z"
       id="path1256"
       inkscape:connector-curvature="0" />
    <path
       style="fill:#7f007f;fill-opacity:1;stroke:none;stroke-width:0.26458332px;stroke-linecap:butt;stroke-linejoin:miter;stroke-opacity:1"
       d="m 42.22996,249.15593 -4.49987,4.44423 6.266434,-0.85546 -2.677666,-0.9111 z"
       id="path1256-1"
       inkscape:connector-curvature="0" />
    <path
       style="fill:#007f7f;fill-opacity:1;stroke:none;stroke-width:0.26458332px;stroke-linecap:butt;stroke-linejoin:miter;stroke-opacity:1"
       d="m 55.206338,225.66149 -1.899976,-6.03242 -2.099472,5.96593 2.032973,-1.96648 z"
       id="path1256-8"
       inkscape:connector-curvature="0" />
    <g
       id="g1288"
       transform="translate(-74.407943,35.477034)">
      <circle
         r="2"
         cy="206.99998"
         cx="130"
         id="path1279"
         style="fill:#ff0000;fill-opacity:1;stroke:none;stroke-width:1.5;stroke-miterlimit:4;stroke-dasharray:none;stroke-dashoffset:0;stroke-opacity:1" />
      <text
         id="text1283"
         y="208.58331"
         x="127.95982"
         style="font-style:normal;font-weight:normal;font-size:7.05555534px;line-height:1.25;font-family:sans-serif;letter-spacing:0px;word-spacing:0px;fill:#000000;fill-opacity:1;stroke:none;stroke-width:0.26458332"
         xml:space="preserve"><tspan
           style="font-size:4.93888903px;stroke-width:0.26458332"
           y="208.58331"
           x="127.95982"
           id="tspan1281"
           sodipodi:role="line">+</tspan></text>
    </g>
    <g
       id="g1321"
       ns1:jacobian_sqrt="1.058333"
       inkscapeversion="0.92.4"
       ns1:alignment="middle center"
       ns1:scale="3.0"
       ns1:preamble="C:\\Users\\shawn\\AppData\\Roaming\\inkscape\\extensions\\textext\\default_packages.tex"
       ns1:text="$\\mathbf{F}$"
       ns1:pdfconverter="pdf2svg"
       ns1:texconverter="pdflatex"
       ns1:version="0.11.0"
       transform="matrix(1.058333,0,0,1.058333,-112.43338,138.00228)">
      <g
         id="surface1">
        <g
           id="g1318"
           style="fill:#000000;fill-opacity:1">
          <path
             id="path1316"
             transform="translate(148.712,134.765)"
             d="M 6.421875,-6.78125 H 0.390625 V -6.3125 H 1.46875 v 5.84375 H 0.390625 V 0 c 0.375,-0.03125 1.390625,-0.03125 1.828125,-0.03125 0.484375,0 1.5625,0 2.015625,0.03125 V -0.46875 H 2.875 v -2.6875 h 0.5 c 0.96875,0 1.046875,0.421875 1.046875,1.15625 h 0.46875 V -4.796875 H 4.421875 C 4.421875,-4.0625 4.34375,-3.625 3.375,-3.625 h -0.5 v -2.6875 h 1.40625 c 1.59375,0 1.828125,0.765625 1.984375,1.9375 h 0.46875 z m 0,0"
             style="stroke:none;stroke-width:0"
             inkscape:connector-curvature="0" />
        </g>
      </g>
    </g>
    <g
       id="g1366"
       ns1:jacobian_sqrt="1.058333"
       inkscapeversion="0.92.4"
       ns1:alignment="middle center"
       ns1:scale="3.0"
       ns1:preamble="C:\\Users\\shawn\\AppData\\Roaming\\inkscape\\extensions\\textext\\default_packages.tex"
       ns1:text="$\\mathbf{G}$"
       ns1:pdfconverter="pdf2svg"
       ns1:texconverter="pdflatex"
       ns1:version="0.11.0"
       transform="matrix(1.058333,0,0,1.058333,-84.921437,74.724341)">
      <g
         id="g1364">
        <g
           id="g1362"
           style="fill:#000000;fill-opacity:1">
          <path
             id="path1360"
             transform="translate(148.712,134.765)"
             d="M 6.515625,-0.53125 C 6.8125,-0.265625 7.421875,0 7.484375,0 7.625,0 7.625,-0.125 7.625,-0.28125 v -2 H 8.421875 V -2.75 c -0.34375,0.03125 -1.21875,0.03125 -1.609375,0.03125 -0.578125,0 -1.5,0 -2.03125,-0.03125 v 0.46875 h 1.421875 v 1 c 0,0.1875 0,0.484375 -0.375,0.71875 C 5.5625,-0.421875 5.25,-0.359375 4.921875,-0.359375 c -0.859375,0 -1.71875,-0.28125 -2.203125,-0.90625 -0.421875,-0.546875 -0.5625,-1.25 -0.5625,-2.15625 0,-1.125 0.203125,-1.703125 0.578125,-2.1875 0.390625,-0.5 1.15625,-0.875 2.125,-0.875 1.0625,0 2.015625,0.765625 2.234375,2.03125 C 7.125,-4.265625 7.125,-4.25 7.359375,-4.25 c 0.25,0 0.265625,-0.015625 0.265625,-0.28125 v -2.140625 c 0,-0.1875 0,-0.28125 -0.171875,-0.28125 -0.09375,0 -0.109375,0.03125 -0.203125,0.09375 l -0.65625,0.59375 c -0.71875,-0.578125 -1.4375,-0.6875 -1.953125,-0.6875 -2.453125,0 -4,1.46875 -4,3.53125 0,1.984375 1.4375,3.53125 4.015625,3.53125 0.328125,0 1.359375,-0.015625 1.859375,-0.640625 z m 0,0"
             style="stroke:none;stroke-width:0"
             inkscape:connector-curvature="0" />
        </g>
      </g>
    </g>
    <g
       id="g1415"
       ns1:jacobian_sqrt="1.058333"
       inkscapeversion="0.92.4"
       ns1:alignment="middle center"
       ns1:scale="3.0"
       ns1:preamble="C:\\Users\\shawn\\AppData\\Roaming\\inkscape\\extensions\\textext\\default_packages.tex"
       ns1:text="$\\mathbf{H}$"
       ns1:pdfconverter="pdf2svg"
       ns1:texconverter="pdflatex"
       ns1:version="0.11.0"
       transform="matrix(1.058333,0,0,1.058333,-140.24534,83.984758)">
      <g
         id="g1413">
        <g
           id="g1411"
           style="fill:#000000;fill-opacity:1">
          <path
             id="path1409"
             transform="translate(148.712,134.765)"
             d="M 7.5,-6.375 H 8.578125 V -6.84375 C 8.1875,-6.8125 7.21875,-6.8125 6.78125,-6.8125 c -0.421875,0 -1.390625,0 -1.78125,-0.03125 V -6.375 h 1.078125 v 2.59375 H 2.875 V -6.375 h 1.078125 v -0.46875 c -0.375,0.03125 -1.34375,0.03125 -1.78125,0.03125 -0.421875,0 -1.40625,0 -1.78125,-0.03125 V -6.375 H 1.46875 v 5.90625 H 0.390625 V 0 c 0.375,-0.03125 1.359375,-0.03125 1.78125,-0.03125 0.4375,0 1.40625,0 1.78125,0.03125 V -0.46875 H 2.875 V -3.3125 h 3.203125 v 2.84375 H 5 V 0 c 0.390625,-0.03125 1.359375,-0.03125 1.78125,-0.03125 0.4375,0 1.40625,0 1.796875,0.03125 V -0.46875 H 7.5 Z m 0,0"
             style="stroke:none;stroke-width:0"
             inkscape:connector-curvature="0" />
        </g>
      </g>
    </g>
    <g
       id="g1476"
       ns1:jacobian_sqrt="0.705556"
       inkscapeversion="0.92.4"
       ns1:alignment="middle center"
       ns1:scale="2.0"
       ns1:preamble="C:\\Users\\shawn\\AppData\\Roaming\\inkscape\\extensions\\textext\\default_packages.tex"
       ns1:text="$\\mathbf{F} \\times \\mathbf{G}$"
       ns1:pdfconverter="pdf2svg"
       ns1:texconverter="pdflatex"
       ns1:version="0.11.0"
       transform="matrix(0.705556,0,0,0.705556,-30.618943,176.05471)">
      <g
         id="g1474">
        <g
           id="g1464"
           style="fill:#000000;fill-opacity:1">
          <path
             id="path1462"
             transform="translate(148.712,134.765)"
             d="M 6.421875,-6.78125 H 0.390625 V -6.3125 H 1.46875 v 5.84375 H 0.390625 V 0 c 0.375,-0.03125 1.390625,-0.03125 1.828125,-0.03125 0.484375,0 1.5625,0 2.015625,0.03125 V -0.46875 H 2.875 v -2.6875 h 0.5 c 0.96875,0 1.046875,0.421875 1.046875,1.15625 h 0.46875 V -4.796875 H 4.421875 C 4.421875,-4.0625 4.34375,-3.625 3.375,-3.625 h -0.5 v -2.6875 h 1.40625 c 1.59375,0 1.828125,0.765625 1.984375,1.9375 h 0.46875 z m 0,0"
             style="stroke:none;stroke-width:0"
             inkscape:connector-curvature="0" />
        </g>
        <g
           id="g1468"
           style="fill:#000000;fill-opacity:1">
          <path
             id="path1466"
             transform="translate(158.135,134.765)"
             d="M 3.875,-2.765625 1.890625,-4.75 C 1.765625,-4.875 1.75,-4.890625 1.671875,-4.890625 1.5625,-4.890625 1.46875,-4.8125 1.46875,-4.6875 c 0,0.0625 0.015625,0.078125 0.125,0.1875 l 2,2 -2,2.015625 c -0.109375,0.109375 -0.125,0.125 -0.125,0.1875 0,0.125 0.09375,0.203125 0.203125,0.203125 0.078125,0 0.09375,-0.015625 0.21875,-0.140625 L 3.875,-2.21875 l 2.0625,2.0625 c 0.015625,0.015625 0.078125,0.0625 0.140625,0.0625 0.125,0 0.203125,-0.078125 0.203125,-0.203125 0,-0.015625 0,-0.046875 -0.03125,-0.109375 C 6.234375,-0.421875 4.65625,-1.984375 4.15625,-2.5 l 1.828125,-1.8125 c 0.046875,-0.0625 0.203125,-0.1875 0.25,-0.25 0,-0.015625 0.046875,-0.0625 0.046875,-0.125 0,-0.125 -0.078125,-0.203125 -0.203125,-0.203125 C 6,-4.890625 5.96875,-4.859375 5.859375,-4.75 Z m 0,0"
             style="stroke:none;stroke-width:0"
             inkscape:connector-curvature="0" />
        </g>
        <g
           id="g1472"
           style="fill:#000000;fill-opacity:1">
          <path
             id="path1470"
             transform="translate(168.098,134.765)"
             d="M 6.515625,-0.53125 C 6.8125,-0.265625 7.421875,0 7.484375,0 7.625,0 7.625,-0.125 7.625,-0.28125 v -2 H 8.421875 V -2.75 c -0.34375,0.03125 -1.21875,0.03125 -1.609375,0.03125 -0.578125,0 -1.5,0 -2.03125,-0.03125 v 0.46875 h 1.421875 v 1 c 0,0.1875 0,0.484375 -0.375,0.71875 C 5.5625,-0.421875 5.25,-0.359375 4.921875,-0.359375 c -0.859375,0 -1.71875,-0.28125 -2.203125,-0.90625 -0.421875,-0.546875 -0.5625,-1.25 -0.5625,-2.15625 0,-1.125 0.203125,-1.703125 0.578125,-2.1875 0.390625,-0.5 1.15625,-0.875 2.125,-0.875 1.0625,0 2.015625,0.765625 2.234375,2.03125 C 7.125,-4.265625 7.125,-4.25 7.359375,-4.25 c 0.25,0 0.265625,-0.015625 0.265625,-0.28125 v -2.140625 c 0,-0.1875 0,-0.28125 -0.171875,-0.28125 -0.09375,0 -0.109375,0.03125 -0.203125,0.09375 l -0.65625,0.59375 c -0.71875,-0.578125 -1.4375,-0.6875 -1.953125,-0.6875 -2.453125,0 -4,1.46875 -4,3.53125 0,1.984375 1.4375,3.53125 4.015625,3.53125 0.328125,0 1.359375,-0.015625 1.859375,-0.640625 z m 0,0"
             style="stroke:none;stroke-width:0"
             inkscape:connector-curvature="0" />
        </g>
      </g>
    </g>
    <g
       id="g1549"
       ns1:jacobian_sqrt="0.705556"
       inkscapeversion="0.92.4"
       ns1:alignment="middle center"
       ns1:scale="2.0"
       ns1:preamble="C:\\Users\\shawn\\AppData\\Roaming\\inkscape\\extensions\\textext\\default_packages.tex"
       ns1:text="$\\mathbf{G} \\times \\mathbf{H}$"
       ns1:pdfconverter="pdf2svg"
       ns1:texconverter="pdflatex"
       ns1:version="0.11.0"
       transform="matrix(0.705556,0,0,0.705556,-57.288276,103.86126)">
      <g
         id="g1547">
        <g
           id="g1537"
           style="fill:#000000;fill-opacity:1">
          <path
             id="path1535"
             transform="translate(148.712,134.765)"
             d="M 6.515625,-0.53125 C 6.8125,-0.265625 7.421875,0 7.484375,0 7.625,0 7.625,-0.125 7.625,-0.28125 v -2 H 8.421875 V -2.75 c -0.34375,0.03125 -1.21875,0.03125 -1.609375,0.03125 -0.578125,0 -1.5,0 -2.03125,-0.03125 v 0.46875 h 1.421875 v 1 c 0,0.1875 0,0.484375 -0.375,0.71875 C 5.5625,-0.421875 5.25,-0.359375 4.921875,-0.359375 c -0.859375,0 -1.71875,-0.28125 -2.203125,-0.90625 -0.421875,-0.546875 -0.5625,-1.25 -0.5625,-2.15625 0,-1.125 0.203125,-1.703125 0.578125,-2.1875 0.390625,-0.5 1.15625,-0.875 2.125,-0.875 1.0625,0 2.015625,0.765625 2.234375,2.03125 C 7.125,-4.265625 7.125,-4.25 7.359375,-4.25 c 0.25,0 0.265625,-0.015625 0.265625,-0.28125 v -2.140625 c 0,-0.1875 0,-0.28125 -0.171875,-0.28125 -0.09375,0 -0.109375,0.03125 -0.203125,0.09375 l -0.65625,0.59375 c -0.71875,-0.578125 -1.4375,-0.6875 -1.953125,-0.6875 -2.453125,0 -4,1.46875 -4,3.53125 0,1.984375 1.4375,3.53125 4.015625,3.53125 0.328125,0 1.359375,-0.015625 1.859375,-0.640625 z m 0,0"
             style="stroke:none;stroke-width:0"
             inkscape:connector-curvature="0" />
        </g>
        <g
           id="g1541"
           style="fill:#000000;fill-opacity:1">
          <path
             id="path1539"
             transform="translate(159.934,134.765)"
             d="M 3.875,-2.765625 1.890625,-4.75 C 1.765625,-4.875 1.75,-4.890625 1.671875,-4.890625 1.5625,-4.890625 1.46875,-4.8125 1.46875,-4.6875 c 0,0.0625 0.015625,0.078125 0.125,0.1875 l 2,2 -2,2.015625 c -0.109375,0.109375 -0.125,0.125 -0.125,0.1875 0,0.125 0.09375,0.203125 0.203125,0.203125 0.078125,0 0.09375,-0.015625 0.21875,-0.140625 L 3.875,-2.21875 l 2.0625,2.0625 c 0.015625,0.015625 0.078125,0.0625 0.140625,0.0625 0.125,0 0.203125,-0.078125 0.203125,-0.203125 0,-0.015625 0,-0.046875 -0.03125,-0.109375 C 6.234375,-0.421875 4.65625,-1.984375 4.15625,-2.5 l 1.828125,-1.8125 c 0.046875,-0.0625 0.203125,-0.1875 0.25,-0.25 0,-0.015625 0.046875,-0.0625 0.046875,-0.125 0,-0.125 -0.078125,-0.203125 -0.203125,-0.203125 C 6,-4.890625 5.96875,-4.859375 5.859375,-4.75 Z m 0,0"
             style="stroke:none;stroke-width:0"
             inkscape:connector-curvature="0" />
        </g>
        <g
           id="g1545"
           style="fill:#000000;fill-opacity:1">
          <path
             id="path1543"
             transform="translate(169.897,134.765)"
             d="M 7.5,-6.375 H 8.578125 V -6.84375 C 8.1875,-6.8125 7.21875,-6.8125 6.78125,-6.8125 c -0.421875,0 -1.390625,0 -1.78125,-0.03125 V -6.375 h 1.078125 v 2.59375 H 2.875 V -6.375 h 1.078125 v -0.46875 c -0.375,0.03125 -1.34375,0.03125 -1.78125,0.03125 -0.421875,0 -1.40625,0 -1.78125,-0.03125 V -6.375 H 1.46875 v 5.90625 H 0.390625 V 0 c 0.375,-0.03125 1.359375,-0.03125 1.78125,-0.03125 0.4375,0 1.40625,0 1.78125,0.03125 V -0.46875 H 2.875 V -3.3125 h 3.203125 v 2.84375 H 5 V 0 c 0.390625,-0.03125 1.359375,-0.03125 1.78125,-0.03125 0.4375,0 1.40625,0 1.796875,0.03125 V -0.46875 H 7.5 Z m 0,0"
             style="stroke:none;stroke-width:0"
             inkscape:connector-curvature="0" />
        </g>
      </g>
    </g>
    <g
       id="g1630"
       ns1:jacobian_sqrt="0.705556"
       inkscapeversion="0.92.4"
       ns1:alignment="middle center"
       ns1:scale="2.0"
       ns1:preamble="C:\\Users\\shawn\\AppData\\Roaming\\inkscape\\extensions\\textext\\default_packages.tex"
       ns1:text="$\\mathbf{H} \\times \\mathbf{F}$"
       ns1:pdfconverter="pdf2svg"
       ns1:texconverter="pdflatex"
       ns1:version="0.11.0"
       transform="matrix(0.705556,0,0,0.705556,-99.057151,170.76305)">
      <g
         id="g1628">
        <g
           id="g1618"
           style="fill:#000000;fill-opacity:1">
          <path
             id="path1616"
             transform="translate(148.712,134.765)"
             d="M 7.5,-6.375 H 8.578125 V -6.84375 C 8.1875,-6.8125 7.21875,-6.8125 6.78125,-6.8125 c -0.421875,0 -1.390625,0 -1.78125,-0.03125 V -6.375 h 1.078125 v 2.59375 H 2.875 V -6.375 h 1.078125 v -0.46875 c -0.375,0.03125 -1.34375,0.03125 -1.78125,0.03125 -0.421875,0 -1.40625,0 -1.78125,-0.03125 V -6.375 H 1.46875 v 5.90625 H 0.390625 V 0 c 0.375,-0.03125 1.359375,-0.03125 1.78125,-0.03125 0.4375,0 1.40625,0 1.78125,0.03125 V -0.46875 H 2.875 V -3.3125 h 3.203125 v 2.84375 H 5 V 0 c 0.390625,-0.03125 1.359375,-0.03125 1.78125,-0.03125 0.4375,0 1.40625,0 1.796875,0.03125 V -0.46875 H 7.5 Z m 0,0"
             style="stroke:none;stroke-width:0"
             inkscape:connector-curvature="0" />
        </g>
        <g
           id="g1622"
           style="fill:#000000;fill-opacity:1">
          <path
             id="path1620"
             transform="translate(159.893,134.765)"
             d="M 3.875,-2.765625 1.890625,-4.75 C 1.765625,-4.875 1.75,-4.890625 1.671875,-4.890625 1.5625,-4.890625 1.46875,-4.8125 1.46875,-4.6875 c 0,0.0625 0.015625,0.078125 0.125,0.1875 l 2,2 -2,2.015625 c -0.109375,0.109375 -0.125,0.125 -0.125,0.1875 0,0.125 0.09375,0.203125 0.203125,0.203125 0.078125,0 0.09375,-0.015625 0.21875,-0.140625 L 3.875,-2.21875 l 2.0625,2.0625 c 0.015625,0.015625 0.078125,0.0625 0.140625,0.0625 0.125,0 0.203125,-0.078125 0.203125,-0.203125 0,-0.015625 0,-0.046875 -0.03125,-0.109375 C 6.234375,-0.421875 4.65625,-1.984375 4.15625,-2.5 l 1.828125,-1.8125 c 0.046875,-0.0625 0.203125,-0.1875 0.25,-0.25 0,-0.015625 0.046875,-0.0625 0.046875,-0.125 0,-0.125 -0.078125,-0.203125 -0.203125,-0.203125 C 6,-4.890625 5.96875,-4.859375 5.859375,-4.75 Z m 0,0"
             style="stroke:none;stroke-width:0"
             inkscape:connector-curvature="0" />
        </g>
        <g
           id="g1626"
           style="fill:#000000;fill-opacity:1">
          <path
             id="path1624"
             transform="translate(169.855,134.765)"
             d="M 6.421875,-6.78125 H 0.390625 V -6.3125 H 1.46875 v 5.84375 H 0.390625 V 0 c 0.375,-0.03125 1.390625,-0.03125 1.828125,-0.03125 0.484375,0 1.5625,0 2.015625,0.03125 V -0.46875 H 2.875 v -2.6875 h 0.5 c 0.96875,0 1.046875,0.421875 1.046875,1.15625 h 0.46875 V -4.796875 H 4.421875 C 4.421875,-4.0625 4.34375,-3.625 3.375,-3.625 h -0.5 v -2.6875 h 1.40625 c 1.59375,0 1.828125,0.765625 1.984375,1.9375 h 0.46875 z m 0,0"
             style="stroke:none;stroke-width:0"
             inkscape:connector-curvature="0" />
        </g>
      </g>
    </g>
    <g
       id="g1735"
       ns1:jacobian_sqrt="0.529167"
       inkscapeversion="0.92.4"
       ns1:alignment="middle center"
       ns1:scale="1.5"
       ns1:preamble="C:\\Users\\shawn\\AppData\\Roaming\\inkscape\\extensions\\textext\\default_packages.tex"
       ns1:text="$(\\mathbf{F} \\times \\mathbf{G}) \\bullet \\mathbf{H}$"
       ns1:pdfconverter="pdf2svg"
       ns1:texconverter="pdflatex"
       ns1:version="0.11.0"
       transform="matrix(0.529167,0,0,0.529167,-55.702154,171.51595)">
      <g
         id="g1733">
        <g
           id="g1707"
           style="fill:#000000;fill-opacity:1">
          <path
             id="path1705"
             transform="translate(148.712,134.765)"
             d="m 3.296875,2.390625 c 0,-0.03125 0,-0.046875 -0.171875,-0.21875 C 1.890625,0.921875 1.5625,-0.96875 1.5625,-2.5 c 0,-1.734375 0.375,-3.46875 1.609375,-4.703125 0.125,-0.125 0.125,-0.140625 0.125,-0.171875 0,-0.078125 -0.03125,-0.109375 -0.09375,-0.109375 -0.109375,0 -1,0.6875 -1.59375,1.953125 -0.5,1.09375 -0.625,2.203125 -0.625,3.03125 0,0.78125 0.109375,1.984375 0.65625,3.125 C 2.25,1.84375 3.09375,2.5 3.203125,2.5 c 0.0625,0 0.09375,-0.03125 0.09375,-0.109375 z m 0,0"
             style="stroke:none;stroke-width:0"
             inkscape:connector-curvature="0" />
        </g>
        <g
           id="g1711"
           style="fill:#000000;fill-opacity:1">
          <path
             id="path1709"
             transform="translate(152.587,134.765)"
             d="M 6.421875,-6.78125 H 0.390625 V -6.3125 H 1.46875 v 5.84375 H 0.390625 V 0 c 0.375,-0.03125 1.390625,-0.03125 1.828125,-0.03125 0.484375,0 1.5625,0 2.015625,0.03125 V -0.46875 H 2.875 v -2.6875 h 0.5 c 0.96875,0 1.046875,0.421875 1.046875,1.15625 h 0.46875 V -4.796875 H 4.421875 C 4.421875,-4.0625 4.34375,-3.625 3.375,-3.625 h -0.5 v -2.6875 h 1.40625 c 1.59375,0 1.828125,0.765625 1.984375,1.9375 h 0.46875 z m 0,0"
             style="stroke:none;stroke-width:0"
             inkscape:connector-curvature="0" />
        </g>
        <g
           id="g1715"
           style="fill:#000000;fill-opacity:1">
          <path
             id="path1713"
             transform="translate(162.01,134.765)"
             d="M 3.875,-2.765625 1.890625,-4.75 C 1.765625,-4.875 1.75,-4.890625 1.671875,-4.890625 1.5625,-4.890625 1.46875,-4.8125 1.46875,-4.6875 c 0,0.0625 0.015625,0.078125 0.125,0.1875 l 2,2 -2,2.015625 c -0.109375,0.109375 -0.125,0.125 -0.125,0.1875 0,0.125 0.09375,0.203125 0.203125,0.203125 0.078125,0 0.09375,-0.015625 0.21875,-0.140625 L 3.875,-2.21875 l 2.0625,2.0625 c 0.015625,0.015625 0.078125,0.0625 0.140625,0.0625 0.125,0 0.203125,-0.078125 0.203125,-0.203125 0,-0.015625 0,-0.046875 -0.03125,-0.109375 C 6.234375,-0.421875 4.65625,-1.984375 4.15625,-2.5 l 1.828125,-1.8125 c 0.046875,-0.0625 0.203125,-0.1875 0.25,-0.25 0,-0.015625 0.046875,-0.0625 0.046875,-0.125 0,-0.125 -0.078125,-0.203125 -0.203125,-0.203125 C 6,-4.890625 5.96875,-4.859375 5.859375,-4.75 Z m 0,0"
             style="stroke:none;stroke-width:0"
             inkscape:connector-curvature="0" />
        </g>
        <g
           id="g1719"
           style="fill:#000000;fill-opacity:1">
          <path
             id="path1717"
             transform="translate(171.972,134.765)"
             d="M 6.515625,-0.53125 C 6.8125,-0.265625 7.421875,0 7.484375,0 7.625,0 7.625,-0.125 7.625,-0.28125 v -2 H 8.421875 V -2.75 c -0.34375,0.03125 -1.21875,0.03125 -1.609375,0.03125 -0.578125,0 -1.5,0 -2.03125,-0.03125 v 0.46875 h 1.421875 v 1 c 0,0.1875 0,0.484375 -0.375,0.71875 C 5.5625,-0.421875 5.25,-0.359375 4.921875,-0.359375 c -0.859375,0 -1.71875,-0.28125 -2.203125,-0.90625 -0.421875,-0.546875 -0.5625,-1.25 -0.5625,-2.15625 0,-1.125 0.203125,-1.703125 0.578125,-2.1875 0.390625,-0.5 1.15625,-0.875 2.125,-0.875 1.0625,0 2.015625,0.765625 2.234375,2.03125 C 7.125,-4.265625 7.125,-4.25 7.359375,-4.25 c 0.25,0 0.265625,-0.015625 0.265625,-0.28125 v -2.140625 c 0,-0.1875 0,-0.28125 -0.171875,-0.28125 -0.09375,0 -0.109375,0.03125 -0.203125,0.09375 l -0.65625,0.59375 c -0.71875,-0.578125 -1.4375,-0.6875 -1.953125,-0.6875 -2.453125,0 -4,1.46875 -4,3.53125 0,1.984375 1.4375,3.53125 4.015625,3.53125 0.328125,0 1.359375,-0.015625 1.859375,-0.640625 z m 0,0"
             style="stroke:none;stroke-width:0"
             inkscape:connector-curvature="0" />
        </g>
        <g
           id="g1723"
           style="fill:#000000;fill-opacity:1">
          <path
             id="path1721"
             transform="translate(180.98,134.765)"
             d="m 2.875,-2.5 c 0,-0.765625 -0.109375,-1.96875 -0.65625,-3.109375 -0.59375,-1.21875 -1.453125,-1.875 -1.546875,-1.875 -0.0625,0 -0.109375,0.046875 -0.109375,0.109375 0,0.03125 0,0.046875 0.1875,0.234375 0.984375,0.984375 1.546875,2.5625 1.546875,4.640625 0,1.71875 -0.359375,3.46875 -1.59375,4.71875 C 0.5625,2.34375 0.5625,2.359375 0.5625,2.390625 0.5625,2.453125 0.609375,2.5 0.671875,2.5 0.765625,2.5 1.671875,1.8125 2.25,0.546875 2.765625,-0.546875 2.875,-1.65625 2.875,-2.5 Z m 0,0"
             style="stroke:none;stroke-width:0"
             inkscape:connector-curvature="0" />
        </g>
        <g
           id="g1727"
           style="fill:#000000;fill-opacity:1">
          <path
             id="path1725"
             transform="translate(187.068,134.765)"
             d="m 4.421875,-2.5 c 0,-1.0625 -0.890625,-1.921875 -1.921875,-1.921875 -1.078125,0 -1.953125,0.890625 -1.953125,1.921875 0,1.0625 0.875,1.9375 1.953125,1.9375 1.03125,0 1.921875,-0.859375 1.921875,-1.9375 z m 0,0"
             style="stroke:none;stroke-width:0"
             inkscape:connector-curvature="0" />
        </g>
        <g
           id="g1731"
           style="fill:#000000;fill-opacity:1">
          <path
             id="path1729"
             transform="translate(194.263,134.765)"
             d="M 7.5,-6.375 H 8.578125 V -6.84375 C 8.1875,-6.8125 7.21875,-6.8125 6.78125,-6.8125 c -0.421875,0 -1.390625,0 -1.78125,-0.03125 V -6.375 h 1.078125 v 2.59375 H 2.875 V -6.375 h 1.078125 v -0.46875 c -0.375,0.03125 -1.34375,0.03125 -1.78125,0.03125 -0.421875,0 -1.40625,0 -1.78125,-0.03125 V -6.375 H 1.46875 v 5.90625 H 0.390625 V 0 c 0.375,-0.03125 1.359375,-0.03125 1.78125,-0.03125 0.4375,0 1.40625,0 1.78125,0.03125 V -0.46875 H 2.875 V -3.3125 h 3.203125 v 2.84375 H 5 V 0 c 0.390625,-0.03125 1.359375,-0.03125 1.78125,-0.03125 0.4375,0 1.40625,0 1.796875,0.03125 V -0.46875 H 7.5 Z m 0,0"
             style="stroke:none;stroke-width:0"
             inkscape:connector-curvature="0" />
        </g>
      </g>
    </g>
    <g
       id="g1864"
       ns1:jacobian_sqrt="0.529167"
       inkscapeversion="0.92.4"
       ns1:alignment="middle center"
       ns1:scale="1.5"
       ns1:preamble="C:\\Users\\shawn\\AppData\\Roaming\\inkscape\\extensions\\textext\\default_packages.tex"
       ns1:text="$(\\mathbf{G} \\times \\mathbf{H}) \\bullet \\mathbf{F}$"
       ns1:pdfconverter="pdf2svg"
       ns1:texconverter="pdflatex"
       ns1:version="0.11.0"
       transform="matrix(0.529167,0,0,0.529167,-27.331252,178.88648)">
      <g
         id="g1862">
        <g
           id="g1836"
           style="fill:#000000;fill-opacity:1">
          <path
             id="path1834"
             transform="translate(148.712,134.765)"
             d="m 3.296875,2.390625 c 0,-0.03125 0,-0.046875 -0.171875,-0.21875 C 1.890625,0.921875 1.5625,-0.96875 1.5625,-2.5 c 0,-1.734375 0.375,-3.46875 1.609375,-4.703125 0.125,-0.125 0.125,-0.140625 0.125,-0.171875 0,-0.078125 -0.03125,-0.109375 -0.09375,-0.109375 -0.109375,0 -1,0.6875 -1.59375,1.953125 -0.5,1.09375 -0.625,2.203125 -0.625,3.03125 0,0.78125 0.109375,1.984375 0.65625,3.125 C 2.25,1.84375 3.09375,2.5 3.203125,2.5 c 0.0625,0 0.09375,-0.03125 0.09375,-0.109375 z m 0,0"
             style="stroke:none;stroke-width:0"
             inkscape:connector-curvature="0" />
        </g>
        <g
           id="g1840"
           style="fill:#000000;fill-opacity:1">
          <path
             id="path1838"
             transform="translate(152.587,134.765)"
             d="M 6.515625,-0.53125 C 6.8125,-0.265625 7.421875,0 7.484375,0 7.625,0 7.625,-0.125 7.625,-0.28125 v -2 H 8.421875 V -2.75 c -0.34375,0.03125 -1.21875,0.03125 -1.609375,0.03125 -0.578125,0 -1.5,0 -2.03125,-0.03125 v 0.46875 h 1.421875 v 1 c 0,0.1875 0,0.484375 -0.375,0.71875 C 5.5625,-0.421875 5.25,-0.359375 4.921875,-0.359375 c -0.859375,0 -1.71875,-0.28125 -2.203125,-0.90625 -0.421875,-0.546875 -0.5625,-1.25 -0.5625,-2.15625 0,-1.125 0.203125,-1.703125 0.578125,-2.1875 0.390625,-0.5 1.15625,-0.875 2.125,-0.875 1.0625,0 2.015625,0.765625 2.234375,2.03125 C 7.125,-4.265625 7.125,-4.25 7.359375,-4.25 c 0.25,0 0.265625,-0.015625 0.265625,-0.28125 v -2.140625 c 0,-0.1875 0,-0.28125 -0.171875,-0.28125 -0.09375,0 -0.109375,0.03125 -0.203125,0.09375 l -0.65625,0.59375 c -0.71875,-0.578125 -1.4375,-0.6875 -1.953125,-0.6875 -2.453125,0 -4,1.46875 -4,3.53125 0,1.984375 1.4375,3.53125 4.015625,3.53125 0.328125,0 1.359375,-0.015625 1.859375,-0.640625 z m 0,0"
             style="stroke:none;stroke-width:0"
             inkscape:connector-curvature="0" />
        </g>
        <g
           id="g1844"
           style="fill:#000000;fill-opacity:1">
          <path
             id="path1842"
             transform="translate(163.808,134.765)"
             d="M 3.875,-2.765625 1.890625,-4.75 C 1.765625,-4.875 1.75,-4.890625 1.671875,-4.890625 1.5625,-4.890625 1.46875,-4.8125 1.46875,-4.6875 c 0,0.0625 0.015625,0.078125 0.125,0.1875 l 2,2 -2,2.015625 c -0.109375,0.109375 -0.125,0.125 -0.125,0.1875 0,0.125 0.09375,0.203125 0.203125,0.203125 0.078125,0 0.09375,-0.015625 0.21875,-0.140625 L 3.875,-2.21875 l 2.0625,2.0625 c 0.015625,0.015625 0.078125,0.0625 0.140625,0.0625 0.125,0 0.203125,-0.078125 0.203125,-0.203125 0,-0.015625 0,-0.046875 -0.03125,-0.109375 C 6.234375,-0.421875 4.65625,-1.984375 4.15625,-2.5 l 1.828125,-1.8125 c 0.046875,-0.0625 0.203125,-0.1875 0.25,-0.25 0,-0.015625 0.046875,-0.0625 0.046875,-0.125 0,-0.125 -0.078125,-0.203125 -0.203125,-0.203125 C 6,-4.890625 5.96875,-4.859375 5.859375,-4.75 Z m 0,0"
             style="stroke:none;stroke-width:0"
             inkscape:connector-curvature="0" />
        </g>
        <g
           id="g1848"
           style="fill:#000000;fill-opacity:1">
          <path
             id="path1846"
             transform="translate(173.771,134.765)"
             d="M 7.5,-6.375 H 8.578125 V -6.84375 C 8.1875,-6.8125 7.21875,-6.8125 6.78125,-6.8125 c -0.421875,0 -1.390625,0 -1.78125,-0.03125 V -6.375 h 1.078125 v 2.59375 H 2.875 V -6.375 h 1.078125 v -0.46875 c -0.375,0.03125 -1.34375,0.03125 -1.78125,0.03125 -0.421875,0 -1.40625,0 -1.78125,-0.03125 V -6.375 H 1.46875 v 5.90625 H 0.390625 V 0 c 0.375,-0.03125 1.359375,-0.03125 1.78125,-0.03125 0.4375,0 1.40625,0 1.78125,0.03125 V -0.46875 H 2.875 V -3.3125 h 3.203125 v 2.84375 H 5 V 0 c 0.390625,-0.03125 1.359375,-0.03125 1.78125,-0.03125 0.4375,0 1.40625,0 1.796875,0.03125 V -0.46875 H 7.5 Z m 0,0"
             style="stroke:none;stroke-width:0"
             inkscape:connector-curvature="0" />
        </g>
        <g
           id="g1852"
           style="fill:#000000;fill-opacity:1">
          <path
             id="path1850"
             transform="translate(182.737,134.765)"
             d="m 2.875,-2.5 c 0,-0.765625 -0.109375,-1.96875 -0.65625,-3.109375 -0.59375,-1.21875 -1.453125,-1.875 -1.546875,-1.875 -0.0625,0 -0.109375,0.046875 -0.109375,0.109375 0,0.03125 0,0.046875 0.1875,0.234375 0.984375,0.984375 1.546875,2.5625 1.546875,4.640625 0,1.71875 -0.359375,3.46875 -1.59375,4.71875 C 0.5625,2.34375 0.5625,2.359375 0.5625,2.390625 0.5625,2.453125 0.609375,2.5 0.671875,2.5 0.765625,2.5 1.671875,1.8125 2.25,0.546875 2.765625,-0.546875 2.875,-1.65625 2.875,-2.5 Z m 0,0"
             style="stroke:none;stroke-width:0"
             inkscape:connector-curvature="0" />
        </g>
        <g
           id="g1856"
           style="fill:#000000;fill-opacity:1">
          <path
             id="path1854"
             transform="translate(188.826,134.765)"
             d="m 4.421875,-2.5 c 0,-1.0625 -0.890625,-1.921875 -1.921875,-1.921875 -1.078125,0 -1.953125,0.890625 -1.953125,1.921875 0,1.0625 0.875,1.9375 1.953125,1.9375 1.03125,0 1.921875,-0.859375 1.921875,-1.9375 z m 0,0"
             style="stroke:none;stroke-width:0"
             inkscape:connector-curvature="0" />
        </g>
        <g
           id="g1860"
           style="fill:#000000;fill-opacity:1">
          <path
             id="path1858"
             transform="translate(196.021,134.765)"
             d="M 6.421875,-6.78125 H 0.390625 V -6.3125 H 1.46875 v 5.84375 H 0.390625 V 0 c 0.375,-0.03125 1.390625,-0.03125 1.828125,-0.03125 0.484375,0 1.5625,0 2.015625,0.03125 V -0.46875 H 2.875 v -2.6875 h 0.5 c 0.96875,0 1.046875,0.421875 1.046875,1.15625 h 0.46875 V -4.796875 H 4.421875 C 4.421875,-4.0625 4.34375,-3.625 3.375,-3.625 h -0.5 v -2.6875 h 1.40625 c 1.59375,0 1.828125,0.765625 1.984375,1.9375 h 0.46875 z m 0,0"
             style="stroke:none;stroke-width:0"
             inkscape:connector-curvature="0" />
        </g>
      </g>
    </g>
    <g
       id="g2009"
       ns1:jacobian_sqrt="0.529167"
       inkscapeversion="0.92.4"
       ns1:alignment="middle center"
       ns1:scale="1.5"
       ns1:preamble="C:\\Users\\shawn\\AppData\\Roaming\\inkscape\\extensions\\textext\\default_packages.tex"
       ns1:text="$(\\mathbf{H} \\times \\mathbf{F}) \\bullet \\mathbf{G}$"
       ns1:pdfconverter="pdf2svg"
       ns1:texconverter="pdflatex"
       ns1:version="0.11.0"
       transform="matrix(0.529167,0,0,0.529167,-21.44312,168.49214)">
      <g
         id="g2007">
        <g
           id="g1981"
           style="fill:#000000;fill-opacity:1">
          <path
             id="path1979"
             transform="translate(148.712,134.765)"
             d="m 3.296875,2.390625 c 0,-0.03125 0,-0.046875 -0.171875,-0.21875 C 1.890625,0.921875 1.5625,-0.96875 1.5625,-2.5 c 0,-1.734375 0.375,-3.46875 1.609375,-4.703125 0.125,-0.125 0.125,-0.140625 0.125,-0.171875 0,-0.078125 -0.03125,-0.109375 -0.09375,-0.109375 -0.109375,0 -1,0.6875 -1.59375,1.953125 -0.5,1.09375 -0.625,2.203125 -0.625,3.03125 0,0.78125 0.109375,1.984375 0.65625,3.125 C 2.25,1.84375 3.09375,2.5 3.203125,2.5 c 0.0625,0 0.09375,-0.03125 0.09375,-0.109375 z m 0,0"
             style="stroke:none;stroke-width:0"
             inkscape:connector-curvature="0" />
        </g>
        <g
           id="g1985"
           style="fill:#000000;fill-opacity:1">
          <path
             id="path1983"
             transform="translate(152.587,134.765)"
             d="M 7.5,-6.375 H 8.578125 V -6.84375 C 8.1875,-6.8125 7.21875,-6.8125 6.78125,-6.8125 c -0.421875,0 -1.390625,0 -1.78125,-0.03125 V -6.375 h 1.078125 v 2.59375 H 2.875 V -6.375 h 1.078125 v -0.46875 c -0.375,0.03125 -1.34375,0.03125 -1.78125,0.03125 -0.421875,0 -1.40625,0 -1.78125,-0.03125 V -6.375 H 1.46875 v 5.90625 H 0.390625 V 0 c 0.375,-0.03125 1.359375,-0.03125 1.78125,-0.03125 0.4375,0 1.40625,0 1.78125,0.03125 V -0.46875 H 2.875 V -3.3125 h 3.203125 v 2.84375 H 5 V 0 c 0.390625,-0.03125 1.359375,-0.03125 1.78125,-0.03125 0.4375,0 1.40625,0 1.796875,0.03125 V -0.46875 H 7.5 Z m 0,0"
             style="stroke:none;stroke-width:0"
             inkscape:connector-curvature="0" />
        </g>
        <g
           id="g1989"
           style="fill:#000000;fill-opacity:1">
          <path
             id="path1987"
             transform="translate(163.767,134.765)"
             d="M 3.875,-2.765625 1.890625,-4.75 C 1.765625,-4.875 1.75,-4.890625 1.671875,-4.890625 1.5625,-4.890625 1.46875,-4.8125 1.46875,-4.6875 c 0,0.0625 0.015625,0.078125 0.125,0.1875 l 2,2 -2,2.015625 c -0.109375,0.109375 -0.125,0.125 -0.125,0.1875 0,0.125 0.09375,0.203125 0.203125,0.203125 0.078125,0 0.09375,-0.015625 0.21875,-0.140625 L 3.875,-2.21875 l 2.0625,2.0625 c 0.015625,0.015625 0.078125,0.0625 0.140625,0.0625 0.125,0 0.203125,-0.078125 0.203125,-0.203125 0,-0.015625 0,-0.046875 -0.03125,-0.109375 C 6.234375,-0.421875 4.65625,-1.984375 4.15625,-2.5 l 1.828125,-1.8125 c 0.046875,-0.0625 0.203125,-0.1875 0.25,-0.25 0,-0.015625 0.046875,-0.0625 0.046875,-0.125 0,-0.125 -0.078125,-0.203125 -0.203125,-0.203125 C 6,-4.890625 5.96875,-4.859375 5.859375,-4.75 Z m 0,0"
             style="stroke:none;stroke-width:0"
             inkscape:connector-curvature="0" />
        </g>
        <g
           id="g1993"
           style="fill:#000000;fill-opacity:1">
          <path
             id="path1991"
             transform="translate(173.729,134.765)"
             d="M 6.421875,-6.78125 H 0.390625 V -6.3125 H 1.46875 v 5.84375 H 0.390625 V 0 c 0.375,-0.03125 1.390625,-0.03125 1.828125,-0.03125 0.484375,0 1.5625,0 2.015625,0.03125 V -0.46875 H 2.875 v -2.6875 h 0.5 c 0.96875,0 1.046875,0.421875 1.046875,1.15625 h 0.46875 V -4.796875 H 4.421875 C 4.421875,-4.0625 4.34375,-3.625 3.375,-3.625 h -0.5 v -2.6875 h 1.40625 c 1.59375,0 1.828125,0.765625 1.984375,1.9375 h 0.46875 z m 0,0"
             style="stroke:none;stroke-width:0"
             inkscape:connector-curvature="0" />
        </g>
        <g
           id="g1997"
           style="fill:#000000;fill-opacity:1">
          <path
             id="path1995"
             transform="translate(180.939,134.765)"
             d="m 2.875,-2.5 c 0,-0.765625 -0.109375,-1.96875 -0.65625,-3.109375 -0.59375,-1.21875 -1.453125,-1.875 -1.546875,-1.875 -0.0625,0 -0.109375,0.046875 -0.109375,0.109375 0,0.03125 0,0.046875 0.1875,0.234375 0.984375,0.984375 1.546875,2.5625 1.546875,4.640625 0,1.71875 -0.359375,3.46875 -1.59375,4.71875 C 0.5625,2.34375 0.5625,2.359375 0.5625,2.390625 0.5625,2.453125 0.609375,2.5 0.671875,2.5 0.765625,2.5 1.671875,1.8125 2.25,0.546875 2.765625,-0.546875 2.875,-1.65625 2.875,-2.5 Z m 0,0"
             style="stroke:none;stroke-width:0"
             inkscape:connector-curvature="0" />
        </g>
        <g
           id="g2001"
           style="fill:#000000;fill-opacity:1">
          <path
             id="path1999"
             transform="translate(187.027,134.765)"
             d="m 4.421875,-2.5 c 0,-1.0625 -0.890625,-1.921875 -1.921875,-1.921875 -1.078125,0 -1.953125,0.890625 -1.953125,1.921875 0,1.0625 0.875,1.9375 1.953125,1.9375 1.03125,0 1.921875,-0.859375 1.921875,-1.9375 z m 0,0"
             style="stroke:none;stroke-width:0"
             inkscape:connector-curvature="0" />
        </g>
        <g
           id="g2005"
           style="fill:#000000;fill-opacity:1">
          <path
             id="path2003"
             transform="translate(194.222,134.765)"
             d="M 6.515625,-0.53125 C 6.8125,-0.265625 7.421875,0 7.484375,0 7.625,0 7.625,-0.125 7.625,-0.28125 v -2 H 8.421875 V -2.75 c -0.34375,0.03125 -1.21875,0.03125 -1.609375,0.03125 -0.578125,0 -1.5,0 -2.03125,-0.03125 v 0.46875 h 1.421875 v 1 c 0,0.1875 0,0.484375 -0.375,0.71875 C 5.5625,-0.421875 5.25,-0.359375 4.921875,-0.359375 c -0.859375,0 -1.71875,-0.28125 -2.203125,-0.90625 -0.421875,-0.546875 -0.5625,-1.25 -0.5625,-2.15625 0,-1.125 0.203125,-1.703125 0.578125,-2.1875 0.390625,-0.5 1.15625,-0.875 2.125,-0.875 1.0625,0 2.015625,0.765625 2.234375,2.03125 C 7.125,-4.265625 7.125,-4.25 7.359375,-4.25 c 0.25,0 0.265625,-0.015625 0.265625,-0.28125 v -2.140625 c 0,-0.1875 0,-0.28125 -0.171875,-0.28125 -0.09375,0 -0.109375,0.03125 -0.203125,0.09375 l -0.65625,0.59375 c -0.71875,-0.578125 -1.4375,-0.6875 -1.953125,-0.6875 -2.453125,0 -4,1.46875 -4,3.53125 0,1.984375 1.4375,3.53125 4.015625,3.53125 0.328125,0 1.359375,-0.015625 1.859375,-0.640625 z m 0,0"
             style="stroke:none;stroke-width:0"
             inkscape:connector-curvature="0" />
        </g>
      </g>
    </g>
  </g>
</svg>
