<?xml version="1.0" encoding="UTF-8" standalone="no"?>
<!-- Created with Inkscape (http://www.inkscape.org/) -->

<svg
   xmlns:ns1="http://www.iki.fi/pav/software/textext/"
   xmlns:dc="http://purl.org/dc/elements/1.1/"
   xmlns:cc="http://creativecommons.org/ns#"
   xmlns:rdf="http://www.w3.org/1999/02/22-rdf-syntax-ns#"
   xmlns:svg="http://www.w3.org/2000/svg"
   xmlns="http://www.w3.org/2000/svg"
   xmlns:sodipodi="http://sodipodi.sourceforge.net/DTD/sodipodi-0.dtd"
   xmlns:inkscape="http://www.inkscape.org/namespaces/inkscape"
   width="95mm"
   height="65mm"
   viewBox="0 0 95 65"
   version="1.1"
   id="svg8"
   inkscape:version="0.92.4 (5da689c313, 2019-01-14)"
   sodipodi:docname="multi-volume_multiplicity.svg">
  <defs
     id="defs2" />
  <sodipodi:namedview
     id="base"
     pagecolor="#ffffff"
     bordercolor="#666666"
     borderopacity="1.0"
     inkscape:pageopacity="0.0"
     inkscape:pageshadow="2"
     inkscape:zoom="0.98994949"
     inkscape:cx="152.42003"
     inkscape:cy="277.15729"
     inkscape:document-units="mm"
     inkscape:current-layer="layer1"
     showgrid="false"
     inkscape:window-width="1920"
     inkscape:window-height="1017"
     inkscape:window-x="-8"
     inkscape:window-y="-8"
     inkscape:window-maximized="1"
     inkscape:snap-global="false">
    <inkscape:grid
       spacingy="1"
       spacingx="1"
       units="mm"
       id="grid815"
       type="xygrid" />
  </sodipodi:namedview>
  <metadata
     id="metadata5">
    <rdf:RDF>
      <cc:Work
         rdf:about="">
        <dc:format>image/svg+xml</dc:format>
        <dc:type
           rdf:resource="http://purl.org/dc/dcmitype/StillImage" />
        <dc:title />
      </cc:Work>
    </rdf:RDF>
  </metadata>
  <g
     inkscape:label="Layer 1"
     inkscape:groupmode="layer"
     id="layer1"
     transform="translate(0,-232)">
    <path
       style="fill:#7f0000;fill-opacity:0.49803922;stroke:none;stroke-width:0.26499999;stroke-linecap:butt;stroke-linejoin:miter;stroke-miterlimit:4;stroke-dasharray:none;stroke-opacity:1"
       d="m 6.4144667,263.85858 c -1.419498,13.89121 -2.405425,17.37252 1.870888,22.45064 4.2763123,5.07812 8.8198953,-7.75081 12.8289363,-10.42351 4.009043,-2.6727 19.510677,4.81085 19.510677,-0.53454 0,-5.34539 -1.336348,-8.01809 -4.810851,-12.82894 -3.474505,-4.81085 -12.294397,-10.15624 -19.777945,-8.55262 -7.4835453,1.60361 -9.0755963,4.54475 -9.6217053,9.88897 z"
       id="path817"
       inkscape:connector-curvature="0"
       sodipodi:nodetypes="sssssss" />
    <path
       style="fill:#ff7f7f;fill-opacity:0.49803922;stroke:none;stroke-width:0.26458332px;stroke-linecap:butt;stroke-linejoin:miter;stroke-opacity:1"
       d="m 64.946494,259.58226 c 5.524175,3.85033 7.483553,4.27631 10.156242,9.6217 3.718788,7.4376 -10.580413,8.93029 -4.543587,17.10526 6.062368,8.20956 11.383698,-1.39573 16.303453,-6.68174 3.579534,-3.84601 4.199909,-10.08341 1.870881,-16.57072 -1.506814,-4.1971 -6.92129,-10.12851 -10.156244,-13.36347 -4.27631,-4.27631 -11.226997,-3.77496 -17.639788,-2.40543 -6.307222,1.347 -16.908052,9.91068 -13.506758,13.36244 4.696273,4.76595 13.495117,-3.87044 17.515801,-1.06804 z"
       id="path819"
       inkscape:connector-curvature="0"
       sodipodi:nodetypes="sssssssss" />
    <path
       style="fill:#ff0000;fill-opacity:0.49803922;stroke:none;stroke-width:0.26458332px;stroke-linecap:butt;stroke-linejoin:miter;stroke-opacity:1"
       d="m 35.012306,240.33886 c -6.298247,1.43142 -8.806204,6.61043 -7.750815,9.35444 1.336348,3.47449 10.509786,3.79987 13.096207,2.93996 3.413187,-1.1348 4.543583,-2.13815 4.276314,-6.41446 -0.267272,-4.27632 -3.887993,-7.18306 -9.621706,-5.87994 z"
       id="path821"
       inkscape:connector-curvature="0"
       sodipodi:nodetypes="sssss" />
    <g
       id="g862"
       ns1:jacobian_sqrt="0.705556"
       inkscapeversion="0.92.4"
       ns1:alignment="middle center"
       ns1:scale="2.0"
       ns1:preamble="C:\\Users\\shawn\\AppData\\Roaming\\inkscape\\extensions\\textext\\default_packages.tex"
       ns1:text="$2 \\times$"
       ns1:pdfconverter="pdf2svg"
       ns1:texconverter="pdflatex"
       ns1:version="0.11.0"
       transform="matrix(0.705556,0,0,0.705556,-98.190385,158.11762)">
      <g
         id="surface1">
        <g
           id="g855"
           style="fill:#000000;fill-opacity:1">
          <path
             id="path853"
             transform="translate(148.712,134.765)"
             d="m 1.265625,-0.765625 1.0625,-1.03125 c 1.546875,-1.375 2.140625,-1.90625 2.140625,-2.90625 0,-1.140625 -0.890625,-1.9375 -2.109375,-1.9375 -1.125,0 -1.859375,0.921875 -1.859375,1.8125 0,0.546875 0.5,0.546875 0.53125,0.546875 0.171875,0 0.515625,-0.109375 0.515625,-0.53125 0,-0.25 -0.1875,-0.515625 -0.53125,-0.515625 -0.078125,0 -0.09375,0 -0.125,0.015625 0.21875,-0.65625 0.765625,-1.015625 1.34375,-1.015625 0.90625,0 1.328125,0.8125 1.328125,1.625 C 3.5625,-3.90625 3.078125,-3.125 2.515625,-2.5 l -1.90625,2.125 C 0.5,-0.265625 0.5,-0.234375 0.5,0 H 4.203125 L 4.46875,-1.734375 H 4.234375 C 4.171875,-1.4375 4.109375,-1 4,-0.84375 3.9375,-0.765625 3.28125,-0.765625 3.0625,-0.765625 Z m 0,0"
             style="stroke:none;stroke-width:0"
             inkscape:connector-curvature="0" />
        </g>
        <g
           id="g859"
           style="fill:#000000;fill-opacity:1">
          <path
             id="path857"
             transform="translate(153.694,134.765)"
             d="M 3.875,-2.765625 1.890625,-4.75 C 1.765625,-4.875 1.75,-4.890625 1.671875,-4.890625 1.5625,-4.890625 1.46875,-4.8125 1.46875,-4.6875 c 0,0.0625 0.015625,0.078125 0.125,0.1875 l 2,2 -2,2.015625 c -0.109375,0.109375 -0.125,0.125 -0.125,0.1875 0,0.125 0.09375,0.203125 0.203125,0.203125 0.078125,0 0.09375,-0.015625 0.21875,-0.140625 L 3.875,-2.21875 l 2.0625,2.0625 c 0.015625,0.015625 0.078125,0.0625 0.140625,0.0625 0.125,0 0.203125,-0.078125 0.203125,-0.203125 0,-0.015625 0,-0.046875 -0.03125,-0.109375 C 6.234375,-0.421875 4.65625,-1.984375 4.15625,-2.5 l 1.828125,-1.8125 c 0.046875,-0.0625 0.203125,-0.1875 0.25,-0.25 0,-0.015625 0.046875,-0.0625 0.046875,-0.125 0,-0.125 -0.078125,-0.203125 -0.203125,-0.203125 C 6,-4.890625 5.96875,-4.859375 5.859375,-4.75 Z m 0,0"
             style="stroke:none;stroke-width:0"
             inkscape:connector-curvature="0" />
        </g>
      </g>
    </g>
    <g
       id="g896"
       ns1:jacobian_sqrt="0.705556"
       inkscapeversion="0.92.4"
       ns1:alignment="middle center"
       ns1:scale="2.0"
       ns1:preamble="C:\\Users\\shawn\\AppData\\Roaming\\inkscape\\extensions\\textext\\default_packages.tex"
       ns1:text="$1 \\times$"
       ns1:pdfconverter="pdf2svg"
       ns1:texconverter="pdflatex"
       ns1:version="0.11.0"
       transform="matrix(0.705556,0,0,0.705556,-84.964713,146.62503)">
      <g
         id="g894">
        <g
           id="g888"
           style="fill:#000000;fill-opacity:1">
          <path
             id="path886"
             transform="translate(148.712,134.765)"
             d="m 2.9375,-6.375 c 0,-0.25 0,-0.265625 -0.234375,-0.265625 C 2.078125,-6 1.203125,-6 0.890625,-6 v 0.3125 c 0.203125,0 0.78125,0 1.296875,-0.265625 v 5.171875 c 0,0.359375 -0.03125,0.46875 -0.921875,0.46875 h -0.3125 V 0 c 0.34375,-0.03125 1.203125,-0.03125 1.609375,-0.03125 0.390625,0 1.265625,0 1.609375,0.03125 v -0.3125 h -0.3125 c -0.90625,0 -0.921875,-0.109375 -0.921875,-0.46875 z m 0,0"
             style="stroke:none;stroke-width:0"
             inkscape:connector-curvature="0" />
        </g>
        <g
           id="g892"
           style="fill:#000000;fill-opacity:1">
          <path
             id="path890"
             transform="translate(153.694,134.765)"
             d="M 3.875,-2.765625 1.890625,-4.75 C 1.765625,-4.875 1.75,-4.890625 1.671875,-4.890625 1.5625,-4.890625 1.46875,-4.8125 1.46875,-4.6875 c 0,0.0625 0.015625,0.078125 0.125,0.1875 l 2,2 -2,2.015625 c -0.109375,0.109375 -0.125,0.125 -0.125,0.1875 0,0.125 0.09375,0.203125 0.203125,0.203125 0.078125,0 0.09375,-0.015625 0.21875,-0.140625 L 3.875,-2.21875 l 2.0625,2.0625 c 0.015625,0.015625 0.078125,0.0625 0.140625,0.0625 0.125,0 0.203125,-0.078125 0.203125,-0.203125 0,-0.015625 0,-0.046875 -0.03125,-0.109375 C 6.234375,-0.421875 4.65625,-1.984375 4.15625,-2.5 l 1.828125,-1.8125 c 0.046875,-0.0625 0.203125,-0.1875 0.25,-0.25 0,-0.015625 0.046875,-0.0625 0.046875,-0.125 0,-0.125 -0.078125,-0.203125 -0.203125,-0.203125 C 6,-4.890625 5.96875,-4.859375 5.859375,-4.75 Z m 0,0"
             style="stroke:none;stroke-width:0"
             inkscape:connector-curvature="0" />
        </g>
      </g>
    </g>
    <g
       id="g944"
       ns1:jacobian_sqrt="0.705556"
       inkscapeversion="0.92.4"
       ns1:alignment="middle center"
       ns1:scale="2.0"
       ns1:preamble="C:\\Users\\shawn\\AppData\\Roaming\\inkscape\\extensions\\textext\\default_packages.tex"
       ns1:text="$0.5 \\times$"
       ns1:pdfconverter="pdf2svg"
       ns1:texconverter="pdflatex"
       ns1:version="0.11.0"
       transform="matrix(0.705556,0,0,0.705556,-47.698489,148.95328)">
      <g
         id="g942">
        <g
           id="g928"
           style="fill:#000000;fill-opacity:1">
          <path
             id="path926"
             transform="translate(148.712,134.765)"
             d="m 4.578125,-3.1875 c 0,-0.796875 -0.046875,-1.59375 -0.390625,-2.328125 -0.453125,-0.96875 -1.28125,-1.125 -1.6875,-1.125 -0.609375,0 -1.328125,0.265625 -1.75,1.1875 -0.3125,0.6875 -0.359375,1.46875 -0.359375,2.265625 0,0.75 0.03125,1.640625 0.453125,2.40625 0.421875,0.796875 1.15625,1 1.640625,1 0.53125,0 1.296875,-0.203125 1.734375,-1.15625 0.3125,-0.6875 0.359375,-1.46875 0.359375,-2.25 z M 2.484375,0 C 2.09375,0 1.5,-0.25 1.328125,-1.203125 1.21875,-1.796875 1.21875,-2.71875 1.21875,-3.3125 c 0,-0.640625 0,-1.296875 0.078125,-1.828125 0.1875,-1.1875 0.9375,-1.28125 1.1875,-1.28125 0.328125,0 0.984375,0.1875 1.171875,1.171875 0.109375,0.5625 0.109375,1.3125 0.109375,1.9375 0,0.75 0,1.421875 -0.109375,2.0625 C 3.5,-0.296875 2.9375,0 2.484375,0 Z m 0,0"
             style="stroke:none;stroke-width:0"
             inkscape:connector-curvature="0" />
        </g>
        <g
           id="g932"
           style="fill:#000000;fill-opacity:1">
          <path
             id="path930"
             transform="translate(153.694,134.765)"
             d="m 1.90625,-0.53125 c 0,-0.28125 -0.234375,-0.53125 -0.515625,-0.53125 -0.296875,0 -0.53125,0.25 -0.53125,0.53125 C 0.859375,-0.234375 1.09375,0 1.390625,0 1.671875,0 1.90625,-0.234375 1.90625,-0.53125 Z m 0,0"
             style="stroke:none;stroke-width:0"
             inkscape:connector-curvature="0" />
        </g>
        <g
           id="g936"
           style="fill:#000000;fill-opacity:1">
          <path
             id="path934"
             transform="translate(156.461,134.765)"
             d="m 4.46875,-2 c 0,-1.1875 -0.8125,-2.1875 -1.890625,-2.1875 -0.46875,0 -0.90625,0.15625 -1.265625,0.515625 V -5.625 c 0.203125,0.0625 0.53125,0.125 0.84375,0.125 1.234375,0 1.9375,-0.90625 1.9375,-1.03125 0,-0.0625 -0.03125,-0.109375 -0.109375,-0.109375 0,0 -0.03125,0 -0.078125,0.03125 C 3.703125,-6.515625 3.21875,-6.3125 2.546875,-6.3125 2.15625,-6.3125 1.6875,-6.390625 1.21875,-6.59375 1.140625,-6.625 1.125,-6.625 1.109375,-6.625 1,-6.625 1,-6.546875 1,-6.390625 V -3.4375 c 0,0.171875 0,0.25 0.140625,0.25 0.078125,0 0.09375,-0.015625 0.140625,-0.078125 C 1.390625,-3.421875 1.75,-3.96875 2.5625,-3.96875 c 0.515625,0 0.765625,0.453125 0.84375,0.640625 0.15625,0.375 0.1875,0.75 0.1875,1.25 0,0.359375 0,0.953125 -0.25,1.375 C 3.109375,-0.3125 2.734375,-0.0625 2.28125,-0.0625 c -0.71875,0 -1.296875,-0.53125 -1.46875,-1.109375 0.03125,0 0.0625,0.015625 0.171875,0.015625 0.328125,0 0.5,-0.25 0.5,-0.484375 0,-0.25 -0.171875,-0.5 -0.5,-0.5 C 0.84375,-2.140625 0.5,-2.0625 0.5,-1.609375 0.5,-0.75 1.1875,0.21875 2.296875,0.21875 3.453125,0.21875 4.46875,-0.734375 4.46875,-2 Z m 0,0"
             style="stroke:none;stroke-width:0"
             inkscape:connector-curvature="0" />
        </g>
        <g
           id="g940"
           style="fill:#000000;fill-opacity:1">
          <path
             id="path938"
             transform="translate(161.442,134.765)"
             d="M 3.875,-2.765625 1.890625,-4.75 C 1.765625,-4.875 1.75,-4.890625 1.671875,-4.890625 1.5625,-4.890625 1.46875,-4.8125 1.46875,-4.6875 c 0,0.0625 0.015625,0.078125 0.125,0.1875 l 2,2 -2,2.015625 c -0.109375,0.109375 -0.125,0.125 -0.125,0.1875 0,0.125 0.09375,0.203125 0.203125,0.203125 0.078125,0 0.09375,-0.015625 0.21875,-0.140625 L 3.875,-2.21875 l 2.0625,2.0625 c 0.015625,0.015625 0.078125,0.0625 0.140625,0.0625 0.125,0 0.203125,-0.078125 0.203125,-0.203125 0,-0.015625 0,-0.046875 -0.03125,-0.109375 C 6.234375,-0.421875 4.65625,-1.984375 4.15625,-2.5 l 1.828125,-1.8125 c 0.046875,-0.0625 0.203125,-0.1875 0.25,-0.25 0,-0.015625 0.046875,-0.0625 0.046875,-0.125 0,-0.125 -0.078125,-0.203125 -0.203125,-0.203125 C 6,-4.890625 5.96875,-4.859375 5.859375,-4.75 Z m 0,0"
             style="stroke:none;stroke-width:0"
             inkscape:connector-curvature="0" />
        </g>
      </g>
    </g>
    <path
       style="fill:#0000ff;fill-opacity:0.49803922;stroke:none;stroke-width:0.26499999;stroke-linecap:butt;stroke-linejoin:miter;stroke-miterlimit:4;stroke-dasharray:none;stroke-opacity:1"
       d="m 55.324791,270.54032 c -4.956858,6.10075 -3.474502,10.69078 -20.847022,10.95805 -5.450604,0.0838 -3.741774,7.48355 6.414469,8.28536 9.947905,0.78535 21.114292,-3.74178 23.519717,-10.95806 2.405428,-7.21628 -3.010434,-15.76441 -9.087164,-8.28535 z"
       id="path959"
       inkscape:connector-curvature="0"
       sodipodi:nodetypes="sssss" />
    <g
       id="g1005"
       ns1:jacobian_sqrt="0.705556"
       inkscapeversion="0.92.4"
       ns1:alignment="middle center"
       ns1:scale="2.0"
       ns1:preamble="C:\\Users\\shawn\\AppData\\Roaming\\inkscape\\extensions\\textext\\default_packages.tex"
       ns1:text="$-1 \\times$"
       ns1:pdfconverter="pdf2svg"
       ns1:texconverter="pdflatex"
       ns1:version="0.11.0"
       transform="matrix(0.705556,0,0,0.705556,-87.408718,195.00081)">
      <g
         id="g1003">
        <g
           id="g993"
           style="fill:#000000;fill-opacity:1">
          <path
             id="path991"
             transform="translate(148.712,134.765)"
             d="m 6.5625,-2.296875 c 0.171875,0 0.359375,0 0.359375,-0.203125 0,-0.1875 -0.1875,-0.1875 -0.359375,-0.1875 H 1.171875 c -0.171875,0 -0.34375,0 -0.34375,0.1875 0,0.203125 0.171875,0.203125 0.34375,0.203125 z m 0,0"
             style="stroke:none;stroke-width:0"
             inkscape:connector-curvature="0" />
        </g>
        <g
           id="g997"
           style="fill:#000000;fill-opacity:1">
          <path
             id="path995"
             transform="translate(156.461,134.765)"
             d="m 2.9375,-6.375 c 0,-0.25 0,-0.265625 -0.234375,-0.265625 C 2.078125,-6 1.203125,-6 0.890625,-6 v 0.3125 c 0.203125,0 0.78125,0 1.296875,-0.265625 v 5.171875 c 0,0.359375 -0.03125,0.46875 -0.921875,0.46875 h -0.3125 V 0 c 0.34375,-0.03125 1.203125,-0.03125 1.609375,-0.03125 0.390625,0 1.265625,0 1.609375,0.03125 v -0.3125 h -0.3125 c -0.90625,0 -0.921875,-0.109375 -0.921875,-0.46875 z m 0,0"
             style="stroke:none;stroke-width:0"
             inkscape:connector-curvature="0" />
        </g>
        <g
           id="g1001"
           style="fill:#000000;fill-opacity:1">
          <path
             id="path999"
             transform="translate(161.442,134.765)"
             d="M 3.875,-2.765625 1.890625,-4.75 C 1.765625,-4.875 1.75,-4.890625 1.671875,-4.890625 1.5625,-4.890625 1.46875,-4.8125 1.46875,-4.6875 c 0,0.0625 0.015625,0.078125 0.125,0.1875 l 2,2 -2,2.015625 c -0.109375,0.109375 -0.125,0.125 -0.125,0.1875 0,0.125 0.09375,0.203125 0.203125,0.203125 0.078125,0 0.09375,-0.015625 0.21875,-0.140625 L 3.875,-2.21875 l 2.0625,2.0625 c 0.015625,0.015625 0.078125,0.0625 0.140625,0.0625 0.125,0 0.203125,-0.078125 0.203125,-0.203125 0,-0.015625 0,-0.046875 -0.03125,-0.109375 C 6.234375,-0.421875 4.65625,-1.984375 4.15625,-2.5 l 1.828125,-1.8125 c 0.046875,-0.0625 0.203125,-0.1875 0.25,-0.25 0,-0.015625 0.046875,-0.0625 0.046875,-0.125 0,-0.125 -0.078125,-0.203125 -0.203125,-0.203125 C 6,-4.890625 5.96875,-4.859375 5.859375,-4.75 Z m 0,0"
             style="stroke:none;stroke-width:0"
             inkscape:connector-curvature="0" />
        </g>
      </g>
    </g>
  </g>
</svg>
