<?xml version="1.0" encoding="UTF-8" standalone="no"?>
<!-- Created with Inkscape (http://www.inkscape.org/) -->

<svg
   xmlns:ns1="http://www.iki.fi/pav/software/textext/"
   xmlns:dc="http://purl.org/dc/elements/1.1/"
   xmlns:cc="http://creativecommons.org/ns#"
   xmlns:rdf="http://www.w3.org/1999/02/22-rdf-syntax-ns#"
   xmlns:svg="http://www.w3.org/2000/svg"
   xmlns="http://www.w3.org/2000/svg"
   xmlns:sodipodi="http://sodipodi.sourceforge.net/DTD/sodipodi-0.dtd"
   xmlns:inkscape="http://www.inkscape.org/namespaces/inkscape"
   width="100mm"
   height="80mm"
   viewBox="0 0 100 80"
   version="1.1"
   id="svg8"
   inkscape:version="0.92.4 (5da689c313, 2019-01-14)"
   sodipodi:docname="displacement_unit_vector.svg">
  <defs
     id="defs2">
    <marker
       inkscape:stockid="Arrow1Send"
       orient="auto"
       refY="0"
       refX="0"
       id="marker1365"
       style="overflow:visible"
       inkscape:isstock="true">
      <path
         id="path1363"
         d="M 0,0 5,-5 -12.5,0 5,5 Z"
         style="fill:#000000;fill-opacity:1;fill-rule:evenodd;stroke:#000000;stroke-width:1.00000003pt;stroke-opacity:1"
         transform="matrix(-0.2,0,0,-0.2,-1.2,0)"
         inkscape:connector-curvature="0" />
    </marker>
    <marker
       inkscape:stockid="Arrow1Send"
       orient="auto"
       refY="0"
       refX="0"
       id="Arrow1Send"
       style="overflow:visible"
       inkscape:isstock="true">
      <path
         id="path851"
         d="M 0,0 5,-5 -12.5,0 5,5 Z"
         style="fill:#c86400;fill-opacity:1;fill-rule:evenodd;stroke:#c86400;stroke-width:1.00000003pt;stroke-opacity:1"
         transform="matrix(-0.2,0,0,-0.2,-1.2,0)"
         inkscape:connector-curvature="0" />
    </marker>
  </defs>
  <sodipodi:namedview
     id="base"
     pagecolor="#ffffff"
     bordercolor="#666666"
     borderopacity="1.0"
     inkscape:pageopacity="0.0"
     inkscape:pageshadow="2"
     inkscape:zoom="1.4"
     inkscape:cx="302.41626"
     inkscape:cy="260"
     inkscape:document-units="mm"
     inkscape:current-layer="layer1"
     showgrid="true"
     inkscape:window-width="1920"
     inkscape:window-height="1017"
     inkscape:window-x="-8"
     inkscape:window-y="-8"
     inkscape:window-maximized="1"
     inkscape:snap-global="false"
     inkscape:snap-object-midpoints="true">
    <inkscape:grid
       spacingy="1"
       spacingx="1"
       units="mm"
       id="grid815"
       type="xygrid" />
  </sodipodi:namedview>
  <metadata
     id="metadata5">
    <rdf:RDF>
      <cc:Work
         rdf:about="">
        <dc:format>image/svg+xml</dc:format>
        <dc:type
           rdf:resource="http://purl.org/dc/dcmitype/StillImage" />
        <dc:title></dc:title>
      </cc:Work>
    </rdf:RDF>
  </metadata>
  <g
     inkscape:label="Layer 1"
     inkscape:groupmode="layer"
     id="layer1"
     transform="translate(0,-217)">
    <path
       style="fill:none;stroke:#c86400;stroke-width:1;stroke-linecap:butt;stroke-linejoin:miter;stroke-miterlimit:4;stroke-dasharray:none;stroke-opacity:1;marker-end:url(#Arrow1Send)"
       d="M 10,287 88.92857,227.96875"
       id="path834"
       inkscape:connector-curvature="0"
       sodipodi:nodetypes="cc" />
    <path
       style="fill:none;stroke:#000000;stroke-width:1;stroke-linecap:butt;stroke-linejoin:miter;stroke-miterlimit:4;stroke-dasharray:2.00000006, 1.00000003;stroke-dashoffset:0;stroke-opacity:1;marker-end:url(#marker1365)"
       d="M 10,287 29.11012,272.70833"
       id="path1361"
       inkscape:connector-curvature="0"
       sodipodi:nodetypes="cc" />
    <circle
       style="fill:#c80000;fill-opacity:1;stroke:none;stroke-width:0.25;stroke-miterlimit:4;stroke-dasharray:none;stroke-dashoffset:0;stroke-opacity:1"
       id="path817"
       cx="10.000002"
       cy="287"
       r="2" />
    <circle
       style="fill:#00c800;fill-opacity:1;stroke:none;stroke-width:0.25;stroke-miterlimit:4;stroke-dasharray:none;stroke-dashoffset:0;stroke-opacity:1"
       id="path817-0"
       cx="90"
       cy="227"
       r="2" />
    <circle
       style="fill:#0000c8;fill-opacity:1;stroke:none;stroke-width:0.25;stroke-miterlimit:4;stroke-dasharray:none;stroke-dashoffset:0;stroke-opacity:1"
       id="path817-0-6"
       cx="30"
       cy="272"
       r="2" />
    <g
       id="g1643"
       ns1:jacobian_sqrt="0.529167"
       inkscapeversion="0.92.4"
       ns1:alignment="middle center"
       ns1:scale="1.5"
       ns1:preamble="C:\\Users\\shawn\\AppData\\Roaming\\inkscape\\extensions\\textext\\default_packages.tex"
       ns1:text="$A$"
       ns1:pdfconverter="pdf2svg"
       ns1:texconverter="pdflatex"
       ns1:version="0.11.0"
       transform="matrix(0.529167,0,0,0.529167,-71.564848,212.27179)">
      <g
         id="surface1">
        <g
           id="g1640"
           style="fill:#000000;fill-opacity:1">
          <path
             id="path1638"
             transform="translate(148.712,134.765)"
             d="M 1.78125,-1.140625 C 1.390625,-0.484375 1,-0.34375 0.5625,-0.3125 0.4375,-0.296875 0.34375,-0.296875 0.34375,-0.109375 0.34375,-0.046875 0.40625,0 0.484375,0 0.75,0 1.0625,-0.03125 1.328125,-0.03125 c 0.34375,0 0.6875,0.03125 1,0.03125 0.0625,0 0.1875,0 0.1875,-0.1875 0,-0.109375 -0.078125,-0.125 -0.15625,-0.125 -0.21875,-0.015625 -0.46875,-0.09375 -0.46875,-0.34375 0,-0.125 0.0625,-0.234375 0.140625,-0.375 l 0.765625,-1.265625 h 2.5 c 0.015625,0.203125 0.15625,1.5625 0.15625,1.65625 0,0.296875 -0.515625,0.328125 -0.71875,0.328125 C 4.59375,-0.3125 4.5,-0.3125 4.5,-0.109375 4.5,0 4.609375,0 4.640625,0 5.046875,0 5.46875,-0.03125 5.875,-0.03125 6.125,-0.03125 6.765625,0 7.015625,0 7.0625,0 7.1875,0 7.1875,-0.203125 7.1875,-0.3125 7.09375,-0.3125 6.953125,-0.3125 6.34375,-0.3125 6.34375,-0.375 6.3125,-0.671875 l -0.609375,-6.21875 c -0.015625,-0.203125 -0.015625,-0.25 -0.1875,-0.25 -0.15625,0 -0.203125,0.078125 -0.265625,0.171875 z M 2.984375,-2.609375 4.9375,-5.90625 5.265625,-2.609375 Z m 0,0"
             style="stroke:none;stroke-width:0"
             inkscape:connector-curvature="0" />
        </g>
      </g>
    </g>
    <g
       id="g1699"
       ns1:jacobian_sqrt="0.529167"
       inkscapeversion="0.92.4"
       ns1:alignment="middle center"
       ns1:scale="1.50000002835"
       ns1:preamble="C:\\Users\\shawn\\AppData\\Roaming\\inkscape\\extensions\\textext\\default_packages.tex"
       ns1:text="$B$"
       ns1:pdfconverter="pdf2svg"
       ns1:texconverter="pdflatex"
       ns1:version="0.11.0"
       transform="matrix(0.529167,0,0,0.529167,9.004335,162.34196)">
      <g
         id="g1697">
        <g
           id="g1695"
           style="fill:#000000;fill-opacity:1">
          <path
             id="path1693"
             transform="translate(148.712,134.765)"
             d="M 1.59375,-0.78125 C 1.5,-0.390625 1.46875,-0.3125 0.6875,-0.3125 c -0.171875,0 -0.265625,0 -0.265625,0.203125 C 0.421875,0 0.515625,0 0.6875,0 H 4.25 C 5.828125,0 7,-1.171875 7,-2.15625 7,-2.875 6.421875,-3.453125 5.453125,-3.5625 6.484375,-3.75 7.53125,-4.484375 7.53125,-5.4375 c 0,-0.734375 -0.65625,-1.375 -1.84375,-1.375 H 2.328125 c -0.1875,0 -0.28125,0 -0.28125,0.203125 0,0.109375 0.09375,0.109375 0.28125,0.109375 0.015625,0 0.203125,0 0.375,0.015625 0.171875,0.03125 0.265625,0.03125 0.265625,0.171875 0,0.03125 -0.015625,0.0625 -0.03125,0.1875 z m 1.5,-2.875 0.625,-2.46875 C 3.8125,-6.46875 3.828125,-6.5 4.25,-6.5 h 1.296875 c 0.875,0 1.078125,0.59375 1.078125,1.03125 0,0.875 -0.859375,1.8125 -2.0625,1.8125 z m -0.4375,3.34375 c -0.140625,0 -0.15625,0 -0.21875,0 -0.109375,-0.015625 -0.140625,-0.03125 -0.140625,-0.109375 0,-0.03125 0,-0.046875 0.0625,-0.21875 l 0.6875,-2.78125 h 1.875 c 0.953125,0 1.15625,0.734375 1.15625,1.15625 C 6.078125,-1.28125 5.1875,-0.3125 4,-0.3125 Z m 0,0"
             style="stroke:none;stroke-width:0"
             inkscape:connector-curvature="0" />
        </g>
      </g>
    </g>
    <g
       id="g1747"
       ns1:jacobian_sqrt="0.529167"
       inkscapeversion="0.92.4"
       ns1:alignment="middle center"
       ns1:scale="1.50000002835"
       ns1:preamble="C:\\Users\\shawn\\AppData\\Roaming\\inkscape\\extensions\\textext\\default_packages.tex"
       ns1:text="$C$"
       ns1:pdfconverter="pdf2svg"
       ns1:texconverter="pdflatex"
       ns1:version="0.11.0"
       transform="matrix(0.529167,0,0,0.529167,-53.489304,198.43869)">
      <g
         id="g1745">
        <g
           id="g1743"
           style="fill:#000000;fill-opacity:1">
          <path
             id="path1741"
             transform="translate(148.712,134.765)"
             d="m 7.578125,-6.921875 c 0,-0.03125 -0.015625,-0.109375 -0.109375,-0.109375 -0.03125,0 -0.046875,0.015625 -0.15625,0.125 L 6.625,-6.140625 C 6.53125,-6.28125 6.078125,-7.03125 4.96875,-7.03125 2.734375,-7.03125 0.5,-4.828125 0.5,-2.515625 0.5,-0.875 1.671875,0.21875 3.203125,0.21875 c 0.859375,0 1.625,-0.390625 2.15625,-0.859375 0.921875,-0.8125 1.09375,-1.71875 1.09375,-1.75 C 6.453125,-2.5 6.34375,-2.5 6.328125,-2.5 c -0.0625,0 -0.109375,0.03125 -0.125,0.109375 -0.09375,0.28125 -0.328125,1 -1.015625,1.578125 -0.6875,0.546875 -1.3125,0.71875 -1.828125,0.71875 -0.890625,0 -1.953125,-0.515625 -1.953125,-2.0625 0,-0.578125 0.203125,-2.1875 1.203125,-3.359375 0.609375,-0.703125 1.546875,-1.203125 2.4375,-1.203125 1.015625,0 1.609375,0.765625 1.609375,1.921875 0,0.40625 -0.03125,0.40625 -0.03125,0.515625 0,0.09375 0.109375,0.09375 0.140625,0.09375 0.125,0 0.125,-0.015625 0.1875,-0.203125 z m 0,0"
             style="stroke:none;stroke-width:0"
             inkscape:connector-curvature="0" />
        </g>
      </g>
    </g>
    <g
       id="g1787"
       ns1:jacobian_sqrt="0.529167"
       inkscapeversion="0.92.4"
       ns1:alignment="middle center"
       ns1:scale="1.50000002835"
       ns1:preamble="C:\\Users\\shawn\\AppData\\Roaming\\inkscape\\extensions\\textext\\default_packages.tex"
       ns1:text="$\\mathbf{u}$"
       ns1:pdfconverter="pdf2svg"
       ns1:texconverter="pdflatex"
       ns1:version="0.11.0"
       transform="matrix(0.529167,0,0,0.529167,-21.608797,184.43266)">
      <g
         id="g1785">
        <g
           id="g1783"
           style="fill:#000000;fill-opacity:1">
          <path
             id="path1781"
             transform="translate(148.712,134.765)"
             d="M 4.359375,-0.71875 V 0.0625 L 6.125,0 v -0.46875 c -0.609375,0 -0.6875,0 -0.6875,-0.390625 v -3.625 L 3.625,-4.40625 v 0.46875 c 0.609375,0 0.6875,0 0.6875,0.390625 v 1.90625 c 0,0.8125 -0.515625,1.34375 -1.234375,1.34375 -0.78125,0 -0.8125,-0.25 -0.8125,-0.796875 v -3.390625 l -1.8125,0.078125 v 0.46875 c 0.609375,0 0.6875,0 0.6875,0.390625 v 2.328125 c 0,1.0625 0.796875,1.28125 1.796875,1.28125 0.25,0 0.96875,0 1.421875,-0.78125 z m 0,0"
             style="stroke:none;stroke-width:0"
             inkscape:connector-curvature="0" />
        </g>
      </g>
    </g>
    <g
       id="g1869"
       ns1:jacobian_sqrt="0.529167"
       inkscapeversion="0.92.4"
       ns1:alignment="middle center"
       ns1:scale="1.5000000567"
       ns1:preamble="C:\\Users\\shawn\\AppData\\Roaming\\inkscape\\extensions\\textext\\default_packages.tex"
       ns1:text="$\\frac{\\mathbf{u}}{\\|\\mathbf{u}\\|}$"
       ns1:pdfconverter="pdf2svg"
       ns1:texconverter="pdflatex"
       ns1:version="0.11.0"
       transform="matrix(0.529167,0,0,0.529167,-56.69844,211.87848)">
      <g
         id="g1867">
        <g
           id="g1851"
           style="fill:#000000;fill-opacity:1">
          <path
             id="path1849"
             transform="translate(153.99,130.842)"
             d="M 2.90625,-3.078125 V -2.6875 c 0.421875,0 0.46875,0 0.46875,0.265625 V -1.125 c 0,0.578125 -0.4375,0.84375 -0.96875,0.84375 -0.59375,0 -0.609375,-0.15625 -0.609375,-0.484375 v -2.375 l -1.34375,0.0625 V -2.6875 c 0.40625,0 0.453125,0 0.453125,0.265625 v 1.578125 c 0,0.8125 0.78125,0.890625 1.375,0.890625 0.234375,0 0.75,0 1.140625,-0.5 v 0.5 L 4.734375,0 v -0.390625 c -0.40625,0 -0.46875,0 -0.46875,-0.265625 v -2.484375 z m 0,0"
             style="stroke:none;stroke-width:0"
             inkscape:connector-curvature="0" />
        </g>
        <path
           id="path1853"
           transform="matrix(1,0,0,-1,149.908,132.274)"
           d="M -0.00175,5.625e-4 H 13.174031"
           style="fill:none;stroke:#000000;stroke-width:0.398;stroke-linecap:butt;stroke-linejoin:miter;stroke-miterlimit:10;stroke-opacity:1"
           inkscape:connector-curvature="0" />
        <g
           id="g1857"
           style="fill:#000000;fill-opacity:1">
          <path
             id="path1855"
             transform="translate(149.908,138.2)"
             d="m 1.4375,-4.96875 c 0,-0.09375 0,-0.25 -0.171875,-0.25 -0.171875,0 -0.171875,0.171875 -0.171875,0.296875 V 1.4375 c 0,0.125 0,0.296875 0.171875,0.296875 0.171875,0 0.171875,-0.15625 0.171875,-0.265625 z m 1.53125,0.046875 c 0,-0.125 0,-0.296875 -0.171875,-0.296875 -0.15625,0 -0.15625,0.15625 -0.15625,0.25 v 6.4375 c 0,0.109375 0,0.265625 0.15625,0.265625 0.171875,0 0.171875,-0.171875 0.171875,-0.296875 z m 0,0"
             style="stroke:none;stroke-width:0"
             inkscape:connector-curvature="0" />
        </g>
        <g
           id="g1861"
           style="fill:#000000;fill-opacity:1">
          <path
             id="path1859"
             transform="translate(153.99,138.2)"
             d="M 2.90625,-3.078125 V -2.6875 c 0.421875,0 0.46875,0 0.46875,0.265625 V -1.125 c 0,0.578125 -0.4375,0.84375 -0.96875,0.84375 -0.59375,0 -0.609375,-0.15625 -0.609375,-0.484375 v -2.375 l -1.34375,0.0625 V -2.6875 c 0.40625,0 0.453125,0 0.453125,0.265625 v 1.578125 c 0,0.8125 0.78125,0.890625 1.375,0.890625 0.234375,0 0.75,0 1.140625,-0.5 v 0.5 L 4.734375,0 v -0.390625 c -0.40625,0 -0.46875,0 -0.46875,-0.265625 v -2.484375 z m 0,0"
             style="stroke:none;stroke-width:0"
             inkscape:connector-curvature="0" />
        </g>
        <g
           id="g1865"
           style="fill:#000000;fill-opacity:1">
          <path
             id="path1863"
             transform="translate(158.999,138.2)"
             d="m 1.4375,-4.96875 c 0,-0.09375 0,-0.25 -0.171875,-0.25 -0.171875,0 -0.171875,0.171875 -0.171875,0.296875 V 1.4375 c 0,0.125 0,0.296875 0.171875,0.296875 0.171875,0 0.171875,-0.15625 0.171875,-0.265625 z m 1.53125,0.046875 c 0,-0.125 0,-0.296875 -0.171875,-0.296875 -0.15625,0 -0.15625,0.15625 -0.15625,0.25 v 6.4375 c 0,0.109375 0,0.265625 0.15625,0.265625 0.171875,0 0.171875,-0.171875 0.171875,-0.296875 z m 0,0"
             style="stroke:none;stroke-width:0"
             inkscape:connector-curvature="0" />
        </g>
      </g>
    </g>
    <g
       id="g1939"
       ns1:jacobian_sqrt="0.529167"
       inkscapeversion="0.92.4"
       ns1:alignment="middle center"
       ns1:scale="1.5000000567"
       ns1:preamble="C:\\Users\\shawn\\AppData\\Roaming\\inkscape\\extensions\\textext\\default_packages.tex"
       ns1:text="$\\|\\mathbf{u}\\|$"
       ns1:pdfconverter="pdf2svg"
       ns1:texconverter="pdflatex"
       ns1:version="0.11.0"
       transform="matrix(0.529167,0,0,0.529167,-31.272266,177.39994)">
      <g
         id="g1937">
        <g
           id="g1927"
           style="fill:#000000;fill-opacity:1">
          <path
             id="path1925"
             transform="translate(148.712,134.765)"
             d="m 1.71875,-7.140625 c 0,-0.15625 0,-0.34375 -0.203125,-0.34375 -0.203125,0 -0.203125,0.234375 -0.203125,0.375 V 2.125 c 0,0.15625 0,0.375 0.203125,0.375 C 1.71875,2.5 1.71875,2.3125 1.71875,2.15625 Z m 1.9375,0.03125 c 0,-0.15625 0,-0.375 -0.203125,-0.375 -0.1875,0 -0.1875,0.1875 -0.1875,0.34375 V 2.15625 c 0,0.15625 0,0.34375 0.1875,0.34375 C 3.65625,2.5 3.65625,2.265625 3.65625,2.125 Z m 0,0"
             style="stroke:none;stroke-width:0"
             inkscape:connector-curvature="0" />
        </g>
        <g
           id="g1931"
           style="fill:#000000;fill-opacity:1">
          <path
             id="path1929"
             transform="translate(153.694,134.765)"
             d="M 4.359375,-0.71875 V 0.0625 L 6.125,0 v -0.46875 c -0.609375,0 -0.6875,0 -0.6875,-0.390625 v -3.625 L 3.625,-4.40625 v 0.46875 c 0.609375,0 0.6875,0 0.6875,0.390625 v 1.90625 c 0,0.8125 -0.515625,1.34375 -1.234375,1.34375 -0.78125,0 -0.8125,-0.25 -0.8125,-0.796875 v -3.390625 l -1.8125,0.078125 v 0.46875 c 0.609375,0 0.6875,0 0.6875,0.390625 v 2.328125 c 0,1.0625 0.796875,1.28125 1.796875,1.28125 0.25,0 0.96875,0 1.421875,-0.78125 z m 0,0"
             style="stroke:none;stroke-width:0"
             inkscape:connector-curvature="0" />
        </g>
        <g
           id="g1935"
           style="fill:#000000;fill-opacity:1">
          <path
             id="path1933"
             transform="translate(160.059,134.765)"
             d="m 1.71875,-7.140625 c 0,-0.15625 0,-0.34375 -0.203125,-0.34375 -0.203125,0 -0.203125,0.234375 -0.203125,0.375 V 2.125 c 0,0.15625 0,0.375 0.203125,0.375 C 1.71875,2.5 1.71875,2.3125 1.71875,2.15625 Z m 1.9375,0.03125 c 0,-0.15625 0,-0.375 -0.203125,-0.375 -0.1875,0 -0.1875,0.1875 -0.1875,0.34375 V 2.15625 c 0,0.15625 0,0.34375 0.1875,0.34375 C 3.65625,2.5 3.65625,2.265625 3.65625,2.125 Z m 0,0"
             style="stroke:none;stroke-width:0"
             inkscape:connector-curvature="0" />
        </g>
      </g>
    </g>
    <g
       id="g2006"
       ns1:jacobian_sqrt="0.529167"
       inkscapeversion="0.92.4"
       ns1:alignment="middle center"
       ns1:scale="1.5000000567"
       ns1:preamble="C:\\Users\\shawn\\AppData\\Roaming\\inkscape\\extensions\\textext\\default_packages.tex"
       ns1:text="$1$"
       ns1:pdfconverter="pdf2svg"
       ns1:texconverter="pdflatex"
       ns1:version="0.11.0"
       transform="matrix(0.529167,0,0,0.529167,-62.596181,204.57997)">
      <g
         id="g2004">
        <g
           id="g2002"
           style="fill:#000000;fill-opacity:1">
          <path
             id="path2000"
             transform="translate(148.712,134.765)"
             d="m 2.9375,-6.375 c 0,-0.25 0,-0.265625 -0.234375,-0.265625 C 2.078125,-6 1.203125,-6 0.890625,-6 v 0.3125 c 0.203125,0 0.78125,0 1.296875,-0.265625 v 5.171875 c 0,0.359375 -0.03125,0.46875 -0.921875,0.46875 h -0.3125 V 0 c 0.34375,-0.03125 1.203125,-0.03125 1.609375,-0.03125 0.390625,0 1.265625,0 1.609375,0.03125 v -0.3125 h -0.3125 c -0.90625,0 -0.921875,-0.109375 -0.921875,-0.46875 z m 0,0"
             style="stroke:none;stroke-width:0"
             inkscape:connector-curvature="0" />
        </g>
      </g>
    </g>
  </g>
</svg>
