<?xml version="1.0" encoding="UTF-8" standalone="no"?>
<!-- Created with Inkscape (http://www.inkscape.org/) -->

<svg
   xmlns:ns1="http://www.iki.fi/pav/software/textext/"
   xmlns:dc="http://purl.org/dc/elements/1.1/"
   xmlns:cc="http://creativecommons.org/ns#"
   xmlns:rdf="http://www.w3.org/1999/02/22-rdf-syntax-ns#"
   xmlns:svg="http://www.w3.org/2000/svg"
   xmlns="http://www.w3.org/2000/svg"
   xmlns:sodipodi="http://sodipodi.sourceforge.net/DTD/sodipodi-0.dtd"
   xmlns:inkscape="http://www.inkscape.org/namespaces/inkscape"
   width="150mm"
   height="90mm"
   viewBox="0 0 150 90"
   version="1.1"
   id="svg8"
   inkscape:version="0.92.4 (5da689c313, 2019-01-14)"
   sodipodi:docname="distributive_laws.svg">
  <defs
     id="defs2">
    <marker
       inkscape:stockid="Arrow1Mend"
       orient="auto"
       refY="0"
       refX="0"
       id="marker2597"
       style="overflow:visible"
       inkscape:isstock="true">
      <path
         id="path2595"
         d="M 0,0 5,-5 -12.5,0 5,5 Z"
         style="fill:#000000;fill-opacity:1;fill-rule:evenodd;stroke:#000000;stroke-width:1.00000003pt;stroke-opacity:1"
         transform="matrix(-0.4,0,0,-0.4,-4,0)"
         inkscape:connector-curvature="0" />
    </marker>
    <marker
       inkscape:stockid="Arrow1Mend"
       orient="auto"
       refY="0"
       refX="0"
       id="marker2543"
       style="overflow:visible"
       inkscape:isstock="true">
      <path
         id="path2541"
         d="M 0,0 5,-5 -12.5,0 5,5 Z"
         style="fill:#000000;fill-opacity:1;fill-rule:evenodd;stroke:#000000;stroke-width:1.00000003pt;stroke-opacity:1"
         transform="matrix(-0.4,0,0,-0.4,-4,0)"
         inkscape:connector-curvature="0" />
    </marker>
    <marker
       inkscape:stockid="Arrow1Mend"
       orient="auto"
       refY="0"
       refX="0"
       id="marker1918"
       style="overflow:visible"
       inkscape:isstock="true">
      <path
         id="path1916"
         d="M 0,0 5,-5 -12.5,0 5,5 Z"
         style="fill:#000000;fill-opacity:1;fill-rule:evenodd;stroke:#000000;stroke-width:1.00000003pt;stroke-opacity:1"
         transform="matrix(-0.4,0,0,-0.4,-4,0)"
         inkscape:connector-curvature="0" />
    </marker>
    <marker
       inkscape:stockid="Arrow1Mend"
       orient="auto"
       refY="0"
       refX="0"
       id="Arrow1Mend"
       style="overflow:visible"
       inkscape:isstock="true">
      <path
         id="path828"
         d="M 0,0 5,-5 -12.5,0 5,5 Z"
         style="fill:#000000;fill-opacity:1;fill-rule:evenodd;stroke:#000000;stroke-width:1.00000003pt;stroke-opacity:1"
         transform="matrix(-0.4,0,0,-0.4,-4,0)"
         inkscape:connector-curvature="0" />
    </marker>
    <marker
       inkscape:stockid="Arrow1Mend"
       orient="auto"
       refY="0"
       refX="0"
       id="Arrow1Mend-6"
       style="overflow:visible"
       inkscape:isstock="true">
      <path
         inkscape:connector-curvature="0"
         id="path828-5"
         d="M 0,0 5,-5 -12.5,0 5,5 Z"
         style="fill:#000000;fill-opacity:1;fill-rule:evenodd;stroke:#000000;stroke-width:1.00000003pt;stroke-opacity:1"
         transform="matrix(-0.4,0,0,-0.4,-4,0)" />
    </marker>
    <marker
       inkscape:stockid="Arrow1Mend"
       orient="auto"
       refY="0"
       refX="0"
       id="Arrow1Mend-2"
       style="overflow:visible"
       inkscape:isstock="true">
      <path
         inkscape:connector-curvature="0"
         id="path828-6"
         d="M 0,0 5,-5 -12.5,0 5,5 Z"
         style="fill:#7f0000;fill-opacity:1;fill-rule:evenodd;stroke:#7f0000;stroke-width:1.00000003pt;stroke-opacity:1"
         transform="matrix(-0.4,0,0,-0.4,-4,0)" />
    </marker>
    <marker
       inkscape:stockid="Arrow1Mend"
       orient="auto"
       refY="0"
       refX="0"
       id="marker1918-9"
       style="overflow:visible"
       inkscape:isstock="true">
      <path
         inkscape:connector-curvature="0"
         id="path1916-5"
         d="M 0,0 5,-5 -12.5,0 5,5 Z"
         style="fill:#c80000;fill-opacity:1;fill-rule:evenodd;stroke:#c80000;stroke-width:1.00000003pt;stroke-opacity:1"
         transform="matrix(-0.4,0,0,-0.4,-4,0)" />
    </marker>
    <marker
       inkscape:stockid="Arrow1Mend"
       orient="auto"
       refY="0"
       refX="0"
       id="marker2543-2"
       style="overflow:visible"
       inkscape:isstock="true">
      <path
         inkscape:connector-curvature="0"
         id="path2541-4"
         d="M 0,0 5,-5 -12.5,0 5,5 Z"
         style="fill:#c80000;fill-opacity:1;fill-rule:evenodd;stroke:#c80000;stroke-width:1.00000003pt;stroke-opacity:1"
         transform="matrix(-0.4,0,0,-0.4,-4,0)" />
    </marker>
    <marker
       inkscape:stockid="Arrow1Mend"
       orient="auto"
       refY="0"
       refX="0"
       id="marker2597-0"
       style="overflow:visible"
       inkscape:isstock="true">
      <path
         inkscape:connector-curvature="0"
         id="path2595-9"
         d="M 0,0 5,-5 -12.5,0 5,5 Z"
         style="fill:#c80000;fill-opacity:1;fill-rule:evenodd;stroke:#c80000;stroke-width:1.00000003pt;stroke-opacity:1"
         transform="matrix(-0.4,0,0,-0.4,-4,0)" />
    </marker>
    <marker
       inkscape:stockid="Arrow1Mend"
       orient="auto"
       refY="0"
       refX="0"
       id="Arrow1Mend-7"
       style="overflow:visible"
       inkscape:isstock="true">
      <path
         id="path828-1"
         d="M 0,0 5,-5 -12.5,0 5,5 Z"
         style="fill:#007f00;fill-opacity:1;fill-rule:evenodd;stroke:#007f00;stroke-width:1.00000003pt;stroke-opacity:1"
         transform="matrix(-0.4,0,0,-0.4,-4,0)"
         inkscape:connector-curvature="0" />
    </marker>
  </defs>
  <sodipodi:namedview
     id="base"
     pagecolor="#ffffff"
     bordercolor="#666666"
     borderopacity="1.0"
     inkscape:pageopacity="0.0"
     inkscape:pageshadow="2"
     inkscape:zoom="2.8"
     inkscape:cx="338.32496"
     inkscape:cy="159.99999"
     inkscape:document-units="mm"
     inkscape:current-layer="layer1"
     showgrid="false"
     inkscape:window-width="1920"
     inkscape:window-height="1017"
     inkscape:window-x="-8"
     inkscape:window-y="-8"
     inkscape:window-maximized="1"
     inkscape:snap-object-midpoints="true"
     inkscape:snap-global="false">
    <inkscape:grid
       type="xygrid"
       id="grid815"
       units="mm"
       spacingx="1"
       spacingy="1" />
  </sodipodi:namedview>
  <metadata
     id="metadata5">
    <rdf:RDF>
      <cc:Work
         rdf:about="">
        <dc:format>image/svg+xml</dc:format>
        <dc:type
           rdf:resource="http://purl.org/dc/dcmitype/StillImage" />
        <dc:title />
      </cc:Work>
    </rdf:RDF>
  </metadata>
  <g
     inkscape:label="Layer 1"
     inkscape:groupmode="layer"
     id="layer1"
     transform="translate(0,-207)">
    <path
       style="fill:none;stroke:#000000;stroke-width:1;stroke-linecap:butt;stroke-linejoin:miter;stroke-miterlimit:4;stroke-dasharray:none;stroke-opacity:1;marker-end:url(#Arrow1Mend)"
       d="M 9.8273811,273.18751 26.458332,258.25744"
       id="path817"
       inkscape:connector-curvature="0"
       sodipodi:nodetypes="cc" />
    <circle
       style="fill:#ff00ff;fill-opacity:1;stroke:none;stroke-width:1;stroke-miterlimit:4;stroke-dasharray:none;stroke-dashoffset:0;stroke-opacity:1"
       id="path1101"
       cx="9.8273811"
       cy="273.18753"
       r="2" />
    <path
       style="fill:none;stroke:#000000;stroke-width:1;stroke-linecap:butt;stroke-linejoin:miter;stroke-miterlimit:4;stroke-dasharray:none;stroke-opacity:1;marker-end:url(#Arrow1Mend-6)"
       d="M 26.458332,258.25744 59.720234,228.3973"
       id="path817-6"
       inkscape:connector-curvature="0"
       sodipodi:nodetypes="cc" />
    <circle
       style="fill:#ff00ff;fill-opacity:1;stroke:none;stroke-width:1;stroke-miterlimit:4;stroke-dasharray:none;stroke-dashoffset:0;stroke-opacity:1"
       id="path1101-5"
       cx="26.458332"
       cy="258.25745"
       r="2" />
    <circle
       style="fill:#ff00ff;fill-opacity:1;stroke:none;stroke-width:1;stroke-miterlimit:4;stroke-dasharray:none;stroke-dashoffset:0;stroke-opacity:1"
       id="path1101-50"
       cx="59.720234"
       cy="228.39729"
       r="2" />
    <path
       style="fill:none;stroke:#7f0000;stroke-width:1;stroke-linecap:butt;stroke-linejoin:miter;stroke-miterlimit:4;stroke-dasharray:none;stroke-opacity:1;marker-end:url(#Arrow1Mend-2)"
       d="M 7.3727761,271.67482 57.265628,226.88461"
       id="path817-9"
       inkscape:connector-curvature="0"
       sodipodi:nodetypes="cc" />
    <g
       id="g1741"
       ns1:jacobian_sqrt="0.705556"
       inkscapeversion="0.92.4"
       ns1:alignment="middle center"
       ns1:scale="1.99999997165"
       ns1:preamble="C:\\Users\\shawn\\AppData\\Roaming\\inkscape\\extensions\\textext\\default_packages.tex"
       ns1:text="$c\\mathbf{v}$"
       ns1:pdfconverter="pdf2svg"
       ns1:texconverter="pdflatex"
       ns1:version="0.11.0"
       transform="matrix(0.705556,0,0,0.705556,-88.484291,176.45645)">
      <g
         id="surface1">
        <g
           id="g1734"
           style="fill:#000000;fill-opacity:1">
          <path
             id="path1732"
             transform="translate(148.712,134.765)"
             d="m 3.953125,-3.78125 c -0.171875,0 -0.296875,0 -0.4375,0.125 -0.171875,0.15625 -0.1875,0.328125 -0.1875,0.390625 0,0.25 0.1875,0.359375 0.375,0.359375 0.28125,0 0.546875,-0.25 0.546875,-0.640625 0,-0.484375 -0.46875,-0.859375 -1.171875,-0.859375 -1.34375,0 -2.671875,1.421875 -2.671875,2.828125 0,0.90625 0.578125,1.6875 1.625,1.6875 1.421875,0 2.25,-1.0625 2.25,-1.171875 0,-0.0625 -0.046875,-0.140625 -0.109375,-0.140625 -0.0625,0 -0.078125,0.03125 -0.140625,0.109375 -0.78125,0.984375 -1.875,0.984375 -1.984375,0.984375 -0.625,0 -0.90625,-0.484375 -0.90625,-1.09375 0,-0.40625 0.203125,-1.375 0.546875,-1.984375 0.3125,-0.578125 0.859375,-1 1.40625,-1 0.328125,0 0.71875,0.125 0.859375,0.40625 z m 0,0"
             style="stroke:none;stroke-width:0"
             inkscape:connector-curvature="0" />
        </g>
        <g
           id="g1738"
           style="fill:#000000;fill-opacity:1">
          <path
             id="path1736"
             transform="translate(153.024,134.765)"
             d="m 5.046875,-3.75 c 0.0625,-0.140625 0.09375,-0.203125 0.734375,-0.203125 v -0.46875 C 5.53125,-4.40625 5.25,-4.390625 5,-4.390625 c -0.25,0 -0.703125,-0.03125 -0.90625,-0.03125 v 0.46875 c 0.1875,0 0.46875,0.03125 0.46875,0.109375 0,0 0,0.03125 -0.046875,0.109375 l -1.15625,2.5 -1.265625,-2.71875 H 2.625 v -0.46875 c -0.328125,0.015625 -1.21875,0.03125 -1.234375,0.03125 -0.28125,0 -0.71875,-0.03125 -1.125,-0.03125 v 0.46875 h 0.625 l 1.75,3.75 c 0.125,0.25 0.25,0.25 0.375,0.25 0.171875,0 0.28125,-0.03125 0.375,-0.25 z m 0,0"
             style="stroke:none;stroke-width:0"
             inkscape:connector-curvature="0" />
        </g>
      </g>
    </g>
    <g
       id="g1814"
       ns1:jacobian_sqrt="0.705556"
       inkscapeversion="0.92.4"
       ns1:alignment="middle center"
       ns1:scale="1.9999999433"
       ns1:preamble="C:\\Users\\shawn\\AppData\\Roaming\\inkscape\\extensions\\textext\\default_packages.tex"
       ns1:text="$k\\mathbf{v}$"
       ns1:pdfconverter="pdf2svg"
       ns1:texconverter="pdflatex"
       ns1:version="0.11.0"
       transform="matrix(0.705556,0,0,0.705556,-65.252461,157.26102)">
      <g
         id="g1812">
        <g
           id="g1806"
           style="fill:#000000;fill-opacity:1">
          <path
             id="path1804"
             transform="translate(148.712,134.765)"
             d="m 2.859375,-6.8125 c 0,0 0,-0.109375 -0.125,-0.109375 -0.234375,0 -0.953125,0.078125 -1.21875,0.109375 -0.078125,0 -0.1875,0.015625 -0.1875,0.1875 0,0.125 0.09375,0.125 0.234375,0.125 0.484375,0 0.5,0.0625 0.5,0.171875 L 2.03125,-6.125 0.59375,-0.390625 c -0.046875,0.140625 -0.046875,0.15625 -0.046875,0.21875 0,0.234375 0.203125,0.28125 0.296875,0.28125 0.125,0 0.265625,-0.09375 0.328125,-0.203125 0.046875,-0.09375 0.5,-1.9375 0.5625,-2.1875 0.34375,0.03125 1.15625,0.1875 1.15625,0.84375 0,0.078125 0,0.109375 -0.03125,0.21875 -0.015625,0.109375 -0.03125,0.234375 -0.03125,0.34375 0,0.578125 0.390625,0.984375 0.90625,0.984375 0.296875,0 0.578125,-0.15625 0.796875,-0.53125 0.25,-0.4375 0.359375,-0.984375 0.359375,-1 0,-0.109375 -0.09375,-0.109375 -0.125,-0.109375 -0.09375,0 -0.109375,0.046875 -0.140625,0.1875 -0.203125,0.71875 -0.421875,1.234375 -0.859375,1.234375 -0.203125,0 -0.328125,-0.109375 -0.328125,-0.46875 0,-0.171875 0.046875,-0.40625 0.078125,-0.5625 C 3.5625,-1.3125 3.5625,-1.34375 3.5625,-1.453125 3.5625,-2.09375 2.9375,-2.375 2.078125,-2.5 2.390625,-2.671875 2.71875,-2.984375 2.9375,-3.234375 3.421875,-3.765625 3.875,-4.1875 4.359375,-4.1875 c 0.0625,0 0.078125,0 0.09375,0.015625 0.125,0.015625 0.125,0.015625 0.21875,0.078125 0.015625,0 0.015625,0.015625 0.03125,0.03125 -0.46875,0.03125 -0.5625,0.421875 -0.5625,0.546875 0,0.15625 0.109375,0.34375 0.375,0.34375 0.265625,0 0.546875,-0.21875 0.546875,-0.609375 0,-0.296875 -0.234375,-0.625 -0.671875,-0.625 -0.28125,0 -0.734375,0.078125 -1.453125,0.875 -0.34375,0.375 -0.734375,0.78125 -1.109375,0.921875 z m 0,0"
             style="stroke:none;stroke-width:0"
             inkscape:connector-curvature="0" />
        </g>
        <g
           id="g1810"
           style="fill:#000000;fill-opacity:1">
          <path
             id="path1808"
             transform="translate(154.213,134.765)"
             d="m 5.046875,-3.75 c 0.0625,-0.140625 0.09375,-0.203125 0.734375,-0.203125 v -0.46875 C 5.53125,-4.40625 5.25,-4.390625 5,-4.390625 c -0.25,0 -0.703125,-0.03125 -0.90625,-0.03125 v 0.46875 c 0.1875,0 0.46875,0.03125 0.46875,0.109375 0,0 0,0.03125 -0.046875,0.109375 l -1.15625,2.5 -1.265625,-2.71875 H 2.625 v -0.46875 c -0.328125,0.015625 -1.21875,0.03125 -1.234375,0.03125 -0.28125,0 -0.71875,-0.03125 -1.125,-0.03125 v 0.46875 h 0.625 l 1.75,3.75 c 0.125,0.25 0.25,0.25 0.375,0.25 0.171875,0 0.28125,-0.03125 0.375,-0.25 z m 0,0"
             style="stroke:none;stroke-width:0"
             inkscape:connector-curvature="0" />
        </g>
      </g>
    </g>
    <g
       id="g1895"
       ns1:jacobian_sqrt="0.705556"
       inkscapeversion="0.92.4"
       ns1:alignment="middle center"
       ns1:scale="1.9999999433"
       ns1:preamble="C:\\Users\\shawn\\AppData\\Roaming\\inkscape\\extensions\\textext\\default_packages.tex"
       ns1:text="$(c+k)\\mathbf{v}$"
       ns1:pdfconverter="pdf2svg"
       ns1:texconverter="pdflatex"
       ns1:version="0.11.0"
       transform="matrix(0.51846516,-0.47854274,0.47854274,0.51846516,-123.80025,251.58936)"
       style="fill:#7f0000;fill-opacity:1">
      <g
         id="g1893"
         style="fill:#7f0000;fill-opacity:1">
        <g
           id="g1871"
           style="fill:#7f0000;fill-opacity:1">
          <path
             id="path1869"
             transform="translate(148.712,134.765)"
             d="m 3.296875,2.390625 c 0,-0.03125 0,-0.046875 -0.171875,-0.21875 C 1.890625,0.921875 1.5625,-0.96875 1.5625,-2.5 c 0,-1.734375 0.375,-3.46875 1.609375,-4.703125 0.125,-0.125 0.125,-0.140625 0.125,-0.171875 0,-0.078125 -0.03125,-0.109375 -0.09375,-0.109375 -0.109375,0 -1,0.6875 -1.59375,1.953125 -0.5,1.09375 -0.625,2.203125 -0.625,3.03125 0,0.78125 0.109375,1.984375 0.65625,3.125 C 2.25,1.84375 3.09375,2.5 3.203125,2.5 c 0.0625,0 0.09375,-0.03125 0.09375,-0.109375 z m 0,0"
             style="fill:#7f0000;fill-opacity:1;stroke:none;stroke-width:0"
             inkscape:connector-curvature="0" />
        </g>
        <g
           id="g1875"
           style="fill:#7f0000;fill-opacity:1">
          <path
             id="path1873"
             transform="translate(152.587,134.765)"
             d="m 3.953125,-3.78125 c -0.171875,0 -0.296875,0 -0.4375,0.125 -0.171875,0.15625 -0.1875,0.328125 -0.1875,0.390625 0,0.25 0.1875,0.359375 0.375,0.359375 0.28125,0 0.546875,-0.25 0.546875,-0.640625 0,-0.484375 -0.46875,-0.859375 -1.171875,-0.859375 -1.34375,0 -2.671875,1.421875 -2.671875,2.828125 0,0.90625 0.578125,1.6875 1.625,1.6875 1.421875,0 2.25,-1.0625 2.25,-1.171875 0,-0.0625 -0.046875,-0.140625 -0.109375,-0.140625 -0.0625,0 -0.078125,0.03125 -0.140625,0.109375 -0.78125,0.984375 -1.875,0.984375 -1.984375,0.984375 -0.625,0 -0.90625,-0.484375 -0.90625,-1.09375 0,-0.40625 0.203125,-1.375 0.546875,-1.984375 0.3125,-0.578125 0.859375,-1 1.40625,-1 0.328125,0 0.71875,0.125 0.859375,0.40625 z m 0,0"
             style="fill:#7f0000;fill-opacity:1;stroke:none;stroke-width:0"
             inkscape:connector-curvature="0" />
        </g>
        <g
           id="g1879"
           style="fill:#7f0000;fill-opacity:1">
          <path
             id="path1877"
             transform="translate(159.112,134.765)"
             d="m 4.078125,-2.296875 h 2.78125 C 7,-2.296875 7.1875,-2.296875 7.1875,-2.5 7.1875,-2.6875 7,-2.6875 6.859375,-2.6875 h -2.78125 v -2.796875 c 0,-0.140625 0,-0.328125 -0.203125,-0.328125 -0.203125,0 -0.203125,0.1875 -0.203125,0.328125 V -2.6875 h -2.78125 c -0.140625,0 -0.328125,0 -0.328125,0.1875 0,0.203125 0.1875,0.203125 0.328125,0.203125 h 2.78125 V 0.5 c 0,0.140625 0,0.328125 0.203125,0.328125 0.203125,0 0.203125,-0.1875 0.203125,-0.328125 z m 0,0"
             style="fill:#7f0000;fill-opacity:1;stroke:none;stroke-width:0"
             inkscape:connector-curvature="0" />
        </g>
        <g
           id="g1883"
           style="fill:#7f0000;fill-opacity:1">
          <path
             id="path1881"
             transform="translate(169.075,134.765)"
             d="m 2.859375,-6.8125 c 0,0 0,-0.109375 -0.125,-0.109375 -0.234375,0 -0.953125,0.078125 -1.21875,0.109375 -0.078125,0 -0.1875,0.015625 -0.1875,0.1875 0,0.125 0.09375,0.125 0.234375,0.125 0.484375,0 0.5,0.0625 0.5,0.171875 L 2.03125,-6.125 0.59375,-0.390625 c -0.046875,0.140625 -0.046875,0.15625 -0.046875,0.21875 0,0.234375 0.203125,0.28125 0.296875,0.28125 0.125,0 0.265625,-0.09375 0.328125,-0.203125 0.046875,-0.09375 0.5,-1.9375 0.5625,-2.1875 0.34375,0.03125 1.15625,0.1875 1.15625,0.84375 0,0.078125 0,0.109375 -0.03125,0.21875 -0.015625,0.109375 -0.03125,0.234375 -0.03125,0.34375 0,0.578125 0.390625,0.984375 0.90625,0.984375 0.296875,0 0.578125,-0.15625 0.796875,-0.53125 0.25,-0.4375 0.359375,-0.984375 0.359375,-1 0,-0.109375 -0.09375,-0.109375 -0.125,-0.109375 -0.09375,0 -0.109375,0.046875 -0.140625,0.1875 -0.203125,0.71875 -0.421875,1.234375 -0.859375,1.234375 -0.203125,0 -0.328125,-0.109375 -0.328125,-0.46875 0,-0.171875 0.046875,-0.40625 0.078125,-0.5625 C 3.5625,-1.3125 3.5625,-1.34375 3.5625,-1.453125 3.5625,-2.09375 2.9375,-2.375 2.078125,-2.5 2.390625,-2.671875 2.71875,-2.984375 2.9375,-3.234375 3.421875,-3.765625 3.875,-4.1875 4.359375,-4.1875 c 0.0625,0 0.078125,0 0.09375,0.015625 0.125,0.015625 0.125,0.015625 0.21875,0.078125 0.015625,0 0.015625,0.015625 0.03125,0.03125 -0.46875,0.03125 -0.5625,0.421875 -0.5625,0.546875 0,0.15625 0.109375,0.34375 0.375,0.34375 0.265625,0 0.546875,-0.21875 0.546875,-0.609375 0,-0.296875 -0.234375,-0.625 -0.671875,-0.625 -0.28125,0 -0.734375,0.078125 -1.453125,0.875 -0.34375,0.375 -0.734375,0.78125 -1.109375,0.921875 z m 0,0"
             style="fill:#7f0000;fill-opacity:1;stroke:none;stroke-width:0"
             inkscape:connector-curvature="0" />
        </g>
        <g
           id="g1887"
           style="fill:#7f0000;fill-opacity:1">
          <path
             id="path1885"
             transform="translate(174.575,134.765)"
             d="m 2.875,-2.5 c 0,-0.765625 -0.109375,-1.96875 -0.65625,-3.109375 -0.59375,-1.21875 -1.453125,-1.875 -1.546875,-1.875 -0.0625,0 -0.109375,0.046875 -0.109375,0.109375 0,0.03125 0,0.046875 0.1875,0.234375 0.984375,0.984375 1.546875,2.5625 1.546875,4.640625 0,1.71875 -0.359375,3.46875 -1.59375,4.71875 C 0.5625,2.34375 0.5625,2.359375 0.5625,2.390625 0.5625,2.453125 0.609375,2.5 0.671875,2.5 0.765625,2.5 1.671875,1.8125 2.25,0.546875 2.765625,-0.546875 2.875,-1.65625 2.875,-2.5 Z m 0,0"
             style="fill:#7f0000;fill-opacity:1;stroke:none;stroke-width:0"
             inkscape:connector-curvature="0" />
        </g>
        <g
           id="g1891"
           style="fill:#7f0000;fill-opacity:1">
          <path
             id="path1889"
             transform="translate(178.449,134.765)"
             d="m 5.046875,-3.75 c 0.0625,-0.140625 0.09375,-0.203125 0.734375,-0.203125 v -0.46875 C 5.53125,-4.40625 5.25,-4.390625 5,-4.390625 c -0.25,0 -0.703125,-0.03125 -0.90625,-0.03125 v 0.46875 c 0.1875,0 0.46875,0.03125 0.46875,0.109375 0,0 0,0.03125 -0.046875,0.109375 l -1.15625,2.5 -1.265625,-2.71875 H 2.625 v -0.46875 c -0.328125,0.015625 -1.21875,0.03125 -1.234375,0.03125 -0.28125,0 -0.71875,-0.03125 -1.125,-0.03125 v 0.46875 h 0.625 l 1.75,3.75 c 0.125,0.25 0.25,0.25 0.375,0.25 0.171875,0 0.28125,-0.03125 0.375,-0.25 z m 0,0"
             style="fill:#7f0000;fill-opacity:1;stroke:none;stroke-width:0"
             inkscape:connector-curvature="0" />
        </g>
      </g>
    </g>
    <path
       style="fill:none;stroke:#c80000;stroke-width:1;stroke-linecap:butt;stroke-linejoin:miter;stroke-miterlimit:4;stroke-dasharray:none;stroke-opacity:1;marker-end:url(#marker1918-9)"
       d="M 69.547617,271.4866 139.8512,290.19637"
       id="path1914-1"
       inkscape:connector-curvature="0"
       sodipodi:nodetypes="cc" />
    <path
       style="fill:none;stroke:#000000;stroke-width:1;stroke-linecap:butt;stroke-linejoin:miter;stroke-miterlimit:4;stroke-dasharray:1,1;stroke-opacity:1;marker-end:url(#marker1918);stroke-dashoffset:0"
       d="m 69.547617,271.4866 23.434522,6.23659"
       id="path1914"
       inkscape:connector-curvature="0"
       sodipodi:nodetypes="cc" />
    <path
       style="fill:none;stroke:#000000;stroke-width:1;stroke-linecap:butt;stroke-linejoin:miter;stroke-miterlimit:4;stroke-dasharray:none;stroke-opacity:1;marker-end:url(#marker2543)"
       d="M 92.982139,277.72319 87.3125,252.20981"
       id="path2539"
       inkscape:connector-curvature="0" />
    <path
       style="fill:none;stroke:#c80000;stroke-width:1;stroke-linecap:butt;stroke-linejoin:miter;stroke-miterlimit:4;stroke-dasharray:none;stroke-opacity:1;marker-end:url(#marker2597-0)"
       d="M 69.547616,271.4866 122.84226,213.65623"
       id="path2593-1"
       inkscape:connector-curvature="0" />
    <path
       style="fill:none;stroke:#000000;stroke-width:1.00000003;stroke-linecap:butt;stroke-linejoin:miter;stroke-miterlimit:4;stroke-dasharray:1.00000003,1.00000003;stroke-opacity:1;marker-end:url(#marker2597);stroke-dashoffset:0"
       d="M 69.547616,271.4866 87.312498,252.20981"
       id="path2593"
       inkscape:connector-curvature="0" />
    <path
       style="fill:none;stroke:#c80000;stroke-width:1;stroke-linecap:butt;stroke-linejoin:miter;stroke-miterlimit:4;stroke-dasharray:none;stroke-opacity:1;marker-end:url(#marker2543-2)"
       d="M 139.8512,290.19637 122.84231,213.65623"
       id="path2539-3"
       inkscape:connector-curvature="0" />
    <circle
       style="fill:#ff00ff;fill-opacity:1;stroke:none;stroke-width:1;stroke-miterlimit:4;stroke-dasharray:none;stroke-dashoffset:0;stroke-opacity:1"
       id="path1101-4"
       cx="69.547615"
       cy="271.4866"
       r="2" />
    <circle
       style="fill:#ff00ff;fill-opacity:1;stroke:none;stroke-width:1;stroke-miterlimit:4;stroke-dasharray:none;stroke-dashoffset:0;stroke-opacity:1"
       id="path1101-9"
       cx="92.98214"
       cy="277.72321"
       r="2" />
    <circle
       style="fill:#ff00ff;fill-opacity:1;stroke:none;stroke-width:1;stroke-miterlimit:4;stroke-dasharray:none;stroke-dashoffset:0;stroke-opacity:1"
       id="path1101-1"
       cx="87.312492"
       cy="252.20984"
       r="2" />
    <circle
       style="fill:#ff00ff;fill-opacity:1;stroke:none;stroke-width:1;stroke-miterlimit:4;stroke-dasharray:none;stroke-dashoffset:0;stroke-opacity:1"
       id="path1101-6"
       cx="139.85121"
       cy="290.19638"
       r="2" />
    <circle
       style="fill:#ff00ff;fill-opacity:1;stroke:none;stroke-width:1;stroke-miterlimit:4;stroke-dasharray:none;stroke-dashoffset:0;stroke-opacity:1"
       id="path1101-504"
       cx="122.84227"
       cy="213.65627"
       r="2" />
    <g
       id="g3283"
       ns1:jacobian_sqrt="0.705556"
       inkscapeversion="0.92.4"
       ns1:alignment="middle center"
       ns1:scale="1.9999999433"
       ns1:preamble="C:\\Users\\shawn\\AppData\\Roaming\\inkscape\\extensions\\textext\\default_packages.tex"
       ns1:text="$\\mathbf{u}$"
       ns1:pdfconverter="pdf2svg"
       ns1:texconverter="pdflatex"
       ns1:version="0.11.0"
       transform="matrix(0.705556,0,0,0.705556,-27.947643,184.24355)">
      <g
         id="g3281">
        <g
           id="g3279"
           style="fill:#000000;fill-opacity:1">
          <path
             id="path3277"
             transform="translate(148.712,134.765)"
             d="M 4.359375,-0.71875 V 0.0625 L 6.125,0 v -0.46875 c -0.609375,0 -0.6875,0 -0.6875,-0.390625 v -3.625 L 3.625,-4.40625 v 0.46875 c 0.609375,0 0.6875,0 0.6875,0.390625 v 1.90625 c 0,0.8125 -0.515625,1.34375 -1.234375,1.34375 -0.78125,0 -0.8125,-0.25 -0.8125,-0.796875 v -3.390625 l -1.8125,0.078125 v 0.46875 c 0.609375,0 0.6875,0 0.6875,0.390625 v 2.328125 c 0,1.0625 0.796875,1.28125 1.796875,1.28125 0.25,0 0.96875,0 1.421875,-0.78125 z m 0,0"
             style="stroke:none;stroke-width:0"
             inkscape:connector-curvature="0" />
        </g>
      </g>
    </g>
    <g
       id="g3391"
       ns1:jacobian_sqrt="0.705556"
       inkscapeversion="0.92.4"
       ns1:alignment="middle center"
       ns1:scale="1.99999991495"
       ns1:preamble="C:\\Users\\shawn\\AppData\\Roaming\\inkscape\\extensions\\textext\\default_packages.tex"
       ns1:text="$\\mathbf{v}$"
       ns1:pdfconverter="pdf2svg"
       ns1:texconverter="pdflatex"
       ns1:version="0.11.0"
       transform="matrix(0.705556,0,0,0.705556,-13.508741,169.81926)">
      <g
         id="g3389">
        <g
           id="g3387"
           style="fill:#000000;fill-opacity:1">
          <path
             id="path3385"
             transform="translate(148.712,134.765)"
             d="m 5.046875,-3.75 c 0.0625,-0.140625 0.09375,-0.203125 0.734375,-0.203125 v -0.46875 C 5.53125,-4.40625 5.25,-4.390625 5,-4.390625 c -0.25,0 -0.703125,-0.03125 -0.90625,-0.03125 v 0.46875 c 0.1875,0 0.46875,0.03125 0.46875,0.109375 0,0 0,0.03125 -0.046875,0.109375 l -1.15625,2.5 -1.265625,-2.71875 H 2.625 v -0.46875 c -0.328125,0.015625 -1.21875,0.03125 -1.234375,0.03125 -0.28125,0 -0.71875,-0.03125 -1.125,-0.03125 v 0.46875 h 0.625 l 1.75,3.75 c 0.125,0.25 0.25,0.25 0.375,0.25 0.171875,0 0.28125,-0.03125 0.375,-0.25 z m 0,0"
             style="stroke:none;stroke-width:0"
             inkscape:connector-curvature="0" />
        </g>
      </g>
    </g>
    <g
       id="g3487"
       ns1:jacobian_sqrt="0.705556"
       inkscapeversion="0.92.4"
       ns1:alignment="middle center"
       ns1:scale="1.99999991495"
       ns1:preamble="C:\\Users\\shawn\\AppData\\Roaming\\inkscape\\extensions\\textext\\default_packages.tex"
       ns1:text="$\\mathbf{u}+\\mathbf{v}$"
       ns1:pdfconverter="pdf2svg"
       ns1:texconverter="pdflatex"
       ns1:version="0.11.0"
       transform="matrix(0.46522272,-0.53044989,0.53044989,0.46522272,-72.239537,280.52044)">
      <g
         id="g3485"
         transform="translate(-3.4449416,6.2278418)">
        <g
           id="g3475"
           style="fill:#000000;fill-opacity:1">
          <path
             id="path3473"
             transform="translate(148.712,134.765)"
             d="M 4.359375,-0.71875 V 0.0625 L 6.125,0 v -0.46875 c -0.609375,0 -0.6875,0 -0.6875,-0.390625 v -3.625 L 3.625,-4.40625 v 0.46875 c 0.609375,0 0.6875,0 0.6875,0.390625 v 1.90625 c 0,0.8125 -0.515625,1.34375 -1.234375,1.34375 -0.78125,0 -0.8125,-0.25 -0.8125,-0.796875 v -3.390625 l -1.8125,0.078125 v 0.46875 c 0.609375,0 0.6875,0 0.6875,0.390625 v 2.328125 c 0,1.0625 0.796875,1.28125 1.796875,1.28125 0.25,0 0.96875,0 1.421875,-0.78125 z m 0,0"
             style="stroke:none;stroke-width:0"
             inkscape:connector-curvature="0" />
        </g>
        <g
           id="g3479"
           style="fill:#000000;fill-opacity:1">
          <path
             id="path3477"
             transform="translate(157.291,134.765)"
             d="m 4.078125,-2.296875 h 2.78125 C 7,-2.296875 7.1875,-2.296875 7.1875,-2.5 7.1875,-2.6875 7,-2.6875 6.859375,-2.6875 h -2.78125 v -2.796875 c 0,-0.140625 0,-0.328125 -0.203125,-0.328125 -0.203125,0 -0.203125,0.1875 -0.203125,0.328125 V -2.6875 h -2.78125 c -0.140625,0 -0.328125,0 -0.328125,0.1875 0,0.203125 0.1875,0.203125 0.328125,0.203125 h 2.78125 V 0.5 c 0,0.140625 0,0.328125 0.203125,0.328125 0.203125,0 0.203125,-0.1875 0.203125,-0.328125 z m 0,0"
             style="stroke:none;stroke-width:0"
             inkscape:connector-curvature="0" />
        </g>
        <g
           id="g3483"
           style="fill:#000000;fill-opacity:1">
          <path
             id="path3481"
             transform="translate(167.254,134.765)"
             d="m 5.046875,-3.75 c 0.0625,-0.140625 0.09375,-0.203125 0.734375,-0.203125 v -0.46875 C 5.53125,-4.40625 5.25,-4.390625 5,-4.390625 c -0.25,0 -0.703125,-0.03125 -0.90625,-0.03125 v 0.46875 c 0.1875,0 0.46875,0.03125 0.46875,0.109375 0,0 0,0.03125 -0.046875,0.109375 l -1.15625,2.5 -1.265625,-2.71875 H 2.625 v -0.46875 c -0.328125,0.015625 -1.21875,0.03125 -1.234375,0.03125 -0.28125,0 -0.71875,-0.03125 -1.125,-0.03125 v 0.46875 h 0.625 l 1.75,3.75 c 0.125,0.25 0.25,0.25 0.375,0.25 0.171875,0 0.28125,-0.03125 0.375,-0.25 z m 0,0"
             style="stroke:none;stroke-width:0"
             inkscape:connector-curvature="0" />
        </g>
      </g>
    </g>
    <g
       id="g3615"
       ns1:jacobian_sqrt="0.705556"
       inkscapeversion="0.92.4"
       ns1:alignment="middle center"
       ns1:scale="1.99999991495"
       ns1:preamble="C:\\Users\\shawn\\AppData\\Roaming\\inkscape\\extensions\\textext\\default_packages.tex"
       ns1:text="$c\\mathbf{u}$"
       ns1:pdfconverter="pdf2svg"
       ns1:texconverter="pdflatex"
       ns1:version="0.11.0"
       transform="matrix(0.705556,0,0,0.705556,-3.4835351,191.5529)"
       style="fill:#c80000;fill-opacity:1">
      <g
         id="g3613"
         style="fill:#c80000;fill-opacity:1">
        <g
           id="g3607"
           style="fill:#c80000;fill-opacity:1">
          <path
             id="path3605"
             transform="translate(148.712,134.765)"
             d="m 3.953125,-3.78125 c -0.171875,0 -0.296875,0 -0.4375,0.125 -0.171875,0.15625 -0.1875,0.328125 -0.1875,0.390625 0,0.25 0.1875,0.359375 0.375,0.359375 0.28125,0 0.546875,-0.25 0.546875,-0.640625 0,-0.484375 -0.46875,-0.859375 -1.171875,-0.859375 -1.34375,0 -2.671875,1.421875 -2.671875,2.828125 0,0.90625 0.578125,1.6875 1.625,1.6875 1.421875,0 2.25,-1.0625 2.25,-1.171875 0,-0.0625 -0.046875,-0.140625 -0.109375,-0.140625 -0.0625,0 -0.078125,0.03125 -0.140625,0.109375 -0.78125,0.984375 -1.875,0.984375 -1.984375,0.984375 -0.625,0 -0.90625,-0.484375 -0.90625,-1.09375 0,-0.40625 0.203125,-1.375 0.546875,-1.984375 0.3125,-0.578125 0.859375,-1 1.40625,-1 0.328125,0 0.71875,0.125 0.859375,0.40625 z m 0,0"
             style="fill:#c80000;fill-opacity:1;stroke:none;stroke-width:0"
             inkscape:connector-curvature="0" />
        </g>
        <g
           id="g3611"
           style="fill:#c80000;fill-opacity:1">
          <path
             id="path3609"
             transform="translate(153.024,134.765)"
             d="M 4.359375,-0.71875 V 0.0625 L 6.125,0 v -0.46875 c -0.609375,0 -0.6875,0 -0.6875,-0.390625 v -3.625 L 3.625,-4.40625 v 0.46875 c 0.609375,0 0.6875,0 0.6875,0.390625 v 1.90625 c 0,0.8125 -0.515625,1.34375 -1.234375,1.34375 -0.78125,0 -0.8125,-0.25 -0.8125,-0.796875 v -3.390625 l -1.8125,0.078125 v 0.46875 c 0.609375,0 0.6875,0 0.6875,0.390625 v 2.328125 c 0,1.0625 0.796875,1.28125 1.796875,1.28125 0.25,0 0.96875,0 1.421875,-0.78125 z m 0,0"
             style="fill:#c80000;fill-opacity:1;stroke:none;stroke-width:0"
             inkscape:connector-curvature="0" />
        </g>
      </g>
    </g>
    <g
       id="g3723"
       ns1:jacobian_sqrt="0.705556"
       inkscapeversion="0.92.4"
       ns1:alignment="middle center"
       ns1:scale="1.99999991495"
       ns1:preamble="C:\\Users\\shawn\\AppData\\Roaming\\inkscape\\extensions\\textext\\default_packages.tex"
       ns1:text="$c\\mathbf{v}$"
       ns1:pdfconverter="pdf2svg"
       ns1:texconverter="pdflatex"
       ns1:version="0.11.0"
       transform="matrix(0.705556,0,0,0.705556,26.987436,152.83293)"
       style="fill:#c80000;fill-opacity:1">
      <g
         id="g3721"
         style="fill:#c80000;fill-opacity:1">
        <g
           id="g3715"
           style="fill:#c80000;fill-opacity:1">
          <path
             id="path3713"
             transform="translate(148.712,134.765)"
             d="m 3.953125,-3.78125 c -0.171875,0 -0.296875,0 -0.4375,0.125 -0.171875,0.15625 -0.1875,0.328125 -0.1875,0.390625 0,0.25 0.1875,0.359375 0.375,0.359375 0.28125,0 0.546875,-0.25 0.546875,-0.640625 0,-0.484375 -0.46875,-0.859375 -1.171875,-0.859375 -1.34375,0 -2.671875,1.421875 -2.671875,2.828125 0,0.90625 0.578125,1.6875 1.625,1.6875 1.421875,0 2.25,-1.0625 2.25,-1.171875 0,-0.0625 -0.046875,-0.140625 -0.109375,-0.140625 -0.0625,0 -0.078125,0.03125 -0.140625,0.109375 -0.78125,0.984375 -1.875,0.984375 -1.984375,0.984375 -0.625,0 -0.90625,-0.484375 -0.90625,-1.09375 0,-0.40625 0.203125,-1.375 0.546875,-1.984375 0.3125,-0.578125 0.859375,-1 1.40625,-1 0.328125,0 0.71875,0.125 0.859375,0.40625 z m 0,0"
             style="fill:#c80000;fill-opacity:1;stroke:none;stroke-width:0"
             inkscape:connector-curvature="0" />
        </g>
        <g
           id="g3719"
           style="fill:#c80000;fill-opacity:1">
          <path
             id="path3717"
             transform="translate(153.024,134.765)"
             d="m 5.046875,-3.75 c 0.0625,-0.140625 0.09375,-0.203125 0.734375,-0.203125 v -0.46875 C 5.53125,-4.40625 5.25,-4.390625 5,-4.390625 c -0.25,0 -0.703125,-0.03125 -0.90625,-0.03125 v 0.46875 c 0.1875,0 0.46875,0.03125 0.46875,0.109375 0,0 0,0.03125 -0.046875,0.109375 l -1.15625,2.5 -1.265625,-2.71875 H 2.625 v -0.46875 c -0.328125,0.015625 -1.21875,0.03125 -1.234375,0.03125 -0.28125,0 -0.71875,-0.03125 -1.125,-0.03125 v 0.46875 h 0.625 l 1.75,3.75 c 0.125,0.25 0.25,0.25 0.375,0.25 0.171875,0 0.28125,-0.03125 0.375,-0.25 z m 0,0"
             style="fill:#c80000;fill-opacity:1;stroke:none;stroke-width:0"
             inkscape:connector-curvature="0" />
        </g>
      </g>
    </g>
    <g
       id="g3853"
       ns1:jacobian_sqrt="0.705556"
       inkscapeversion="0.92.4"
       ns1:alignment="middle center"
       ns1:scale="1.99999991495"
       ns1:preamble="C:\\Users\\shawn\\AppData\\Roaming\\inkscape\\extensions\\textext\\default_packages.tex"
       ns1:text="$c(\\mathbf{u} + \\mathbf{v})$"
       ns1:pdfconverter="pdf2svg"
       ns1:texconverter="pdflatex"
       ns1:version="0.11.0"
       transform="matrix(0.47895229,-0.51808684,0.51808684,0.47895229,-50.415344,257.00776)"
       style="fill:#c80000;fill-opacity:1">
      <g
         id="g3851"
         style="fill:#c80000;fill-opacity:1">
        <g
           id="g3829"
           style="fill:#c80000;fill-opacity:1">
          <path
             id="path3827"
             transform="translate(148.712,134.765)"
             d="m 3.953125,-3.78125 c -0.171875,0 -0.296875,0 -0.4375,0.125 -0.171875,0.15625 -0.1875,0.328125 -0.1875,0.390625 0,0.25 0.1875,0.359375 0.375,0.359375 0.28125,0 0.546875,-0.25 0.546875,-0.640625 0,-0.484375 -0.46875,-0.859375 -1.171875,-0.859375 -1.34375,0 -2.671875,1.421875 -2.671875,2.828125 0,0.90625 0.578125,1.6875 1.625,1.6875 1.421875,0 2.25,-1.0625 2.25,-1.171875 0,-0.0625 -0.046875,-0.140625 -0.109375,-0.140625 -0.0625,0 -0.078125,0.03125 -0.140625,0.109375 -0.78125,0.984375 -1.875,0.984375 -1.984375,0.984375 -0.625,0 -0.90625,-0.484375 -0.90625,-1.09375 0,-0.40625 0.203125,-1.375 0.546875,-1.984375 0.3125,-0.578125 0.859375,-1 1.40625,-1 0.328125,0 0.71875,0.125 0.859375,0.40625 z m 0,0"
             style="fill:#c80000;fill-opacity:1;stroke:none;stroke-width:0"
             inkscape:connector-curvature="0" />
        </g>
        <g
           id="g3833"
           style="fill:#c80000;fill-opacity:1">
          <path
             id="path3831"
             transform="translate(153.024,134.765)"
             d="m 3.296875,2.390625 c 0,-0.03125 0,-0.046875 -0.171875,-0.21875 C 1.890625,0.921875 1.5625,-0.96875 1.5625,-2.5 c 0,-1.734375 0.375,-3.46875 1.609375,-4.703125 0.125,-0.125 0.125,-0.140625 0.125,-0.171875 0,-0.078125 -0.03125,-0.109375 -0.09375,-0.109375 -0.109375,0 -1,0.6875 -1.59375,1.953125 -0.5,1.09375 -0.625,2.203125 -0.625,3.03125 0,0.78125 0.109375,1.984375 0.65625,3.125 C 2.25,1.84375 3.09375,2.5 3.203125,2.5 c 0.0625,0 0.09375,-0.03125 0.09375,-0.109375 z m 0,0"
             style="fill:#c80000;fill-opacity:1;stroke:none;stroke-width:0"
             inkscape:connector-curvature="0" />
        </g>
        <g
           id="g3837"
           style="fill:#c80000;fill-opacity:1">
          <path
             id="path3835"
             transform="translate(156.898,134.765)"
             d="M 4.359375,-0.71875 V 0.0625 L 6.125,0 v -0.46875 c -0.609375,0 -0.6875,0 -0.6875,-0.390625 v -3.625 L 3.625,-4.40625 v 0.46875 c 0.609375,0 0.6875,0 0.6875,0.390625 v 1.90625 c 0,0.8125 -0.515625,1.34375 -1.234375,1.34375 -0.78125,0 -0.8125,-0.25 -0.8125,-0.796875 v -3.390625 l -1.8125,0.078125 v 0.46875 c 0.609375,0 0.6875,0 0.6875,0.390625 v 2.328125 c 0,1.0625 0.796875,1.28125 1.796875,1.28125 0.25,0 0.96875,0 1.421875,-0.78125 z m 0,0"
             style="fill:#c80000;fill-opacity:1;stroke:none;stroke-width:0"
             inkscape:connector-curvature="0" />
        </g>
        <g
           id="g3841"
           style="fill:#c80000;fill-opacity:1">
          <path
             id="path3839"
             transform="translate(165.477,134.765)"
             d="m 4.078125,-2.296875 h 2.78125 C 7,-2.296875 7.1875,-2.296875 7.1875,-2.5 7.1875,-2.6875 7,-2.6875 6.859375,-2.6875 h -2.78125 v -2.796875 c 0,-0.140625 0,-0.328125 -0.203125,-0.328125 -0.203125,0 -0.203125,0.1875 -0.203125,0.328125 V -2.6875 h -2.78125 c -0.140625,0 -0.328125,0 -0.328125,0.1875 0,0.203125 0.1875,0.203125 0.328125,0.203125 h 2.78125 V 0.5 c 0,0.140625 0,0.328125 0.203125,0.328125 0.203125,0 0.203125,-0.1875 0.203125,-0.328125 z m 0,0"
             style="fill:#c80000;fill-opacity:1;stroke:none;stroke-width:0"
             inkscape:connector-curvature="0" />
        </g>
        <g
           id="g3845"
           style="fill:#c80000;fill-opacity:1">
          <path
             id="path3843"
             transform="translate(175.44,134.765)"
             d="m 5.046875,-3.75 c 0.0625,-0.140625 0.09375,-0.203125 0.734375,-0.203125 v -0.46875 C 5.53125,-4.40625 5.25,-4.390625 5,-4.390625 c -0.25,0 -0.703125,-0.03125 -0.90625,-0.03125 v 0.46875 c 0.1875,0 0.46875,0.03125 0.46875,0.109375 0,0 0,0.03125 -0.046875,0.109375 l -1.15625,2.5 -1.265625,-2.71875 H 2.625 v -0.46875 c -0.328125,0.015625 -1.21875,0.03125 -1.234375,0.03125 -0.28125,0 -0.71875,-0.03125 -1.125,-0.03125 v 0.46875 h 0.625 l 1.75,3.75 c 0.125,0.25 0.25,0.25 0.375,0.25 0.171875,0 0.28125,-0.03125 0.375,-0.25 z m 0,0"
             style="fill:#c80000;fill-opacity:1;stroke:none;stroke-width:0"
             inkscape:connector-curvature="0" />
        </g>
        <g
           id="g3849"
           style="fill:#c80000;fill-opacity:1">
          <path
             id="path3847"
             transform="translate(181.645,134.765)"
             d="m 2.875,-2.5 c 0,-0.765625 -0.109375,-1.96875 -0.65625,-3.109375 -0.59375,-1.21875 -1.453125,-1.875 -1.546875,-1.875 -0.0625,0 -0.109375,0.046875 -0.109375,0.109375 0,0.03125 0,0.046875 0.1875,0.234375 0.984375,0.984375 1.546875,2.5625 1.546875,4.640625 0,1.71875 -0.359375,3.46875 -1.59375,4.71875 C 0.5625,2.34375 0.5625,2.359375 0.5625,2.390625 0.5625,2.453125 0.609375,2.5 0.671875,2.5 0.765625,2.5 1.671875,1.8125 2.25,0.546875 2.765625,-0.546875 2.875,-1.65625 2.875,-2.5 Z m 0,0"
             style="fill:#c80000;fill-opacity:1;stroke:none;stroke-width:0"
             inkscape:connector-curvature="0" />
        </g>
      </g>
    </g>
    <g
       id="g4001"
       ns1:jacobian_sqrt="0.705556"
       inkscapeversion="0.92.4"
       ns1:alignment="middle center"
       ns1:scale="1.99999991495"
       ns1:preamble="C:\\Users\\shawn\\AppData\\Roaming\\inkscape\\extensions\\textext\\default_packages.tex"
       ns1:text="$c\\mathbf{u} + c\\mathbf{v}$"
       ns1:pdfconverter="pdf2svg"
       ns1:texconverter="pdflatex"
       ns1:version="0.11.0"
       transform="matrix(0.47908918,-0.51796026,0.51796026,0.47908918,-44.259679,261.88632)"
       style="fill:#c80000;fill-opacity:1">
      <g
         id="g3999"
         style="fill:#c80000;fill-opacity:1">
        <g
           id="g3981"
           style="fill:#c80000;fill-opacity:1">
          <path
             id="path3979"
             transform="translate(148.712,134.765)"
             d="m 3.953125,-3.78125 c -0.171875,0 -0.296875,0 -0.4375,0.125 -0.171875,0.15625 -0.1875,0.328125 -0.1875,0.390625 0,0.25 0.1875,0.359375 0.375,0.359375 0.28125,0 0.546875,-0.25 0.546875,-0.640625 0,-0.484375 -0.46875,-0.859375 -1.171875,-0.859375 -1.34375,0 -2.671875,1.421875 -2.671875,2.828125 0,0.90625 0.578125,1.6875 1.625,1.6875 1.421875,0 2.25,-1.0625 2.25,-1.171875 0,-0.0625 -0.046875,-0.140625 -0.109375,-0.140625 -0.0625,0 -0.078125,0.03125 -0.140625,0.109375 -0.78125,0.984375 -1.875,0.984375 -1.984375,0.984375 -0.625,0 -0.90625,-0.484375 -0.90625,-1.09375 0,-0.40625 0.203125,-1.375 0.546875,-1.984375 0.3125,-0.578125 0.859375,-1 1.40625,-1 0.328125,0 0.71875,0.125 0.859375,0.40625 z m 0,0"
             style="fill:#c80000;fill-opacity:1;stroke:none;stroke-width:0"
             inkscape:connector-curvature="0" />
        </g>
        <g
           id="g3985"
           style="fill:#c80000;fill-opacity:1">
          <path
             id="path3983"
             transform="translate(153.024,134.765)"
             d="M 4.359375,-0.71875 V 0.0625 L 6.125,0 v -0.46875 c -0.609375,0 -0.6875,0 -0.6875,-0.390625 v -3.625 L 3.625,-4.40625 v 0.46875 c 0.609375,0 0.6875,0 0.6875,0.390625 v 1.90625 c 0,0.8125 -0.515625,1.34375 -1.234375,1.34375 -0.78125,0 -0.8125,-0.25 -0.8125,-0.796875 v -3.390625 l -1.8125,0.078125 v 0.46875 c 0.609375,0 0.6875,0 0.6875,0.390625 v 2.328125 c 0,1.0625 0.796875,1.28125 1.796875,1.28125 0.25,0 0.96875,0 1.421875,-0.78125 z m 0,0"
             style="fill:#c80000;fill-opacity:1;stroke:none;stroke-width:0"
             inkscape:connector-curvature="0" />
        </g>
        <g
           id="g3989"
           style="fill:#c80000;fill-opacity:1">
          <path
             id="path3987"
             transform="translate(161.603,134.765)"
             d="m 4.078125,-2.296875 h 2.78125 C 7,-2.296875 7.1875,-2.296875 7.1875,-2.5 7.1875,-2.6875 7,-2.6875 6.859375,-2.6875 h -2.78125 v -2.796875 c 0,-0.140625 0,-0.328125 -0.203125,-0.328125 -0.203125,0 -0.203125,0.1875 -0.203125,0.328125 V -2.6875 h -2.78125 c -0.140625,0 -0.328125,0 -0.328125,0.1875 0,0.203125 0.1875,0.203125 0.328125,0.203125 h 2.78125 V 0.5 c 0,0.140625 0,0.328125 0.203125,0.328125 0.203125,0 0.203125,-0.1875 0.203125,-0.328125 z m 0,0"
             style="fill:#c80000;fill-opacity:1;stroke:none;stroke-width:0"
             inkscape:connector-curvature="0" />
        </g>
        <g
           id="g3993"
           style="fill:#c80000;fill-opacity:1">
          <path
             id="path3991"
             transform="translate(171.565,134.765)"
             d="m 3.953125,-3.78125 c -0.171875,0 -0.296875,0 -0.4375,0.125 -0.171875,0.15625 -0.1875,0.328125 -0.1875,0.390625 0,0.25 0.1875,0.359375 0.375,0.359375 0.28125,0 0.546875,-0.25 0.546875,-0.640625 0,-0.484375 -0.46875,-0.859375 -1.171875,-0.859375 -1.34375,0 -2.671875,1.421875 -2.671875,2.828125 0,0.90625 0.578125,1.6875 1.625,1.6875 1.421875,0 2.25,-1.0625 2.25,-1.171875 0,-0.0625 -0.046875,-0.140625 -0.109375,-0.140625 -0.0625,0 -0.078125,0.03125 -0.140625,0.109375 -0.78125,0.984375 -1.875,0.984375 -1.984375,0.984375 -0.625,0 -0.90625,-0.484375 -0.90625,-1.09375 0,-0.40625 0.203125,-1.375 0.546875,-1.984375 0.3125,-0.578125 0.859375,-1 1.40625,-1 0.328125,0 0.71875,0.125 0.859375,0.40625 z m 0,0"
             style="fill:#c80000;fill-opacity:1;stroke:none;stroke-width:0"
             inkscape:connector-curvature="0" />
        </g>
        <g
           id="g3997"
           style="fill:#c80000;fill-opacity:1">
          <path
             id="path3995"
             transform="translate(175.877,134.765)"
             d="m 5.046875,-3.75 c 0.0625,-0.140625 0.09375,-0.203125 0.734375,-0.203125 v -0.46875 C 5.53125,-4.40625 5.25,-4.390625 5,-4.390625 c -0.25,0 -0.703125,-0.03125 -0.90625,-0.03125 v 0.46875 c 0.1875,0 0.46875,0.03125 0.46875,0.109375 0,0 0,0.03125 -0.046875,0.109375 l -1.15625,2.5 -1.265625,-2.71875 H 2.625 v -0.46875 c -0.328125,0.015625 -1.21875,0.03125 -1.234375,0.03125 -0.28125,0 -0.71875,-0.03125 -1.125,-0.03125 v 0.46875 h 0.625 l 1.75,3.75 c 0.125,0.25 0.25,0.25 0.375,0.25 0.171875,0 0.28125,-0.03125 0.375,-0.25 z m 0,0"
             style="fill:#c80000;fill-opacity:1;stroke:none;stroke-width:0"
             inkscape:connector-curvature="0" />
        </g>
      </g>
    </g>
    <g
       id="g4159"
       ns1:jacobian_sqrt="0.705556"
       inkscapeversion="0.92.4"
       ns1:alignment="middle center"
       ns1:scale="1.99999991495"
       ns1:preamble="C:\\Users\\shawn\\AppData\\Roaming\\inkscape\\extensions\\textext\\default_packages.tex"
       ns1:text="$c\\mathbf{v} + k\\mathbf{v}$"
       ns1:pdfconverter="pdf2svg"
       ns1:texconverter="pdflatex"
       ns1:version="0.11.0"
       transform="matrix(0.53202848,-0.46341663,0.46341663,0.53202848,-118.90929,252.13314)"
       style="fill:#7f0000;fill-opacity:1">
      <g
         id="g4157"
         style="fill:#7f0000;fill-opacity:1">
        <g
           id="g4139"
           style="fill:#7f0000;fill-opacity:1">
          <path
             id="path4137"
             transform="translate(148.712,134.765)"
             d="m 3.953125,-3.78125 c -0.171875,0 -0.296875,0 -0.4375,0.125 -0.171875,0.15625 -0.1875,0.328125 -0.1875,0.390625 0,0.25 0.1875,0.359375 0.375,0.359375 0.28125,0 0.546875,-0.25 0.546875,-0.640625 0,-0.484375 -0.46875,-0.859375 -1.171875,-0.859375 -1.34375,0 -2.671875,1.421875 -2.671875,2.828125 0,0.90625 0.578125,1.6875 1.625,1.6875 1.421875,0 2.25,-1.0625 2.25,-1.171875 0,-0.0625 -0.046875,-0.140625 -0.109375,-0.140625 -0.0625,0 -0.078125,0.03125 -0.140625,0.109375 -0.78125,0.984375 -1.875,0.984375 -1.984375,0.984375 -0.625,0 -0.90625,-0.484375 -0.90625,-1.09375 0,-0.40625 0.203125,-1.375 0.546875,-1.984375 0.3125,-0.578125 0.859375,-1 1.40625,-1 0.328125,0 0.71875,0.125 0.859375,0.40625 z m 0,0"
             style="fill:#7f0000;fill-opacity:1;stroke:none;stroke-width:0"
             inkscape:connector-curvature="0" />
        </g>
        <g
           id="g4143"
           style="fill:#7f0000;fill-opacity:1">
          <path
             id="path4141"
             transform="translate(153.024,134.765)"
             d="m 5.046875,-3.75 c 0.0625,-0.140625 0.09375,-0.203125 0.734375,-0.203125 v -0.46875 C 5.53125,-4.40625 5.25,-4.390625 5,-4.390625 c -0.25,0 -0.703125,-0.03125 -0.90625,-0.03125 v 0.46875 c 0.1875,0 0.46875,0.03125 0.46875,0.109375 0,0 0,0.03125 -0.046875,0.109375 l -1.15625,2.5 -1.265625,-2.71875 H 2.625 v -0.46875 c -0.328125,0.015625 -1.21875,0.03125 -1.234375,0.03125 -0.28125,0 -0.71875,-0.03125 -1.125,-0.03125 v 0.46875 h 0.625 l 1.75,3.75 c 0.125,0.25 0.25,0.25 0.375,0.25 0.171875,0 0.28125,-0.03125 0.375,-0.25 z m 0,0"
             style="fill:#7f0000;fill-opacity:1;stroke:none;stroke-width:0"
             inkscape:connector-curvature="0" />
        </g>
        <g
           id="g4147"
           style="fill:#7f0000;fill-opacity:1">
          <path
             id="path4145"
             transform="translate(161.443,134.765)"
             d="m 4.078125,-2.296875 h 2.78125 C 7,-2.296875 7.1875,-2.296875 7.1875,-2.5 7.1875,-2.6875 7,-2.6875 6.859375,-2.6875 h -2.78125 v -2.796875 c 0,-0.140625 0,-0.328125 -0.203125,-0.328125 -0.203125,0 -0.203125,0.1875 -0.203125,0.328125 V -2.6875 h -2.78125 c -0.140625,0 -0.328125,0 -0.328125,0.1875 0,0.203125 0.1875,0.203125 0.328125,0.203125 h 2.78125 V 0.5 c 0,0.140625 0,0.328125 0.203125,0.328125 0.203125,0 0.203125,-0.1875 0.203125,-0.328125 z m 0,0"
             style="fill:#7f0000;fill-opacity:1;stroke:none;stroke-width:0"
             inkscape:connector-curvature="0" />
        </g>
        <g
           id="g4151"
           style="fill:#7f0000;fill-opacity:1">
          <path
             id="path4149"
             transform="translate(171.406,134.765)"
             d="m 2.859375,-6.8125 c 0,0 0,-0.109375 -0.125,-0.109375 -0.234375,0 -0.953125,0.078125 -1.21875,0.109375 -0.078125,0 -0.1875,0.015625 -0.1875,0.1875 0,0.125 0.09375,0.125 0.234375,0.125 0.484375,0 0.5,0.0625 0.5,0.171875 L 2.03125,-6.125 0.59375,-0.390625 c -0.046875,0.140625 -0.046875,0.15625 -0.046875,0.21875 0,0.234375 0.203125,0.28125 0.296875,0.28125 0.125,0 0.265625,-0.09375 0.328125,-0.203125 0.046875,-0.09375 0.5,-1.9375 0.5625,-2.1875 0.34375,0.03125 1.15625,0.1875 1.15625,0.84375 0,0.078125 0,0.109375 -0.03125,0.21875 -0.015625,0.109375 -0.03125,0.234375 -0.03125,0.34375 0,0.578125 0.390625,0.984375 0.90625,0.984375 0.296875,0 0.578125,-0.15625 0.796875,-0.53125 0.25,-0.4375 0.359375,-0.984375 0.359375,-1 0,-0.109375 -0.09375,-0.109375 -0.125,-0.109375 -0.09375,0 -0.109375,0.046875 -0.140625,0.1875 -0.203125,0.71875 -0.421875,1.234375 -0.859375,1.234375 -0.203125,0 -0.328125,-0.109375 -0.328125,-0.46875 0,-0.171875 0.046875,-0.40625 0.078125,-0.5625 C 3.5625,-1.3125 3.5625,-1.34375 3.5625,-1.453125 3.5625,-2.09375 2.9375,-2.375 2.078125,-2.5 2.390625,-2.671875 2.71875,-2.984375 2.9375,-3.234375 3.421875,-3.765625 3.875,-4.1875 4.359375,-4.1875 c 0.0625,0 0.078125,0 0.09375,0.015625 0.125,0.015625 0.125,0.015625 0.21875,0.078125 0.015625,0 0.015625,0.015625 0.03125,0.03125 -0.46875,0.03125 -0.5625,0.421875 -0.5625,0.546875 0,0.15625 0.109375,0.34375 0.375,0.34375 0.265625,0 0.546875,-0.21875 0.546875,-0.609375 0,-0.296875 -0.234375,-0.625 -0.671875,-0.625 -0.28125,0 -0.734375,0.078125 -1.453125,0.875 -0.34375,0.375 -0.734375,0.78125 -1.109375,0.921875 z m 0,0"
             style="fill:#7f0000;fill-opacity:1;stroke:none;stroke-width:0"
             inkscape:connector-curvature="0" />
        </g>
        <g
           id="g4155"
           style="fill:#7f0000;fill-opacity:1">
          <path
             id="path4153"
             transform="translate(176.906,134.765)"
             d="m 5.046875,-3.75 c 0.0625,-0.140625 0.09375,-0.203125 0.734375,-0.203125 v -0.46875 C 5.53125,-4.40625 5.25,-4.390625 5,-4.390625 c -0.25,0 -0.703125,-0.03125 -0.90625,-0.03125 v 0.46875 c 0.1875,0 0.46875,0.03125 0.46875,0.109375 0,0 0,0.03125 -0.046875,0.109375 l -1.15625,2.5 -1.265625,-2.71875 H 2.625 v -0.46875 c -0.328125,0.015625 -1.21875,0.03125 -1.234375,0.03125 -0.28125,0 -0.71875,-0.03125 -1.125,-0.03125 v 0.46875 h 0.625 l 1.75,3.75 c 0.125,0.25 0.25,0.25 0.375,0.25 0.171875,0 0.28125,-0.03125 0.375,-0.25 z m 0,0"
             style="fill:#7f0000;fill-opacity:1;stroke:none;stroke-width:0"
             inkscape:connector-curvature="0" />
        </g>
      </g>
    </g>
    <path
       style="fill:none;stroke:#007f00;stroke-width:1;stroke-linecap:butt;stroke-linejoin:miter;stroke-miterlimit:4;stroke-dasharray:none;stroke-opacity:1;marker-end:url(#Arrow1Mend-7)"
       d="m 13.890999,283.39272 8.315475,-7.46503"
       id="path817-5"
       inkscape:connector-curvature="0"
       sodipodi:nodetypes="cc" />
    <g
       id="g1439"
       ns1:jacobian_sqrt="0.705556"
       inkscapeversion="0.92.4"
       ns1:alignment="middle center"
       ns1:scale="2.0"
       ns1:preamble="C:\\Users\\shawn\\AppData\\Roaming\\inkscape\\extensions\\textext\\default_packages.tex"
       ns1:text="$\\mathbf{v}$"
       ns1:pdfconverter="pdf2svg"
       ns1:texconverter="pdflatex"
       ns1:version="0.11.0"
       transform="matrix(0.705556,0,0,0.705556,-83.46261,187.69427)"
       style="fill:#007f00;fill-opacity:1">
      <g
         id="g1437"
         style="fill:#007f00;fill-opacity:1">
        <g
           id="g1435"
           style="fill:#007f00;fill-opacity:1">
          <path
             id="path1433"
             transform="translate(148.712,134.765)"
             d="m 5.046875,-3.75 c 0.0625,-0.140625 0.09375,-0.203125 0.734375,-0.203125 v -0.46875 C 5.53125,-4.40625 5.25,-4.390625 5,-4.390625 c -0.25,0 -0.703125,-0.03125 -0.90625,-0.03125 v 0.46875 c 0.1875,0 0.46875,0.03125 0.46875,0.109375 0,0 0,0.03125 -0.046875,0.109375 l -1.15625,2.5 -1.265625,-2.71875 H 2.625 v -0.46875 c -0.328125,0.015625 -1.21875,0.03125 -1.234375,0.03125 -0.28125,0 -0.71875,-0.03125 -1.125,-0.03125 v 0.46875 h 0.625 l 1.75,3.75 c 0.125,0.25 0.25,0.25 0.375,0.25 0.171875,0 0.28125,-0.03125 0.375,-0.25 z m 0,0"
             style="stroke:none;stroke-width:0;fill:#007f00;fill-opacity:1"
             inkscape:connector-curvature="0" />
        </g>
      </g>
    </g>
  </g>
</svg>
