<?xml version="1.0" encoding="UTF-8" standalone="no"?>
<!-- Created with Inkscape (http://www.inkscape.org/) -->

<svg
   xmlns:ns1="http://www.iki.fi/pav/software/textext/"
   xmlns:dc="http://purl.org/dc/elements/1.1/"
   xmlns:cc="http://creativecommons.org/ns#"
   xmlns:rdf="http://www.w3.org/1999/02/22-rdf-syntax-ns#"
   xmlns:svg="http://www.w3.org/2000/svg"
   xmlns="http://www.w3.org/2000/svg"
   xmlns:sodipodi="http://sodipodi.sourceforge.net/DTD/sodipodi-0.dtd"
   xmlns:inkscape="http://www.inkscape.org/namespaces/inkscape"
   width="175mm"
   height="80mm"
   viewBox="0 0 175 80"
   version="1.1"
   id="svg8"
   inkscape:version="0.92.4 (5da689c313, 2019-01-14)"
   sodipodi:docname="perp_by_cross_product.svg">
  <defs
     id="defs2">
    <marker
       inkscape:stockid="Arrow1Send"
       orient="auto"
       refY="0"
       refX="0"
       id="marker3221"
       style="overflow:visible"
       inkscape:isstock="true">
      <path
         id="path3219"
         d="M 0,0 5,-5 -12.5,0 5,5 Z"
         style="fill:#00c8c8;fill-opacity:1;fill-rule:evenodd;stroke:#00c8c8;stroke-width:1.00000003pt;stroke-opacity:1"
         transform="matrix(-0.2,0,0,-0.2,-1.2,0)"
         inkscape:connector-curvature="0" />
    </marker>
    <marker
       inkscape:stockid="Arrow1Send"
       orient="auto"
       refY="0"
       refX="0"
       id="marker2847"
       style="overflow:visible"
       inkscape:isstock="true">
      <path
         id="path2845"
         d="M 0,0 5,-5 -12.5,0 5,5 Z"
         style="fill:#c86400;fill-opacity:1;fill-rule:evenodd;stroke:#c86400;stroke-width:1.00000003pt;stroke-opacity:1"
         transform="matrix(-0.2,0,0,-0.2,-1.2,0)"
         inkscape:connector-curvature="0" />
    </marker>
    <marker
       inkscape:stockid="Arrow1Mend"
       orient="auto"
       refY="0"
       refX="0"
       id="marker2801"
       style="overflow:visible"
       inkscape:isstock="true">
      <path
         id="path2799"
         d="M 0,0 5,-5 -12.5,0 5,5 Z"
         style="fill:#c86400;fill-opacity:1;fill-rule:evenodd;stroke:#c86400;stroke-width:1.00000003pt;stroke-opacity:1"
         transform="matrix(-0.4,0,0,-0.4,-4,0)"
         inkscape:connector-curvature="0" />
    </marker>
    <marker
       inkscape:stockid="Arrow1Send"
       orient="auto"
       refY="0"
       refX="0"
       id="marker1878"
       style="overflow:visible"
       inkscape:isstock="true">
      <path
         id="path1876"
         d="M 0,0 5,-5 -12.5,0 5,5 Z"
         style="fill:#0064c8;fill-opacity:1;fill-rule:evenodd;stroke:#0064c8;stroke-width:1.00000003pt;stroke-opacity:1"
         transform="matrix(-0.2,0,0,-0.2,-1.2,0)"
         inkscape:connector-curvature="0" />
    </marker>
    <marker
       inkscape:stockid="Arrow1Send"
       orient="auto"
       refY="0"
       refX="0"
       id="Arrow1Send"
       style="overflow:visible"
       inkscape:isstock="true">
      <path
         id="path834"
         d="M 0,0 5,-5 -12.5,0 5,5 Z"
         style="fill:#000000;fill-opacity:1;fill-rule:evenodd;stroke:#000000;stroke-width:1.00000003pt;stroke-opacity:1"
         transform="matrix(-0.2,0,0,-0.2,-1.2,0)"
         inkscape:connector-curvature="0" />
    </marker>
    <marker
       inkscape:stockid="Arrow1Mend"
       orient="auto"
       refY="0"
       refX="0"
       id="Arrow1Mend"
       style="overflow:visible"
       inkscape:isstock="true">
      <path
         id="path828"
         d="M 0,0 5,-5 -12.5,0 5,5 Z"
         style="fill:#000000;fill-opacity:1;fill-rule:evenodd;stroke:#000000;stroke-width:1.00000003pt;stroke-opacity:1"
         transform="matrix(-0.4,0,0,-0.4,-4,0)"
         inkscape:connector-curvature="0" />
    </marker>
    <marker
       inkscape:stockid="Arrow1Send"
       orient="auto"
       refY="0"
       refX="0"
       id="Arrow1Send-7"
       style="overflow:visible"
       inkscape:isstock="true">
      <path
         inkscape:connector-curvature="0"
         id="path834-8"
         d="M 0,0 5,-5 -12.5,0 5,5 Z"
         style="fill:#000000;fill-opacity:1;fill-rule:evenodd;stroke:#000000;stroke-width:1.00000003pt;stroke-opacity:1"
         transform="matrix(-0.2,0,0,-0.2,-1.2,0)" />
    </marker>
    <marker
       inkscape:stockid="Arrow1Send"
       orient="auto"
       refY="0"
       refX="0"
       id="marker3221-6"
       style="overflow:visible"
       inkscape:isstock="true">
      <path
         inkscape:connector-curvature="0"
         id="path3219-0"
         d="M 0,0 5,-5 -12.5,0 5,5 Z"
         style="fill:#0064c8;fill-opacity:1;fill-rule:evenodd;stroke:#0064c8;stroke-width:1.00000003pt;stroke-opacity:1"
         transform="matrix(-0.2,0,0,-0.2,-1.2,0)" />
    </marker>
  </defs>
  <sodipodi:namedview
     id="base"
     pagecolor="#ffffff"
     bordercolor="#666666"
     borderopacity="1.0"
     inkscape:pageopacity="0.0"
     inkscape:pageshadow="2"
     inkscape:zoom="1.4"
     inkscape:cx="397.01165"
     inkscape:cy="250.61637"
     inkscape:document-units="mm"
     inkscape:current-layer="layer1"
     showgrid="true"
     inkscape:window-width="1920"
     inkscape:window-height="1017"
     inkscape:window-x="-8"
     inkscape:window-y="-8"
     inkscape:window-maximized="1"
     inkscape:snap-object-midpoints="true"
     inkscape:snap-global="false">
    <inkscape:grid
       spacingy="1"
       spacingx="1"
       units="mm"
       id="grid815"
       type="xygrid" />
  </sodipodi:namedview>
  <metadata
     id="metadata5">
    <rdf:RDF>
      <cc:Work
         rdf:about="">
        <dc:format>image/svg+xml</dc:format>
        <dc:type
           rdf:resource="http://purl.org/dc/dcmitype/StillImage" />
        <dc:title />
      </cc:Work>
    </rdf:RDF>
  </metadata>
  <g
     inkscape:label="Layer 1"
     inkscape:groupmode="layer"
     id="layer1"
     transform="translate(0,-217)">
    <path
       style="fill:none;stroke:#000000;stroke-width:1;stroke-linecap:butt;stroke-linejoin:miter;stroke-miterlimit:4;stroke-dasharray:none;stroke-opacity:1;marker-end:url(#Arrow1Send)"
       d="M 25,287 163.66365,247.4009"
       id="path817"
       inkscape:connector-curvature="0"
       sodipodi:nodetypes="cc" />
    <path
       style="fill:none;stroke:#000000;stroke-width:1;stroke-linecap:butt;stroke-linejoin:miter;stroke-miterlimit:4;stroke-dasharray:none;stroke-opacity:1;marker-end:url(#Arrow1Send-7)"
       d="M 25,287 44.599096,227.86863"
       id="path817-8"
       inkscape:connector-curvature="0"
       sodipodi:nodetypes="cc" />
    <path
       style="fill:none;stroke:#0064c8;stroke-width:1;stroke-linecap:butt;stroke-linejoin:miter;stroke-miterlimit:4;stroke-dasharray:2, 1;stroke-dashoffset:0;stroke-opacity:1;marker-end:url(#marker1878)"
       d="M 79.300928,271.35242 45.868625,227.80181"
       id="path1874"
       inkscape:connector-curvature="0"
       sodipodi:nodetypes="cc" />
    <circle
       style="fill:#00c800;fill-opacity:1;stroke:none;stroke-width:1;stroke-miterlimit:4;stroke-dasharray:2, 1;stroke-dashoffset:0;stroke-opacity:1"
       id="path1922-0"
       cx="165"
       cy="247"
       r="2" />
    <circle
       style="fill:#0000c8;fill-opacity:1;stroke:none;stroke-width:1;stroke-miterlimit:4;stroke-dasharray:1.99999998, 0.99999999;stroke-dashoffset:0;stroke-opacity:1"
       id="path2047"
       cx="45"
       cy="226.99998"
       r="2" />
    <path
       style="fill:none;stroke:#000000;stroke-width:0.25;stroke-linecap:butt;stroke-linejoin:miter;stroke-miterlimit:4;stroke-dasharray:none;stroke-opacity:1"
       d="m 75.917781,267.28795 5.811385,-1.65365 3.212798,4.15774"
       id="path2301"
       inkscape:connector-curvature="0"
       sodipodi:nodetypes="ccc" />
    <g
       id="g2360"
       ns1:jacobian_sqrt="0.705556"
       inkscapeversion="0.92.4"
       ns1:alignment="middle center"
       ns1:scale="2.0"
       ns1:preamble="C:\\Users\\shawn\\AppData\\Roaming\\inkscape\\extensions\\textext\\default_packages.tex"
       ns1:text="$\\mathbf{u}$"
       ns1:pdfconverter="pdf2svg"
       ns1:texconverter="pdflatex"
       ns1:version="0.11.0"
       transform="matrix(0.705556,0,0,0.705556,19.574681,168.42211)">
      <g
         id="surface1">
        <g
           id="g2357"
           style="fill:#000000;fill-opacity:1">
          <path
             id="path2355"
             transform="translate(148.712,134.765)"
             d="M 4.359375,-0.71875 V 0.0625 L 6.125,0 v -0.46875 c -0.609375,0 -0.6875,0 -0.6875,-0.390625 v -3.625 L 3.625,-4.40625 v 0.46875 c 0.609375,0 0.6875,0 0.6875,0.390625 v 1.90625 c 0,0.8125 -0.515625,1.34375 -1.234375,1.34375 -0.78125,0 -0.8125,-0.25 -0.8125,-0.796875 v -3.390625 l -1.8125,0.078125 v 0.46875 c 0.609375,0 0.6875,0 0.6875,0.390625 v 2.328125 c 0,1.0625 0.796875,1.28125 1.796875,1.28125 0.25,0 0.96875,0 1.421875,-0.78125 z m 0,0"
             style="stroke:none;stroke-width:0"
             inkscape:connector-curvature="0" />
        </g>
      </g>
    </g>
    <g
       id="g2406"
       ns1:jacobian_sqrt="0.705556"
       inkscapeversion="0.92.4"
       ns1:alignment="middle center"
       ns1:scale="2.0"
       ns1:preamble="C:\\Users\\shawn\\AppData\\Roaming\\inkscape\\extensions\\textext\\default_packages.tex"
       ns1:text="$\\|\\mathbf{u}\\|$"
       ns1:pdfconverter="pdf2svg"
       ns1:texconverter="pdflatex"
       ns1:version="0.11.0"
       transform="matrix(0.705556,0,0,0.705556,9.5248752,160.30508)"
       style="fill:#646464;fill-opacity:1">
      <g
         id="g2404"
         style="fill:#646464;fill-opacity:1">
        <g
           id="g2394"
           style="fill:#646464;fill-opacity:1">
          <path
             id="path2392"
             transform="translate(148.712,134.765)"
             d="m 1.71875,-7.140625 c 0,-0.15625 0,-0.34375 -0.203125,-0.34375 -0.203125,0 -0.203125,0.234375 -0.203125,0.375 V 2.125 c 0,0.15625 0,0.375 0.203125,0.375 C 1.71875,2.5 1.71875,2.3125 1.71875,2.15625 Z m 1.9375,0.03125 c 0,-0.15625 0,-0.375 -0.203125,-0.375 -0.1875,0 -0.1875,0.1875 -0.1875,0.34375 V 2.15625 c 0,0.15625 0,0.34375 0.1875,0.34375 C 3.65625,2.5 3.65625,2.265625 3.65625,2.125 Z m 0,0"
             style="fill:#646464;fill-opacity:1;stroke:none;stroke-width:0"
             inkscape:connector-curvature="0" />
        </g>
        <g
           id="g2398"
           style="fill:#646464;fill-opacity:1">
          <path
             id="path2396"
             transform="translate(153.694,134.765)"
             d="M 4.359375,-0.71875 V 0.0625 L 6.125,0 v -0.46875 c -0.609375,0 -0.6875,0 -0.6875,-0.390625 v -3.625 L 3.625,-4.40625 v 0.46875 c 0.609375,0 0.6875,0 0.6875,0.390625 v 1.90625 c 0,0.8125 -0.515625,1.34375 -1.234375,1.34375 -0.78125,0 -0.8125,-0.25 -0.8125,-0.796875 v -3.390625 l -1.8125,0.078125 v 0.46875 c 0.609375,0 0.6875,0 0.6875,0.390625 v 2.328125 c 0,1.0625 0.796875,1.28125 1.796875,1.28125 0.25,0 0.96875,0 1.421875,-0.78125 z m 0,0"
             style="fill:#646464;fill-opacity:1;stroke:none;stroke-width:0"
             inkscape:connector-curvature="0" />
        </g>
        <g
           id="g2402"
           style="fill:#646464;fill-opacity:1">
          <path
             id="path2400"
             transform="translate(160.059,134.765)"
             d="m 1.71875,-7.140625 c 0,-0.15625 0,-0.34375 -0.203125,-0.34375 -0.203125,0 -0.203125,0.234375 -0.203125,0.375 V 2.125 c 0,0.15625 0,0.375 0.203125,0.375 C 1.71875,2.5 1.71875,2.3125 1.71875,2.15625 Z m 1.9375,0.03125 c 0,-0.15625 0,-0.375 -0.203125,-0.375 -0.1875,0 -0.1875,0.1875 -0.1875,0.34375 V 2.15625 c 0,0.15625 0,0.34375 0.1875,0.34375 C 3.65625,2.5 3.65625,2.265625 3.65625,2.125 Z m 0,0"
             style="fill:#646464;fill-opacity:1;stroke:none;stroke-width:0"
             inkscape:connector-curvature="0" />
        </g>
      </g>
    </g>
    <g
       id="g2456"
       ns1:jacobian_sqrt="0.705556"
       inkscapeversion="0.92.4"
       ns1:alignment="middle center"
       ns1:scale="2.0"
       ns1:preamble="C:\\Users\\shawn\\AppData\\Roaming\\inkscape\\extensions\\textext\\default_packages.tex"
       ns1:text="$\\mathbf{v}$"
       ns1:pdfconverter="pdf2svg"
       ns1:texconverter="pdflatex"
       ns1:version="0.11.0"
       transform="matrix(0.705556,0,0,0.705556,-70.007253,144.59308)">
      <g
         id="g2454">
        <g
           id="g2452"
           style="fill:#000000;fill-opacity:1">
          <path
             id="path2450"
             transform="translate(148.712,134.765)"
             d="m 5.046875,-3.75 c 0.0625,-0.140625 0.09375,-0.203125 0.734375,-0.203125 v -0.46875 C 5.53125,-4.40625 5.25,-4.390625 5,-4.390625 c -0.25,0 -0.703125,-0.03125 -0.90625,-0.03125 v 0.46875 c 0.1875,0 0.46875,0.03125 0.46875,0.109375 0,0 0,0.03125 -0.046875,0.109375 l -1.15625,2.5 -1.265625,-2.71875 H 2.625 v -0.46875 c -0.328125,0.015625 -1.21875,0.03125 -1.234375,0.03125 -0.28125,0 -0.71875,-0.03125 -1.125,-0.03125 v 0.46875 h 0.625 l 1.75,3.75 c 0.125,0.25 0.25,0.25 0.375,0.25 0.171875,0 0.28125,-0.03125 0.375,-0.25 z m 0,0"
             style="stroke:none;stroke-width:0"
             inkscape:connector-curvature="0" />
        </g>
      </g>
    </g>
    <g
       id="g2514"
       ns1:jacobian_sqrt="0.705556"
       inkscapeversion="0.92.4"
       ns1:alignment="middle center"
       ns1:scale="2.0"
       ns1:preamble="C:\\Users\\shawn\\AppData\\Roaming\\inkscape\\extensions\\textext\\default_packages.tex"
       ns1:text="$\\|\\mathbf{v}\\|$"
       ns1:pdfconverter="pdf2svg"
       ns1:texconverter="pdflatex"
       ns1:version="0.11.0"
       transform="matrix(0.705556,0,0,0.705556,-64.502366,152.74555)"
       style="fill:#646464;fill-opacity:1">
      <g
         id="g2512"
         style="fill:#646464;fill-opacity:1">
        <g
           id="g2502"
           style="fill:#646464;fill-opacity:1">
          <path
             id="path2500"
             transform="translate(148.712,134.765)"
             d="m 1.71875,-7.140625 c 0,-0.15625 0,-0.34375 -0.203125,-0.34375 -0.203125,0 -0.203125,0.234375 -0.203125,0.375 V 2.125 c 0,0.15625 0,0.375 0.203125,0.375 C 1.71875,2.5 1.71875,2.3125 1.71875,2.15625 Z m 1.9375,0.03125 c 0,-0.15625 0,-0.375 -0.203125,-0.375 -0.1875,0 -0.1875,0.1875 -0.1875,0.34375 V 2.15625 c 0,0.15625 0,0.34375 0.1875,0.34375 C 3.65625,2.5 3.65625,2.265625 3.65625,2.125 Z m 0,0"
             style="fill:#646464;fill-opacity:1;stroke:none;stroke-width:0"
             inkscape:connector-curvature="0" />
        </g>
        <g
           id="g2506"
           style="fill:#646464;fill-opacity:1">
          <path
             id="path2504"
             transform="translate(153.694,134.765)"
             d="m 5.046875,-3.75 c 0.0625,-0.140625 0.09375,-0.203125 0.734375,-0.203125 v -0.46875 C 5.53125,-4.40625 5.25,-4.390625 5,-4.390625 c -0.25,0 -0.703125,-0.03125 -0.90625,-0.03125 v 0.46875 c 0.1875,0 0.46875,0.03125 0.46875,0.109375 0,0 0,0.03125 -0.046875,0.109375 l -1.15625,2.5 -1.265625,-2.71875 H 2.625 v -0.46875 c -0.328125,0.015625 -1.21875,0.03125 -1.234375,0.03125 -0.28125,0 -0.71875,-0.03125 -1.125,-0.03125 v 0.46875 h 0.625 l 1.75,3.75 c 0.125,0.25 0.25,0.25 0.375,0.25 0.171875,0 0.28125,-0.03125 0.375,-0.25 z m 0,0"
             style="fill:#646464;fill-opacity:1;stroke:none;stroke-width:0"
             inkscape:connector-curvature="0" />
        </g>
        <g
           id="g2510"
           style="fill:#646464;fill-opacity:1">
          <path
             id="path2508"
             transform="translate(159.9,134.765)"
             d="m 1.71875,-7.140625 c 0,-0.15625 0,-0.34375 -0.203125,-0.34375 -0.203125,0 -0.203125,0.234375 -0.203125,0.375 V 2.125 c 0,0.15625 0,0.375 0.203125,0.375 C 1.71875,2.5 1.71875,2.3125 1.71875,2.15625 Z m 1.9375,0.03125 c 0,-0.15625 0,-0.375 -0.203125,-0.375 -0.1875,0 -0.1875,0.1875 -0.1875,0.34375 V 2.15625 c 0,0.15625 0,0.34375 0.1875,0.34375 C 3.65625,2.5 3.65625,2.265625 3.65625,2.125 Z m 0,0"
             style="fill:#646464;fill-opacity:1;stroke:none;stroke-width:0"
             inkscape:connector-curvature="0" />
        </g>
      </g>
    </g>
    <path
       style="fill:none;stroke:#000000;stroke-width:0.25;stroke-linecap:butt;stroke-linejoin:miter;stroke-miterlimit:4;stroke-dasharray:none;stroke-opacity:1"
       d="m 32.59226,284.58034 c -1.133927,-2.17336 -3.30729,-3.40178 -5.291665,-3.96874"
       id="path2527"
       inkscape:connector-curvature="0" />
    <g
       id="g2579"
       ns1:jacobian_sqrt="0.705556"
       inkscapeversion="0.92.4"
       ns1:alignment="middle center"
       ns1:scale="2.0"
       ns1:preamble="C:\\Users\\shawn\\AppData\\Roaming\\inkscape\\extensions\\textext\\default_packages.tex"
       ns1:text="$\\theta$"
       ns1:pdfconverter="pdf2svg"
       ns1:texconverter="pdflatex"
       ns1:version="0.11.0"
       transform="matrix(0.705556,0,0,0.705556,-73.873634,186.124)">
      <g
         id="g2577">
        <g
           id="g2575"
           style="fill:#000000;fill-opacity:1">
          <path
             id="path2573"
             transform="translate(148.712,134.765)"
             d="m 4.53125,-4.984375 c 0,-0.65625 -0.171875,-2.046875 -1.1875,-2.046875 -1.390625,0 -2.921875,2.8125 -2.921875,5.09375 0,0.9375 0.28125,2.046875 1.1875,2.046875 1.40625,0 2.921875,-2.859375 2.921875,-5.09375 z M 1.46875,-3.625 C 1.640625,-4.25 1.84375,-5.046875 2.25,-5.765625 2.515625,-6.25 2.875,-6.8125 3.328125,-6.8125 c 0.484375,0 0.546875,0.640625 0.546875,1.203125 0,0.5 -0.078125,1 -0.3125,1.984375 z m 2,0.328125 C 3.359375,-2.84375 3.15625,-2 2.765625,-1.28125 c -0.34375,0.6875 -0.71875,1.171875 -1.15625,1.171875 -0.328125,0 -0.53125,-0.296875 -0.53125,-1.21875 0,-0.421875 0.0625,-1 0.3125,-1.96875 z m 0,0"
             style="stroke:none;stroke-width:0"
             inkscape:connector-curvature="0" />
        </g>
      </g>
    </g>
    <path
       style="fill:none;stroke:#c86400;stroke-width:1;stroke-linecap:butt;stroke-linejoin:miter;stroke-miterlimit:4;stroke-dasharray:2.00000006, 1.00000003;stroke-dashoffset:0;stroke-opacity:1;marker-end:url(#marker2847)"
       d="m 25,287 18.55357,-5.25448"
       id="path2797"
       inkscape:connector-curvature="0"
       sodipodi:nodetypes="cc" />
    <path
       style="fill:none;stroke:#000000;stroke-width:0.25;stroke-linecap:butt;stroke-linejoin:miter;stroke-miterlimit:4;stroke-dasharray:none;stroke-opacity:1"
       d="m 25.032738,281.55654 1.984375,-6.23661 v 5.57515"
       id="path3345"
       inkscape:connector-curvature="0" />
    <path
       style="fill:none;stroke:#00c8c8;stroke-width:1;stroke-linecap:butt;stroke-linejoin:miter;stroke-miterlimit:4;stroke-dasharray:2.00000006, 1.00000003;stroke-dashoffset:0;stroke-opacity:1;marker-end:url(#marker3221)"
       d="m 25,286.99999 v -55"
       id="path3217"
       inkscape:connector-curvature="0" />
    <circle
       style="fill:#c80000;fill-opacity:1;stroke:none;stroke-width:1;stroke-miterlimit:4;stroke-dasharray:1.99999998, 0.99999999;stroke-dashoffset:0;stroke-opacity:1"
       id="path1922"
       cx="25"
       cy="287"
       r="2" />
    <g
       id="g3091"
       ns1:jacobian_sqrt="0.705556"
       inkscapeversion="0.92.4"
       ns1:alignment="middle center"
       ns1:scale="2.0"
       ns1:preamble="C:\\Users\\shawn\\AppData\\Roaming\\inkscape\\extensions\\textext\\default_packages.tex"
       ns1:text="$\\frac{\\mathbf{u}}{\\|\\mathbf{u}\\|}$"
       ns1:pdfconverter="pdf2svg"
       ns1:texconverter="pdflatex"
       ns1:version="0.11.0"
       transform="matrix(0.705556,0,0,0.705556,-67.222672,194.74471)"
       style="fill:#c86400;fill-opacity:1;stroke:#c86400;stroke-opacity:1">
      <g
         id="g3089"
         style="fill:#c86400;fill-opacity:1;stroke:#c86400;stroke-opacity:1">
        <g
           id="g3073"
           style="fill:#c86400;fill-opacity:1;stroke:#c86400;stroke-opacity:1">
          <path
             id="path3071"
             transform="translate(153.99,130.842)"
             d="M 2.90625,-3.078125 V -2.6875 c 0.421875,0 0.46875,0 0.46875,0.265625 V -1.125 c 0,0.578125 -0.4375,0.84375 -0.96875,0.84375 -0.59375,0 -0.609375,-0.15625 -0.609375,-0.484375 v -2.375 l -1.34375,0.0625 V -2.6875 c 0.40625,0 0.453125,0 0.453125,0.265625 v 1.578125 c 0,0.8125 0.78125,0.890625 1.375,0.890625 0.234375,0 0.75,0 1.140625,-0.5 v 0.5 L 4.734375,0 v -0.390625 c -0.40625,0 -0.46875,0 -0.46875,-0.265625 v -2.484375 z m 0,0"
             style="fill:#c86400;fill-opacity:1;stroke:#c86400;stroke-width:0;stroke-opacity:1"
             inkscape:connector-curvature="0" />
        </g>
        <path
           id="path3075"
           transform="matrix(1,0,0,-1,149.908,132.274)"
           d="M -0.00175,5.625e-4 H 13.174031"
           style="fill:#c86400;fill-opacity:1;stroke:#c86400;stroke-width:0.398;stroke-linecap:butt;stroke-linejoin:miter;stroke-miterlimit:10;stroke-opacity:1"
           inkscape:connector-curvature="0" />
        <g
           id="g3079"
           style="fill:#c86400;fill-opacity:1;stroke:#c86400;stroke-opacity:1">
          <path
             id="path3077"
             transform="translate(149.908,138.2)"
             d="m 1.4375,-4.96875 c 0,-0.09375 0,-0.25 -0.171875,-0.25 -0.171875,0 -0.171875,0.171875 -0.171875,0.296875 V 1.4375 c 0,0.125 0,0.296875 0.171875,0.296875 0.171875,0 0.171875,-0.15625 0.171875,-0.265625 z m 1.53125,0.046875 c 0,-0.125 0,-0.296875 -0.171875,-0.296875 -0.15625,0 -0.15625,0.15625 -0.15625,0.25 v 6.4375 c 0,0.109375 0,0.265625 0.15625,0.265625 0.171875,0 0.171875,-0.171875 0.171875,-0.296875 z m 0,0"
             style="fill:#c86400;fill-opacity:1;stroke:#c86400;stroke-width:0;stroke-opacity:1"
             inkscape:connector-curvature="0" />
        </g>
        <g
           id="g3083"
           style="fill:#c86400;fill-opacity:1;stroke:#c86400;stroke-opacity:1">
          <path
             id="path3081"
             transform="translate(153.99,138.2)"
             d="M 2.90625,-3.078125 V -2.6875 c 0.421875,0 0.46875,0 0.46875,0.265625 V -1.125 c 0,0.578125 -0.4375,0.84375 -0.96875,0.84375 -0.59375,0 -0.609375,-0.15625 -0.609375,-0.484375 v -2.375 l -1.34375,0.0625 V -2.6875 c 0.40625,0 0.453125,0 0.453125,0.265625 v 1.578125 c 0,0.8125 0.78125,0.890625 1.375,0.890625 0.234375,0 0.75,0 1.140625,-0.5 v 0.5 L 4.734375,0 v -0.390625 c -0.40625,0 -0.46875,0 -0.46875,-0.265625 v -2.484375 z m 0,0"
             style="fill:#c86400;fill-opacity:1;stroke:#c86400;stroke-width:0;stroke-opacity:1"
             inkscape:connector-curvature="0" />
        </g>
        <g
           id="g3087"
           style="fill:#c86400;fill-opacity:1;stroke:#c86400;stroke-opacity:1">
          <path
             id="path3085"
             transform="translate(158.999,138.2)"
             d="m 1.4375,-4.96875 c 0,-0.09375 0,-0.25 -0.171875,-0.25 -0.171875,0 -0.171875,0.171875 -0.171875,0.296875 V 1.4375 c 0,0.125 0,0.296875 0.171875,0.296875 0.171875,0 0.171875,-0.15625 0.171875,-0.265625 z m 1.53125,0.046875 c 0,-0.125 0,-0.296875 -0.171875,-0.296875 -0.15625,0 -0.15625,0.15625 -0.15625,0.25 v 6.4375 c 0,0.109375 0,0.265625 0.15625,0.265625 0.171875,0 0.171875,-0.171875 0.171875,-0.296875 z m 0,0"
             style="fill:#c86400;fill-opacity:1;stroke:#c86400;stroke-width:0;stroke-opacity:1"
             inkscape:connector-curvature="0" />
        </g>
      </g>
    </g>
    <g
       id="g3208"
       ns1:jacobian_sqrt="0.705556"
       inkscapeversion="0.92.4"
       ns1:alignment="middle center"
       ns1:scale="2.0"
       ns1:preamble="C:\\Users\\shawn\\AppData\\Roaming\\inkscape\\extensions\\textext\\default_packages.tex"
       ns1:text="$1$"
       ns1:pdfconverter="pdf2svg"
       ns1:texconverter="pdflatex"
       ns1:version="0.11.0"
       transform="matrix(0.705556,0,0,0.705556,-66.636178,185.17434)"
       style="fill:#e1967f;fill-opacity:1">
      <g
         id="g3206"
         style="fill:#e1967f;fill-opacity:1">
        <g
           id="g3204"
           style="fill:#e1967f;fill-opacity:1">
          <path
             id="path3202"
             transform="translate(148.712,134.765)"
             d="m 2.9375,-6.375 c 0,-0.25 0,-0.265625 -0.234375,-0.265625 C 2.078125,-6 1.203125,-6 0.890625,-6 v 0.3125 c 0.203125,0 0.78125,0 1.296875,-0.265625 v 5.171875 c 0,0.359375 -0.03125,0.46875 -0.921875,0.46875 h -0.3125 V 0 c 0.34375,-0.03125 1.203125,-0.03125 1.609375,-0.03125 0.390625,0 1.265625,0 1.609375,0.03125 v -0.3125 h -0.3125 c -0.90625,0 -0.921875,-0.109375 -0.921875,-0.46875 z m 0,0"
             style="fill:#e1967f;fill-opacity:1;stroke:none;stroke-width:0"
             inkscape:connector-curvature="0" />
        </g>
      </g>
    </g>
    <path
       style="fill:none;stroke:#000000;stroke-width:0.25;stroke-linecap:butt;stroke-linejoin:miter;stroke-miterlimit:4;stroke-dasharray:none;stroke-opacity:1"
       d="m 24.938244,281.74553 4.724702,-1.32292 v 5.00818"
       id="path3325"
       inkscape:connector-curvature="0" />
    <g
       id="g3497"
       ns1:jacobian_sqrt="0.529167"
       inkscapeversion="0.92.4"
       ns1:alignment="middle center"
       ns1:scale="1.5"
       ns1:preamble="C:\\Users\\shawn\\AppData\\Roaming\\inkscape\\extensions\\textext\\default_packages.tex"
       ns1:text="$\\frac{\\mathbf{u}}{\\|\\mathbf{u}\\|} \\times \\mathbf{v}$"
       ns1:pdfconverter="pdf2svg"
       ns1:texconverter="pdflatex"
       ns1:version="0.11.0"
       transform="matrix(0.529167,0,0,0.529167,-73.22339,173.18055)"
       style="fill:#00c8c8;fill-opacity:1;stroke:#00c8c8;stroke-opacity:1">
      <g
         id="g3495"
         style="fill:#00c8c8;fill-opacity:1;stroke:#00c8c8;stroke-opacity:1">
        <g
           id="g3471"
           style="fill:#00c8c8;fill-opacity:1;stroke:#00c8c8;stroke-opacity:1">
          <path
             id="path3469"
             transform="translate(153.99,130.842)"
             d="M 2.90625,-3.078125 V -2.6875 c 0.421875,0 0.46875,0 0.46875,0.265625 V -1.125 c 0,0.578125 -0.4375,0.84375 -0.96875,0.84375 -0.59375,0 -0.609375,-0.15625 -0.609375,-0.484375 v -2.375 l -1.34375,0.0625 V -2.6875 c 0.40625,0 0.453125,0 0.453125,0.265625 v 1.578125 c 0,0.8125 0.78125,0.890625 1.375,0.890625 0.234375,0 0.75,0 1.140625,-0.5 v 0.5 L 4.734375,0 v -0.390625 c -0.40625,0 -0.46875,0 -0.46875,-0.265625 v -2.484375 z m 0,0"
             style="fill:#00c8c8;fill-opacity:1;stroke:#00c8c8;stroke-width:0;stroke-opacity:1"
             inkscape:connector-curvature="0" />
        </g>
        <path
           id="path3473"
           transform="matrix(1,0,0,-1,149.908,132.274)"
           d="M -0.00175,5.625e-4 H 13.174031"
           style="fill:#00c8c8;fill-opacity:1;stroke:#00c8c8;stroke-width:0.398;stroke-linecap:butt;stroke-linejoin:miter;stroke-miterlimit:10;stroke-opacity:1"
           inkscape:connector-curvature="0" />
        <g
           id="g3477"
           style="fill:#00c8c8;fill-opacity:1;stroke:#00c8c8;stroke-opacity:1">
          <path
             id="path3475"
             transform="translate(149.908,138.2)"
             d="m 1.4375,-4.96875 c 0,-0.09375 0,-0.25 -0.171875,-0.25 -0.171875,0 -0.171875,0.171875 -0.171875,0.296875 V 1.4375 c 0,0.125 0,0.296875 0.171875,0.296875 0.171875,0 0.171875,-0.15625 0.171875,-0.265625 z m 1.53125,0.046875 c 0,-0.125 0,-0.296875 -0.171875,-0.296875 -0.15625,0 -0.15625,0.15625 -0.15625,0.25 v 6.4375 c 0,0.109375 0,0.265625 0.15625,0.265625 0.171875,0 0.171875,-0.171875 0.171875,-0.296875 z m 0,0"
             style="fill:#00c8c8;fill-opacity:1;stroke:#00c8c8;stroke-width:0;stroke-opacity:1"
             inkscape:connector-curvature="0" />
        </g>
        <g
           id="g3481"
           style="fill:#00c8c8;fill-opacity:1;stroke:#00c8c8;stroke-opacity:1">
          <path
             id="path3479"
             transform="translate(153.99,138.2)"
             d="M 2.90625,-3.078125 V -2.6875 c 0.421875,0 0.46875,0 0.46875,0.265625 V -1.125 c 0,0.578125 -0.4375,0.84375 -0.96875,0.84375 -0.59375,0 -0.609375,-0.15625 -0.609375,-0.484375 v -2.375 l -1.34375,0.0625 V -2.6875 c 0.40625,0 0.453125,0 0.453125,0.265625 v 1.578125 c 0,0.8125 0.78125,0.890625 1.375,0.890625 0.234375,0 0.75,0 1.140625,-0.5 v 0.5 L 4.734375,0 v -0.390625 c -0.40625,0 -0.46875,0 -0.46875,-0.265625 v -2.484375 z m 0,0"
             style="fill:#00c8c8;fill-opacity:1;stroke:#00c8c8;stroke-width:0;stroke-opacity:1"
             inkscape:connector-curvature="0" />
        </g>
        <g
           id="g3485"
           style="fill:#00c8c8;fill-opacity:1;stroke:#00c8c8;stroke-opacity:1">
          <path
             id="path3483"
             transform="translate(158.999,138.2)"
             d="m 1.4375,-4.96875 c 0,-0.09375 0,-0.25 -0.171875,-0.25 -0.171875,0 -0.171875,0.171875 -0.171875,0.296875 V 1.4375 c 0,0.125 0,0.296875 0.171875,0.296875 0.171875,0 0.171875,-0.15625 0.171875,-0.265625 z m 1.53125,0.046875 c 0,-0.125 0,-0.296875 -0.171875,-0.296875 -0.15625,0 -0.15625,0.15625 -0.15625,0.25 v 6.4375 c 0,0.109375 0,0.265625 0.15625,0.265625 0.171875,0 0.171875,-0.171875 0.171875,-0.296875 z m 0,0"
             style="fill:#00c8c8;fill-opacity:1;stroke:#00c8c8;stroke-width:0;stroke-opacity:1"
             inkscape:connector-curvature="0" />
        </g>
        <g
           id="g3489"
           style="fill:#00c8c8;fill-opacity:1;stroke:#00c8c8;stroke-opacity:1">
          <path
             id="path3487"
             transform="translate(166.49,134.765)"
             d="M 3.875,-2.765625 1.890625,-4.75 C 1.765625,-4.875 1.75,-4.890625 1.671875,-4.890625 1.5625,-4.890625 1.46875,-4.8125 1.46875,-4.6875 c 0,0.0625 0.015625,0.078125 0.125,0.1875 l 2,2 -2,2.015625 c -0.109375,0.109375 -0.125,0.125 -0.125,0.1875 0,0.125 0.09375,0.203125 0.203125,0.203125 0.078125,0 0.09375,-0.015625 0.21875,-0.140625 L 3.875,-2.21875 l 2.0625,2.0625 c 0.015625,0.015625 0.078125,0.0625 0.140625,0.0625 0.125,0 0.203125,-0.078125 0.203125,-0.203125 0,-0.015625 0,-0.046875 -0.03125,-0.109375 C 6.234375,-0.421875 4.65625,-1.984375 4.15625,-2.5 l 1.828125,-1.8125 c 0.046875,-0.0625 0.203125,-0.1875 0.25,-0.25 0,-0.015625 0.046875,-0.0625 0.046875,-0.125 0,-0.125 -0.078125,-0.203125 -0.203125,-0.203125 C 6,-4.890625 5.96875,-4.859375 5.859375,-4.75 Z m 0,0"
             style="fill:#00c8c8;fill-opacity:1;stroke:#00c8c8;stroke-width:0;stroke-opacity:1"
             inkscape:connector-curvature="0" />
        </g>
        <g
           id="g3493"
           style="fill:#00c8c8;fill-opacity:1;stroke:#00c8c8;stroke-opacity:1">
          <path
             id="path3491"
             transform="translate(176.453,134.765)"
             d="m 5.046875,-3.75 c 0.0625,-0.140625 0.09375,-0.203125 0.734375,-0.203125 v -0.46875 C 5.53125,-4.40625 5.25,-4.390625 5,-4.390625 c -0.25,0 -0.703125,-0.03125 -0.90625,-0.03125 v 0.46875 c 0.1875,0 0.46875,0.03125 0.46875,0.109375 0,0 0,0.03125 -0.046875,0.109375 l -1.15625,2.5 -1.265625,-2.71875 H 2.625 v -0.46875 c -0.328125,0.015625 -1.21875,0.03125 -1.234375,0.03125 -0.28125,0 -0.71875,-0.03125 -1.125,-0.03125 v 0.46875 h 0.625 l 1.75,3.75 c 0.125,0.25 0.25,0.25 0.375,0.25 0.171875,0 0.28125,-0.03125 0.375,-0.25 z m 0,0"
             style="fill:#00c8c8;fill-opacity:1;stroke:#00c8c8;stroke-width:0;stroke-opacity:1"
             inkscape:connector-curvature="0" />
        </g>
      </g>
    </g>
    <g
       id="g3725"
       style="fill:#00c8c8;fill-opacity:1;stroke:#00c8c8;stroke-opacity:1"
       ns1:jacobian_sqrt="0.529167"
       inkscapeversion="0.92.4"
       ns1:alignment="middle center"
       ns1:scale="1.50000002835"
       ns1:preamble="C:\\Users\\shawn\\AppData\\Roaming\\inkscape\\extensions\\textext\\default_packages.tex"
       ns1:text="$= \\frac{\\mathbf{u} \\times \\mathbf{v}}{\\|\\mathbf{u}\\|}$"
       ns1:pdfconverter="pdf2svg"
       ns1:texconverter="pdflatex"
       ns1:version="0.11.0"
       transform="matrix(0.529167,0,0,0.529167,-70.907109,181.00845)">
      <g
         style="fill:#00c8c8;fill-opacity:1;stroke:#00c8c8;stroke-opacity:1"
         id="g3723">
        <g
           id="g3695"
           style="fill:#00c8c8;fill-opacity:1;stroke:#00c8c8;stroke-opacity:1">
          <path
             id="path3693"
             transform="translate(148.712,134.765)"
             d="m 6.84375,-3.265625 c 0.15625,0 0.34375,0 0.34375,-0.1875 C 7.1875,-3.65625 7,-3.65625 6.859375,-3.65625 h -5.96875 c -0.140625,0 -0.328125,0 -0.328125,0.203125 0,0.1875 0.1875,0.1875 0.328125,0.1875 z m 0.015625,1.9375 c 0.140625,0 0.328125,0 0.328125,-0.203125 0,-0.1875 -0.1875,-0.1875 -0.34375,-0.1875 H 0.890625 c -0.140625,0 -0.328125,0 -0.328125,0.1875 0,0.203125 0.1875,0.203125 0.328125,0.203125 z m 0,0"
             style="fill:#00c8c8;fill-opacity:1;stroke:#00c8c8;stroke-width:0;stroke-opacity:1"
             inkscape:connector-curvature="0" />
        </g>
        <g
           id="g3699"
           style="fill:#00c8c8;fill-opacity:1;stroke:#00c8c8;stroke-opacity:1">
          <path
             id="path3697"
             transform="translate(160.424,130.842)"
             d="M 2.90625,-3.078125 V -2.6875 c 0.421875,0 0.46875,0 0.46875,0.265625 V -1.125 c 0,0.578125 -0.4375,0.84375 -0.96875,0.84375 -0.59375,0 -0.609375,-0.15625 -0.609375,-0.484375 v -2.375 l -1.34375,0.0625 V -2.6875 c 0.40625,0 0.453125,0 0.453125,0.265625 v 1.578125 c 0,0.8125 0.78125,0.890625 1.375,0.890625 0.234375,0 0.75,0 1.140625,-0.5 v 0.5 L 4.734375,0 v -0.390625 c -0.40625,0 -0.46875,0 -0.46875,-0.265625 v -2.484375 z m 0,0"
             style="fill:#00c8c8;fill-opacity:1;stroke:#00c8c8;stroke-width:0;stroke-opacity:1"
             inkscape:connector-curvature="0" />
        </g>
        <g
           id="g3703"
           style="fill:#00c8c8;fill-opacity:1;stroke:#00c8c8;stroke-opacity:1">
          <path
             id="path3701"
             transform="translate(165.433,130.842)"
             d="m 4.875,-3.265625 c 0.078125,-0.078125 0.09375,-0.125 0.09375,-0.171875 0,-0.109375 -0.078125,-0.171875 -0.15625,-0.171875 -0.078125,0 -0.09375,0.015625 -0.171875,0.109375 l -1.53125,1.515625 -1.53125,-1.53125 c -0.078125,-0.0625 -0.09375,-0.09375 -0.15625,-0.09375 -0.109375,0 -0.1875,0.078125 -0.1875,0.171875 0,0.0625 0.03125,0.078125 0.109375,0.171875 L 2.859375,-1.75 1.34375,-0.234375 C 1.25,-0.125 1.234375,-0.09375 1.234375,-0.0625 c 0,0.109375 0.078125,0.1875 0.1875,0.1875 0.0625,0 0.078125,-0.03125 0.15625,-0.109375 L 3.109375,-1.5 4.703125,0.078125 C 4.734375,0.109375 4.765625,0.125 4.8125,0.125 c 0.078125,0 0.15625,-0.0625 0.15625,-0.1875 0,-0.046875 0,-0.0625 -0.03125,-0.078125 -0.015625,-0.03125 -1.359375,-1.390625 -1.578125,-1.59375 z m 0,0"
             style="fill:#00c8c8;fill-opacity:1;stroke:#00c8c8;stroke-width:0;stroke-opacity:1"
             inkscape:connector-curvature="0" />
        </g>
        <g
           id="g3707"
           style="fill:#00c8c8;fill-opacity:1;stroke:#00c8c8;stroke-opacity:1">
          <path
             id="path3705"
             transform="translate(171.66,130.842)"
             d="m 4,-2.578125 c 0.046875,-0.09375 0.046875,-0.109375 0.1875,-0.125 0.09375,0 0.265625,0 0.3125,0 V -3.09375 C 4.28125,-3.078125 4.140625,-3.0625 3.921875,-3.0625 3.703125,-3.0625 3.4375,-3.078125 3.21875,-3.09375 v 0.390625 c 0.1875,0 0.234375,0.015625 0.3125,0.046875 l -0.9375,1.828125 -0.953125,-1.875 H 1.96875 V -3.09375 C 1.671875,-3.078125 1.359375,-3.0625 1.0625,-3.0625 0.796875,-3.0625 0.515625,-3.078125 0.25,-3.09375 v 0.390625 H 0.703125 L 2,-0.15625 c 0.09375,0.1875 0.171875,0.203125 0.375,0.203125 0.203125,0 0.265625,-0.015625 0.375,-0.203125 z m 0,0"
             style="fill:#00c8c8;fill-opacity:1;stroke:#00c8c8;stroke-width:0;stroke-opacity:1"
             inkscape:connector-curvature="0" />
        </g>
        <path
           id="path3709"
           transform="matrix(1,0,0,-1,160.424,132.274)"
           d="M 0.00178125,5.625e-4 H 16.122875"
           style="fill:#00c8c8;fill-opacity:1;stroke:#00c8c8;stroke-width:0.398;stroke-linecap:butt;stroke-linejoin:miter;stroke-miterlimit:10;stroke-opacity:1"
           inkscape:connector-curvature="0" />
        <g
           id="g3713"
           style="fill:#00c8c8;fill-opacity:1;stroke:#00c8c8;stroke-opacity:1">
          <path
             id="path3711"
             transform="translate(161.898,138.2)"
             d="m 1.4375,-4.96875 c 0,-0.09375 0,-0.25 -0.171875,-0.25 -0.171875,0 -0.171875,0.171875 -0.171875,0.296875 V 1.4375 c 0,0.125 0,0.296875 0.171875,0.296875 0.171875,0 0.171875,-0.15625 0.171875,-0.265625 z m 1.53125,0.046875 c 0,-0.125 0,-0.296875 -0.171875,-0.296875 -0.15625,0 -0.15625,0.15625 -0.15625,0.25 v 6.4375 c 0,0.109375 0,0.265625 0.15625,0.265625 0.171875,0 0.171875,-0.171875 0.171875,-0.296875 z m 0,0"
             style="fill:#00c8c8;fill-opacity:1;stroke:#00c8c8;stroke-width:0;stroke-opacity:1"
             inkscape:connector-curvature="0" />
        </g>
        <g
           id="g3717"
           style="fill:#00c8c8;fill-opacity:1;stroke:#00c8c8;stroke-opacity:1">
          <path
             id="path3715"
             transform="translate(165.98,138.2)"
             d="M 2.90625,-3.078125 V -2.6875 c 0.421875,0 0.46875,0 0.46875,0.265625 V -1.125 c 0,0.578125 -0.4375,0.84375 -0.96875,0.84375 -0.59375,0 -0.609375,-0.15625 -0.609375,-0.484375 v -2.375 l -1.34375,0.0625 V -2.6875 c 0.40625,0 0.453125,0 0.453125,0.265625 v 1.578125 c 0,0.8125 0.78125,0.890625 1.375,0.890625 0.234375,0 0.75,0 1.140625,-0.5 v 0.5 L 4.734375,0 v -0.390625 c -0.40625,0 -0.46875,0 -0.46875,-0.265625 v -2.484375 z m 0,0"
             style="fill:#00c8c8;fill-opacity:1;stroke:#00c8c8;stroke-width:0;stroke-opacity:1"
             inkscape:connector-curvature="0" />
        </g>
        <g
           id="g3721"
           style="fill:#00c8c8;fill-opacity:1;stroke:#00c8c8;stroke-opacity:1">
          <path
             id="path3719"
             transform="translate(170.989,138.2)"
             d="m 1.4375,-4.96875 c 0,-0.09375 0,-0.25 -0.171875,-0.25 -0.171875,0 -0.171875,0.171875 -0.171875,0.296875 V 1.4375 c 0,0.125 0,0.296875 0.171875,0.296875 0.171875,0 0.171875,-0.15625 0.171875,-0.265625 z m 1.53125,0.046875 c 0,-0.125 0,-0.296875 -0.171875,-0.296875 -0.15625,0 -0.15625,0.15625 -0.15625,0.25 v 6.4375 c 0,0.109375 0,0.265625 0.15625,0.265625 0.171875,0 0.171875,-0.171875 0.171875,-0.296875 z m 0,0"
             style="fill:#00c8c8;fill-opacity:1;stroke:#00c8c8;stroke-width:0;stroke-opacity:1"
             inkscape:connector-curvature="0" />
        </g>
      </g>
    </g>
    <g
       id="g4486"
       ns1:jacobian_sqrt="0.529167"
       inkscapeversion="0.92.4"
       ns1:alignment="middle center"
       ns1:scale="1.50000002835"
       ns1:preamble="C:\\Users\\shawn\\AppData\\Roaming\\inkscape\\extensions\\textext\\default_packages.tex"
       ns1:text="$\\frac{\\|\\mathbf{u} \\times \\mathbf{v}\\|}{\\|\\mathbf{u}\\|}$"
       ns1:pdfconverter="pdf2svg"
       ns1:texconverter="pdflatex"
       ns1:version="0.11.0"
       transform="matrix(0.529167,0,0,0.529167,-68.922023,198.86468)"
       style="fill:#7fe1e1;fill-opacity:1;stroke:#7fe1e1;stroke-opacity:1">
      <g
         id="g4484"
         style="fill:#7fe1e1;fill-opacity:1;stroke:#7fe1e1;stroke-opacity:1">
        <g
           id="g4452"
           style="fill:#7fe1e1;fill-opacity:1;stroke:#7fe1e1;stroke-opacity:1">
          <path
             id="path4450"
             transform="translate(149.908,130.032)"
             d="m 1.4375,-4.96875 c 0,-0.09375 0,-0.25 -0.171875,-0.25 -0.171875,0 -0.171875,0.171875 -0.171875,0.296875 V 1.4375 c 0,0.125 0,0.296875 0.171875,0.296875 0.171875,0 0.171875,-0.15625 0.171875,-0.265625 z m 1.53125,0.046875 c 0,-0.125 0,-0.296875 -0.171875,-0.296875 -0.15625,0 -0.15625,0.15625 -0.15625,0.25 v 6.4375 c 0,0.109375 0,0.265625 0.15625,0.265625 0.171875,0 0.171875,-0.171875 0.171875,-0.296875 z m 0,0"
             style="fill:#7fe1e1;fill-opacity:1;stroke:#7fe1e1;stroke-width:0;stroke-opacity:1"
             inkscape:connector-curvature="0" />
        </g>
        <g
           id="g4456"
           style="fill:#7fe1e1;fill-opacity:1;stroke:#7fe1e1;stroke-opacity:1">
          <path
             id="path4454"
             transform="translate(153.99,130.032)"
             d="M 2.90625,-3.078125 V -2.6875 c 0.421875,0 0.46875,0 0.46875,0.265625 V -1.125 c 0,0.578125 -0.4375,0.84375 -0.96875,0.84375 -0.59375,0 -0.609375,-0.15625 -0.609375,-0.484375 v -2.375 l -1.34375,0.0625 V -2.6875 c 0.40625,0 0.453125,0 0.453125,0.265625 v 1.578125 c 0,0.8125 0.78125,0.890625 1.375,0.890625 0.234375,0 0.75,0 1.140625,-0.5 v 0.5 L 4.734375,0 v -0.390625 c -0.40625,0 -0.46875,0 -0.46875,-0.265625 v -2.484375 z m 0,0"
             style="fill:#7fe1e1;fill-opacity:1;stroke:#7fe1e1;stroke-width:0;stroke-opacity:1"
             inkscape:connector-curvature="0" />
        </g>
        <g
           id="g4460"
           style="fill:#7fe1e1;fill-opacity:1;stroke:#7fe1e1;stroke-opacity:1">
          <path
             id="path4458"
             transform="translate(158.999,130.032)"
             d="m 4.875,-3.265625 c 0.078125,-0.078125 0.09375,-0.125 0.09375,-0.171875 0,-0.109375 -0.078125,-0.171875 -0.15625,-0.171875 -0.078125,0 -0.09375,0.015625 -0.171875,0.109375 l -1.53125,1.515625 -1.53125,-1.53125 c -0.078125,-0.0625 -0.09375,-0.09375 -0.15625,-0.09375 -0.109375,0 -0.1875,0.078125 -0.1875,0.171875 0,0.0625 0.03125,0.078125 0.109375,0.171875 L 2.859375,-1.75 1.34375,-0.234375 C 1.25,-0.125 1.234375,-0.09375 1.234375,-0.0625 c 0,0.109375 0.078125,0.1875 0.1875,0.1875 0.0625,0 0.078125,-0.03125 0.15625,-0.109375 L 3.109375,-1.5 4.703125,0.078125 C 4.734375,0.109375 4.765625,0.125 4.8125,0.125 c 0.078125,0 0.15625,-0.0625 0.15625,-0.1875 0,-0.046875 0,-0.0625 -0.03125,-0.078125 -0.015625,-0.03125 -1.359375,-1.390625 -1.578125,-1.59375 z m 0,0"
             style="fill:#7fe1e1;fill-opacity:1;stroke:#7fe1e1;stroke-width:0;stroke-opacity:1"
             inkscape:connector-curvature="0" />
        </g>
        <g
           id="g4464"
           style="fill:#7fe1e1;fill-opacity:1;stroke:#7fe1e1;stroke-opacity:1">
          <path
             id="path4462"
             transform="translate(165.225,130.032)"
             d="m 4,-2.578125 c 0.046875,-0.09375 0.046875,-0.109375 0.1875,-0.125 0.09375,0 0.265625,0 0.3125,0 V -3.09375 C 4.28125,-3.078125 4.140625,-3.0625 3.921875,-3.0625 3.703125,-3.0625 3.4375,-3.078125 3.21875,-3.09375 v 0.390625 c 0.1875,0 0.234375,0.015625 0.3125,0.046875 l -0.9375,1.828125 -0.953125,-1.875 H 1.96875 V -3.09375 C 1.671875,-3.078125 1.359375,-3.0625 1.0625,-3.0625 0.796875,-3.0625 0.515625,-3.078125 0.25,-3.09375 v 0.390625 H 0.703125 L 2,-0.15625 c 0.09375,0.1875 0.171875,0.203125 0.375,0.203125 0.203125,0 0.265625,-0.015625 0.375,-0.203125 z m 0,0"
             style="fill:#7fe1e1;fill-opacity:1;stroke:#7fe1e1;stroke-width:0;stroke-opacity:1"
             inkscape:connector-curvature="0" />
        </g>
        <g
           id="g4468"
           style="fill:#7fe1e1;fill-opacity:1;stroke:#7fe1e1;stroke-opacity:1">
          <path
             id="path4466"
             transform="translate(170.111,130.032)"
             d="m 1.4375,-4.96875 c 0,-0.09375 0,-0.25 -0.171875,-0.25 -0.171875,0 -0.171875,0.171875 -0.171875,0.296875 V 1.4375 c 0,0.125 0,0.296875 0.171875,0.296875 0.171875,0 0.171875,-0.15625 0.171875,-0.265625 z m 1.53125,0.046875 c 0,-0.125 0,-0.296875 -0.171875,-0.296875 -0.15625,0 -0.15625,0.15625 -0.15625,0.25 v 6.4375 c 0,0.109375 0,0.265625 0.15625,0.265625 0.171875,0 0.171875,-0.171875 0.171875,-0.296875 z m 0,0"
             style="fill:#7fe1e1;fill-opacity:1;stroke:#7fe1e1;stroke-width:0;stroke-opacity:1"
             inkscape:connector-curvature="0" />
        </g>
        <path
           id="path4470"
           transform="matrix(1,0,0,-1,149.908,132.374)"
           d="M -0.00175,-0.001 H 24.283406"
           style="fill:#7fe1e1;fill-opacity:1;stroke:#7fe1e1;stroke-width:0.398;stroke-linecap:butt;stroke-linejoin:miter;stroke-miterlimit:10;stroke-opacity:1"
           inkscape:connector-curvature="0" />
        <g
           id="g4474"
           style="fill:#7fe1e1;fill-opacity:1;stroke:#7fe1e1;stroke-opacity:1">
          <path
             id="path4472"
             transform="translate(155.464,138.3)"
             d="m 1.4375,-4.96875 c 0,-0.09375 0,-0.25 -0.171875,-0.25 -0.171875,0 -0.171875,0.171875 -0.171875,0.296875 V 1.4375 c 0,0.125 0,0.296875 0.171875,0.296875 0.171875,0 0.171875,-0.15625 0.171875,-0.265625 z m 1.53125,0.046875 c 0,-0.125 0,-0.296875 -0.171875,-0.296875 -0.15625,0 -0.15625,0.15625 -0.15625,0.25 v 6.4375 c 0,0.109375 0,0.265625 0.15625,0.265625 0.171875,0 0.171875,-0.171875 0.171875,-0.296875 z m 0,0"
             style="fill:#7fe1e1;fill-opacity:1;stroke:#7fe1e1;stroke-width:0;stroke-opacity:1"
             inkscape:connector-curvature="0" />
        </g>
        <g
           id="g4478"
           style="fill:#7fe1e1;fill-opacity:1;stroke:#7fe1e1;stroke-opacity:1">
          <path
             id="path4476"
             transform="translate(159.546,138.3)"
             d="M 2.90625,-3.078125 V -2.6875 c 0.421875,0 0.46875,0 0.46875,0.265625 V -1.125 c 0,0.578125 -0.4375,0.84375 -0.96875,0.84375 -0.59375,0 -0.609375,-0.15625 -0.609375,-0.484375 v -2.375 l -1.34375,0.0625 V -2.6875 c 0.40625,0 0.453125,0 0.453125,0.265625 v 1.578125 c 0,0.8125 0.78125,0.890625 1.375,0.890625 0.234375,0 0.75,0 1.140625,-0.5 v 0.5 L 4.734375,0 v -0.390625 c -0.40625,0 -0.46875,0 -0.46875,-0.265625 v -2.484375 z m 0,0"
             style="fill:#7fe1e1;fill-opacity:1;stroke:#7fe1e1;stroke-width:0;stroke-opacity:1"
             inkscape:connector-curvature="0" />
        </g>
        <g
           id="g4482"
           style="fill:#7fe1e1;fill-opacity:1;stroke:#7fe1e1;stroke-opacity:1">
          <path
             id="path4480"
             transform="translate(164.555,138.3)"
             d="m 1.4375,-4.96875 c 0,-0.09375 0,-0.25 -0.171875,-0.25 -0.171875,0 -0.171875,0.171875 -0.171875,0.296875 V 1.4375 c 0,0.125 0,0.296875 0.171875,0.296875 0.171875,0 0.171875,-0.15625 0.171875,-0.265625 z m 1.53125,0.046875 c 0,-0.125 0,-0.296875 -0.171875,-0.296875 -0.15625,0 -0.15625,0.15625 -0.15625,0.25 v 6.4375 c 0,0.109375 0,0.265625 0.15625,0.265625 0.171875,0 0.171875,-0.171875 0.171875,-0.296875 z m 0,0"
             style="fill:#7fe1e1;fill-opacity:1;stroke:#7fe1e1;stroke-width:0;stroke-opacity:1"
             inkscape:connector-curvature="0" />
        </g>
      </g>
    </g>
    <g
       id="g4682"
       ns1:jacobian_sqrt="0.529167"
       inkscapeversion="0.92.4"
       ns1:alignment="middle center"
       ns1:scale="1.5"
       ns1:preamble="C:\\Users\\shawn\\AppData\\Roaming\\inkscape\\extensions\\textext\\default_packages.tex"
       ns1:text="$\\text{perp}(\\mathbf{v}|\\mathbf{u})$"
       ns1:pdfconverter="pdf2svg"
       ns1:texconverter="pdflatex"
       ns1:version="0.11.0"
       transform="matrix(0.529167,0,0,0.529167,-25.458587,157.83968)"
       style="fill:#0064c8;fill-opacity:1">
      <g
         id="g4680"
         style="fill:#0064c8;fill-opacity:1">
        <g
           id="g4652"
           style="fill:#0064c8;fill-opacity:1">
          <path
             id="path4650"
             transform="translate(148.712,134.765)"
             d="m 1.71875,-3.75 v -0.65625 l -1.4375,0.109375 v 0.3125 c 0.703125,0 0.78125,0.0625 0.78125,0.5 v 4.65625 C 1.0625,1.625 0.953125,1.625 0.28125,1.625 V 1.9375 C 0.625,1.921875 1.140625,1.90625 1.390625,1.90625 c 0.28125,0 0.78125,0.015625 1.125,0.03125 V 1.625 C 1.859375,1.625 1.75,1.625 1.75,1.171875 V -0.59375 c 0.046875,0.171875 0.46875,0.703125 1.21875,0.703125 1.1875,0 2.21875,-0.984375 2.21875,-2.265625 0,-1.265625 -0.953125,-2.25 -2.078125,-2.25 -0.78125,0 -1.203125,0.4375 -1.390625,0.65625 z M 1.75,-1.140625 v -2.21875 C 2.03125,-3.875 2.515625,-4.15625 3.03125,-4.15625 c 0.734375,0 1.328125,0.875 1.328125,2 0,1.203125 -0.6875,2.046875 -1.421875,2.046875 -0.40625,0 -0.78125,-0.203125 -1.046875,-0.609375 C 1.75,-0.921875 1.75,-0.9375 1.75,-1.140625 Z m 0,0"
             style="fill:#0064c8;fill-opacity:1;stroke:none;stroke-width:0"
             inkscape:connector-curvature="0" />
        </g>
        <g
           id="g4662"
           style="fill:#0064c8;fill-opacity:1">
          <path
             id="path4654"
             transform="translate(154.52617,134.765)"
             d="M 1.109375,-2.515625 C 1.171875,-4 2.015625,-4.25 2.359375,-4.25 c 1.015625,0 1.125,1.34375 1.125,1.734375 z m 0,0.21875 h 2.78125 c 0.21875,0 0.25,0 0.25,-0.21875 0,-0.984375 -0.546875,-1.953125 -1.78125,-1.953125 -1.15625,0 -2.078125,1.03125 -2.078125,2.28125 0,1.328125 1.046875,2.296875 2.1875,2.296875 C 3.6875,0.109375 4.140625,-1 4.140625,-1.1875 4.140625,-1.28125 4.0625,-1.3125 4,-1.3125 c -0.078125,0 -0.109375,0.0625 -0.125,0.140625 -0.34375,1.03125 -1.25,1.03125 -1.34375,1.03125 -0.5,0 -0.890625,-0.296875 -1.125,-0.671875 -0.296875,-0.46875 -0.296875,-1.125 -0.296875,-1.484375 z m 0,0"
             style="fill:#0064c8;fill-opacity:1;stroke:none;stroke-width:0"
             inkscape:connector-curvature="0" />
          <path
             id="path4656"
             transform="translate(158.95355,134.765)"
             d="M 1.671875,-3.3125 V -4.40625 L 0.28125,-4.296875 v 0.3125 c 0.703125,0 0.78125,0.0625 0.78125,0.5625 V -0.75 c 0,0.4375 -0.109375,0.4375 -0.78125,0.4375 V 0 c 0.390625,-0.015625 0.859375,-0.03125 1.140625,-0.03125 0.390625,0 0.859375,0 1.265625,0.03125 V -0.3125 H 2.46875 c -0.734375,0 -0.75,-0.109375 -0.75,-0.46875 V -2.3125 c 0,-0.984375 0.421875,-1.875 1.171875,-1.875 0.0625,0 0.09375,0 0.109375,0.015625 -0.03125,0 -0.234375,0.125 -0.234375,0.390625 0,0.265625 0.21875,0.421875 0.4375,0.421875 0.171875,0 0.421875,-0.125 0.421875,-0.4375 0,-0.3125 -0.3125,-0.609375 -0.734375,-0.609375 -0.734375,0 -1.09375,0.671875 -1.21875,1.09375 z m 0,0"
             style="fill:#0064c8;fill-opacity:1;stroke:none;stroke-width:0"
             inkscape:connector-curvature="0" />
          <path
             id="path4658"
             transform="translate(162.8559,134.765)"
             d="m 1.71875,-3.75 v -0.65625 l -1.4375,0.109375 v 0.3125 c 0.703125,0 0.78125,0.0625 0.78125,0.5 v 4.65625 C 1.0625,1.625 0.953125,1.625 0.28125,1.625 V 1.9375 C 0.625,1.921875 1.140625,1.90625 1.390625,1.90625 c 0.28125,0 0.78125,0.015625 1.125,0.03125 V 1.625 C 1.859375,1.625 1.75,1.625 1.75,1.171875 V -0.59375 c 0.046875,0.171875 0.46875,0.703125 1.21875,0.703125 1.1875,0 2.21875,-0.984375 2.21875,-2.265625 0,-1.265625 -0.953125,-2.25 -2.078125,-2.25 -0.78125,0 -1.203125,0.4375 -1.390625,0.65625 z M 1.75,-1.140625 v -2.21875 C 2.03125,-3.875 2.515625,-4.15625 3.03125,-4.15625 c 0.734375,0 1.328125,0.875 1.328125,2 0,1.203125 -0.6875,2.046875 -1.421875,2.046875 -0.40625,0 -0.78125,-0.203125 -1.046875,-0.609375 C 1.75,-0.921875 1.75,-0.9375 1.75,-1.140625 Z m 0,0"
             style="fill:#0064c8;fill-opacity:1;stroke:none;stroke-width:0"
             inkscape:connector-curvature="0" />
          <path
             id="path4660"
             transform="translate(168.39112,134.765)"
             d="m 3.296875,2.390625 c 0,-0.03125 0,-0.046875 -0.171875,-0.21875 C 1.890625,0.921875 1.5625,-0.96875 1.5625,-2.5 c 0,-1.734375 0.375,-3.46875 1.609375,-4.703125 0.125,-0.125 0.125,-0.140625 0.125,-0.171875 0,-0.078125 -0.03125,-0.109375 -0.09375,-0.109375 -0.109375,0 -1,0.6875 -1.59375,1.953125 -0.5,1.09375 -0.625,2.203125 -0.625,3.03125 0,0.78125 0.109375,1.984375 0.65625,3.125 C 2.25,1.84375 3.09375,2.5 3.203125,2.5 c 0.0625,0 0.09375,-0.03125 0.09375,-0.109375 z m 0,0"
             style="fill:#0064c8;fill-opacity:1;stroke:none;stroke-width:0"
             inkscape:connector-curvature="0" />
        </g>
        <g
           id="g4666"
           style="fill:#0064c8;fill-opacity:1">
          <path
             id="path4664"
             transform="translate(172.263,134.765)"
             d="m 5.046875,-3.75 c 0.0625,-0.140625 0.09375,-0.203125 0.734375,-0.203125 v -0.46875 C 5.53125,-4.40625 5.25,-4.390625 5,-4.390625 c -0.25,0 -0.703125,-0.03125 -0.90625,-0.03125 v 0.46875 c 0.1875,0 0.46875,0.03125 0.46875,0.109375 0,0 0,0.03125 -0.046875,0.109375 l -1.15625,2.5 -1.265625,-2.71875 H 2.625 v -0.46875 c -0.328125,0.015625 -1.21875,0.03125 -1.234375,0.03125 -0.28125,0 -0.71875,-0.03125 -1.125,-0.03125 v 0.46875 h 0.625 l 1.75,3.75 c 0.125,0.25 0.25,0.25 0.375,0.25 0.171875,0 0.28125,-0.03125 0.375,-0.25 z m 0,0"
             style="fill:#0064c8;fill-opacity:1;stroke:none;stroke-width:0"
             inkscape:connector-curvature="0" />
        </g>
        <g
           id="g4670"
           style="fill:#0064c8;fill-opacity:1">
          <path
             id="path4668"
             transform="translate(178.469,134.765)"
             d="m 1.578125,-7.125 c 0,-0.171875 0,-0.359375 -0.1875,-0.359375 -0.203125,0 -0.203125,0.1875 -0.203125,0.359375 v 9.265625 c 0,0.171875 0,0.359375 0.203125,0.359375 0.1875,0 0.1875,-0.1875 0.1875,-0.359375 z m 0,0"
             style="fill:#0064c8;fill-opacity:1;stroke:none;stroke-width:0"
             inkscape:connector-curvature="0" />
        </g>
        <g
           id="g4674"
           style="fill:#0064c8;fill-opacity:1">
          <path
             id="path4672"
             transform="translate(181.236,134.765)"
             d="M 4.359375,-0.71875 V 0.0625 L 6.125,0 v -0.46875 c -0.609375,0 -0.6875,0 -0.6875,-0.390625 v -3.625 L 3.625,-4.40625 v 0.46875 c 0.609375,0 0.6875,0 0.6875,0.390625 v 1.90625 c 0,0.8125 -0.515625,1.34375 -1.234375,1.34375 -0.78125,0 -0.8125,-0.25 -0.8125,-0.796875 v -3.390625 l -1.8125,0.078125 v 0.46875 c 0.609375,0 0.6875,0 0.6875,0.390625 v 2.328125 c 0,1.0625 0.796875,1.28125 1.796875,1.28125 0.25,0 0.96875,0 1.421875,-0.78125 z m 0,0"
             style="fill:#0064c8;fill-opacity:1;stroke:none;stroke-width:0"
             inkscape:connector-curvature="0" />
        </g>
        <g
           id="g4678"
           style="fill:#0064c8;fill-opacity:1">
          <path
             id="path4676"
             transform="translate(187.601,134.765)"
             d="m 2.875,-2.5 c 0,-0.765625 -0.109375,-1.96875 -0.65625,-3.109375 -0.59375,-1.21875 -1.453125,-1.875 -1.546875,-1.875 -0.0625,0 -0.109375,0.046875 -0.109375,0.109375 0,0.03125 0,0.046875 0.1875,0.234375 0.984375,0.984375 1.546875,2.5625 1.546875,4.640625 0,1.71875 -0.359375,3.46875 -1.59375,4.71875 C 0.5625,2.34375 0.5625,2.359375 0.5625,2.390625 0.5625,2.453125 0.609375,2.5 0.671875,2.5 0.765625,2.5 1.671875,1.8125 2.25,0.546875 2.765625,-0.546875 2.875,-1.65625 2.875,-2.5 Z m 0,0"
             style="fill:#0064c8;fill-opacity:1;stroke:none;stroke-width:0"
             inkscape:connector-curvature="0" />
        </g>
      </g>
    </g>
    <g
       id="g4873"
       style="fill:#7f96e1;fill-opacity:1"
       ns1:jacobian_sqrt="0.529167"
       inkscapeversion="0.92.4"
       ns1:alignment="middle center"
       ns1:scale="1.5"
       ns1:preamble="C:\\Users\\shawn\\AppData\\Roaming\\inkscape\\extensions\\textext\\default_packages.tex"
       ns1:text="$\\|\\mathbf{v}\\|\\sin\\theta$"
       ns1:pdfconverter="pdf2svg"
       ns1:texconverter="pdflatex"
       ns1:version="0.11.0"
       transform="matrix(0.529167,0,0,0.529167,-12.367136,178.25038)">
      <g
         style="fill:#7f96e1;fill-opacity:1"
         id="g4871">
        <g
           id="g4849"
           style="fill:#7f96e1;fill-opacity:1">
          <path
             id="path4847"
             transform="translate(148.712,134.765)"
             d="m 1.71875,-7.140625 c 0,-0.15625 0,-0.34375 -0.203125,-0.34375 -0.203125,0 -0.203125,0.234375 -0.203125,0.375 V 2.125 c 0,0.15625 0,0.375 0.203125,0.375 C 1.71875,2.5 1.71875,2.3125 1.71875,2.15625 Z m 1.9375,0.03125 c 0,-0.15625 0,-0.375 -0.203125,-0.375 -0.1875,0 -0.1875,0.1875 -0.1875,0.34375 V 2.15625 c 0,0.15625 0,0.34375 0.1875,0.34375 C 3.65625,2.5 3.65625,2.265625 3.65625,2.125 Z m 0,0"
             style="fill:#7f96e1;fill-opacity:1;stroke:none;stroke-width:0"
             inkscape:connector-curvature="0" />
        </g>
        <g
           id="g4853"
           style="fill:#7f96e1;fill-opacity:1">
          <path
             id="path4851"
             transform="translate(153.694,134.765)"
             d="m 5.046875,-3.75 c 0.0625,-0.140625 0.09375,-0.203125 0.734375,-0.203125 v -0.46875 C 5.53125,-4.40625 5.25,-4.390625 5,-4.390625 c -0.25,0 -0.703125,-0.03125 -0.90625,-0.03125 v 0.46875 c 0.1875,0 0.46875,0.03125 0.46875,0.109375 0,0 0,0.03125 -0.046875,0.109375 l -1.15625,2.5 -1.265625,-2.71875 H 2.625 v -0.46875 c -0.328125,0.015625 -1.21875,0.03125 -1.234375,0.03125 -0.28125,0 -0.71875,-0.03125 -1.125,-0.03125 v 0.46875 h 0.625 l 1.75,3.75 c 0.125,0.25 0.25,0.25 0.375,0.25 0.171875,0 0.28125,-0.03125 0.375,-0.25 z m 0,0"
             style="fill:#7f96e1;fill-opacity:1;stroke:none;stroke-width:0"
             inkscape:connector-curvature="0" />
        </g>
        <g
           id="g4857"
           style="fill:#7f96e1;fill-opacity:1">
          <path
             id="path4855"
             transform="translate(159.9,134.765)"
             d="m 1.71875,-7.140625 c 0,-0.15625 0,-0.34375 -0.203125,-0.34375 -0.203125,0 -0.203125,0.234375 -0.203125,0.375 V 2.125 c 0,0.15625 0,0.375 0.203125,0.375 C 1.71875,2.5 1.71875,2.3125 1.71875,2.15625 Z m 1.9375,0.03125 c 0,-0.15625 0,-0.375 -0.203125,-0.375 -0.1875,0 -0.1875,0.1875 -0.1875,0.34375 V 2.15625 c 0,0.15625 0,0.34375 0.1875,0.34375 C 3.65625,2.5 3.65625,2.265625 3.65625,2.125 Z m 0,0"
             style="fill:#7f96e1;fill-opacity:1;stroke:none;stroke-width:0"
             inkscape:connector-curvature="0" />
        </g>
        <g
           id="g4865"
           style="fill:#7f96e1;fill-opacity:1">
          <path
             id="path4859"
             transform="translate(166.541,134.765)"
             d="m 2.078125,-1.9375 c 0.21875,0.046875 1.03125,0.203125 1.03125,0.921875 0,0.5 -0.34375,0.90625 -1.125,0.90625 -0.84375,0 -1.203125,-0.5625 -1.390625,-1.421875 C 0.5625,-1.65625 0.5625,-1.6875 0.453125,-1.6875 c -0.125,0 -0.125,0.0625 -0.125,0.234375 V -0.125 c 0,0.171875 0,0.234375 0.109375,0.234375 0.046875,0 0.0625,-0.015625 0.25,-0.203125 0.015625,-0.015625 0.015625,-0.03125 0.203125,-0.21875 0.4375,0.40625 0.890625,0.421875 1.09375,0.421875 1.140625,0 1.609375,-0.671875 1.609375,-1.390625 0,-0.515625 -0.296875,-0.828125 -0.421875,-0.9375 C 2.84375,-2.546875 2.453125,-2.625 2.03125,-2.703125 1.46875,-2.8125 0.8125,-2.9375 0.8125,-3.515625 c 0,-0.359375 0.25,-0.765625 1.109375,-0.765625 1.09375,0 1.15625,0.90625 1.171875,1.203125 0,0.09375 0.09375,0.09375 0.109375,0.09375 0.140625,0 0.140625,-0.046875 0.140625,-0.234375 v -1.015625 c 0,-0.15625 0,-0.234375 -0.109375,-0.234375 -0.046875,0 -0.078125,0 -0.203125,0.125 -0.03125,0.03125 -0.125,0.125 -0.171875,0.15625 -0.375,-0.28125 -0.78125,-0.28125 -0.9375,-0.28125 -1.21875,0 -1.59375,0.671875 -1.59375,1.234375 0,0.34375 0.15625,0.625 0.421875,0.84375 0.328125,0.25 0.609375,0.3125 1.328125,0.453125 z m 0,0"
             style="fill:#7f96e1;fill-opacity:1;stroke:none;stroke-width:0"
             inkscape:connector-curvature="0" />
          <path
             id="path4861"
             transform="translate(170.47025,134.765)"
             d="M 1.765625,-4.40625 0.375,-4.296875 v 0.3125 c 0.640625,0 0.734375,0.0625 0.734375,0.546875 V -0.75 c 0,0.4375 -0.109375,0.4375 -0.78125,0.4375 V 0 C 0.640625,-0.015625 1.1875,-0.03125 1.421875,-0.03125 1.78125,-0.03125 2.125,-0.015625 2.46875,0 v -0.3125 c -0.671875,0 -0.703125,-0.046875 -0.703125,-0.4375 z m 0.03125,-1.734375 c 0,-0.3125 -0.234375,-0.53125 -0.515625,-0.53125 -0.3125,0 -0.53125,0.265625 -0.53125,0.53125 0,0.265625 0.21875,0.53125 0.53125,0.53125 0.28125,0 0.515625,-0.21875 0.515625,-0.53125 z m 0,0"
             style="fill:#7f96e1;fill-opacity:1;stroke:none;stroke-width:0"
             inkscape:connector-curvature="0" />
          <path
             id="path4863"
             transform="translate(173.23786,134.765)"
             d="M 1.09375,-3.421875 V -0.75 c 0,0.4375 -0.109375,0.4375 -0.78125,0.4375 V 0 c 0.359375,-0.015625 0.859375,-0.03125 1.140625,-0.03125 0.25,0 0.765625,0.015625 1.109375,0.03125 v -0.3125 c -0.671875,0 -0.78125,0 -0.78125,-0.4375 V -2.59375 C 1.78125,-3.625 2.5,-4.1875 3.125,-4.1875 c 0.640625,0 0.75,0.53125 0.75,1.109375 V -0.75 c 0,0.4375 -0.109375,0.4375 -0.78125,0.4375 V 0 c 0.34375,-0.015625 0.859375,-0.03125 1.125,-0.03125 0.25,0 0.78125,0.015625 1.109375,0.03125 v -0.3125 c -0.515625,0 -0.765625,0 -0.765625,-0.296875 v -1.90625 c 0,-0.859375 0,-1.15625 -0.3125,-1.515625 -0.140625,-0.171875 -0.46875,-0.375 -1.046875,-0.375 C 2.46875,-4.40625 2,-3.984375 1.71875,-3.359375 V -4.40625 L 0.3125,-4.296875 v 0.3125 c 0.703125,0 0.78125,0.0625 0.78125,0.5625 z m 0,0"
             style="fill:#7f96e1;fill-opacity:1;stroke:none;stroke-width:0"
             inkscape:connector-curvature="0" />
        </g>
        <g
           id="g4869"
           style="fill:#7f96e1;fill-opacity:1">
          <path
             id="path4867"
             transform="translate(180.434,134.765)"
             d="m 4.53125,-4.984375 c 0,-0.65625 -0.171875,-2.046875 -1.1875,-2.046875 -1.390625,0 -2.921875,2.8125 -2.921875,5.09375 0,0.9375 0.28125,2.046875 1.1875,2.046875 1.40625,0 2.921875,-2.859375 2.921875,-5.09375 z M 1.46875,-3.625 C 1.640625,-4.25 1.84375,-5.046875 2.25,-5.765625 2.515625,-6.25 2.875,-6.8125 3.328125,-6.8125 c 0.484375,0 0.546875,0.640625 0.546875,1.203125 0,0.5 -0.078125,1 -0.3125,1.984375 z m 2,0.328125 C 3.359375,-2.84375 3.15625,-2 2.765625,-1.28125 c -0.34375,0.6875 -0.71875,1.171875 -1.15625,1.171875 -0.328125,0 -0.53125,-0.296875 -0.53125,-1.21875 0,-0.421875 0.0625,-1 0.3125,-1.96875 z m 0,0"
             style="fill:#7f96e1;fill-opacity:1;stroke:none;stroke-width:0"
             inkscape:connector-curvature="0" />
        </g>
      </g>
    </g>
    <g
       id="g5546"
       style="fill:#7f96e1;fill-opacity:1;stroke:#7f96e1;stroke-opacity:1"
       ns1:jacobian_sqrt="0.529167"
       inkscapeversion="0.92.4"
       ns1:alignment="middle center"
       ns1:scale="1.5000000567"
       ns1:preamble="C:\\Users\\shawn\\AppData\\Roaming\\inkscape\\extensions\\textext\\default_packages.tex"
       ns1:text="$= \\frac{\\|\\mathbf{u} \\times \\mathbf{v}\\|}{\\|\\mathbf{u}\\|}$"
       ns1:pdfconverter="pdf2svg"
       ns1:texconverter="pdflatex"
       ns1:version="0.11.0"
       transform="matrix(0.529167,0,0,0.529167,-7.299327,184.92941)">
      <g
         style="fill:#7f96e1;fill-opacity:1;stroke:#7f96e1;stroke-opacity:1"
         id="g5544">
        <g
           id="g5508"
           style="fill:#7f96e1;fill-opacity:1;stroke:#7f96e1;stroke-opacity:1">
          <path
             id="path5506"
             transform="translate(148.712,134.864)"
             d="m 6.84375,-3.265625 c 0.15625,0 0.34375,0 0.34375,-0.1875 C 7.1875,-3.65625 7,-3.65625 6.859375,-3.65625 h -5.96875 c -0.140625,0 -0.328125,0 -0.328125,0.203125 0,0.1875 0.1875,0.1875 0.328125,0.1875 z m 0.015625,1.9375 c 0.140625,0 0.328125,0 0.328125,-0.203125 0,-0.1875 -0.1875,-0.1875 -0.34375,-0.1875 H 0.890625 c -0.140625,0 -0.328125,0 -0.328125,0.1875 0,0.203125 0.1875,0.203125 0.328125,0.203125 z m 0,0"
             style="fill:#7f96e1;fill-opacity:1;stroke:#7f96e1;stroke-width:0;stroke-opacity:1"
             inkscape:connector-curvature="0" />
        </g>
        <g
           id="g5512"
           style="fill:#7f96e1;fill-opacity:1;stroke:#7f96e1;stroke-opacity:1">
          <path
             id="path5510"
             transform="translate(160.424,130.032)"
             d="m 1.4375,-4.96875 c 0,-0.09375 0,-0.25 -0.171875,-0.25 -0.171875,0 -0.171875,0.171875 -0.171875,0.296875 V 1.4375 c 0,0.125 0,0.296875 0.171875,0.296875 0.171875,0 0.171875,-0.15625 0.171875,-0.265625 z m 1.53125,0.046875 c 0,-0.125 0,-0.296875 -0.171875,-0.296875 -0.15625,0 -0.15625,0.15625 -0.15625,0.25 v 6.4375 c 0,0.109375 0,0.265625 0.15625,0.265625 0.171875,0 0.171875,-0.171875 0.171875,-0.296875 z m 0,0"
             style="fill:#7f96e1;fill-opacity:1;stroke:#7f96e1;stroke-width:0;stroke-opacity:1"
             inkscape:connector-curvature="0" />
        </g>
        <g
           id="g5516"
           style="fill:#7f96e1;fill-opacity:1;stroke:#7f96e1;stroke-opacity:1">
          <path
             id="path5514"
             transform="translate(164.506,130.032)"
             d="M 2.90625,-3.078125 V -2.6875 c 0.421875,0 0.46875,0 0.46875,0.265625 V -1.125 c 0,0.578125 -0.4375,0.84375 -0.96875,0.84375 -0.59375,0 -0.609375,-0.15625 -0.609375,-0.484375 v -2.375 l -1.34375,0.0625 V -2.6875 c 0.40625,0 0.453125,0 0.453125,0.265625 v 1.578125 c 0,0.8125 0.78125,0.890625 1.375,0.890625 0.234375,0 0.75,0 1.140625,-0.5 v 0.5 L 4.734375,0 v -0.390625 c -0.40625,0 -0.46875,0 -0.46875,-0.265625 v -2.484375 z m 0,0"
             style="fill:#7f96e1;fill-opacity:1;stroke:#7f96e1;stroke-width:0;stroke-opacity:1"
             inkscape:connector-curvature="0" />
        </g>
        <g
           id="g5520"
           style="fill:#7f96e1;fill-opacity:1;stroke:#7f96e1;stroke-opacity:1">
          <path
             id="path5518"
             transform="translate(169.515,130.032)"
             d="m 4.875,-3.265625 c 0.078125,-0.078125 0.09375,-0.125 0.09375,-0.171875 0,-0.109375 -0.078125,-0.171875 -0.15625,-0.171875 -0.078125,0 -0.09375,0.015625 -0.171875,0.109375 l -1.53125,1.515625 -1.53125,-1.53125 c -0.078125,-0.0625 -0.09375,-0.09375 -0.15625,-0.09375 -0.109375,0 -0.1875,0.078125 -0.1875,0.171875 0,0.0625 0.03125,0.078125 0.109375,0.171875 L 2.859375,-1.75 1.34375,-0.234375 C 1.25,-0.125 1.234375,-0.09375 1.234375,-0.0625 c 0,0.109375 0.078125,0.1875 0.1875,0.1875 0.0625,0 0.078125,-0.03125 0.15625,-0.109375 L 3.109375,-1.5 4.703125,0.078125 C 4.734375,0.109375 4.765625,0.125 4.8125,0.125 c 0.078125,0 0.15625,-0.0625 0.15625,-0.1875 0,-0.046875 0,-0.0625 -0.03125,-0.078125 -0.015625,-0.03125 -1.359375,-1.390625 -1.578125,-1.59375 z m 0,0"
             style="fill:#7f96e1;fill-opacity:1;stroke:#7f96e1;stroke-width:0;stroke-opacity:1"
             inkscape:connector-curvature="0" />
        </g>
        <g
           id="g5524"
           style="fill:#7f96e1;fill-opacity:1;stroke:#7f96e1;stroke-opacity:1">
          <path
             id="path5522"
             transform="translate(175.741,130.032)"
             d="m 4,-2.578125 c 0.046875,-0.09375 0.046875,-0.109375 0.1875,-0.125 0.09375,0 0.265625,0 0.3125,0 V -3.09375 C 4.28125,-3.078125 4.140625,-3.0625 3.921875,-3.0625 3.703125,-3.0625 3.4375,-3.078125 3.21875,-3.09375 v 0.390625 c 0.1875,0 0.234375,0.015625 0.3125,0.046875 l -0.9375,1.828125 -0.953125,-1.875 H 1.96875 V -3.09375 C 1.671875,-3.078125 1.359375,-3.0625 1.0625,-3.0625 0.796875,-3.0625 0.515625,-3.078125 0.25,-3.09375 v 0.390625 H 0.703125 L 2,-0.15625 c 0.09375,0.1875 0.171875,0.203125 0.375,0.203125 0.203125,0 0.265625,-0.015625 0.375,-0.203125 z m 0,0"
             style="fill:#7f96e1;fill-opacity:1;stroke:#7f96e1;stroke-width:0;stroke-opacity:1"
             inkscape:connector-curvature="0" />
        </g>
        <g
           id="g5528"
           style="fill:#7f96e1;fill-opacity:1;stroke:#7f96e1;stroke-opacity:1">
          <path
             id="path5526"
             transform="translate(180.627,130.032)"
             d="m 1.4375,-4.96875 c 0,-0.09375 0,-0.25 -0.171875,-0.25 -0.171875,0 -0.171875,0.171875 -0.171875,0.296875 V 1.4375 c 0,0.125 0,0.296875 0.171875,0.296875 0.171875,0 0.171875,-0.15625 0.171875,-0.265625 z m 1.53125,0.046875 c 0,-0.125 0,-0.296875 -0.171875,-0.296875 -0.15625,0 -0.15625,0.15625 -0.15625,0.25 v 6.4375 c 0,0.109375 0,0.265625 0.15625,0.265625 0.171875,0 0.171875,-0.171875 0.171875,-0.296875 z m 0,0"
             style="fill:#7f96e1;fill-opacity:1;stroke:#7f96e1;stroke-width:0;stroke-opacity:1"
             inkscape:connector-curvature="0" />
        </g>
        <path
           id="path5530"
           transform="matrix(1,0,0,-1,160.424,132.374)"
           d="M 0.00178125,-0.001 H 24.286937"
           style="fill:#7f96e1;fill-opacity:1;stroke:#7f96e1;stroke-width:0.398;stroke-linecap:butt;stroke-linejoin:miter;stroke-miterlimit:10;stroke-opacity:1"
           inkscape:connector-curvature="0" />
        <g
           id="g5534"
           style="fill:#7f96e1;fill-opacity:1;stroke:#7f96e1;stroke-opacity:1">
          <path
             id="path5532"
             transform="translate(165.98,138.3)"
             d="m 1.4375,-4.96875 c 0,-0.09375 0,-0.25 -0.171875,-0.25 -0.171875,0 -0.171875,0.171875 -0.171875,0.296875 V 1.4375 c 0,0.125 0,0.296875 0.171875,0.296875 0.171875,0 0.171875,-0.15625 0.171875,-0.265625 z m 1.53125,0.046875 c 0,-0.125 0,-0.296875 -0.171875,-0.296875 -0.15625,0 -0.15625,0.15625 -0.15625,0.25 v 6.4375 c 0,0.109375 0,0.265625 0.15625,0.265625 0.171875,0 0.171875,-0.171875 0.171875,-0.296875 z m 0,0"
             style="fill:#7f96e1;fill-opacity:1;stroke:#7f96e1;stroke-width:0;stroke-opacity:1"
             inkscape:connector-curvature="0" />
        </g>
        <g
           id="g5538"
           style="fill:#7f96e1;fill-opacity:1;stroke:#7f96e1;stroke-opacity:1">
          <path
             id="path5536"
             transform="translate(170.062,138.3)"
             d="M 2.90625,-3.078125 V -2.6875 c 0.421875,0 0.46875,0 0.46875,0.265625 V -1.125 c 0,0.578125 -0.4375,0.84375 -0.96875,0.84375 -0.59375,0 -0.609375,-0.15625 -0.609375,-0.484375 v -2.375 l -1.34375,0.0625 V -2.6875 c 0.40625,0 0.453125,0 0.453125,0.265625 v 1.578125 c 0,0.8125 0.78125,0.890625 1.375,0.890625 0.234375,0 0.75,0 1.140625,-0.5 v 0.5 L 4.734375,0 v -0.390625 c -0.40625,0 -0.46875,0 -0.46875,-0.265625 v -2.484375 z m 0,0"
             style="fill:#7f96e1;fill-opacity:1;stroke:#7f96e1;stroke-width:0;stroke-opacity:1"
             inkscape:connector-curvature="0" />
        </g>
        <g
           id="g5542"
           style="fill:#7f96e1;fill-opacity:1;stroke:#7f96e1;stroke-opacity:1">
          <path
             id="path5540"
             transform="translate(175.071,138.3)"
             d="m 1.4375,-4.96875 c 0,-0.09375 0,-0.25 -0.171875,-0.25 -0.171875,0 -0.171875,0.171875 -0.171875,0.296875 V 1.4375 c 0,0.125 0,0.296875 0.171875,0.296875 0.171875,0 0.171875,-0.15625 0.171875,-0.265625 z m 1.53125,0.046875 c 0,-0.125 0,-0.296875 -0.171875,-0.296875 -0.15625,0 -0.15625,0.15625 -0.15625,0.25 v 6.4375 c 0,0.109375 0,0.265625 0.15625,0.265625 0.171875,0 0.171875,-0.171875 0.171875,-0.296875 z m 0,0"
             style="fill:#7f96e1;fill-opacity:1;stroke:#7f96e1;stroke-width:0;stroke-opacity:1"
             inkscape:connector-curvature="0" />
        </g>
      </g>
    </g>
    <g
       id="g1416"
       style="stroke:#0064c8;fill:#0064c8;stroke-opacity:1;fill-opacity:1"
       ns1:jacobian_sqrt="0.529167"
       inkscapeversion="0.92.4"
       ns1:alignment="middle center"
       ns1:scale="1.5"
       ns1:preamble="C:\\Users\\shawn\\AppData\\Roaming\\inkscape\\extensions\\textext\\default_packages.tex"
       ns1:text="$= \\frac{\\mathbf{u} \\times \\mathbf{v}}{\\|\\mathbf{u}\\|} \\times \\frac{\\mathbf{u}}{\\|\\mathbf{u}\\|} = \\frac{(\\mathbf{u} \\times \\mathbf{v}) \\times \\mathbf{u}}{\\mathbf{u} \\bullet \\mathbf{u}}$"
       ns1:pdfconverter="pdf2svg"
       ns1:texconverter="pdflatex"
       ns1:version="0.11.0"
       transform="matrix(0.529167,0.000000,0.000000,0.529167,-19.068439,163.996370)">
      <g
         style="stroke:#0064c8;fill:#0064c8;stroke-opacity:1;fill-opacity:1"
         id="g1414">
        <g
           id="g1318"
           style="stroke:#0064c8;fill-opacity:1;stroke-opacity:1;fill:#0064c8">
          <path
             id="path1316"
             transform="translate(148.712,134.864)"
             d="M 6.84375 -3.265625 C 7 -3.265625 7.1875 -3.265625 7.1875 -3.453125 C 7.1875 -3.65625 7 -3.65625 6.859375 -3.65625 L 0.890625 -3.65625 C 0.75 -3.65625 0.5625 -3.65625 0.5625 -3.453125 C 0.5625 -3.265625 0.75 -3.265625 0.890625 -3.265625 Z M 6.859375 -1.328125 C 7 -1.328125 7.1875 -1.328125 7.1875 -1.53125 C 7.1875 -1.71875 7 -1.71875 6.84375 -1.71875 L 0.890625 -1.71875 C 0.75 -1.71875 0.5625 -1.71875 0.5625 -1.53125 C 0.5625 -1.328125 0.75 -1.328125 0.890625 -1.328125 Z M 6.859375 -1.328125 "
             style="fill-opacity:1;stroke:#0064c8;stroke-width:0;stroke-opacity:1;fill:#0064c8" />
        </g>
        <g
           id="g1322"
           style="stroke:#0064c8;fill-opacity:1;stroke-opacity:1;fill:#0064c8">
          <path
             id="path1320"
             transform="translate(160.424,130.942)"
             d="M 2.90625 -3.078125 L 2.90625 -2.6875 C 3.328125 -2.6875 3.375 -2.6875 3.375 -2.421875 L 3.375 -1.125 C 3.375 -0.546875 2.9375 -0.28125 2.40625 -0.28125 C 1.8125 -0.28125 1.796875 -0.4375 1.796875 -0.765625 L 1.796875 -3.140625 L 0.453125 -3.078125 L 0.453125 -2.6875 C 0.859375 -2.6875 0.90625 -2.6875 0.90625 -2.421875 L 0.90625 -0.84375 C 0.90625 -0.03125 1.6875 0.046875 2.28125 0.046875 C 2.515625 0.046875 3.03125 0.046875 3.421875 -0.453125 L 3.421875 0.046875 L 4.734375 0 L 4.734375 -0.390625 C 4.328125 -0.390625 4.265625 -0.390625 4.265625 -0.65625 L 4.265625 -3.140625 Z M 2.90625 -3.078125 "
             style="fill-opacity:1;stroke:#0064c8;stroke-width:0;stroke-opacity:1;fill:#0064c8" />
        </g>
        <g
           id="g1326"
           style="stroke:#0064c8;fill-opacity:1;stroke-opacity:1;fill:#0064c8">
          <path
             id="path1324"
             transform="translate(165.433,130.942)"
             d="M 4.875 -3.265625 C 4.953125 -3.34375 4.96875 -3.390625 4.96875 -3.4375 C 4.96875 -3.546875 4.890625 -3.609375 4.8125 -3.609375 C 4.734375 -3.609375 4.71875 -3.59375 4.640625 -3.5 L 3.109375 -1.984375 L 1.578125 -3.515625 C 1.5 -3.578125 1.484375 -3.609375 1.421875 -3.609375 C 1.3125 -3.609375 1.234375 -3.53125 1.234375 -3.4375 C 1.234375 -3.375 1.265625 -3.359375 1.34375 -3.265625 L 2.859375 -1.75 L 1.34375 -0.234375 C 1.25 -0.125 1.234375 -0.09375 1.234375 -0.0625 C 1.234375 0.046875 1.3125 0.125 1.421875 0.125 C 1.484375 0.125 1.5 0.09375 1.578125 0.015625 L 3.109375 -1.5 L 4.703125 0.078125 C 4.734375 0.109375 4.765625 0.125 4.8125 0.125 C 4.890625 0.125 4.96875 0.0625 4.96875 -0.0625 C 4.96875 -0.109375 4.96875 -0.125 4.9375 -0.140625 C 4.921875 -0.171875 3.578125 -1.53125 3.359375 -1.734375 Z M 4.875 -3.265625 "
             style="fill-opacity:1;stroke:#0064c8;stroke-width:0;stroke-opacity:1;fill:#0064c8" />
        </g>
        <g
           id="g1330"
           style="stroke:#0064c8;fill-opacity:1;stroke-opacity:1;fill:#0064c8">
          <path
             id="path1328"
             transform="translate(171.66,130.942)"
             d="M 4 -2.578125 C 4.046875 -2.671875 4.046875 -2.6875 4.1875 -2.703125 C 4.28125 -2.703125 4.453125 -2.703125 4.5 -2.703125 L 4.5 -3.09375 C 4.28125 -3.078125 4.140625 -3.0625 3.921875 -3.0625 C 3.703125 -3.0625 3.4375 -3.078125 3.21875 -3.09375 L 3.21875 -2.703125 C 3.40625 -2.703125 3.453125 -2.6875 3.53125 -2.65625 L 2.59375 -0.828125 L 1.640625 -2.703125 L 1.96875 -2.703125 L 1.96875 -3.09375 C 1.671875 -3.078125 1.359375 -3.0625 1.0625 -3.0625 C 0.796875 -3.0625 0.515625 -3.078125 0.25 -3.09375 L 0.25 -2.703125 L 0.703125 -2.703125 L 2 -0.15625 C 2.09375 0.03125 2.171875 0.046875 2.375 0.046875 C 2.578125 0.046875 2.640625 0.03125 2.75 -0.15625 Z M 4 -2.578125 "
             style="fill-opacity:1;stroke:#0064c8;stroke-width:0;stroke-opacity:1;fill:#0064c8" />
        </g>
        <path
           id="path1332"
           transform="matrix(1,0,0,-1,160.424,132.374)"
           d="M 0.00178125 -0.001 L 16.122875 -0.001 "
           style="stroke-linejoin:miter;stroke-opacity:1;fill-opacity:1;stroke:#0064c8;stroke-linecap:butt;stroke-miterlimit:10;stroke-width:0.398;fill:#0064c8" />
        <g
           id="g1336"
           style="stroke:#0064c8;fill-opacity:1;stroke-opacity:1;fill:#0064c8">
          <path
             id="path1334"
             transform="translate(161.898,138.3)"
             d="M 1.4375 -4.96875 C 1.4375 -5.0625 1.4375 -5.21875 1.265625 -5.21875 C 1.09375 -5.21875 1.09375 -5.046875 1.09375 -4.921875 L 1.09375 1.4375 C 1.09375 1.5625 1.09375 1.734375 1.265625 1.734375 C 1.4375 1.734375 1.4375 1.578125 1.4375 1.46875 Z M 2.96875 -4.921875 C 2.96875 -5.046875 2.96875 -5.21875 2.796875 -5.21875 C 2.640625 -5.21875 2.640625 -5.0625 2.640625 -4.96875 L 2.640625 1.46875 C 2.640625 1.578125 2.640625 1.734375 2.796875 1.734375 C 2.96875 1.734375 2.96875 1.5625 2.96875 1.4375 Z M 2.96875 -4.921875 "
             style="fill-opacity:1;stroke:#0064c8;stroke-width:0;stroke-opacity:1;fill:#0064c8" />
        </g>
        <g
           id="g1340"
           style="stroke:#0064c8;fill-opacity:1;stroke-opacity:1;fill:#0064c8">
          <path
             id="path1338"
             transform="translate(165.98,138.3)"
             d="M 2.90625 -3.078125 L 2.90625 -2.6875 C 3.328125 -2.6875 3.375 -2.6875 3.375 -2.421875 L 3.375 -1.125 C 3.375 -0.546875 2.9375 -0.28125 2.40625 -0.28125 C 1.8125 -0.28125 1.796875 -0.4375 1.796875 -0.765625 L 1.796875 -3.140625 L 0.453125 -3.078125 L 0.453125 -2.6875 C 0.859375 -2.6875 0.90625 -2.6875 0.90625 -2.421875 L 0.90625 -0.84375 C 0.90625 -0.03125 1.6875 0.046875 2.28125 0.046875 C 2.515625 0.046875 3.03125 0.046875 3.421875 -0.453125 L 3.421875 0.046875 L 4.734375 0 L 4.734375 -0.390625 C 4.328125 -0.390625 4.265625 -0.390625 4.265625 -0.65625 L 4.265625 -3.140625 Z M 2.90625 -3.078125 "
             style="fill-opacity:1;stroke:#0064c8;stroke-width:0;stroke-opacity:1;fill:#0064c8" />
        </g>
        <g
           id="g1344"
           style="stroke:#0064c8;fill-opacity:1;stroke-opacity:1;fill:#0064c8">
          <path
             id="path1342"
             transform="translate(170.989,138.3)"
             d="M 1.4375 -4.96875 C 1.4375 -5.0625 1.4375 -5.21875 1.265625 -5.21875 C 1.09375 -5.21875 1.09375 -5.046875 1.09375 -4.921875 L 1.09375 1.4375 C 1.09375 1.5625 1.09375 1.734375 1.265625 1.734375 C 1.4375 1.734375 1.4375 1.578125 1.4375 1.46875 Z M 2.96875 -4.921875 C 2.96875 -5.046875 2.96875 -5.21875 2.796875 -5.21875 C 2.640625 -5.21875 2.640625 -5.0625 2.640625 -4.96875 L 2.640625 1.46875 C 2.640625 1.578125 2.640625 1.734375 2.796875 1.734375 C 2.96875 1.734375 2.96875 1.5625 2.96875 1.4375 Z M 2.96875 -4.921875 "
             style="fill-opacity:1;stroke:#0064c8;stroke-width:0;stroke-opacity:1;fill:#0064c8" />
        </g>
        <g
           id="g1348"
           style="stroke:#0064c8;fill-opacity:1;stroke-opacity:1;fill:#0064c8">
          <path
             id="path1346"
             transform="translate(179.954,134.864)"
             d="M 3.875 -2.765625 L 1.890625 -4.75 C 1.765625 -4.875 1.75 -4.890625 1.671875 -4.890625 C 1.5625 -4.890625 1.46875 -4.8125 1.46875 -4.6875 C 1.46875 -4.625 1.484375 -4.609375 1.59375 -4.5 L 3.59375 -2.5 L 1.59375 -0.484375 C 1.484375 -0.375 1.46875 -0.359375 1.46875 -0.296875 C 1.46875 -0.171875 1.5625 -0.09375 1.671875 -0.09375 C 1.75 -0.09375 1.765625 -0.109375 1.890625 -0.234375 L 3.875 -2.21875 L 5.9375 -0.15625 C 5.953125 -0.140625 6.015625 -0.09375 6.078125 -0.09375 C 6.203125 -0.09375 6.28125 -0.171875 6.28125 -0.296875 C 6.28125 -0.3125 6.28125 -0.34375 6.25 -0.40625 C 6.234375 -0.421875 4.65625 -1.984375 4.15625 -2.5 L 5.984375 -4.3125 C 6.03125 -4.375 6.1875 -4.5 6.234375 -4.5625 C 6.234375 -4.578125 6.28125 -4.625 6.28125 -4.6875 C 6.28125 -4.8125 6.203125 -4.890625 6.078125 -4.890625 C 6 -4.890625 5.96875 -4.859375 5.859375 -4.75 Z M 3.875 -2.765625 "
             style="fill-opacity:1;stroke:#0064c8;stroke-width:0;stroke-opacity:1;fill:#0064c8" />
        </g>
        <g
           id="g1352"
           style="stroke:#0064c8;fill-opacity:1;stroke-opacity:1;fill:#0064c8">
          <path
             id="path1350"
             transform="translate(195.194,130.942)"
             d="M 2.90625 -3.078125 L 2.90625 -2.6875 C 3.328125 -2.6875 3.375 -2.6875 3.375 -2.421875 L 3.375 -1.125 C 3.375 -0.546875 2.9375 -0.28125 2.40625 -0.28125 C 1.8125 -0.28125 1.796875 -0.4375 1.796875 -0.765625 L 1.796875 -3.140625 L 0.453125 -3.078125 L 0.453125 -2.6875 C 0.859375 -2.6875 0.90625 -2.6875 0.90625 -2.421875 L 0.90625 -0.84375 C 0.90625 -0.03125 1.6875 0.046875 2.28125 0.046875 C 2.515625 0.046875 3.03125 0.046875 3.421875 -0.453125 L 3.421875 0.046875 L 4.734375 0 L 4.734375 -0.390625 C 4.328125 -0.390625 4.265625 -0.390625 4.265625 -0.65625 L 4.265625 -3.140625 Z M 2.90625 -3.078125 "
             style="fill-opacity:1;stroke:#0064c8;stroke-width:0;stroke-opacity:1;fill:#0064c8" />
        </g>
        <path
           id="path1354"
           transform="matrix(1,0,0,-1,191.112,132.374)"
           d="M 0.00128125 -0.001 L 13.173156 -0.001 "
           style="stroke-linejoin:miter;stroke-opacity:1;fill-opacity:1;stroke:#0064c8;stroke-linecap:butt;stroke-miterlimit:10;stroke-width:0.398;fill:#0064c8" />
        <g
           id="g1358"
           style="stroke:#0064c8;fill-opacity:1;stroke-opacity:1;fill:#0064c8">
          <path
             id="path1356"
             transform="translate(191.112,138.3)"
             d="M 1.4375 -4.96875 C 1.4375 -5.0625 1.4375 -5.21875 1.265625 -5.21875 C 1.09375 -5.21875 1.09375 -5.046875 1.09375 -4.921875 L 1.09375 1.4375 C 1.09375 1.5625 1.09375 1.734375 1.265625 1.734375 C 1.4375 1.734375 1.4375 1.578125 1.4375 1.46875 Z M 2.96875 -4.921875 C 2.96875 -5.046875 2.96875 -5.21875 2.796875 -5.21875 C 2.640625 -5.21875 2.640625 -5.0625 2.640625 -4.96875 L 2.640625 1.46875 C 2.640625 1.578125 2.640625 1.734375 2.796875 1.734375 C 2.96875 1.734375 2.96875 1.5625 2.96875 1.4375 Z M 2.96875 -4.921875 "
             style="fill-opacity:1;stroke:#0064c8;stroke-width:0;stroke-opacity:1;fill:#0064c8" />
        </g>
        <g
           id="g1362"
           style="stroke:#0064c8;fill-opacity:1;stroke-opacity:1;fill:#0064c8">
          <path
             id="path1360"
             transform="translate(195.194,138.3)"
             d="M 2.90625 -3.078125 L 2.90625 -2.6875 C 3.328125 -2.6875 3.375 -2.6875 3.375 -2.421875 L 3.375 -1.125 C 3.375 -0.546875 2.9375 -0.28125 2.40625 -0.28125 C 1.8125 -0.28125 1.796875 -0.4375 1.796875 -0.765625 L 1.796875 -3.140625 L 0.453125 -3.078125 L 0.453125 -2.6875 C 0.859375 -2.6875 0.90625 -2.6875 0.90625 -2.421875 L 0.90625 -0.84375 C 0.90625 -0.03125 1.6875 0.046875 2.28125 0.046875 C 2.515625 0.046875 3.03125 0.046875 3.421875 -0.453125 L 3.421875 0.046875 L 4.734375 0 L 4.734375 -0.390625 C 4.328125 -0.390625 4.265625 -0.390625 4.265625 -0.65625 L 4.265625 -3.140625 Z M 2.90625 -3.078125 "
             style="fill-opacity:1;stroke:#0064c8;stroke-width:0;stroke-opacity:1;fill:#0064c8" />
        </g>
        <g
           id="g1366"
           style="stroke:#0064c8;fill-opacity:1;stroke-opacity:1;fill:#0064c8">
          <path
             id="path1364"
             transform="translate(200.203,138.3)"
             d="M 1.4375 -4.96875 C 1.4375 -5.0625 1.4375 -5.21875 1.265625 -5.21875 C 1.09375 -5.21875 1.09375 -5.046875 1.09375 -4.921875 L 1.09375 1.4375 C 1.09375 1.5625 1.09375 1.734375 1.265625 1.734375 C 1.4375 1.734375 1.4375 1.578125 1.4375 1.46875 Z M 2.96875 -4.921875 C 2.96875 -5.046875 2.96875 -5.21875 2.796875 -5.21875 C 2.640625 -5.21875 2.640625 -5.0625 2.640625 -4.96875 L 2.640625 1.46875 C 2.640625 1.578125 2.640625 1.734375 2.796875 1.734375 C 2.96875 1.734375 2.96875 1.5625 2.96875 1.4375 Z M 2.96875 -4.921875 "
             style="fill-opacity:1;stroke:#0064c8;stroke-width:0;stroke-opacity:1;fill:#0064c8" />
        </g>
        <g
           id="g1370"
           style="stroke:#0064c8;fill-opacity:1;stroke-opacity:1;fill:#0064c8">
          <path
             id="path1368"
             transform="translate(208.248,134.864)"
             d="M 6.84375 -3.265625 C 7 -3.265625 7.1875 -3.265625 7.1875 -3.453125 C 7.1875 -3.65625 7 -3.65625 6.859375 -3.65625 L 0.890625 -3.65625 C 0.75 -3.65625 0.5625 -3.65625 0.5625 -3.453125 C 0.5625 -3.265625 0.75 -3.265625 0.890625 -3.265625 Z M 6.859375 -1.328125 C 7 -1.328125 7.1875 -1.328125 7.1875 -1.53125 C 7.1875 -1.71875 7 -1.71875 6.84375 -1.71875 L 0.890625 -1.71875 C 0.75 -1.71875 0.5625 -1.71875 0.5625 -1.53125 C 0.5625 -1.328125 0.75 -1.328125 0.890625 -1.328125 Z M 6.859375 -1.328125 "
             style="fill-opacity:1;stroke:#0064c8;stroke-width:0;stroke-opacity:1;fill:#0064c8" />
        </g>
        <g
           id="g1374"
           style="stroke:#0064c8;fill-opacity:1;stroke-opacity:1;fill:#0064c8">
          <path
             id="path1372"
             transform="translate(219.959,130.032)"
             d="M 2.46875 -5.21875 C 1.15625 -4.296875 0.796875 -2.8125 0.796875 -1.75 C 0.796875 -0.765625 1.09375 0.765625 2.46875 1.734375 C 2.53125 1.734375 2.609375 1.734375 2.609375 1.65625 C 2.609375 1.609375 2.59375 1.59375 2.546875 1.546875 C 1.609375 0.703125 1.28125 -0.46875 1.28125 -1.734375 C 1.28125 -3.625 2 -4.546875 2.5625 -5.0625 C 2.59375 -5.09375 2.609375 -5.109375 2.609375 -5.140625 C 2.609375 -5.21875 2.53125 -5.21875 2.46875 -5.21875 Z M 2.46875 -5.21875 "
             style="fill-opacity:1;stroke:#0064c8;stroke-width:0;stroke-opacity:1;fill:#0064c8" />
        </g>
        <g
           id="g1378"
           style="stroke:#0064c8;fill-opacity:1;stroke-opacity:1;fill:#0064c8">
          <path
             id="path1376"
             transform="translate(223.073,130.032)"
             d="M 2.90625 -3.078125 L 2.90625 -2.6875 C 3.328125 -2.6875 3.375 -2.6875 3.375 -2.421875 L 3.375 -1.125 C 3.375 -0.546875 2.9375 -0.28125 2.40625 -0.28125 C 1.8125 -0.28125 1.796875 -0.4375 1.796875 -0.765625 L 1.796875 -3.140625 L 0.453125 -3.078125 L 0.453125 -2.6875 C 0.859375 -2.6875 0.90625 -2.6875 0.90625 -2.421875 L 0.90625 -0.84375 C 0.90625 -0.03125 1.6875 0.046875 2.28125 0.046875 C 2.515625 0.046875 3.03125 0.046875 3.421875 -0.453125 L 3.421875 0.046875 L 4.734375 0 L 4.734375 -0.390625 C 4.328125 -0.390625 4.265625 -0.390625 4.265625 -0.65625 L 4.265625 -3.140625 Z M 2.90625 -3.078125 "
             style="fill-opacity:1;stroke:#0064c8;stroke-width:0;stroke-opacity:1;fill:#0064c8" />
        </g>
        <g
           id="g1382"
           style="stroke:#0064c8;fill-opacity:1;stroke-opacity:1;fill:#0064c8">
          <path
             id="path1380"
             transform="translate(228.082,130.032)"
             d="M 4.875 -3.265625 C 4.953125 -3.34375 4.96875 -3.390625 4.96875 -3.4375 C 4.96875 -3.546875 4.890625 -3.609375 4.8125 -3.609375 C 4.734375 -3.609375 4.71875 -3.59375 4.640625 -3.5 L 3.109375 -1.984375 L 1.578125 -3.515625 C 1.5 -3.578125 1.484375 -3.609375 1.421875 -3.609375 C 1.3125 -3.609375 1.234375 -3.53125 1.234375 -3.4375 C 1.234375 -3.375 1.265625 -3.359375 1.34375 -3.265625 L 2.859375 -1.75 L 1.34375 -0.234375 C 1.25 -0.125 1.234375 -0.09375 1.234375 -0.0625 C 1.234375 0.046875 1.3125 0.125 1.421875 0.125 C 1.484375 0.125 1.5 0.09375 1.578125 0.015625 L 3.109375 -1.5 L 4.703125 0.078125 C 4.734375 0.109375 4.765625 0.125 4.8125 0.125 C 4.890625 0.125 4.96875 0.0625 4.96875 -0.0625 C 4.96875 -0.109375 4.96875 -0.125 4.9375 -0.140625 C 4.921875 -0.171875 3.578125 -1.53125 3.359375 -1.734375 Z M 4.875 -3.265625 "
             style="fill-opacity:1;stroke:#0064c8;stroke-width:0;stroke-opacity:1;fill:#0064c8" />
        </g>
        <g
           id="g1386"
           style="stroke:#0064c8;fill-opacity:1;stroke-opacity:1;fill:#0064c8">
          <path
             id="path1384"
             transform="translate(234.308,130.032)"
             d="M 4 -2.578125 C 4.046875 -2.671875 4.046875 -2.6875 4.1875 -2.703125 C 4.28125 -2.703125 4.453125 -2.703125 4.5 -2.703125 L 4.5 -3.09375 C 4.28125 -3.078125 4.140625 -3.0625 3.921875 -3.0625 C 3.703125 -3.0625 3.4375 -3.078125 3.21875 -3.09375 L 3.21875 -2.703125 C 3.40625 -2.703125 3.453125 -2.6875 3.53125 -2.65625 L 2.59375 -0.828125 L 1.640625 -2.703125 L 1.96875 -2.703125 L 1.96875 -3.09375 C 1.671875 -3.078125 1.359375 -3.0625 1.0625 -3.0625 C 0.796875 -3.0625 0.515625 -3.078125 0.25 -3.09375 L 0.25 -2.703125 L 0.703125 -2.703125 L 2 -0.15625 C 2.09375 0.03125 2.171875 0.046875 2.375 0.046875 C 2.578125 0.046875 2.640625 0.03125 2.75 -0.15625 Z M 4 -2.578125 "
             style="fill-opacity:1;stroke:#0064c8;stroke-width:0;stroke-opacity:1;fill:#0064c8" />
        </g>
        <g
           id="g1390"
           style="stroke:#0064c8;fill-opacity:1;stroke-opacity:1;fill:#0064c8">
          <path
             id="path1388"
             transform="translate(239.194,130.032)"
             d="M 0.625 -5.21875 C 0.578125 -5.21875 0.5 -5.21875 0.5 -5.140625 C 0.5 -5.109375 0.515625 -5.09375 0.5625 -5.03125 C 1.15625 -4.484375 1.828125 -3.546875 1.828125 -1.75 C 1.828125 -0.296875 1.375 0.8125 0.625 1.484375 C 0.5 1.609375 0.5 1.609375 0.5 1.65625 C 0.5 1.6875 0.515625 1.734375 0.578125 1.734375 C 0.671875 1.734375 1.328125 1.28125 1.796875 0.40625 C 2.09375 -0.171875 2.296875 -0.921875 2.296875 -1.734375 C 2.296875 -2.71875 2 -4.25 0.625 -5.21875 Z M 0.625 -5.21875 "
             style="fill-opacity:1;stroke:#0064c8;stroke-width:0;stroke-opacity:1;fill:#0064c8" />
        </g>
        <g
           id="g1394"
           style="stroke:#0064c8;fill-opacity:1;stroke-opacity:1;fill:#0064c8">
          <path
             id="path1392"
             transform="translate(242.307,130.032)"
             d="M 4.875 -3.265625 C 4.953125 -3.34375 4.96875 -3.390625 4.96875 -3.4375 C 4.96875 -3.546875 4.890625 -3.609375 4.8125 -3.609375 C 4.734375 -3.609375 4.71875 -3.59375 4.640625 -3.5 L 3.109375 -1.984375 L 1.578125 -3.515625 C 1.5 -3.578125 1.484375 -3.609375 1.421875 -3.609375 C 1.3125 -3.609375 1.234375 -3.53125 1.234375 -3.4375 C 1.234375 -3.375 1.265625 -3.359375 1.34375 -3.265625 L 2.859375 -1.75 L 1.34375 -0.234375 C 1.25 -0.125 1.234375 -0.09375 1.234375 -0.0625 C 1.234375 0.046875 1.3125 0.125 1.421875 0.125 C 1.484375 0.125 1.5 0.09375 1.578125 0.015625 L 3.109375 -1.5 L 4.703125 0.078125 C 4.734375 0.109375 4.765625 0.125 4.8125 0.125 C 4.890625 0.125 4.96875 0.0625 4.96875 -0.0625 C 4.96875 -0.109375 4.96875 -0.125 4.9375 -0.140625 C 4.921875 -0.171875 3.578125 -1.53125 3.359375 -1.734375 Z M 4.875 -3.265625 "
             style="fill-opacity:1;stroke:#0064c8;stroke-width:0;stroke-opacity:1;fill:#0064c8" />
        </g>
        <g
           id="g1398"
           style="stroke:#0064c8;fill-opacity:1;stroke-opacity:1;fill:#0064c8">
          <path
             id="path1396"
             transform="translate(248.534,130.032)"
             d="M 2.90625 -3.078125 L 2.90625 -2.6875 C 3.328125 -2.6875 3.375 -2.6875 3.375 -2.421875 L 3.375 -1.125 C 3.375 -0.546875 2.9375 -0.28125 2.40625 -0.28125 C 1.8125 -0.28125 1.796875 -0.4375 1.796875 -0.765625 L 1.796875 -3.140625 L 0.453125 -3.078125 L 0.453125 -2.6875 C 0.859375 -2.6875 0.90625 -2.6875 0.90625 -2.421875 L 0.90625 -0.84375 C 0.90625 -0.03125 1.6875 0.046875 2.28125 0.046875 C 2.515625 0.046875 3.03125 0.046875 3.421875 -0.453125 L 3.421875 0.046875 L 4.734375 0 L 4.734375 -0.390625 C 4.328125 -0.390625 4.265625 -0.390625 4.265625 -0.65625 L 4.265625 -3.140625 Z M 2.90625 -3.078125 "
             style="fill-opacity:1;stroke:#0064c8;stroke-width:0;stroke-opacity:1;fill:#0064c8" />
        </g>
        <path
           id="path1400"
           transform="matrix(1,0,0,-1,219.959,132.374)"
           d="M 0.0019375 -0.001 L 33.583969 -0.001 "
           style="stroke-linejoin:miter;stroke-opacity:1;fill-opacity:1;stroke:#0064c8;stroke-linecap:butt;stroke-miterlimit:10;stroke-width:0.398;fill:#0064c8" />
        <g
           id="g1404"
           style="stroke:#0064c8;fill-opacity:1;stroke-opacity:1;fill:#0064c8">
          <path
             id="path1402"
             transform="translate(229.701,138.3)"
             d="M 2.90625 -3.078125 L 2.90625 -2.6875 C 3.328125 -2.6875 3.375 -2.6875 3.375 -2.421875 L 3.375 -1.125 C 3.375 -0.546875 2.9375 -0.28125 2.40625 -0.28125 C 1.8125 -0.28125 1.796875 -0.4375 1.796875 -0.765625 L 1.796875 -3.140625 L 0.453125 -3.078125 L 0.453125 -2.6875 C 0.859375 -2.6875 0.90625 -2.6875 0.90625 -2.421875 L 0.90625 -0.84375 C 0.90625 -0.03125 1.6875 0.046875 2.28125 0.046875 C 2.515625 0.046875 3.03125 0.046875 3.421875 -0.453125 L 3.421875 0.046875 L 4.734375 0 L 4.734375 -0.390625 C 4.328125 -0.390625 4.265625 -0.390625 4.265625 -0.65625 L 4.265625 -3.140625 Z M 2.90625 -3.078125 "
             style="fill-opacity:1;stroke:#0064c8;stroke-width:0;stroke-opacity:1;fill:#0064c8" />
        </g>
        <g
           id="g1408"
           style="stroke:#0064c8;fill-opacity:1;stroke-opacity:1;fill:#0064c8">
          <path
             id="path1406"
             transform="translate(234.71,138.3)"
             d="M 3.53125 -1.734375 C 3.53125 -2.578125 2.859375 -3.234375 2.03125 -3.234375 C 1.203125 -3.234375 0.53125 -2.5625 0.53125 -1.75 C 0.53125 -0.90625 1.21875 -0.25 2.03125 -0.25 C 2.875 -0.25 3.53125 -0.921875 3.53125 -1.734375 Z M 3.53125 -1.734375 "
             style="fill-opacity:1;stroke:#0064c8;stroke-width:0;stroke-opacity:1;fill:#0064c8" />
        </g>
        <g
           id="g1412"
           style="stroke:#0064c8;fill-opacity:1;stroke-opacity:1;fill:#0064c8">
          <path
             id="path1410"
             transform="translate(238.792,138.3)"
             d="M 2.90625 -3.078125 L 2.90625 -2.6875 C 3.328125 -2.6875 3.375 -2.6875 3.375 -2.421875 L 3.375 -1.125 C 3.375 -0.546875 2.9375 -0.28125 2.40625 -0.28125 C 1.8125 -0.28125 1.796875 -0.4375 1.796875 -0.765625 L 1.796875 -3.140625 L 0.453125 -3.078125 L 0.453125 -2.6875 C 0.859375 -2.6875 0.90625 -2.6875 0.90625 -2.421875 L 0.90625 -0.84375 C 0.90625 -0.03125 1.6875 0.046875 2.28125 0.046875 C 2.515625 0.046875 3.03125 0.046875 3.421875 -0.453125 L 3.421875 0.046875 L 4.734375 0 L 4.734375 -0.390625 C 4.328125 -0.390625 4.265625 -0.390625 4.265625 -0.65625 L 4.265625 -3.140625 Z M 2.90625 -3.078125 "
             style="fill-opacity:1;stroke:#0064c8;stroke-width:0;stroke-opacity:1;fill:#0064c8" />
        </g>
      </g>
    </g>
  </g>
</svg>
