<?xml version="1.0" encoding="UTF-8" standalone="no"?>
<!-- Created with Inkscape (http://www.inkscape.org/) -->

<svg
   xmlns:ns1="http://www.iki.fi/pav/software/textext/"
   xmlns:dc="http://purl.org/dc/elements/1.1/"
   xmlns:cc="http://creativecommons.org/ns#"
   xmlns:rdf="http://www.w3.org/1999/02/22-rdf-syntax-ns#"
   xmlns:svg="http://www.w3.org/2000/svg"
   xmlns="http://www.w3.org/2000/svg"
   xmlns:sodipodi="http://sodipodi.sourceforge.net/DTD/sodipodi-0.dtd"
   xmlns:inkscape="http://www.inkscape.org/namespaces/inkscape"
   width="130mm"
   height="120mm"
   viewBox="0 0 130 120"
   version="1.1"
   id="svg8"
   inkscape:version="0.92.4 (5da689c313, 2019-01-14)"
   sodipodi:docname="path_surface_intersections_and_path_endpoints.svg">
  <sodipodi:namedview
     id="base"
     pagecolor="#ffffff"
     bordercolor="#666666"
     borderopacity="1.0"
     inkscape:pageopacity="0.0"
     inkscape:pageshadow="2"
     inkscape:zoom="0.98994949"
     inkscape:cx="493.4351"
     inkscape:cy="233.28489"
     inkscape:document-units="mm"
     inkscape:current-layer="layer1"
     showgrid="true"
     inkscape:window-width="1920"
     inkscape:window-height="1017"
     inkscape:window-x="-8"
     inkscape:window-y="-8"
     inkscape:window-maximized="1"
     inkscape:snap-global="false"
     inkscape:snap-object-midpoints="true">
    <inkscape:grid
       type="xygrid"
       id="grid4485"
       units="mm"
       spacingx="1"
       spacingy="1" />
  </sodipodi:namedview>
  <defs
     id="defs2">
    <marker
       inkscape:stockid="Arrow1Mend"
       orient="auto"
       refY="0"
       refX="0"
       id="marker6612"
       style="overflow:visible"
       inkscape:isstock="true">
      <path
         id="path6610"
         d="M 0,0 5,-5 -12.5,0 5,5 Z"
         style="fill:#000000;fill-opacity:1;fill-rule:evenodd;stroke:#000000;stroke-width:1.00000003pt;stroke-opacity:1"
         transform="matrix(-0.4,0,0,-0.4,-4,0)"
         inkscape:connector-curvature="0" />
    </marker>
    <marker
       inkscape:stockid="Arrow1Mend"
       orient="auto"
       refY="0"
       refX="0"
       id="marker6580"
       style="overflow:visible"
       inkscape:isstock="true">
      <path
         id="path6578"
         d="M 0,0 5,-5 -12.5,0 5,5 Z"
         style="fill:#000000;fill-opacity:1;fill-rule:evenodd;stroke:#000000;stroke-width:1.00000003pt;stroke-opacity:1"
         transform="matrix(-0.4,0,0,-0.4,-4,0)"
         inkscape:connector-curvature="0" />
    </marker>
    <marker
       inkscape:stockid="Arrow1Mend"
       orient="auto"
       refY="0"
       refX="0"
       id="marker5805"
       style="overflow:visible"
       inkscape:isstock="true">
      <path
         id="path5803"
         d="M 0,0 5,-5 -12.5,0 5,5 Z"
         style="fill:#000000;fill-opacity:1;fill-rule:evenodd;stroke:#000000;stroke-width:1.00000003pt;stroke-opacity:1"
         transform="matrix(-0.4,0,0,-0.4,-4,0)"
         inkscape:connector-curvature="0" />
    </marker>
    <marker
       inkscape:stockid="Arrow1Mend"
       orient="auto"
       refY="0"
       refX="0"
       id="Arrow1Mend"
       style="overflow:visible"
       inkscape:isstock="true">
      <path
         id="path4576"
         d="M 0,0 5,-5 -12.5,0 5,5 Z"
         style="fill:#000000;fill-opacity:1;fill-rule:evenodd;stroke:#000000;stroke-width:1.00000003pt;stroke-opacity:1"
         transform="matrix(-0.4,0,0,-0.4,-4,0)"
         inkscape:connector-curvature="0" />
    </marker>
    <marker
       inkscape:isstock="true"
       style="overflow:visible"
       id="Arrow1Send"
       refX="0"
       refY="0"
       orient="auto"
       inkscape:stockid="Arrow1Send">
      <path
         transform="matrix(-0.2,0,0,-0.2,-1.2,0)"
         style="fill:#7f7f7f;fill-opacity:1;fill-rule:evenodd;stroke:#7f7f7f;stroke-width:1.00000003pt;stroke-opacity:1"
         d="M 0,0 5,-5 -12.5,0 5,5 Z"
         id="path4582"
         inkscape:connector-curvature="0" />
    </marker>
    <marker
       inkscape:isstock="true"
       style="overflow:visible"
       id="Arrow1Send-2"
       refX="0"
       refY="0"
       orient="auto"
       inkscape:stockid="Arrow1Send">
      <path
         transform="matrix(-0.2,0,0,-0.2,-1.2,0)"
         style="fill:#7f7f7f;fill-opacity:1;fill-rule:evenodd;stroke:#7f7f7f;stroke-width:1.00000003pt;stroke-opacity:1"
         d="M 0,0 5,-5 -12.5,0 5,5 Z"
         id="path4582-3"
         inkscape:connector-curvature="0" />
    </marker>
    <marker
       inkscape:isstock="true"
       style="overflow:visible"
       id="Arrow1Send-0"
       refX="0"
       refY="0"
       orient="auto"
       inkscape:stockid="Arrow1Send">
      <path
         transform="matrix(-0.2,0,0,-0.2,-1.2,0)"
         style="fill:#7f7f7f;fill-opacity:1;fill-rule:evenodd;stroke:#7f7f7f;stroke-width:1.00000003pt;stroke-opacity:1"
         d="M 0,0 5,-5 -12.5,0 5,5 Z"
         id="path4582-8"
         inkscape:connector-curvature="0" />
    </marker>
    <marker
       inkscape:isstock="true"
       style="overflow:visible"
       id="Arrow1Send-5"
       refX="0"
       refY="0"
       orient="auto"
       inkscape:stockid="Arrow1Send">
      <path
         transform="matrix(-0.2,0,0,-0.2,-1.2,0)"
         style="fill:#7f7f7f;fill-opacity:1;fill-rule:evenodd;stroke:#7f7f7f;stroke-width:1.00000003pt;stroke-opacity:1"
         d="M 0,0 5,-5 -12.5,0 5,5 Z"
         id="path4582-7"
         inkscape:connector-curvature="0" />
    </marker>
    <marker
       inkscape:isstock="true"
       style="overflow:visible"
       id="Arrow1Send-2-1"
       refX="0"
       refY="0"
       orient="auto"
       inkscape:stockid="Arrow1Send">
      <path
         transform="matrix(-0.2,0,0,-0.2,-1.2,0)"
         style="fill:#7f7f7f;fill-opacity:1;fill-rule:evenodd;stroke:#7f7f7f;stroke-width:1.00000003pt;stroke-opacity:1"
         d="M 0,0 5,-5 -12.5,0 5,5 Z"
         id="path4582-3-9"
         inkscape:connector-curvature="0" />
    </marker>
  </defs>
  <metadata
     id="metadata5">
    <rdf:RDF>
      <cc:Work
         rdf:about="">
        <dc:format>image/svg+xml</dc:format>
        <dc:type
           rdf:resource="http://purl.org/dc/dcmitype/StillImage" />
        <dc:title></dc:title>
      </cc:Work>
    </rdf:RDF>
  </metadata>
  <g
     id="layer1"
     inkscape:groupmode="layer"
     inkscape:label="Layer 1"
     transform="translate(0,-177)">
    <g
       id="g_path_surface_intersection"
       transform="translate(-15,4.999982)">
      <path
         style="fill:none;stroke:#000000;stroke-width:0.25;stroke-linecap:butt;stroke-linejoin:miter;stroke-miterlimit:4;stroke-dasharray:1, 1;stroke-dashoffset:0;stroke-opacity:1"
         d="M 35,277 C 53.708865,272.45642 59.066564,265.99673 61.739261,258.78045 64.411954,251.56418 64.732731,248.68173 65,242"
         id="path4491"
         inkscape:connector-curvature="0"
         sodipodi:nodetypes="csc" />
      <path
         style="fill:none;stroke:#000000;stroke-width:0.25;stroke-linecap:butt;stroke-linejoin:miter;stroke-miterlimit:4;stroke-dasharray:1.00000003, 1.00000003;stroke-dashoffset:0;stroke-opacity:1"
         d="m 105,197 c 8.66365,8.12911 18.17457,1.27142 23.0221,-2.36423 C 132.29842,191.42854 138.93093,182.61266 140,177"
         id="path4493"
         inkscape:connector-curvature="0"
         sodipodi:nodetypes="csc" />
      <path
         style="fill:none;fill-opacity:0.49803922;stroke:#000000;stroke-width:0.25;stroke-linecap:butt;stroke-linejoin:miter;stroke-miterlimit:4;stroke-dasharray:none;stroke-dashoffset:0;stroke-opacity:1"
         d="M 20,267.00001 64.999999,177 H 135 l -15,90 z"
         id="path4487"
         inkscape:connector-curvature="0"
         sodipodi:nodetypes="ccccc" />
      <g
         id="g4541">
        <path
           sodipodi:nodetypes="csssc"
           inkscape:connector-curvature="0"
           id="path4489"
           d="m 65,242 c 0.53454,-18.4416 7.697313,-27.05175 11.171816,-29.72444 3.474506,-2.6727 6.414465,-2.13816 8.819893,-4.54359 2.405423,-2.40542 0.267269,-11.75985 2.939965,-15.50163 C 90.604368,188.48857 103.12911,191.65461 105,197"
           style="fill:none;stroke:#000000;stroke-width:2;stroke-linecap:butt;stroke-linejoin:miter;stroke-miterlimit:4;stroke-dasharray:none;stroke-opacity:1" />
        <path
           inkscape:connector-curvature="0"
           id="path4495-4"
           d="m 71.21081,230.79318 -2.486652,-6.61941 -6.619408,2.48666 10.752163,-11.59271 z"
           style="fill:#000000;fill-opacity:1;stroke:none;stroke-width:0.26458332px;stroke-linecap:butt;stroke-linejoin:miter;stroke-opacity:1" />
        <path
           inkscape:connector-curvature="0"
           id="path4495-5"
           d="m 90.884439,207.49877 -4.700096,-5.28291 -5.282906,4.7001 5.865715,-14.6831 z"
           style="fill:#000000;fill-opacity:1;stroke:none;stroke-width:0.26458332px;stroke-linecap:butt;stroke-linejoin:miter;stroke-opacity:1" />
      </g>
      <g
         id="g4554"
         transform="translate(50,40.000015)">
        <circle
           r="5"
           cy="201.99998"
           cx="15"
           id="path4543"
           style="opacity:1;fill:#ff0000;fill-opacity:1;stroke:none;stroke-width:2;stroke-miterlimit:4;stroke-dasharray:none;stroke-dashoffset:0;stroke-opacity:1" />
        <text
           id="text4549"
           y="205.59381"
           x="10.423512"
           style="font-style:normal;font-weight:normal;font-size:7.05555534px;line-height:1.25;font-family:sans-serif;letter-spacing:0px;word-spacing:0px;fill:#000000;fill-opacity:1;stroke:none;stroke-width:0.26458332"
           xml:space="preserve"><tspan
             style="font-size:11.28888893px;stroke-width:0.26458332"
             y="205.59381"
             x="10.423512"
             id="tspan4547"
             sodipodi:role="line">+</tspan></text>
      </g>
      <g
         id="g4563"
         transform="translate(90,-25)">
        <circle
           r="5"
           cy="222"
           cx="15"
           id="path4545"
           style="opacity:1;fill:#007f7f;fill-opacity:1;stroke:none;stroke-width:2;stroke-miterlimit:4;stroke-dasharray:none;stroke-dashoffset:0;stroke-opacity:1" />
        <text
           transform="scale(1.5903725,0.6287835)"
           id="text4558"
           y="358"
           x="6.2413669"
           style="font-style:normal;font-weight:normal;font-size:11.22096157px;line-height:1.25;font-family:sans-serif;letter-spacing:0px;word-spacing:0px;fill:#000000;fill-opacity:1;stroke:none;stroke-width:0.42078602"
           xml:space="preserve"><tspan
             style="font-size:17.95353889px;stroke-width:0.42078602"
             y="358"
             x="6.2413669"
             id="tspan4556"
             sodipodi:role="line">-</tspan></text>
      </g>
      <path
         style="fill:none;stroke:#7f7f7f;stroke-width:1;stroke-linecap:butt;stroke-linejoin:miter;stroke-miterlimit:4;stroke-dasharray:none;stroke-opacity:1;marker-end:url(#Arrow1Send)"
         d="M 105,252 V 242"
         id="path4565"
         inkscape:connector-curvature="0" />
      <path
         style="fill:none;stroke:#7f7f7f;stroke-width:1;stroke-linecap:butt;stroke-linejoin:miter;stroke-miterlimit:4;stroke-dasharray:none;stroke-opacity:1;marker-end:url(#Arrow1Send-2)"
         d="m 80,257.00001 v -10"
         id="path4565-8"
         inkscape:connector-curvature="0" />
      <path
         style="fill:none;stroke:#7f7f7f;stroke-width:1;stroke-linecap:butt;stroke-linejoin:miter;stroke-miterlimit:4;stroke-dasharray:none;stroke-opacity:1;marker-end:url(#Arrow1Send-0)"
         d="m 95,227.00001 v -10"
         id="path4565-7"
         inkscape:connector-curvature="0" />
      <path
         style="fill:none;stroke:#7f7f7f;stroke-width:1;stroke-linecap:butt;stroke-linejoin:miter;stroke-miterlimit:4;stroke-dasharray:none;stroke-opacity:1;marker-end:url(#Arrow1Send-5)"
         d="M 70,202 V 192"
         id="path4565-85"
         inkscape:connector-curvature="0" />
      <path
         style="fill:none;stroke:#7f7f7f;stroke-width:1;stroke-linecap:butt;stroke-linejoin:miter;stroke-miterlimit:4;stroke-dasharray:none;stroke-opacity:1;marker-end:url(#Arrow1Send-2-1)"
         d="m 45,257.00001 v -10"
         id="path4565-8-2"
         inkscape:connector-curvature="0" />
    </g>
    <path
       style="fill:none;stroke:#000000;stroke-width:0.5;stroke-linecap:butt;stroke-linejoin:miter;stroke-miterlimit:4;stroke-dasharray:1, 0.5;stroke-dashoffset:0;stroke-opacity:1;marker-end:url(#Arrow1Mend)"
       d="m 105,281.99999 -50.000001,-30"
       id="path5785"
       inkscape:connector-curvature="0"
       sodipodi:nodetypes="cc" />
    <path
       style="fill:none;stroke:#000000;stroke-width:0.5;stroke-linecap:butt;stroke-linejoin:miter;stroke-miterlimit:4;stroke-dasharray:1.00000003, 0.50000001;stroke-dashoffset:0;stroke-opacity:1;marker-end:url(#marker5805)"
       d="M 105,281.99999 91.336348,209.59456"
       id="path5787"
       inkscape:connector-curvature="0"
       sodipodi:nodetypes="cc" />
    <g
       id="g1209"
       ns1:jacobian_sqrt="1.411112"
       inkscapeversion="0.92.1"
       ns1:alignment="middle center"
       ns1:scale="4.0"
       ns1:preamble="C:\\Users\\shawn\\AppData\\Roaming\\inkscape\\extensions\\textext\\default_packages.tex"
       ns1:text="$\\mathbf{J}$"
       ns1:pdfconverter="pdf2svg"
       ns1:texconverter="pdflatex"
       ns1:version="0.11.0"
       transform="matrix(1.411112,0,0,1.411112,-146.80811,37.036839)">
      <g
         id="surface1">
        <g
           id="g1206"
           style="fill:#000000;fill-opacity:1">
          <path
             id="path1204"
             transform="translate(148.712,134.765)"
             d="M 4.453125,-6.375 H 5.25 V -6.84375 C 4.90625,-6.8125 4.0625,-6.8125 3.671875,-6.8125 c -0.53125,0 -1.515625,0 -1.984375,-0.03125 V -6.375 h 1.40625 v 4.890625 c 0,0.1875 0,1.234375 -0.984375,1.234375 -0.171875,0 -0.5,-0.03125 -0.796875,-0.15625 v -0.015625 c 0,0 0.4375,-0.1875 0.4375,-0.71875 0,-0.53125 -0.421875,-0.765625 -0.75,-0.765625 -0.375,0 -0.765625,0.25 -0.765625,0.765625 0,0.765625 0.78125,1.25 1.921875,1.25 1.328125,0 2.296875,-0.5625 2.296875,-1.609375 z m 0,0"
             style="stroke:none;stroke-width:0"
             inkscape:connector-curvature="0" />
        </g>
      </g>
    </g>
    <g
       id="g1348"
       ns1:jacobian_sqrt="1.411112"
       inkscapeversion="0.92.1"
       ns1:alignment="middle center"
       ns1:scale="4.0"
       ns1:preamble="C:\\Users\\shawn\\AppData\\Roaming\\inkscape\\extensions\\textext\\default_packages.tex"
       ns1:text="$\\nabla \\bullet \\mathbf{J}$"
       ns1:pdfconverter="pdf2svg"
       ns1:texconverter="pdflatex"
       ns1:version="0.11.0"
       transform="matrix(1.411112,0,0,1.411112,-123.09082,100.45095)">
      <g
         id="g1346">
        <g
           id="g1336"
           style="fill:#000000;fill-opacity:1">
          <path
             id="path1334"
             transform="translate(148.712,134.765)"
             d="M 7.78125,-6.59375 C 7.796875,-6.625 7.828125,-6.6875 7.828125,-6.734375 7.828125,-6.796875 7.8125,-6.8125 7.59375,-6.8125 H 0.703125 c -0.21875,0 -0.234375,0.015625 -0.234375,0.078125 0,0.046875 0.03125,0.109375 0.046875,0.140625 L 3.875,0.140625 c 0.078125,0.125 0.109375,0.1875 0.265625,0.1875 0.171875,0 0.203125,-0.0625 0.28125,-0.1875 z m -6.078125,0.5 h 5.46875 l -2.71875,5.484375 z m 0,0"
             style="stroke:none;stroke-width:0"
             inkscape:connector-curvature="0" />
        </g>
        <g
           id="g1340"
           style="fill:#000000;fill-opacity:1">
          <path
             id="path1338"
             transform="translate(159.22553,134.765)"
             d="m 4.421875,-2.5 c 0,-1.0625 -0.890625,-1.921875 -1.921875,-1.921875 -1.078125,0 -1.953125,0.890625 -1.953125,1.921875 0,1.0625 0.875,1.9375 1.953125,1.9375 1.03125,0 1.921875,-0.859375 1.921875,-1.9375 z m 0,0"
             style="stroke:none;stroke-width:0"
             inkscape:connector-curvature="0" />
        </g>
        <g
           id="g1344"
           style="fill:#000000;fill-opacity:1">
          <path
             id="path1342"
             transform="translate(166.424,134.765)"
             d="M 4.453125,-6.375 H 5.25 V -6.84375 C 4.90625,-6.8125 4.0625,-6.8125 3.671875,-6.8125 c -0.53125,0 -1.515625,0 -1.984375,-0.03125 V -6.375 h 1.40625 v 4.890625 c 0,0.1875 0,1.234375 -0.984375,1.234375 -0.171875,0 -0.5,-0.03125 -0.796875,-0.15625 v -0.015625 c 0,0 0.4375,-0.1875 0.4375,-0.71875 0,-0.53125 -0.421875,-0.765625 -0.75,-0.765625 -0.375,0 -0.765625,0.25 -0.765625,0.765625 0,0.765625 0.78125,1.25 1.921875,1.25 1.328125,0 2.296875,-0.5625 2.296875,-1.609375 z m 0,0"
             style="stroke:none;stroke-width:0"
             inkscape:connector-curvature="0" />
        </g>
      </g>
    </g>
    <g
       id="g1250"
       ns1:jacobian_sqrt="1.411112"
       inkscapeversion="0.92.4"
       ns1:alignment="middle center"
       ns1:scale="4.0"
       ns1:preamble="C:\\Users\\shawn\\AppData\\Roaming\\inkscape\\extensions\\textext\\default_packages.tex"
       ns1:text="$\\nabla$"
       ns1:pdfconverter="pdf2svg"
       ns1:texconverter="pdflatex"
       ns1:version="0.11.0"
       transform="matrix(1.411112,0,0,1.411112,-146.62731,-36.450561)" />
    <g
       transform="matrix(1.411112,0,0,1.411112,-186.87433,27.101521)"
       id="g1248">
      <g
         id="g1246"
         style="fill:#000000;fill-opacity:1">
        <path
           id="path1244"
           transform="translate(148.712,134.765)"
           d="M 7.78125,-6.59375 C 7.796875,-6.625 7.828125,-6.6875 7.828125,-6.734375 7.828125,-6.796875 7.8125,-6.8125 7.59375,-6.8125 H 0.703125 c -0.21875,0 -0.234375,0.015625 -0.234375,0.078125 0,0.046875 0.03125,0.109375 0.046875,0.140625 L 3.875,0.140625 c 0.078125,0.125 0.109375,0.1875 0.265625,0.1875 0.171875,0 0.203125,-0.0625 0.28125,-0.1875 z m -6.078125,0.5 h 5.46875 l -2.71875,5.484375 z m 0,0"
           style="stroke:none;stroke-width:0"
           inkscape:connector-curvature="0" />
      </g>
    </g>
    <g
       id="g1393"
       ns1:jacobian_sqrt="1.411111"
       inkscapeversion="0.92.4"
       ns1:alignment="middle center"
       ns1:scale="4.0"
       ns1:preamble="C:\\Users\\shawn\\AppData\\Roaming\\inkscape\\extensions\\textext\\default_packages.tex"
       ns1:text="$\\nabla$"
       ns1:pdfconverter="pdf2svg"
       ns1:texconverter="pdflatex"
       ns1:version="0.11.0"
       transform="matrix(1.411111,0,0,1.411111,-100.70305,-118.09329)">
      <g
         id="g1391">
        <g
           id="g1389"
           style="fill:#000000;fill-opacity:1">
          <path
             id="path1387"
             transform="translate(148.712,134.765)"
             d="M 7.78125,-6.59375 C 7.796875,-6.625 7.828125,-6.6875 7.828125,-6.734375 7.828125,-6.796875 7.8125,-6.8125 7.59375,-6.8125 H 0.703125 c -0.21875,0 -0.234375,0.015625 -0.234375,0.078125 0,0.046875 0.03125,0.109375 0.046875,0.140625 L 3.875,0.140625 c 0.078125,0.125 0.109375,0.1875 0.265625,0.1875 0.171875,0 0.203125,-0.0625 0.28125,-0.1875 z m -6.078125,0.5 h 5.46875 l -2.71875,5.484375 z m 0,0"
             style="stroke:none;stroke-width:0"
             inkscape:connector-curvature="0" />
        </g>
      </g>
    </g>
    <text
       xml:space="preserve"
       style="font-style:normal;font-weight:normal;font-size:11.28888893px;line-height:1.25;font-family:sans-serif;letter-spacing:0px;word-spacing:0px;fill:#000000;fill-opacity:1;stroke:none;stroke-width:0.26458332"
       x="52.117554"
       y="269.73853"
       id="text1410"><tspan
         sodipodi:role="line"
         id="tspan1408"
         x="52.117554"
         y="269.73853"
         style="font-size:7.05555534px;stroke-width:0.26458332">real</tspan></text>
    <text
       xml:space="preserve"
       style="font-style:normal;font-weight:normal;font-size:11.28888893px;line-height:1.25;font-family:sans-serif;letter-spacing:0px;word-spacing:0px;fill:#000000;fill-opacity:1;stroke:none;stroke-width:0.26458332"
       x="44.63401"
       y="278.82565"
       id="text1414"><tspan
         sodipodi:role="line"
         id="tspan1412"
         x="44.63401"
         y="278.82565"
         style="font-size:7.05555534px;stroke-width:0.26458332">not real</tspan></text>
  </g>
</svg>
