<?xml version="1.0" encoding="UTF-8" standalone="no"?>
<!-- Created with Inkscape (http://www.inkscape.org/) -->

<svg
   xmlns:dc="http://purl.org/dc/elements/1.1/"
   xmlns:cc="http://creativecommons.org/ns#"
   xmlns:rdf="http://www.w3.org/1999/02/22-rdf-syntax-ns#"
   xmlns:svg="http://www.w3.org/2000/svg"
   xmlns="http://www.w3.org/2000/svg"
   xmlns:sodipodi="http://sodipodi.sourceforge.net/DTD/sodipodi-0.dtd"
   xmlns:inkscape="http://www.inkscape.org/namespaces/inkscape"
   width="120mm"
   height="100mm"
   viewBox="0 0 120 100"
   version="1.1"
   id="svg8"
   inkscape:version="0.92.1 r15371"
   sodipodi:docname="identifying_the_counterclockwise_boundary.svg">
  <defs
     id="defs2">
    <marker
       inkscape:stockid="Arrow1Mend"
       orient="auto"
       refY="0"
       refX="0"
       id="Arrow1Mend"
       style="overflow:visible"
       inkscape:isstock="true">
      <path
         id="path4500"
         d="M 0,0 5,-5 -12.5,0 5,5 Z"
         style="fill:#00ff00;fill-opacity:1;fill-rule:evenodd;stroke:#00ff00;stroke-width:1.00000003pt;stroke-opacity:1"
         transform="matrix(-0.4,0,0,-0.4,-4,0)"
         inkscape:connector-curvature="0" />
    </marker>
    <marker
       inkscape:stockid="Arrow1Send"
       orient="auto"
       refY="0"
       refX="0"
       id="Arrow1Send"
       style="overflow:visible"
       inkscape:isstock="true">
      <path
         id="path4506"
         d="M 0,0 5,-5 -12.5,0 5,5 Z"
         style="fill:#ff0000;fill-opacity:1;fill-rule:evenodd;stroke:#ff0000;stroke-width:1.00000003pt;stroke-opacity:1"
         transform="matrix(-0.2,0,0,-0.2,-1.2,0)"
         inkscape:connector-curvature="0" />
    </marker>
    <marker
       inkscape:stockid="Arrow1Send"
       orient="auto"
       refY="0"
       refX="0"
       id="Arrow1Send-1"
       style="overflow:visible"
       inkscape:isstock="true">
      <path
         inkscape:connector-curvature="0"
         id="path4506-6"
         d="M 0,0 5,-5 -12.5,0 5,5 Z"
         style="fill:#ff0000;fill-opacity:1;fill-rule:evenodd;stroke:#ff0000;stroke-width:1.00000003pt;stroke-opacity:1"
         transform="matrix(-0.2,0,0,-0.2,-1.2,0)" />
    </marker>
    <marker
       inkscape:stockid="Arrow1Send"
       orient="auto"
       refY="0"
       refX="0"
       id="Arrow1Send-2"
       style="overflow:visible"
       inkscape:isstock="true">
      <path
         inkscape:connector-curvature="0"
         id="path4506-1"
         d="M 0,0 5,-5 -12.5,0 5,5 Z"
         style="fill:#ff0000;fill-opacity:1;fill-rule:evenodd;stroke:#ff0000;stroke-width:1.00000003pt;stroke-opacity:1"
         transform="matrix(-0.2,0,0,-0.2,-1.2,0)" />
    </marker>
    <marker
       inkscape:stockid="Arrow1Send"
       orient="auto"
       refY="0"
       refX="0"
       id="Arrow1Send-9"
       style="overflow:visible"
       inkscape:isstock="true">
      <path
         inkscape:connector-curvature="0"
         id="path4506-9"
         d="M 0,0 5,-5 -12.5,0 5,5 Z"
         style="fill:#ff0000;fill-opacity:1;fill-rule:evenodd;stroke:#ff0000;stroke-width:1.00000003pt;stroke-opacity:1"
         transform="matrix(-0.2,0,0,-0.2,-1.2,0)" />
    </marker>
  </defs>
  <sodipodi:namedview
     id="base"
     pagecolor="#ffffff"
     bordercolor="#666666"
     borderopacity="1.0"
     inkscape:pageopacity="0.0"
     inkscape:pageshadow="2"
     inkscape:zoom="0.98994949"
     inkscape:cx="324.4832"
     inkscape:cy="235.86274"
     inkscape:document-units="mm"
     inkscape:current-layer="layer1"
     showgrid="true"
     inkscape:window-width="1366"
     inkscape:window-height="706"
     inkscape:window-x="-8"
     inkscape:window-y="-8"
     inkscape:window-maximized="1"
     inkscape:snap-global="true">
    <inkscape:grid
       type="xygrid"
       id="grid4485"
       units="mm"
       spacingx="1"
       spacingy="1" />
  </sodipodi:namedview>
  <metadata
     id="metadata5">
    <rdf:RDF>
      <cc:Work
         rdf:about="">
        <dc:format>image/svg+xml</dc:format>
        <dc:type
           rdf:resource="http://purl.org/dc/dcmitype/StillImage" />
        <dc:title></dc:title>
      </cc:Work>
    </rdf:RDF>
  </metadata>
  <g
     inkscape:label="Layer 1"
     inkscape:groupmode="layer"
     id="layer1"
     transform="translate(0,-197)">
    <g
       id="g_surface"
       transform="translate(-15,15)">
      <path
         inkscape:connector-curvature="0"
         id="path4487"
         d="M 25,272 H 94.999999 L 105,192 H 59.999998 Z"
         style="fill:#000000;fill-opacity:0.49803922;stroke:none;stroke-width:0.26458332px;stroke-linecap:butt;stroke-linejoin:miter;stroke-opacity:1" />
      <path
         sodipodi:nodetypes="cc"
         inkscape:connector-curvature="0"
         id="path4489"
         d="m 55,257 v -5"
         style="fill:none;stroke:#ff0000;stroke-width:1;stroke-linecap:butt;stroke-linejoin:miter;stroke-miterlimit:4;stroke-dasharray:none;stroke-opacity:1;marker-end:url(#Arrow1Send)" />
      <path
         sodipodi:nodetypes="cc"
         inkscape:connector-curvature="0"
         id="path4489-5"
         d="m 80,257 v -5"
         style="fill:none;stroke:#ff0000;stroke-width:1;stroke-linecap:butt;stroke-linejoin:miter;stroke-miterlimit:4;stroke-dasharray:none;stroke-opacity:1;marker-end:url(#Arrow1Send-1)" />
      <path
         sodipodi:nodetypes="cc"
         inkscape:connector-curvature="0"
         id="path4489-9"
         d="m 90,217 v -5"
         style="fill:none;stroke:#ff0000;stroke-width:1;stroke-linecap:butt;stroke-linejoin:miter;stroke-miterlimit:4;stroke-dasharray:none;stroke-opacity:1;marker-end:url(#Arrow1Send-2)" />
      <path
         sodipodi:nodetypes="cc"
         inkscape:connector-curvature="0"
         id="path4489-2"
         d="m 70,217 v -5"
         style="fill:none;stroke:#ff0000;stroke-width:1;stroke-linecap:butt;stroke-linejoin:miter;stroke-miterlimit:4;stroke-dasharray:none;stroke-opacity:1;marker-end:url(#Arrow1Send-9)" />
      <path
         inkscape:connector-curvature="0"
         id="path5402"
         d="M 94.999999,272 105,192 h 10 l 10,80 z"
         style="fill:#ffff00;fill-opacity:1;stroke:none;stroke-width:0.26458332px;stroke-linecap:butt;stroke-linejoin:miter;stroke-opacity:1" />
      <path
         inkscape:connector-curvature="0"
         id="path5404"
         d="M 110,212 V 197"
         style="fill:none;stroke:#00ff00;stroke-width:1;stroke-linecap:butt;stroke-linejoin:miter;stroke-miterlimit:4;stroke-dasharray:none;stroke-opacity:1;marker-end:url(#Arrow1Mend)"
         sodipodi:nodetypes="cc" />
    </g>
    <g
       id="g_person"
       transform="translate(-45,4.99999)">
      <circle
         r="5"
         cy="232"
         cx="140"
         id="path5456"
         style="opacity:1;fill:#ffffff;fill-opacity:1;stroke:#000000;stroke-width:1;stroke-miterlimit:4;stroke-dasharray:none;stroke-dashoffset:0;stroke-opacity:1" />
      <path
         inkscape:connector-curvature="0"
         id="path5458"
         d="m 140,237 v 15.00001"
         style="fill:none;stroke:#000000;stroke-width:1;stroke-linecap:butt;stroke-linejoin:miter;stroke-miterlimit:4;stroke-dasharray:none;stroke-opacity:1"
         sodipodi:nodetypes="cc" />
      <path
         inkscape:connector-curvature="0"
         id="path5460"
         d="m 135,267.00001 5,-15"
         style="fill:none;stroke:#000000;stroke-width:1;stroke-linecap:butt;stroke-linejoin:miter;stroke-miterlimit:4;stroke-dasharray:none;stroke-opacity:1"
         sodipodi:nodetypes="cc" />
      <path
         inkscape:connector-curvature="0"
         id="path5462"
         d="m 145,267.00001 -5,-15"
         style="fill:none;stroke:#000000;stroke-width:1;stroke-linecap:butt;stroke-linejoin:miter;stroke-miterlimit:4;stroke-dasharray:none;stroke-opacity:1"
         sodipodi:nodetypes="cc" />
      <path
         inkscape:connector-curvature="0"
         id="path5464"
         d="m 150,247 c -5,0 -20,0 -20,0"
         style="fill:none;stroke:#000000;stroke-width:1;stroke-linecap:butt;stroke-linejoin:miter;stroke-miterlimit:4;stroke-dasharray:none;stroke-opacity:1" />
      <path
         sodipodi:nodetypes="csccccscsccccscccssssscscccscssccsssscscssssssscccscssccsscsssssssssssscsssccsssscsssssscssssscssccscsssscccccssccc"
         inkscape:connector-curvature="0"
         id="path5481"
         d="m 129.83482,246.91815 v -1.32292 c 0,-0.0945 0.0423,-0.19896 0,-0.28348 -0.0282,-0.0563 -0.14444,0.0446 -0.18899,0 -0.0223,-0.0223 0.0223,-0.0722 0,-0.0945 -0.0445,-0.0446 -0.14444,0.0445 -0.18898,0 -0.0223,-0.0223 0.0223,-0.0722 0,-0.0945 -0.0472,-0.0472 -0.23624,0.0472 -0.28349,0 -0.0223,-0.0223 0.0223,-0.0722 0,-0.0945 -0.0223,-0.0223 -0.0722,0.0223 -0.0945,0 -0.1587,-0.0807 -0.16018,-0.10641 -0.28348,-0.0945 -0.14208,-0.0846 -0.41193,-0.14532 -0.56698,-0.189 -0.20865,-0.058 -0.37385,-0.10172 -0.56697,-0.0945 -0.0223,-0.0223 0.0223,-0.0722 0,-0.0945 -0.0223,-0.0223 -0.0646,0.01 -0.0945,0 -0.68446,-0.22815 0.14898,0.0272 -0.28348,-0.18899 -0.16861,-0.0783 -0.18005,-0.0428 -0.28349,-0.0945 -0.0244,-0.0122 -0.49999,0 -0.56697,0 h -0.0945 c -0.0315,0 -0.0722,0.0223 -0.0945,0 -0.0223,-0.0223 0.0223,-0.0722 0,-0.0945 -0.003,-0.003 -0.26057,0 -0.28349,0 h -1.41741 -0.0945 c -0.0315,0 -0.0722,-0.0223 -0.0945,0 -0.1516,0.0279 -0.34179,0.004 -0.64965,0.21263 -0.02,0.0243 -0.0922,0.0427 -0.10631,0.0709 -0.0282,0.0563 0,0.12599 0,0.18898 0,0.0494 -0.0124,0.35314 0,0.37798 0.0199,0.0398 0.0547,0.0746 0.0945,0.0945 0.0248,0.0124 0.32856,0 0.37797,0 h 0.75596 0.56696 0.0945 c 0.0315,0 0.0663,-0.0141 0.0945,0 0.0398,0.0199 0.0547,0.0746 0.0945,0.0945 0.0282,0.0141 0.063,0 0.0945,0 h 0.0945 0.47247 c 0.0229,0 0.28044,-0.003 0.28348,0 0.0223,0.0223 -0.0223,0.0722 0,0.0945 0.0139,0.0139 0.28349,-0.0111 0.28349,0 0,0.0315 -0.0722,-0.0223 -0.0945,0 -0.0223,0.0223 0.0223,0.0722 0,0.0945 -0.0293,0.0293 -0.18771,0.0861 -0.30711,0.12993 -0.0877,0.0322 -0.2033,0.11875 -0.2008,0.18899 0.004,0.11025 0.0354,0.24805 0.0354,0.24805 0.001,0.0315 -0.0223,0.0722 0,0.0945 0.0446,0.0445 0.16082,-0.0563 0.18899,0 0.0282,0.0564 -0.0282,0.13265 0,0.18899 0.0141,0.0282 0.0663,-0.0141 0.0945,0 0.0398,0.0199 0.0546,0.0746 0.0945,0.0945 0.0282,0.0141 0.0945,-0.0315 0.0945,0 0,0.0315 -0.063,0 -0.0945,0 h -0.18899 c -0.19496,0.10365 -0.15122,0.0615 -0.189,0.18899 -0.0223,0.0223 -0.0722,-0.0223 -0.0945,0 -0.0223,0.0223 0,0.063 0,0.0945 v 0.18899 0.0945 c 0,0.0315 -0.0223,0.0722 0,0.0945 0.0223,0.0223 0.0722,-0.0223 0.0945,0 0.0223,0.0223 -0.0223,0.0722 0,0.0945 0.0223,0.0223 0.0722,-0.0223 0.0945,0 0.0223,0.0223 -0.0223,0.0722 0,0.0945 0.0223,0.0223 0.0722,-0.0223 0.0945,0 0.0223,0.0223 -0.0141,0.0663 0,0.0945 0.0199,0.0398 0.0945,0.0499 0.0945,0.0945 0,0.0315 -0.0945,0.0315 -0.0945,0 0,-0.0315 0.0945,-0.0315 0.0945,0 0,0.0315 -0.0663,-0.0141 -0.0945,0 -0.0398,0.0199 -0.0546,0.0746 -0.0945,0.0945 -0.0375,0.0187 -0.2889,-0.0268 -0.28348,0 0.0261,0.1291 0.0761,0.26666 0.0945,0.37797 0.005,0.0311 0.0663,-0.0141 0.0945,0 0.0398,0.0199 0.0547,0.0746 0.0945,0.0945 0.0563,0.0282 0.14445,-0.0446 0.18899,0 0.0223,0.0223 -0.0223,0.0722 0,0.0945 0.0223,0.0223 0.0945,-0.0315 0.0945,0 0,0.0315 -0.063,0 -0.0945,0 -0.25198,0 0.0315,-0.0315 -0.0945,0.0945 -0.0446,0.0446 -0.16082,-0.0563 -0.18899,0 -0.11024,0.22049 0.11812,0.18899 -0.0945,0.18899 -0.0315,0 -0.0722,-0.0223 -0.0945,0 -0.0652,0.0652 0.0699,0.17669 0.0945,0.18899 0.0282,0.0141 0.0722,-0.0223 0.0945,0 0.0223,0.0223 -0.0282,0.0804 0,0.0945 0.0564,0.0282 0.12599,0 0.18899,0 h 0.56696 0.0945 c 0.0315,0 0.0722,0.0223 0.0945,0 0.0498,-0.0498 0.0447,-0.13918 0.0945,-0.18898 0.0223,-0.0223 0.0722,0.0223 0.0945,0 0.0223,-0.0223 -0.0223,-0.0722 0,-0.0945 0.0445,-0.0445 0.14444,0.0446 0.18899,0 0.0223,-0.0223 -0.0223,-0.0722 0,-0.0945 0.0223,-0.0223 0.0663,0.0141 0.0945,0 0.0398,-0.0199 0.0546,-0.0746 0.0945,-0.0945 0.0513,-0.0256 0.35212,0.0258 0.37797,0 0.0223,-0.0223 -0.0223,-0.0722 0,-0.0945 0.0133,-0.0133 0.2641,-0.01 0.28348,0 0.0399,0.0199 0.0547,0.0746 0.0945,0.0945 0.0282,0.0141 0.063,0 0.0945,0 0.0315,0 0.0722,0.0223 0.0945,0 0.0223,-0.0223 -0.0315,-0.0945 0,-0.0945 0.0445,0 0.0547,0.0746 0.0945,0.0945 0.0106,0.005 0.46192,0.005 0.47247,0 0.0398,-0.0199 0.0547,-0.0746 0.0945,-0.0945 0.0375,-0.0187 0.26416,0.0193 0.28347,0 0.0446,-0.0445 -0.0445,-0.14444 0,-0.18899 0.0223,-0.0223 0.0722,0.0223 0.0945,0 0.0223,-0.0223 0,-0.063 0,-0.0945 v -0.0945 -0.75595 z"
         style="fill:#ffffff;fill-opacity:1;stroke:#000000;stroke-width:0.5;stroke-linecap:butt;stroke-linejoin:miter;stroke-miterlimit:4;stroke-dasharray:none;stroke-opacity:1" />
    </g>
    <path
       style="fill:#404000;fill-opacity:1;stroke:none;stroke-width:0.26458332px;stroke-linecap:butt;stroke-linejoin:miter;stroke-opacity:1"
       d="m 88.61272,283.52777 c -0.15306,-0.14008 -0.0997,-0.1928 -0.15945,-0.37209 -0.0141,-0.0423 -0.01,-0.12547 -0.0295,-0.16537 -0.0124,-0.0249 0,-0.32856 0,-0.37798 v -0.85045 c 0,-0.067 -0.0122,-0.54253 0,-0.56695 0.004,-0.29141 0.0945,-0.33728 0.0945,-0.85045 0,-0.0315 -0.0223,-0.0722 0,-0.0945 0.0882,-0.40347 0.14114,-0.50209 0.23033,-0.66145 0.0647,-0.11568 0.16989,-0.26412 0.23034,-0.36027 0.0356,-0.0566 0.0606,-0.0634 0.10631,-0.11221 0.12135,-0.0869 0.22419,-0.15281 0.28349,-0.189 0.0498,-0.0498 0.12217,-0.0722 0.18899,-0.0945 0.0533,-0.0177 0.22139,0 0.28348,0 h 0.47247 0.0945 c 0.0675,0.0549 0.0746,0.0746 0.0945,0.0945 0.0549,0.0274 0.51127,-0.0278 0.56697,0 0.14146,0.0488 0.21259,0.14834 0.2835,0.189 0.003,0.003 0,0.26057 0,0.28348 0,0.0621 0.0178,0.23019 0,0.2835 -0.0223,0.0668 -0.0722,0.12216 -0.0945,0.18899 -0.0391,0.11729 0.0776,0.10295 -0.0945,0.18897 -0.0282,0.014 -0.0663,-0.014 -0.0945,0 -0.0797,0.0398 -0.10931,0.14914 -0.18899,0.18899 -0.0563,0.0282 -0.13264,-0.0282 -0.18899,0 -0.3242,0.16336 -0.0861,0.006 -0.28349,0.18899 -0.0162,0.19277 0.0114,0.23852 -0.0945,0.37797 -0.13565,0.13009 -0.0765,-0.0156 -0.189,0.28348 -0.0223,0.0222 0,0.063 0,0.0945 v 0.0945 1.13393 0.56697 c 0,0.0315 -0.0902,0.0719 -0.11221,0.0945 -0.0936,0.0959 -0.0568,0.068 -0.17127,0.189 -0.11126,0.11768 -0.14927,0.3278 -0.189,0.47248 -0.0484,0.10902 -0.12573,0.067 -0.189,0.0945 h -0.0945 c -0.0494,0 -0.35313,0.0124 -0.37797,0 -0.10012,-0.0335 -0.12975,-0.0653 -0.189,-0.0945 -0.11385,-0.13991 -0.11735,-0.153 -0.18897,-0.21853 z"
       id="path5719"
       inkscape:connector-curvature="0"
       sodipodi:nodetypes="sscsscccsscccscccccscccccccccsccsssccsccs" />
    <path
       style="fill:#404000;fill-opacity:1;stroke:none;stroke-width:0.26458332px;stroke-linecap:butt;stroke-linejoin:miter;stroke-opacity:1"
       d="m 100.35951,278.74991 c 0.036,-0.10019 0.0846,-0.252 0.14174,-0.37209 0.0135,-0.0285 0.0213,-0.13125 0.0354,-0.15946 0.0199,-0.0399 0.01,-0.10195 0.0295,-0.14175 0.0141,-0.0282 0,-0.063 0,-0.0945 v -0.0945 c 0,-0.0657 -0.0171,-0.43828 0,-0.47247 0.0597,-0.1331 0.063,-0.30388 0.14175,-0.3957 0.0409,-0.15188 0.0538,-0.28412 0.0472,-0.45477 0.10552,-0.12533 0.13631,-0.21678 0.37798,-0.37797 0.13554,-0.14476 0.10033,-0.21502 0.0945,-0.37799 0.0223,-0.0668 0.0722,-0.12216 0.0945,-0.18899 0.0208,-0.0625 0,-0.47413 0,-0.56695 0.0118,-0.0619 0,-0.126 0,-0.189 -0.1229,-0.19773 -0.0344,-0.26778 -0.18899,-0.37798 -0.21544,-0.15361 -0.12381,-0.0736 -0.28348,-0.189 -0.21296,-0.15396 -0.1086,-0.0774 -0.28348,-0.18899 -0.18163,-0.11593 -0.31253,-0.24057 -0.378,-0.28349 -0.0342,-0.0172 -0.40674,0 -0.47247,0 -0.0657,0 -0.43443,-0.004 -0.47247,0 -0.21682,0.0233 -0.31276,0.0249 -0.47248,0.0945 -0.12335,0.0537 -0.0365,0.0508 -0.0945,0.0945 -0.14185,0.1067 -0.11957,0.15429 -0.18899,0.189 -0.0956,0.0866 -0.0751,0.18953 -0.0945,0.28349 v 0.0945 c 0,0.0426 -0.0144,0.25474 0,0.2835 0.0253,0.0505 0.10466,0.14434 0.12993,0.1949 0.0652,0.13033 0.0273,0.11403 0.15356,0.18306 0.0337,0.032 0.0678,0.0678 0.0945,0.0945 0.051,0.0302 0.0658,0.0658 0.0945,0.0945 0.0589,0.078 0.0945,0.0849 0.0945,0.18899 0.0762,0.11106 0.12403,0.1968 0.18899,0.28346 0.048,0.0492 0.0639,0.0639 0.0945,0.0945 v 0.189 c 0,0.0754 0.0189,0.41576 0,0.47246 -0.0223,0.0668 -0.0722,0.12216 -0.0945,0.18899 -0.0186,0.0557 0,0.41966 0,0.47247 v 1.03944 c 0,0.023 0.0206,0.13869 0.0532,0.25395 0.17839,0.0632 0.19107,0.0896 0.32482,0.12403 0.16208,0.0417 0.1532,0.0731 0.18899,0.0945 0.11664,0.0696 0.19212,0.0629 0.28348,0.0945 0.0297,0.0103 0.12983,-0.013 0.15946,-0.0236 0.12696,-0.0455 0.16155,-0.0443 0.20079,-0.15352 z"
       id="path5721"
       inkscape:connector-curvature="0"
       sodipodi:nodetypes="ssssssccccccccssscssssccsccccccccsccsscsssss" />
  </g>
</svg>
