<?xml version="1.0" encoding="UTF-8" standalone="no"?>
<!-- Created with Inkscape (http://www.inkscape.org/) -->

<svg
   xmlns:ns1="http://www.iki.fi/pav/software/textext/"
   xmlns:dc="http://purl.org/dc/elements/1.1/"
   xmlns:cc="http://creativecommons.org/ns#"
   xmlns:rdf="http://www.w3.org/1999/02/22-rdf-syntax-ns#"
   xmlns:svg="http://www.w3.org/2000/svg"
   xmlns="http://www.w3.org/2000/svg"
   xmlns:sodipodi="http://sodipodi.sourceforge.net/DTD/sodipodi-0.dtd"
   xmlns:inkscape="http://www.inkscape.org/namespaces/inkscape"
   width="90mm"
   height="70mm"
   viewBox="0 0 90 70"
   version="1.1"
   id="svg8"
   inkscape:version="0.92.4 (5da689c313, 2019-01-14)"
   sodipodi:docname="point_volume_duality_intersection.svg">
  <defs
     id="defs2" />
  <sodipodi:namedview
     id="base"
     pagecolor="#ffffff"
     bordercolor="#666666"
     borderopacity="1.0"
     inkscape:pageopacity="0.0"
     inkscape:pageshadow="2"
     inkscape:zoom="1.979899"
     inkscape:cx="182.04346"
     inkscape:cy="198.37559"
     inkscape:document-units="mm"
     inkscape:current-layer="layer1"
     showgrid="true"
     inkscape:window-width="1920"
     inkscape:window-height="1017"
     inkscape:window-x="-8"
     inkscape:window-y="-8"
     inkscape:window-maximized="1"
     inkscape:snap-object-midpoints="true"
     inkscape:snap-global="false">
    <inkscape:grid
       spacingy="1"
       spacingx="1"
       units="mm"
       id="grid815"
       type="xygrid" />
  </sodipodi:namedview>
  <metadata
     id="metadata5">
    <rdf:RDF>
      <cc:Work
         rdf:about="">
        <dc:format>image/svg+xml</dc:format>
        <dc:type
           rdf:resource="http://purl.org/dc/dcmitype/StillImage" />
        <dc:title />
      </cc:Work>
    </rdf:RDF>
  </metadata>
  <g
     inkscape:label="Layer 1"
     inkscape:groupmode="layer"
     id="layer1"
     transform="translate(0,-227)">
    <path
       style="fill:none;stroke:#7f0000;stroke-width:0.5;stroke-linecap:butt;stroke-linejoin:miter;stroke-miterlimit:4;stroke-dasharray:none;stroke-opacity:1"
       d="M 19.999999,242 5,257 14.999999,287 50,292 65,267 44.999999,242 Z"
       id="path817"
       inkscape:connector-curvature="0" />
    <circle
       style="fill:#7f0000;fill-opacity:1;stroke:none;stroke-width:0.5;stroke-miterlimit:4;stroke-dasharray:none;stroke-dashoffset:0;stroke-opacity:1"
       id="path819"
       cx="35"
       cy="262"
       r="2" />
    <path
       style="fill:none;stroke:#007f00;stroke-width:0.5;stroke-linecap:butt;stroke-linejoin:miter;stroke-miterlimit:4;stroke-dasharray:none;stroke-opacity:1"
       d="m 25.999999,237 -1.000001,33 C 24.969709,270.99954 60,287 60,287 L 85,262 60,232 Z"
       id="path821"
       inkscape:connector-curvature="0"
       sodipodi:nodetypes="cscccc" />
    <circle
       style="fill:#007f00;fill-opacity:1;stroke:none;stroke-width:0.5;stroke-miterlimit:4;stroke-dasharray:none;stroke-dashoffset:0;stroke-opacity:1"
       id="path819-1"
       cx="50"
       cy="257"
       r="2" />
    <text
       xml:space="preserve"
       style="font-style:normal;font-weight:normal;font-size:11.28888893px;line-height:1.25;font-family:sans-serif;letter-spacing:0px;word-spacing:0px;fill:#000000;fill-opacity:1;stroke:none;stroke-width:0.26458332"
       x="106.49479"
       y="182.09523"
       id="text870"><tspan
         sodipodi:role="line"
         id="tspan868"
         x="106.49479"
         y="192.08325"
         style="stroke-width:0.26458332" /></text>
    <g
       id="g893"
       ns1:jacobian_sqrt="0.529167"
       inkscapeversion="0.92.4"
       ns1:alignment="middle center"
       ns1:scale="1.5"
       ns1:preamble="C:\\Users\\shawn\\AppData\\Roaming\\inkscape\\extensions\\textext\\default_packages.tex"
       ns1:text="$\\iota(u)$"
       ns1:pdfconverter="pdf2svg"
       ns1:texconverter="pdflatex"
       ns1:version="0.11.0"
       transform="matrix(0.529167,0.000000,0.000000,0.529167,-48.359968,196.995540)">
      <g
         id="g891">
        <g
           id="g877"
           style="fill:rgb(0%,0%,0%);fill-opacity:1;">
          <path
             id="path875"
             transform="translate(148.712,134.765)"
             d="M 3.234375 -1.421875 C 3.234375 -1.53125 3.140625 -1.53125 3.109375 -1.53125 C 3.015625 -1.53125 3 -1.484375 2.984375 -1.421875 C 2.671875 -0.4375 1.84375 -0.109375 1.421875 -0.109375 C 1.28125 -0.109375 1.15625 -0.140625 1.15625 -0.4375 C 1.15625 -0.671875 1.234375 -0.90625 1.328125 -1.171875 C 1.78125 -2.375 2.1875 -4.0625 2.1875 -4.140625 C 2.1875 -4.3125 2.078125 -4.40625 1.90625 -4.40625 C 1.796875 -4.40625 1.609375 -4.34375 1.53125 -4.140625 C 1.46875 -3.953125 1.375 -3.46875 1.3125 -3.28125 C 1.296875 -3.234375 1.046875 -2.359375 1.015625 -2.21875 C 0.984375 -2.125 0.890625 -1.875 0.875 -1.78125 C 0.796875 -1.5 0.5625 -1.03125 0.5625 -0.703125 C 0.5625 -0.296875 0.84375 0.109375 1.390625 0.109375 C 2.53125 0.109375 3.234375 -1.09375 3.234375 -1.421875 Z M 3.234375 -1.421875 "
             style="stroke:none;stroke-width:0" />
        </g>
        <g
           id="g881"
           style="fill:rgb(0%,0%,0%);fill-opacity:1;">
          <path
             id="path879"
             transform="translate(152.238,134.765)"
             d="M 3.296875 2.390625 C 3.296875 2.359375 3.296875 2.34375 3.125 2.171875 C 1.890625 0.921875 1.5625 -0.96875 1.5625 -2.5 C 1.5625 -4.234375 1.9375 -5.96875 3.171875 -7.203125 C 3.296875 -7.328125 3.296875 -7.34375 3.296875 -7.375 C 3.296875 -7.453125 3.265625 -7.484375 3.203125 -7.484375 C 3.09375 -7.484375 2.203125 -6.796875 1.609375 -5.53125 C 1.109375 -4.4375 0.984375 -3.328125 0.984375 -2.5 C 0.984375 -1.71875 1.09375 -0.515625 1.640625 0.625 C 2.25 1.84375 3.09375 2.5 3.203125 2.5 C 3.265625 2.5 3.296875 2.46875 3.296875 2.390625 Z M 3.296875 2.390625 "
             style="stroke:none;stroke-width:0" />
        </g>
        <g
           id="g885"
           style="fill:rgb(0%,0%,0%);fill-opacity:1;">
          <path
             id="path883"
             transform="translate(156.113,134.765)"
             d="M 3.484375 -0.5625 C 3.59375 -0.15625 3.953125 0.109375 4.375 0.109375 C 4.71875 0.109375 4.953125 -0.125 5.109375 -0.4375 C 5.28125 -0.796875 5.40625 -1.40625 5.40625 -1.421875 C 5.40625 -1.53125 5.328125 -1.53125 5.296875 -1.53125 C 5.1875 -1.53125 5.1875 -1.484375 5.15625 -1.34375 C 5.015625 -0.78125 4.828125 -0.109375 4.40625 -0.109375 C 4.203125 -0.109375 4.09375 -0.234375 4.09375 -0.5625 C 4.09375 -0.78125 4.21875 -1.25 4.296875 -1.609375 L 4.578125 -2.6875 C 4.609375 -2.828125 4.703125 -3.203125 4.75 -3.359375 C 4.796875 -3.59375 4.890625 -3.96875 4.890625 -4.03125 C 4.890625 -4.203125 4.75 -4.296875 4.609375 -4.296875 C 4.5625 -4.296875 4.296875 -4.28125 4.21875 -3.953125 C 4.03125 -3.21875 3.59375 -1.46875 3.46875 -0.953125 C 3.453125 -0.90625 3.0625 -0.109375 2.328125 -0.109375 C 1.8125 -0.109375 1.71875 -0.5625 1.71875 -0.921875 C 1.71875 -1.484375 2 -2.265625 2.25 -2.953125 C 2.375 -3.265625 2.421875 -3.40625 2.421875 -3.59375 C 2.421875 -4.03125 2.109375 -4.40625 1.609375 -4.40625 C 0.65625 -4.40625 0.296875 -2.953125 0.296875 -2.875 C 0.296875 -2.765625 0.390625 -2.765625 0.40625 -2.765625 C 0.515625 -2.765625 0.515625 -2.796875 0.5625 -2.953125 C 0.8125 -3.8125 1.203125 -4.1875 1.578125 -4.1875 C 1.671875 -4.1875 1.828125 -4.171875 1.828125 -3.859375 C 1.828125 -3.625 1.71875 -3.328125 1.65625 -3.1875 C 1.28125 -2.1875 1.078125 -1.578125 1.078125 -1.09375 C 1.078125 -0.140625 1.765625 0.109375 2.296875 0.109375 C 2.953125 0.109375 3.3125 -0.34375 3.484375 -0.5625 Z M 3.484375 -0.5625 "
             style="stroke:none;stroke-width:0" />
        </g>
        <g
           id="g889"
           style="fill:rgb(0%,0%,0%);fill-opacity:1;">
          <path
             id="path887"
             transform="translate(161.816,134.765)"
             d="M 2.875 -2.5 C 2.875 -3.265625 2.765625 -4.46875 2.21875 -5.609375 C 1.625 -6.828125 0.765625 -7.484375 0.671875 -7.484375 C 0.609375 -7.484375 0.5625 -7.4375 0.5625 -7.375 C 0.5625 -7.34375 0.5625 -7.328125 0.75 -7.140625 C 1.734375 -6.15625 2.296875 -4.578125 2.296875 -2.5 C 2.296875 -0.78125 1.9375 0.96875 0.703125 2.21875 C 0.5625 2.34375 0.5625 2.359375 0.5625 2.390625 C 0.5625 2.453125 0.609375 2.5 0.671875 2.5 C 0.765625 2.5 1.671875 1.8125 2.25 0.546875 C 2.765625 -0.546875 2.875 -1.65625 2.875 -2.5 Z M 2.875 -2.5 "
             style="stroke:none;stroke-width:0" />
        </g>
      </g>
    </g>
    <g
       id="g947"
       ns1:jacobian_sqrt="0.705556"
       inkscapeversion="0.92.4"
       ns1:alignment="middle center"
       ns1:scale="2.0"
       ns1:preamble="C:\\Users\\shawn\\AppData\\Roaming\\inkscape\\extensions\\textext\\default_packages.tex"
       ns1:text="$u$"
       ns1:pdfconverter="pdf2svg"
       ns1:texconverter="pdflatex"
       ns1:version="0.11.0"
       transform="matrix(0.705556,0.000000,0.000000,0.705556,-93.686582,150.830402)">
      <g
         id="surface1">
        <g
           id="g944"
           style="fill:rgb(0%,0%,0%);fill-opacity:1;">
          <path
             id="path942"
             transform="translate(148.712,134.765)"
             d="M 3.484375 -0.5625 C 3.59375 -0.15625 3.953125 0.109375 4.375 0.109375 C 4.71875 0.109375 4.953125 -0.125 5.109375 -0.4375 C 5.28125 -0.796875 5.40625 -1.40625 5.40625 -1.421875 C 5.40625 -1.53125 5.328125 -1.53125 5.296875 -1.53125 C 5.1875 -1.53125 5.1875 -1.484375 5.15625 -1.34375 C 5.015625 -0.78125 4.828125 -0.109375 4.40625 -0.109375 C 4.203125 -0.109375 4.09375 -0.234375 4.09375 -0.5625 C 4.09375 -0.78125 4.21875 -1.25 4.296875 -1.609375 L 4.578125 -2.6875 C 4.609375 -2.828125 4.703125 -3.203125 4.75 -3.359375 C 4.796875 -3.59375 4.890625 -3.96875 4.890625 -4.03125 C 4.890625 -4.203125 4.75 -4.296875 4.609375 -4.296875 C 4.5625 -4.296875 4.296875 -4.28125 4.21875 -3.953125 C 4.03125 -3.21875 3.59375 -1.46875 3.46875 -0.953125 C 3.453125 -0.90625 3.0625 -0.109375 2.328125 -0.109375 C 1.8125 -0.109375 1.71875 -0.5625 1.71875 -0.921875 C 1.71875 -1.484375 2 -2.265625 2.25 -2.953125 C 2.375 -3.265625 2.421875 -3.40625 2.421875 -3.59375 C 2.421875 -4.03125 2.109375 -4.40625 1.609375 -4.40625 C 0.65625 -4.40625 0.296875 -2.953125 0.296875 -2.875 C 0.296875 -2.765625 0.390625 -2.765625 0.40625 -2.765625 C 0.515625 -2.765625 0.515625 -2.796875 0.5625 -2.953125 C 0.8125 -3.8125 1.203125 -4.1875 1.578125 -4.1875 C 1.671875 -4.1875 1.828125 -4.171875 1.828125 -3.859375 C 1.828125 -3.625 1.71875 -3.328125 1.65625 -3.1875 C 1.28125 -2.1875 1.078125 -1.578125 1.078125 -1.09375 C 1.078125 -0.140625 1.765625 0.109375 2.296875 0.109375 C 2.953125 0.109375 3.3125 -0.34375 3.484375 -0.5625 Z M 3.484375 -0.5625 "
             style="stroke:none;stroke-width:0" />
        </g>
      </g>
    </g>
    <g
       id="g996"
       ns1:jacobian_sqrt="0.705556"
       inkscapeversion="0.92.4"
       ns1:alignment="middle center"
       ns1:scale="2.0"
       ns1:preamble="C:\\Users\\shawn\\AppData\\Roaming\\inkscape\\extensions\\textext\\default_packages.tex"
       ns1:text="$v$"
       ns1:pdfconverter="pdf2svg"
       ns1:texconverter="pdflatex"
       ns1:version="0.11.0"
       transform="matrix(0.705556,0.000000,0.000000,0.705556,-34.950556,145.358243)">
      <g
         id="g994">
        <g
           id="g992"
           style="fill:rgb(0%,0%,0%);fill-opacity:1;">
          <path
             id="path990"
             transform="translate(148.712,134.765)"
             d="M 4.671875 -3.703125 C 4.671875 -4.25 4.40625 -4.40625 4.234375 -4.40625 C 3.984375 -4.40625 3.734375 -4.140625 3.734375 -3.921875 C 3.734375 -3.796875 3.78125 -3.734375 3.890625 -3.625 C 4.109375 -3.421875 4.234375 -3.171875 4.234375 -2.8125 C 4.234375 -2.390625 3.625 -0.109375 2.46875 -0.109375 C 1.953125 -0.109375 1.71875 -0.453125 1.71875 -0.984375 C 1.71875 -1.53125 2 -2.265625 2.296875 -3.09375 C 2.375 -3.265625 2.421875 -3.40625 2.421875 -3.59375 C 2.421875 -4.03125 2.109375 -4.40625 1.609375 -4.40625 C 0.671875 -4.40625 0.296875 -2.953125 0.296875 -2.875 C 0.296875 -2.765625 0.390625 -2.765625 0.40625 -2.765625 C 0.515625 -2.765625 0.515625 -2.796875 0.5625 -2.953125 C 0.859375 -3.953125 1.28125 -4.1875 1.578125 -4.1875 C 1.65625 -4.1875 1.828125 -4.1875 1.828125 -3.875 C 1.828125 -3.625 1.71875 -3.34375 1.65625 -3.171875 C 1.21875 -2.015625 1.09375 -1.5625 1.09375 -1.125 C 1.09375 -0.046875 1.96875 0.109375 2.421875 0.109375 C 4.09375 0.109375 4.671875 -3.1875 4.671875 -3.703125 Z M 4.671875 -3.703125 "
             style="stroke:none;stroke-width:0" />
        </g>
      </g>
    </g>
    <g
       id="g1051"
       ns1:jacobian_sqrt="0.529167"
       inkscapeversion="0.92.4"
       ns1:alignment="middle center"
       ns1:scale="1.5"
       ns1:preamble="C:\\Users\\shawn\\AppData\\Roaming\\inkscape\\extensions\\textext\\default_packages.tex"
       ns1:text="$\\iota(v)$"
       ns1:pdfconverter="pdf2svg"
       ns1:texconverter="pdflatex"
       ns1:version="0.11.0"
       transform="matrix(0.529167,0.000000,0.000000,0.529167,-38.754104,183.052000)">
      <g
         id="g1049">
        <g
           id="g1035"
           style="fill:rgb(0%,0%,0%);fill-opacity:1;">
          <path
             id="path1033"
             transform="translate(148.712,134.765)"
             d="M 3.234375 -1.421875 C 3.234375 -1.53125 3.140625 -1.53125 3.109375 -1.53125 C 3.015625 -1.53125 3 -1.484375 2.984375 -1.421875 C 2.671875 -0.4375 1.84375 -0.109375 1.421875 -0.109375 C 1.28125 -0.109375 1.15625 -0.140625 1.15625 -0.4375 C 1.15625 -0.671875 1.234375 -0.90625 1.328125 -1.171875 C 1.78125 -2.375 2.1875 -4.0625 2.1875 -4.140625 C 2.1875 -4.3125 2.078125 -4.40625 1.90625 -4.40625 C 1.796875 -4.40625 1.609375 -4.34375 1.53125 -4.140625 C 1.46875 -3.953125 1.375 -3.46875 1.3125 -3.28125 C 1.296875 -3.234375 1.046875 -2.359375 1.015625 -2.21875 C 0.984375 -2.125 0.890625 -1.875 0.875 -1.78125 C 0.796875 -1.5 0.5625 -1.03125 0.5625 -0.703125 C 0.5625 -0.296875 0.84375 0.109375 1.390625 0.109375 C 2.53125 0.109375 3.234375 -1.09375 3.234375 -1.421875 Z M 3.234375 -1.421875 "
             style="stroke:none;stroke-width:0" />
        </g>
        <g
           id="g1039"
           style="fill:rgb(0%,0%,0%);fill-opacity:1;">
          <path
             id="path1037"
             transform="translate(152.238,134.765)"
             d="M 3.296875 2.390625 C 3.296875 2.359375 3.296875 2.34375 3.125 2.171875 C 1.890625 0.921875 1.5625 -0.96875 1.5625 -2.5 C 1.5625 -4.234375 1.9375 -5.96875 3.171875 -7.203125 C 3.296875 -7.328125 3.296875 -7.34375 3.296875 -7.375 C 3.296875 -7.453125 3.265625 -7.484375 3.203125 -7.484375 C 3.09375 -7.484375 2.203125 -6.796875 1.609375 -5.53125 C 1.109375 -4.4375 0.984375 -3.328125 0.984375 -2.5 C 0.984375 -1.71875 1.09375 -0.515625 1.640625 0.625 C 2.25 1.84375 3.09375 2.5 3.203125 2.5 C 3.265625 2.5 3.296875 2.46875 3.296875 2.390625 Z M 3.296875 2.390625 "
             style="stroke:none;stroke-width:0" />
        </g>
        <g
           id="g1043"
           style="fill:rgb(0%,0%,0%);fill-opacity:1;">
          <path
             id="path1041"
             transform="translate(156.113,134.765)"
             d="M 4.671875 -3.703125 C 4.671875 -4.25 4.40625 -4.40625 4.234375 -4.40625 C 3.984375 -4.40625 3.734375 -4.140625 3.734375 -3.921875 C 3.734375 -3.796875 3.78125 -3.734375 3.890625 -3.625 C 4.109375 -3.421875 4.234375 -3.171875 4.234375 -2.8125 C 4.234375 -2.390625 3.625 -0.109375 2.46875 -0.109375 C 1.953125 -0.109375 1.71875 -0.453125 1.71875 -0.984375 C 1.71875 -1.53125 2 -2.265625 2.296875 -3.09375 C 2.375 -3.265625 2.421875 -3.40625 2.421875 -3.59375 C 2.421875 -4.03125 2.109375 -4.40625 1.609375 -4.40625 C 0.671875 -4.40625 0.296875 -2.953125 0.296875 -2.875 C 0.296875 -2.765625 0.390625 -2.765625 0.40625 -2.765625 C 0.515625 -2.765625 0.515625 -2.796875 0.5625 -2.953125 C 0.859375 -3.953125 1.28125 -4.1875 1.578125 -4.1875 C 1.65625 -4.1875 1.828125 -4.1875 1.828125 -3.875 C 1.828125 -3.625 1.71875 -3.34375 1.65625 -3.171875 C 1.21875 -2.015625 1.09375 -1.5625 1.09375 -1.125 C 1.09375 -0.046875 1.96875 0.109375 2.421875 0.109375 C 4.09375 0.109375 4.671875 -3.1875 4.671875 -3.703125 Z M 4.671875 -3.703125 "
             style="stroke:none;stroke-width:0" />
        </g>
        <g
           id="g1047"
           style="fill:rgb(0%,0%,0%);fill-opacity:1;">
          <path
             id="path1045"
             transform="translate(161.299,134.765)"
             d="M 2.875 -2.5 C 2.875 -3.265625 2.765625 -4.46875 2.21875 -5.609375 C 1.625 -6.828125 0.765625 -7.484375 0.671875 -7.484375 C 0.609375 -7.484375 0.5625 -7.4375 0.5625 -7.375 C 0.5625 -7.34375 0.5625 -7.328125 0.75 -7.140625 C 1.734375 -6.15625 2.296875 -4.578125 2.296875 -2.5 C 2.296875 -0.78125 1.9375 0.96875 0.703125 2.21875 C 0.5625 2.34375 0.5625 2.359375 0.5625 2.390625 C 0.5625 2.453125 0.609375 2.5 0.671875 2.5 C 0.765625 2.5 1.671875 1.8125 2.25 0.546875 C 2.765625 -0.546875 2.875 -1.65625 2.875 -2.5 Z M 2.875 -2.5 "
             style="stroke:none;stroke-width:0" />
        </g>
      </g>
    </g>
  </g>
</svg>
