<?xml version="1.0" encoding="UTF-8" standalone="no"?>
<!-- Created with Inkscape (http://www.inkscape.org/) -->

<svg
   xmlns:ns1="http://www.iki.fi/pav/software/textext/"
   xmlns:dc="http://purl.org/dc/elements/1.1/"
   xmlns:cc="http://creativecommons.org/ns#"
   xmlns:rdf="http://www.w3.org/1999/02/22-rdf-syntax-ns#"
   xmlns:svg="http://www.w3.org/2000/svg"
   xmlns="http://www.w3.org/2000/svg"
   xmlns:sodipodi="http://sodipodi.sourceforge.net/DTD/sodipodi-0.dtd"
   xmlns:inkscape="http://www.inkscape.org/namespaces/inkscape"
   width="205mm"
   height="170mm"
   viewBox="0 0 205 170"
   version="1.1"
   id="svg8"
   inkscape:version="0.92.4 (5da689c313, 2019-01-14)"
   sodipodi:docname="triple_vector_product_tetrahedron_F_dot_K=0.svg">
  <defs
     id="defs2">
    <marker
       inkscape:stockid="Arrow1Mend"
       orient="auto"
       refY="0"
       refX="0"
       id="marker1117"
       style="overflow:visible"
       inkscape:isstock="true">
      <path
         id="path1115"
         d="M 0,0 5,-5 -12.5,0 5,5 Z"
         style="fill:#00c800;fill-opacity:1;fill-rule:evenodd;stroke:#00c800;stroke-width:1.00000003pt;stroke-opacity:1"
         transform="matrix(-0.4,0,0,-0.4,-4,0)"
         inkscape:connector-curvature="0" />
    </marker>
    <marker
       inkscape:stockid="Arrow1Mend"
       orient="auto"
       refY="0"
       refX="0"
       id="Arrow1Mend"
       style="overflow:visible"
       inkscape:isstock="true">
      <path
         id="path828"
         d="M 0,0 5,-5 -12.5,0 5,5 Z"
         style="fill:#ff0000;fill-opacity:1;fill-rule:evenodd;stroke:#ff0000;stroke-width:1.00000003pt;stroke-opacity:1"
         transform="matrix(-0.4,0,0,-0.4,-4,0)"
         inkscape:connector-curvature="0" />
    </marker>
    <marker
       inkscape:stockid="Arrow1Mend"
       orient="auto"
       refY="0"
       refX="0"
       id="Arrow1Mend-4"
       style="overflow:visible"
       inkscape:isstock="true">
      <path
         inkscape:connector-curvature="0"
         id="path828-0"
         d="M 0,0 5,-5 -12.5,0 5,5 Z"
         style="fill:#0000ff;fill-opacity:1;fill-rule:evenodd;stroke:#0000ff;stroke-width:1.00000003pt;stroke-opacity:1"
         transform="matrix(-0.4,0,0,-0.4,-4,0)" />
    </marker>
  </defs>
  <sodipodi:namedview
     id="base"
     pagecolor="#ffffff"
     bordercolor="#666666"
     borderopacity="1.0"
     inkscape:pageopacity="0.0"
     inkscape:pageshadow="2"
     inkscape:zoom="1.4"
     inkscape:cx="402.05857"
     inkscape:cy="328.38282"
     inkscape:document-units="mm"
     inkscape:current-layer="layer1"
     showgrid="true"
     inkscape:window-width="1920"
     inkscape:window-height="1017"
     inkscape:window-x="-8"
     inkscape:window-y="-8"
     inkscape:window-maximized="1"
     inkscape:snap-global="false">
    <inkscape:grid
       spacingy="1"
       spacingx="1"
       units="mm"
       id="grid815"
       type="xygrid" />
  </sodipodi:namedview>
  <metadata
     id="metadata5">
    <rdf:RDF>
      <cc:Work
         rdf:about="">
        <dc:format>image/svg+xml</dc:format>
        <dc:type
           rdf:resource="http://purl.org/dc/dcmitype/StillImage" />
        <dc:title />
      </cc:Work>
    </rdf:RDF>
  </metadata>
  <g
     inkscape:label="Layer 1"
     inkscape:groupmode="layer"
     id="layer1"
     transform="translate(0,-127)">
    <path
       style="fill:#7f7f00;fill-opacity:0.49803922;stroke:none;stroke-width:0.26458332px;stroke-linecap:butt;stroke-linejoin:miter;stroke-opacity:1"
       d="M 39.999999,267 H 130 l 45,-30 H 84.999998 Z"
       id="path1506"
       inkscape:connector-curvature="0"
       sodipodi:nodetypes="ccccc" />
    <path
       style="fill:none;stroke:#ff0000;stroke-width:1;stroke-linecap:butt;stroke-linejoin:miter;stroke-miterlimit:4;stroke-dasharray:none;stroke-opacity:1;marker-end:url(#Arrow1Mend)"
       d="M 15,267 H 155"
       id="path817"
       inkscape:connector-curvature="0" />
    <path
       style="fill:none;stroke:#00c800;stroke-width:1;stroke-linecap:butt;stroke-linejoin:miter;stroke-miterlimit:4;stroke-dasharray:none;stroke-opacity:1;marker-end:url(#marker1117)"
       d="m 25,277 90,-60"
       id="path1113"
       inkscape:connector-curvature="0" />
    <path
       style="fill:#7f7f7f;fill-opacity:0.49803922;stroke:none;stroke-width:0.26458332px;stroke-linecap:butt;stroke-linejoin:miter;stroke-opacity:1"
       d="M 130,267 175,237 85,132 39.999999,162 Z"
       id="path1508"
       inkscape:connector-curvature="0"
       sodipodi:nodetypes="ccccc" />
    <path
       style="fill:none;stroke:#00c800;stroke-width:0.5;stroke-linecap:butt;stroke-linejoin:miter;stroke-miterlimit:4;stroke-dasharray:none;stroke-opacity:1"
       d="m 43.999999,264 v -5 l -4,3"
       id="path1512"
       inkscape:connector-curvature="0" />
    <g
       id="g1541"
       transform="translate(0,5)">
      <path
         inkscape:connector-curvature="0"
         id="path1535"
         d="m 175,232 -45,30"
         style="fill:none;stroke:#000000;stroke-width:2;stroke-linecap:butt;stroke-linejoin:miter;stroke-miterlimit:4;stroke-dasharray:none;stroke-opacity:1"
         sodipodi:nodetypes="cc" />
      <path
         sodipodi:nodetypes="cccc"
         inkscape:connector-curvature="0"
         id="path1537"
         d="m 152.10105,243.60991 -3.22556,5.88183 6.64079,-0.94865 z"
         style="fill:#000000;fill-opacity:1;stroke:none;stroke-width:0.26458332px;stroke-linecap:butt;stroke-linejoin:miter;stroke-opacity:1" />
    </g>
    <circle
       style="fill:#7f0000;fill-opacity:1;stroke:none;stroke-width:0.5;stroke-miterlimit:4;stroke-dasharray:none;stroke-dashoffset:0;stroke-opacity:1"
       id="path1516"
       cx="130"
       cy="267"
       r="2" />
    <path
       style="fill:none;stroke:#0000ff;stroke-width:1;stroke-linecap:butt;stroke-linejoin:miter;stroke-miterlimit:4;stroke-dasharray:none;stroke-opacity:1;marker-end:url(#Arrow1Mend-4)"
       d="M 40,292 V 152"
       id="path817-5"
       inkscape:connector-curvature="0" />
    <g
       id="g1565"
       transform="translate(0,5)">
      <path
         inkscape:connector-curvature="0"
         id="path1543"
         d="M 84.999998,232 39.999999,262"
         style="fill:none;stroke:#7f7f00;stroke-width:2;stroke-linecap:butt;stroke-linejoin:miter;stroke-miterlimit:4;stroke-dasharray:none;stroke-opacity:1"
         sodipodi:nodetypes="cc" />
      <path
         inkscape:connector-curvature="0"
         id="path1545-6"
         d="m 68.041237,246.88454 -3.346421,-4.98009 -3.306884,5.83648 z"
         style="fill:#7f7f00;fill-opacity:1;stroke:none;stroke-width:0.26458332px;stroke-linecap:butt;stroke-linejoin:miter;stroke-opacity:1" />
    </g>
    <path
       style="fill:none;stroke:#000000;stroke-width:0.5;stroke-linecap:butt;stroke-linejoin:miter;stroke-miterlimit:4;stroke-dasharray:none;stroke-opacity:1"
       d="m 47.813989,267.0372 c 2.551337,-1.70089 0.944938,-4.25223 0,-5.29167"
       id="path1514"
       inkscape:connector-curvature="0" />
    <path
       style="fill:none;stroke:#ff0000;stroke-width:0.5;stroke-linecap:butt;stroke-linejoin:miter;stroke-miterlimit:4;stroke-dasharray:none;stroke-opacity:1"
       d="m 44.999999,267 v -5 h -5"
       id="path1510"
       inkscape:connector-curvature="0" />
    <circle
       style="fill:#00007f;fill-opacity:1;stroke:none;stroke-width:0.5;stroke-miterlimit:4;stroke-dasharray:none;stroke-dashoffset:0;stroke-opacity:1"
       id="path1533"
       cx="40"
       cy="161.99998"
       r="2" />
    <g
       id="g2262"
       ns1:jacobian_sqrt="0.881944"
       inkscapeversion="0.92.4"
       ns1:alignment="middle center"
       ns1:scale="2.49999997165"
       ns1:preamble="C:\\Users\\shawn\\AppData\\Roaming\\inkscape\\extensions\\textext\\default_packages.tex"
       ns1:text="$\\mathbf{F}$"
       ns1:pdfconverter="pdf2svg"
       ns1:texconverter="pdflatex"
       ns1:version="0.11.0"
       transform="matrix(0.881944,0,0,0.881944,-53.351839,85.476403)">
      <g
         id="g2260">
        <g
           id="g2258"
           style="fill:#000000;fill-opacity:1">
          <path
             id="path2256"
             transform="translate(148.712,134.765)"
             d="M 6.421875,-6.78125 H 0.390625 V -6.3125 H 1.46875 v 5.84375 H 0.390625 V 0 c 0.375,-0.03125 1.390625,-0.03125 1.828125,-0.03125 0.484375,0 1.5625,0 2.015625,0.03125 V -0.46875 H 2.875 v -2.6875 h 0.5 c 0.96875,0 1.046875,0.421875 1.046875,1.15625 h 0.46875 V -4.796875 H 4.421875 C 4.421875,-4.0625 4.34375,-3.625 3.375,-3.625 h -0.5 v -2.6875 h 1.40625 c 1.59375,0 1.828125,0.765625 1.984375,1.9375 h 0.46875 z m 0,0"
             style="stroke:none;stroke-width:0"
             inkscape:connector-curvature="0" />
        </g>
      </g>
    </g>
    <g
       id="g1121"
       style="fill:#ff0000;fill-opacity:1"
       ns1:jacobian_sqrt="0.881945"
       inkscapeversion="0.92.4"
       ns1:alignment="middle center"
       ns1:scale="2.5"
       ns1:preamble="C:\\Users\\shawn\\AppData\\Roaming\\inkscape\\extensions\\textext\\default_packages.tex"
       ns1:text="$\\mathbf{J}$"
       ns1:pdfconverter="pdf2svg"
       ns1:texconverter="pdflatex"
       ns1:version="0.11.0"
       transform="matrix(0.881945,0.000000,0.000000,0.881945,27.819607,150.936639)">
      <g
         style="fill:#ff0000;fill-opacity:1"
         id="surface1">
        <g
           id="g1118"
           style="fill-opacity:1;fill:#ff0000">
          <path
             id="path1116"
             transform="translate(148.712,134.765)"
             d="M 4.453125 -6.375 L 5.25 -6.375 L 5.25 -6.84375 C 4.90625 -6.8125 4.0625 -6.8125 3.671875 -6.8125 C 3.140625 -6.8125 2.15625 -6.8125 1.6875 -6.84375 L 1.6875 -6.375 L 3.09375 -6.375 L 3.09375 -1.484375 C 3.09375 -1.296875 3.09375 -0.25 2.109375 -0.25 C 1.9375 -0.25 1.609375 -0.28125 1.3125 -0.40625 L 1.3125 -0.421875 C 1.3125 -0.421875 1.75 -0.609375 1.75 -1.140625 C 1.75 -1.671875 1.328125 -1.90625 1 -1.90625 C 0.625 -1.90625 0.234375 -1.65625 0.234375 -1.140625 C 0.234375 -0.375 1.015625 0.109375 2.15625 0.109375 C 3.484375 0.109375 4.453125 -0.453125 4.453125 -1.5 Z M 4.453125 -6.375 "
             style="fill-opacity:1;stroke:none;stroke-width:0;fill:#ff0000" />
        </g>
      </g>
    </g>
    <g
       id="g1273"
       style="fill:#7f0000;fill-opacity:1"
       ns1:jacobian_sqrt="0.881944"
       inkscapeversion="0.92.4"
       ns1:alignment="middle center"
       ns1:scale="2.49999997165"
       ns1:preamble="C:\\Users\\shawn\\AppData\\Roaming\\inkscape\\extensions\\textext\\default_packages.tex"
       ns1:text="$\\mathbf{F} \\bullet \\mathbf{J}$"
       ns1:pdfconverter="pdf2svg"
       ns1:texconverter="pdflatex"
       ns1:version="0.11.0"
       transform="matrix(0.881944,0.000000,0.000000,0.881944,-10.268706,156.299009)">
      <g
         style="fill:#7f0000;fill-opacity:1"
         id="g1271">
        <g
           id="g1261"
           style="fill-opacity:1;fill:#7f0000">
          <path
             id="path1259"
             transform="translate(148.712,134.765)"
             d="M 6.421875 -6.78125 L 0.390625 -6.78125 L 0.390625 -6.3125 L 1.46875 -6.3125 L 1.46875 -0.46875 L 0.390625 -0.46875 L 0.390625 0 C 0.765625 -0.03125 1.78125 -0.03125 2.21875 -0.03125 C 2.703125 -0.03125 3.78125 -0.03125 4.234375 0 L 4.234375 -0.46875 L 2.875 -0.46875 L 2.875 -3.15625 L 3.375 -3.15625 C 4.34375 -3.15625 4.421875 -2.734375 4.421875 -2 L 4.890625 -2 L 4.890625 -4.796875 L 4.421875 -4.796875 C 4.421875 -4.0625 4.34375 -3.625 3.375 -3.625 L 2.875 -3.625 L 2.875 -6.3125 L 4.28125 -6.3125 C 5.875 -6.3125 6.109375 -5.546875 6.265625 -4.375 L 6.734375 -4.375 Z M 6.421875 -6.78125 "
             style="fill-opacity:1;stroke:none;stroke-width:0;fill:#7f0000" />
        </g>
        <g
           id="g1265"
           style="fill-opacity:1;fill:#7f0000">
          <path
             id="path1263"
             transform="translate(158.135,134.765)"
             d="M 4.421875 -2.5 C 4.421875 -3.5625 3.53125 -4.421875 2.5 -4.421875 C 1.421875 -4.421875 0.546875 -3.53125 0.546875 -2.5 C 0.546875 -1.4375 1.421875 -0.5625 2.5 -0.5625 C 3.53125 -0.5625 4.421875 -1.421875 4.421875 -2.5 Z M 4.421875 -2.5 "
             style="fill-opacity:1;stroke:none;stroke-width:0;fill:#7f0000" />
        </g>
        <g
           id="g1269"
           style="fill-opacity:1;fill:#7f0000">
          <path
             id="path1267"
             transform="translate(165.33,134.765)"
             d="M 4.453125 -6.375 L 5.25 -6.375 L 5.25 -6.84375 C 4.90625 -6.8125 4.0625 -6.8125 3.671875 -6.8125 C 3.140625 -6.8125 2.15625 -6.8125 1.6875 -6.84375 L 1.6875 -6.375 L 3.09375 -6.375 L 3.09375 -1.484375 C 3.09375 -1.296875 3.09375 -0.25 2.109375 -0.25 C 1.9375 -0.25 1.609375 -0.28125 1.3125 -0.40625 L 1.3125 -0.421875 C 1.3125 -0.421875 1.75 -0.609375 1.75 -1.140625 C 1.75 -1.671875 1.328125 -1.90625 1 -1.90625 C 0.625 -1.90625 0.234375 -1.65625 0.234375 -1.140625 C 0.234375 -0.375 1.015625 0.109375 2.15625 0.109375 C 3.484375 0.109375 4.453125 -0.453125 4.453125 -1.5 Z M 4.453125 -6.375 "
             style="fill-opacity:1;stroke:none;stroke-width:0;fill:#7f0000" />
        </g>
      </g>
    </g>
    <g
       id="g1425"
       style="fill:#00c800;fill-opacity:1"
       ns1:jacobian_sqrt="0.881945"
       inkscapeversion="0.92.4"
       ns1:alignment="middle center"
       ns1:scale="2.49999997165"
       ns1:preamble="C:\\Users\\shawn\\AppData\\Roaming\\inkscape\\extensions\\textext\\default_packages.tex"
       ns1:text="$\\mathbf{K}$"
       ns1:pdfconverter="pdf2svg"
       ns1:texconverter="pdflatex"
       ns1:version="0.11.0"
       transform="matrix(0.881945,0.000000,0.000000,0.881945,-14.270500,96.627296)">
      <g
         style="fill:#00c800;fill-opacity:1"
         id="g1423">
        <g
           id="g1421"
           style="fill-opacity:1;fill:#00c800">
          <path
             id="path1419"
             transform="translate(148.712,134.765)"
             d="M 4.828125 -4.203125 L 7.234375 -6.1875 C 7.453125 -6.375 7.859375 -6.375 8.171875 -6.375 L 8.328125 -6.375 L 8.328125 -6.84375 C 7.9375 -6.8125 7.359375 -6.8125 7.3125 -6.8125 C 6.9375 -6.8125 6.21875 -6.8125 5.859375 -6.84375 L 5.859375 -6.375 C 5.984375 -6.375 6.1875 -6.375 6.4375 -6.3125 C 6.59375 -6.28125 6.484375 -6.296875 6.5625 -6.265625 L 2.875 -3.1875 L 2.875 -6.375 L 3.953125 -6.375 L 3.953125 -6.84375 C 3.578125 -6.8125 2.609375 -6.8125 2.171875 -6.8125 C 1.75 -6.8125 0.765625 -6.8125 0.390625 -6.84375 L 0.390625 -6.375 L 1.46875 -6.375 L 1.46875 -0.46875 L 0.390625 -0.46875 L 0.390625 0 C 0.765625 -0.03125 1.75 -0.03125 2.171875 -0.03125 C 2.609375 -0.03125 3.578125 -0.03125 3.953125 0 L 3.953125 -0.46875 L 2.875 -0.46875 L 2.875 -2.5625 L 3.875 -3.390625 L 5.9375 -0.6875 C 5.984375 -0.625 5.984375 -0.609375 6.015625 -0.546875 C 5.828125 -0.46875 5.625 -0.46875 5.28125 -0.46875 L 5.28125 0 C 5.6875 -0.03125 6.59375 -0.03125 7.03125 -0.03125 C 7.4375 -0.03125 8.125 -0.03125 8.5 0 L 8.5 -0.46875 L 8.203125 -0.46875 C 7.671875 -0.46875 7.640625 -0.515625 7.53125 -0.671875 Z M 4.828125 -4.203125 "
             style="fill-opacity:1;stroke:none;stroke-width:0;fill:#00c800" />
        </g>
      </g>
    </g>
    <g
       id="g1598"
       style="fill:#0000ff;fill-opacity:1"
       ns1:jacobian_sqrt="0.881944"
       inkscapeversion="0.92.4"
       ns1:alignment="middle center"
       ns1:scale="2.49999997165"
       ns1:preamble="C:\\Users\\shawn\\AppData\\Roaming\\inkscape\\extensions\\textext\\default_packages.tex"
       ns1:text="$\\epsilon^{-1}(\\mathbf{J}) \\times \\epsilon^{-1}(\\mathbf{K})$"
       ns1:pdfconverter="pdf2svg"
       ns1:texconverter="pdflatex"
       ns1:version="0.11.0"
       transform="matrix(0.881944,0.000000,0.000000,0.881944,-117.316614,28.932725)">
      <g
         style="fill:#0000ff;fill-opacity:1"
         id="g1596">
        <g
           id="g1546"
           style="fill-opacity:1;fill:#0000ff">
          <path
             id="path1544"
             transform="translate(148.712,134.765)"
             d="M 2.96875 -2.25 C 3.125 -2.25 3.3125 -2.25 3.3125 -2.421875 C 3.3125 -2.5625 3.1875 -2.5625 3.015625 -2.5625 L 1.40625 -2.5625 C 1.640625 -3.40625 2.203125 -3.984375 3.109375 -3.984375 L 3.421875 -3.984375 C 3.59375 -3.984375 3.75 -3.984375 3.75 -4.15625 C 3.75 -4.296875 3.625 -4.296875 3.453125 -4.296875 L 3.09375 -4.296875 C 1.796875 -4.296875 0.46875 -3.296875 0.46875 -1.78125 C 0.46875 -0.671875 1.21875 0.109375 2.265625 0.109375 C 2.921875 0.109375 3.5625 -0.296875 3.5625 -0.40625 C 3.5625 -0.421875 3.5625 -0.53125 3.46875 -0.53125 C 3.453125 -0.53125 3.421875 -0.53125 3.34375 -0.484375 C 3.03125 -0.28125 2.65625 -0.109375 2.296875 -0.109375 C 1.71875 -0.109375 1.21875 -0.53125 1.21875 -1.40625 C 1.21875 -1.75 1.296875 -2.140625 1.328125 -2.25 Z M 2.96875 -2.25 "
             style="fill-opacity:1;stroke:none;stroke-width:0;fill:#0000ff" />
        </g>
        <g
           id="g1550"
           style="fill-opacity:1;fill:#0000ff">
          <path
             id="path1548"
             transform="translate(152.756,131.149)"
             d="M 5.1875 -1.578125 C 5.296875 -1.578125 5.46875 -1.578125 5.46875 -1.734375 C 5.46875 -1.921875 5.296875 -1.921875 5.1875 -1.921875 L 1.03125 -1.921875 C 0.921875 -1.921875 0.75 -1.921875 0.75 -1.75 C 0.75 -1.578125 0.90625 -1.578125 1.03125 -1.578125 Z M 5.1875 -1.578125 "
             style="fill-opacity:1;stroke:none;stroke-width:0;fill:#0000ff" />
        </g>
        <g
           id="g1554"
           style="fill-opacity:1;fill:#0000ff">
          <path
             id="path1552"
             transform="translate(158.983,131.149)"
             d="M 2.328125 -4.4375 C 2.328125 -4.625 2.328125 -4.625 2.125 -4.625 C 1.671875 -4.1875 1.046875 -4.1875 0.765625 -4.1875 L 0.765625 -3.9375 C 0.921875 -3.9375 1.390625 -3.9375 1.765625 -4.125 L 1.765625 -0.578125 C 1.765625 -0.34375 1.765625 -0.25 1.078125 -0.25 L 0.8125 -0.25 L 0.8125 0 C 0.9375 0 1.796875 -0.03125 2.046875 -0.03125 C 2.265625 -0.03125 3.140625 0 3.296875 0 L 3.296875 -0.25 L 3.03125 -0.25 C 2.328125 -0.25 2.328125 -0.34375 2.328125 -0.578125 Z M 2.328125 -4.4375 "
             style="fill-opacity:1;stroke:none;stroke-width:0;fill:#0000ff" />
        </g>
        <g
           id="g1558"
           style="fill-opacity:1;fill:#0000ff">
          <path
             id="path1556"
             transform="translate(163.452,134.765)"
             d="M 3.296875 2.390625 C 3.296875 2.359375 3.296875 2.34375 3.125 2.171875 C 1.890625 0.921875 1.5625 -0.96875 1.5625 -2.5 C 1.5625 -4.234375 1.9375 -5.96875 3.171875 -7.203125 C 3.296875 -7.328125 3.296875 -7.34375 3.296875 -7.375 C 3.296875 -7.453125 3.265625 -7.484375 3.203125 -7.484375 C 3.09375 -7.484375 2.203125 -6.796875 1.609375 -5.53125 C 1.109375 -4.4375 0.984375 -3.328125 0.984375 -2.5 C 0.984375 -1.71875 1.09375 -0.515625 1.640625 0.625 C 2.25 1.84375 3.09375 2.5 3.203125 2.5 C 3.265625 2.5 3.296875 2.46875 3.296875 2.390625 Z M 3.296875 2.390625 "
             style="fill-opacity:1;stroke:none;stroke-width:0;fill:#0000ff" />
        </g>
        <g
           id="g1562"
           style="fill-opacity:1;fill:#0000ff">
          <path
             id="path1560"
             transform="translate(167.327,134.765)"
             d="M 4.453125 -6.375 L 5.25 -6.375 L 5.25 -6.84375 C 4.90625 -6.8125 4.0625 -6.8125 3.671875 -6.8125 C 3.140625 -6.8125 2.15625 -6.8125 1.6875 -6.84375 L 1.6875 -6.375 L 3.09375 -6.375 L 3.09375 -1.484375 C 3.09375 -1.296875 3.09375 -0.25 2.109375 -0.25 C 1.9375 -0.25 1.609375 -0.28125 1.3125 -0.40625 L 1.3125 -0.421875 C 1.3125 -0.421875 1.75 -0.609375 1.75 -1.140625 C 1.75 -1.671875 1.328125 -1.90625 1 -1.90625 C 0.625 -1.90625 0.234375 -1.65625 0.234375 -1.140625 C 0.234375 -0.375 1.015625 0.109375 2.15625 0.109375 C 3.484375 0.109375 4.453125 -0.453125 4.453125 -1.5 Z M 4.453125 -6.375 "
             style="fill-opacity:1;stroke:none;stroke-width:0;fill:#0000ff" />
        </g>
        <g
           id="g1566"
           style="fill-opacity:1;fill:#0000ff">
          <path
             id="path1564"
             transform="translate(173.249,134.765)"
             d="M 2.875 -2.5 C 2.875 -3.265625 2.765625 -4.46875 2.21875 -5.609375 C 1.625 -6.828125 0.765625 -7.484375 0.671875 -7.484375 C 0.609375 -7.484375 0.5625 -7.4375 0.5625 -7.375 C 0.5625 -7.34375 0.5625 -7.328125 0.75 -7.140625 C 1.734375 -6.15625 2.296875 -4.578125 2.296875 -2.5 C 2.296875 -0.78125 1.9375 0.96875 0.703125 2.21875 C 0.5625 2.34375 0.5625 2.359375 0.5625 2.390625 C 0.5625 2.453125 0.609375 2.5 0.671875 2.5 C 0.765625 2.5 1.671875 1.8125 2.25 0.546875 C 2.765625 -0.546875 2.875 -1.65625 2.875 -2.5 Z M 2.875 -2.5 "
             style="fill-opacity:1;stroke:none;stroke-width:0;fill:#0000ff" />
        </g>
        <g
           id="g1570"
           style="fill-opacity:1;fill:#0000ff">
          <path
             id="path1568"
             transform="translate(179.337,134.765)"
             d="M 3.875 -2.765625 L 1.890625 -4.75 C 1.765625 -4.875 1.75 -4.890625 1.671875 -4.890625 C 1.5625 -4.890625 1.46875 -4.8125 1.46875 -4.6875 C 1.46875 -4.625 1.484375 -4.609375 1.59375 -4.5 L 3.59375 -2.5 L 1.59375 -0.484375 C 1.484375 -0.375 1.46875 -0.359375 1.46875 -0.296875 C 1.46875 -0.171875 1.5625 -0.09375 1.671875 -0.09375 C 1.75 -0.09375 1.765625 -0.109375 1.890625 -0.234375 L 3.875 -2.21875 L 5.9375 -0.15625 C 5.953125 -0.140625 6.015625 -0.09375 6.078125 -0.09375 C 6.203125 -0.09375 6.28125 -0.171875 6.28125 -0.296875 C 6.28125 -0.3125 6.28125 -0.34375 6.25 -0.40625 C 6.234375 -0.421875 4.65625 -1.984375 4.15625 -2.5 L 5.984375 -4.3125 C 6.03125 -4.375 6.1875 -4.5 6.234375 -4.5625 C 6.234375 -4.578125 6.28125 -4.625 6.28125 -4.6875 C 6.28125 -4.8125 6.203125 -4.890625 6.078125 -4.890625 C 6 -4.890625 5.96875 -4.859375 5.859375 -4.75 Z M 3.875 -2.765625 "
             style="fill-opacity:1;stroke:none;stroke-width:0;fill:#0000ff" />
        </g>
        <g
           id="g1574"
           style="fill-opacity:1;fill:#0000ff">
          <path
             id="path1572"
             transform="translate(189.3,134.765)"
             d="M 2.96875 -2.25 C 3.125 -2.25 3.3125 -2.25 3.3125 -2.421875 C 3.3125 -2.5625 3.1875 -2.5625 3.015625 -2.5625 L 1.40625 -2.5625 C 1.640625 -3.40625 2.203125 -3.984375 3.109375 -3.984375 L 3.421875 -3.984375 C 3.59375 -3.984375 3.75 -3.984375 3.75 -4.15625 C 3.75 -4.296875 3.625 -4.296875 3.453125 -4.296875 L 3.09375 -4.296875 C 1.796875 -4.296875 0.46875 -3.296875 0.46875 -1.78125 C 0.46875 -0.671875 1.21875 0.109375 2.265625 0.109375 C 2.921875 0.109375 3.5625 -0.296875 3.5625 -0.40625 C 3.5625 -0.421875 3.5625 -0.53125 3.46875 -0.53125 C 3.453125 -0.53125 3.421875 -0.53125 3.34375 -0.484375 C 3.03125 -0.28125 2.65625 -0.109375 2.296875 -0.109375 C 1.71875 -0.109375 1.21875 -0.53125 1.21875 -1.40625 C 1.21875 -1.75 1.296875 -2.140625 1.328125 -2.25 Z M 2.96875 -2.25 "
             style="fill-opacity:1;stroke:none;stroke-width:0;fill:#0000ff" />
        </g>
        <g
           id="g1578"
           style="fill-opacity:1;fill:#0000ff">
          <path
             id="path1576"
             transform="translate(193.344,131.149)"
             d="M 5.1875 -1.578125 C 5.296875 -1.578125 5.46875 -1.578125 5.46875 -1.734375 C 5.46875 -1.921875 5.296875 -1.921875 5.1875 -1.921875 L 1.03125 -1.921875 C 0.921875 -1.921875 0.75 -1.921875 0.75 -1.75 C 0.75 -1.578125 0.90625 -1.578125 1.03125 -1.578125 Z M 5.1875 -1.578125 "
             style="fill-opacity:1;stroke:none;stroke-width:0;fill:#0000ff" />
        </g>
        <g
           id="g1582"
           style="fill-opacity:1;fill:#0000ff">
          <path
             id="path1580"
             transform="translate(199.57,131.149)"
             d="M 2.328125 -4.4375 C 2.328125 -4.625 2.328125 -4.625 2.125 -4.625 C 1.671875 -4.1875 1.046875 -4.1875 0.765625 -4.1875 L 0.765625 -3.9375 C 0.921875 -3.9375 1.390625 -3.9375 1.765625 -4.125 L 1.765625 -0.578125 C 1.765625 -0.34375 1.765625 -0.25 1.078125 -0.25 L 0.8125 -0.25 L 0.8125 0 C 0.9375 0 1.796875 -0.03125 2.046875 -0.03125 C 2.265625 -0.03125 3.140625 0 3.296875 0 L 3.296875 -0.25 L 3.03125 -0.25 C 2.328125 -0.25 2.328125 -0.34375 2.328125 -0.578125 Z M 2.328125 -4.4375 "
             style="fill-opacity:1;stroke:none;stroke-width:0;fill:#0000ff" />
        </g>
        <g
           id="g1586"
           style="fill-opacity:1;fill:#0000ff">
          <path
             id="path1584"
             transform="translate(204.04,134.765)"
             d="M 3.296875 2.390625 C 3.296875 2.359375 3.296875 2.34375 3.125 2.171875 C 1.890625 0.921875 1.5625 -0.96875 1.5625 -2.5 C 1.5625 -4.234375 1.9375 -5.96875 3.171875 -7.203125 C 3.296875 -7.328125 3.296875 -7.34375 3.296875 -7.375 C 3.296875 -7.453125 3.265625 -7.484375 3.203125 -7.484375 C 3.09375 -7.484375 2.203125 -6.796875 1.609375 -5.53125 C 1.109375 -4.4375 0.984375 -3.328125 0.984375 -2.5 C 0.984375 -1.71875 1.09375 -0.515625 1.640625 0.625 C 2.25 1.84375 3.09375 2.5 3.203125 2.5 C 3.265625 2.5 3.296875 2.46875 3.296875 2.390625 Z M 3.296875 2.390625 "
             style="fill-opacity:1;stroke:none;stroke-width:0;fill:#0000ff" />
        </g>
        <g
           id="g1590"
           style="fill-opacity:1;fill:#0000ff">
          <path
             id="path1588"
             transform="translate(207.914,134.765)"
             d="M 4.828125 -4.203125 L 7.234375 -6.1875 C 7.453125 -6.375 7.859375 -6.375 8.171875 -6.375 L 8.328125 -6.375 L 8.328125 -6.84375 C 7.9375 -6.8125 7.359375 -6.8125 7.3125 -6.8125 C 6.9375 -6.8125 6.21875 -6.8125 5.859375 -6.84375 L 5.859375 -6.375 C 5.984375 -6.375 6.1875 -6.375 6.4375 -6.3125 C 6.59375 -6.28125 6.484375 -6.296875 6.5625 -6.265625 L 2.875 -3.1875 L 2.875 -6.375 L 3.953125 -6.375 L 3.953125 -6.84375 C 3.578125 -6.8125 2.609375 -6.8125 2.171875 -6.8125 C 1.75 -6.8125 0.765625 -6.8125 0.390625 -6.84375 L 0.390625 -6.375 L 1.46875 -6.375 L 1.46875 -0.46875 L 0.390625 -0.46875 L 0.390625 0 C 0.765625 -0.03125 1.75 -0.03125 2.171875 -0.03125 C 2.609375 -0.03125 3.578125 -0.03125 3.953125 0 L 3.953125 -0.46875 L 2.875 -0.46875 L 2.875 -2.5625 L 3.875 -3.390625 L 5.9375 -0.6875 C 5.984375 -0.625 5.984375 -0.609375 6.015625 -0.546875 C 5.828125 -0.46875 5.625 -0.46875 5.28125 -0.46875 L 5.28125 0 C 5.6875 -0.03125 6.59375 -0.03125 7.03125 -0.03125 C 7.4375 -0.03125 8.125 -0.03125 8.5 0 L 8.5 -0.46875 L 8.203125 -0.46875 C 7.671875 -0.46875 7.640625 -0.515625 7.53125 -0.671875 Z M 4.828125 -4.203125 "
             style="fill-opacity:1;stroke:none;stroke-width:0;fill:#0000ff" />
        </g>
        <g
           id="g1594"
           style="fill-opacity:1;fill:#0000ff">
          <path
             id="path1592"
             transform="translate(216.894,134.765)"
             d="M 2.875 -2.5 C 2.875 -3.265625 2.765625 -4.46875 2.21875 -5.609375 C 1.625 -6.828125 0.765625 -7.484375 0.671875 -7.484375 C 0.609375 -7.484375 0.5625 -7.4375 0.5625 -7.375 C 0.5625 -7.34375 0.5625 -7.328125 0.75 -7.140625 C 1.734375 -6.15625 2.296875 -4.578125 2.296875 -2.5 C 2.296875 -0.78125 1.9375 0.96875 0.703125 2.21875 C 0.5625 2.34375 0.5625 2.359375 0.5625 2.390625 C 0.5625 2.453125 0.609375 2.5 0.671875 2.5 C 0.765625 2.5 1.671875 1.8125 2.25 0.546875 C 2.765625 -0.546875 2.875 -1.65625 2.875 -2.5 Z M 2.875 -2.5 "
             style="fill-opacity:1;stroke:none;stroke-width:0;fill:#0000ff" />
        </g>
      </g>
    </g>
    <g
       id="g1788"
       style="fill:#7f7f00;fill-opacity:1"
       ns1:jacobian_sqrt="0.881944"
       inkscapeversion="0.92.4"
       ns1:alignment="middle center"
       ns1:scale="2.49999997165"
       ns1:preamble="C:\\Users\\shawn\\AppData\\Roaming\\inkscape\\extensions\\textext\\default_packages.tex"
       ns1:text="$-\\iota^{-1}(\\mathbf{F} \\bullet \\mathbf{J})\\mathbf{K}$"
       ns1:pdfconverter="pdf2svg"
       ns1:texconverter="pdflatex"
       ns1:version="0.11.0"
       transform="matrix(0.881944,0.000000,0.000000,0.881944,-124.184829,129.402630)">
      <g
         style="fill:#7f7f00;fill-opacity:1"
         id="g1786">
        <g
           id="g1748"
           style="fill-opacity:1;fill:#7f7f00">
          <path
             id="path1746"
             transform="translate(148.712,134.765)"
             d="M 6.5625 -2.296875 C 6.734375 -2.296875 6.921875 -2.296875 6.921875 -2.5 C 6.921875 -2.6875 6.734375 -2.6875 6.5625 -2.6875 L 1.171875 -2.6875 C 1 -2.6875 0.828125 -2.6875 0.828125 -2.5 C 0.828125 -2.296875 1 -2.296875 1.171875 -2.296875 Z M 6.5625 -2.296875 "
             style="fill-opacity:1;stroke:none;stroke-width:0;fill:#7f7f00" />
        </g>
        <g
           id="g1752"
           style="fill-opacity:1;fill:#7f7f00">
          <path
             id="path1750"
             transform="translate(156.461,134.765)"
             d="M 3.234375 -1.421875 C 3.234375 -1.53125 3.140625 -1.53125 3.109375 -1.53125 C 3.015625 -1.53125 3 -1.484375 2.984375 -1.421875 C 2.671875 -0.4375 1.84375 -0.109375 1.421875 -0.109375 C 1.28125 -0.109375 1.15625 -0.140625 1.15625 -0.4375 C 1.15625 -0.671875 1.234375 -0.90625 1.328125 -1.171875 C 1.78125 -2.375 2.1875 -4.0625 2.1875 -4.140625 C 2.1875 -4.3125 2.078125 -4.40625 1.90625 -4.40625 C 1.796875 -4.40625 1.609375 -4.34375 1.53125 -4.140625 C 1.46875 -3.953125 1.375 -3.46875 1.3125 -3.28125 C 1.296875 -3.234375 1.046875 -2.359375 1.015625 -2.21875 C 0.984375 -2.125 0.890625 -1.875 0.875 -1.78125 C 0.796875 -1.5 0.5625 -1.03125 0.5625 -0.703125 C 0.5625 -0.296875 0.84375 0.109375 1.390625 0.109375 C 2.53125 0.109375 3.234375 -1.09375 3.234375 -1.421875 Z M 3.234375 -1.421875 "
             style="fill-opacity:1;stroke:none;stroke-width:0;fill:#7f7f00" />
        </g>
        <g
           id="g1756"
           style="fill-opacity:1;fill:#7f7f00">
          <path
             id="path1754"
             transform="translate(159.987,131.149)"
             d="M 5.1875 -1.578125 C 5.296875 -1.578125 5.46875 -1.578125 5.46875 -1.734375 C 5.46875 -1.921875 5.296875 -1.921875 5.1875 -1.921875 L 1.03125 -1.921875 C 0.921875 -1.921875 0.75 -1.921875 0.75 -1.75 C 0.75 -1.578125 0.90625 -1.578125 1.03125 -1.578125 Z M 5.1875 -1.578125 "
             style="fill-opacity:1;stroke:none;stroke-width:0;fill:#7f7f00" />
        </g>
        <g
           id="g1760"
           style="fill-opacity:1;fill:#7f7f00">
          <path
             id="path1758"
             transform="translate(166.214,131.149)"
             d="M 2.328125 -4.4375 C 2.328125 -4.625 2.328125 -4.625 2.125 -4.625 C 1.671875 -4.1875 1.046875 -4.1875 0.765625 -4.1875 L 0.765625 -3.9375 C 0.921875 -3.9375 1.390625 -3.9375 1.765625 -4.125 L 1.765625 -0.578125 C 1.765625 -0.34375 1.765625 -0.25 1.078125 -0.25 L 0.8125 -0.25 L 0.8125 0 C 0.9375 0 1.796875 -0.03125 2.046875 -0.03125 C 2.265625 -0.03125 3.140625 0 3.296875 0 L 3.296875 -0.25 L 3.03125 -0.25 C 2.328125 -0.25 2.328125 -0.34375 2.328125 -0.578125 Z M 2.328125 -4.4375 "
             style="fill-opacity:1;stroke:none;stroke-width:0;fill:#7f7f00" />
        </g>
        <g
           id="g1764"
           style="fill-opacity:1;fill:#7f7f00">
          <path
             id="path1762"
             transform="translate(170.683,134.765)"
             d="M 3.296875 2.390625 C 3.296875 2.359375 3.296875 2.34375 3.125 2.171875 C 1.890625 0.921875 1.5625 -0.96875 1.5625 -2.5 C 1.5625 -4.234375 1.9375 -5.96875 3.171875 -7.203125 C 3.296875 -7.328125 3.296875 -7.34375 3.296875 -7.375 C 3.296875 -7.453125 3.265625 -7.484375 3.203125 -7.484375 C 3.09375 -7.484375 2.203125 -6.796875 1.609375 -5.53125 C 1.109375 -4.4375 0.984375 -3.328125 0.984375 -2.5 C 0.984375 -1.71875 1.09375 -0.515625 1.640625 0.625 C 2.25 1.84375 3.09375 2.5 3.203125 2.5 C 3.265625 2.5 3.296875 2.46875 3.296875 2.390625 Z M 3.296875 2.390625 "
             style="fill-opacity:1;stroke:none;stroke-width:0;fill:#7f7f00" />
        </g>
        <g
           id="g1768"
           style="fill-opacity:1;fill:#7f7f00">
          <path
             id="path1766"
             transform="translate(174.558,134.765)"
             d="M 6.421875 -6.78125 L 0.390625 -6.78125 L 0.390625 -6.3125 L 1.46875 -6.3125 L 1.46875 -0.46875 L 0.390625 -0.46875 L 0.390625 0 C 0.765625 -0.03125 1.78125 -0.03125 2.21875 -0.03125 C 2.703125 -0.03125 3.78125 -0.03125 4.234375 0 L 4.234375 -0.46875 L 2.875 -0.46875 L 2.875 -3.15625 L 3.375 -3.15625 C 4.34375 -3.15625 4.421875 -2.734375 4.421875 -2 L 4.890625 -2 L 4.890625 -4.796875 L 4.421875 -4.796875 C 4.421875 -4.0625 4.34375 -3.625 3.375 -3.625 L 2.875 -3.625 L 2.875 -6.3125 L 4.28125 -6.3125 C 5.875 -6.3125 6.109375 -5.546875 6.265625 -4.375 L 6.734375 -4.375 Z M 6.421875 -6.78125 "
             style="fill-opacity:1;stroke:none;stroke-width:0;fill:#7f7f00" />
        </g>
        <g
           id="g1772"
           style="fill-opacity:1;fill:#7f7f00">
          <path
             id="path1770"
             transform="translate(183.98,134.765)"
             d="M 4.421875 -2.5 C 4.421875 -3.5625 3.53125 -4.421875 2.5 -4.421875 C 1.421875 -4.421875 0.546875 -3.53125 0.546875 -2.5 C 0.546875 -1.4375 1.421875 -0.5625 2.5 -0.5625 C 3.53125 -0.5625 4.421875 -1.421875 4.421875 -2.5 Z M 4.421875 -2.5 "
             style="fill-opacity:1;stroke:none;stroke-width:0;fill:#7f7f00" />
        </g>
        <g
           id="g1776"
           style="fill-opacity:1;fill:#7f7f00">
          <path
             id="path1774"
             transform="translate(191.176,134.765)"
             d="M 4.453125 -6.375 L 5.25 -6.375 L 5.25 -6.84375 C 4.90625 -6.8125 4.0625 -6.8125 3.671875 -6.8125 C 3.140625 -6.8125 2.15625 -6.8125 1.6875 -6.84375 L 1.6875 -6.375 L 3.09375 -6.375 L 3.09375 -1.484375 C 3.09375 -1.296875 3.09375 -0.25 2.109375 -0.25 C 1.9375 -0.25 1.609375 -0.28125 1.3125 -0.40625 L 1.3125 -0.421875 C 1.3125 -0.421875 1.75 -0.609375 1.75 -1.140625 C 1.75 -1.671875 1.328125 -1.90625 1 -1.90625 C 0.625 -1.90625 0.234375 -1.65625 0.234375 -1.140625 C 0.234375 -0.375 1.015625 0.109375 2.15625 0.109375 C 3.484375 0.109375 4.453125 -0.453125 4.453125 -1.5 Z M 4.453125 -6.375 "
             style="fill-opacity:1;stroke:none;stroke-width:0;fill:#7f7f00" />
        </g>
        <g
           id="g1780"
           style="fill-opacity:1;fill:#7f7f00">
          <path
             id="path1778"
             transform="translate(197.098,134.765)"
             d="M 2.875 -2.5 C 2.875 -3.265625 2.765625 -4.46875 2.21875 -5.609375 C 1.625 -6.828125 0.765625 -7.484375 0.671875 -7.484375 C 0.609375 -7.484375 0.5625 -7.4375 0.5625 -7.375 C 0.5625 -7.34375 0.5625 -7.328125 0.75 -7.140625 C 1.734375 -6.15625 2.296875 -4.578125 2.296875 -2.5 C 2.296875 -0.78125 1.9375 0.96875 0.703125 2.21875 C 0.5625 2.34375 0.5625 2.359375 0.5625 2.390625 C 0.5625 2.453125 0.609375 2.5 0.671875 2.5 C 0.765625 2.5 1.671875 1.8125 2.25 0.546875 C 2.765625 -0.546875 2.875 -1.65625 2.875 -2.5 Z M 2.875 -2.5 "
             style="fill-opacity:1;stroke:none;stroke-width:0;fill:#7f7f00" />
        </g>
        <g
           id="g1784"
           style="fill-opacity:1;fill:#7f7f00">
          <path
             id="path1782"
             transform="translate(200.972,134.765)"
             d="M 4.828125 -4.203125 L 7.234375 -6.1875 C 7.453125 -6.375 7.859375 -6.375 8.171875 -6.375 L 8.328125 -6.375 L 8.328125 -6.84375 C 7.9375 -6.8125 7.359375 -6.8125 7.3125 -6.8125 C 6.9375 -6.8125 6.21875 -6.8125 5.859375 -6.84375 L 5.859375 -6.375 C 5.984375 -6.375 6.1875 -6.375 6.4375 -6.3125 C 6.59375 -6.28125 6.484375 -6.296875 6.5625 -6.265625 L 2.875 -3.1875 L 2.875 -6.375 L 3.953125 -6.375 L 3.953125 -6.84375 C 3.578125 -6.8125 2.609375 -6.8125 2.171875 -6.8125 C 1.75 -6.8125 0.765625 -6.8125 0.390625 -6.84375 L 0.390625 -6.375 L 1.46875 -6.375 L 1.46875 -0.46875 L 0.390625 -0.46875 L 0.390625 0 C 0.765625 -0.03125 1.75 -0.03125 2.171875 -0.03125 C 2.609375 -0.03125 3.578125 -0.03125 3.953125 0 L 3.953125 -0.46875 L 2.875 -0.46875 L 2.875 -2.5625 L 3.875 -3.390625 L 5.9375 -0.6875 C 5.984375 -0.625 5.984375 -0.609375 6.015625 -0.546875 C 5.828125 -0.46875 5.625 -0.46875 5.28125 -0.46875 L 5.28125 0 C 5.6875 -0.03125 6.59375 -0.03125 7.03125 -0.03125 C 7.4375 -0.03125 8.125 -0.03125 8.5 0 L 8.5 -0.46875 L 8.203125 -0.46875 C 7.671875 -0.46875 7.640625 -0.515625 7.53125 -0.671875 Z M 4.828125 -4.203125 "
             style="fill-opacity:1;stroke:none;stroke-width:0;fill:#7f7f00" />
        </g>
      </g>
    </g>
    <g
       id="g1991"
       ns1:jacobian_sqrt="0.881944"
       inkscapeversion="0.92.4"
       ns1:alignment="middle center"
       ns1:scale="2.49999997165"
       ns1:preamble="C:\\Users\\shawn\\AppData\\Roaming\\inkscape\\extensions\\textext\\default_packages.tex"
       ns1:text="$\\mathbf{F} \\times \\epsilon^{-1}(\\epsilon^{-1}(\\mathbf{J}) \\times \\epsilon^{-1}(\\mathbf{K}))$"
       ns1:pdfconverter="pdf2svg"
       ns1:texconverter="pdflatex"
       ns1:version="0.11.0"
       transform="matrix(0.881944,0.000000,0.000000,0.881944,-30.203411,116.362450)">
      <g
         id="g1989">
        <g
           id="g1913"
           style="fill:rgb(0%,0%,0%);fill-opacity:1;">
          <path
             id="path1911"
             transform="translate(148.712,134.765)"
             d="M 6.421875 -6.78125 L 0.390625 -6.78125 L 0.390625 -6.3125 L 1.46875 -6.3125 L 1.46875 -0.46875 L 0.390625 -0.46875 L 0.390625 0 C 0.765625 -0.03125 1.78125 -0.03125 2.21875 -0.03125 C 2.703125 -0.03125 3.78125 -0.03125 4.234375 0 L 4.234375 -0.46875 L 2.875 -0.46875 L 2.875 -3.15625 L 3.375 -3.15625 C 4.34375 -3.15625 4.421875 -2.734375 4.421875 -2 L 4.890625 -2 L 4.890625 -4.796875 L 4.421875 -4.796875 C 4.421875 -4.0625 4.34375 -3.625 3.375 -3.625 L 2.875 -3.625 L 2.875 -6.3125 L 4.28125 -6.3125 C 5.875 -6.3125 6.109375 -5.546875 6.265625 -4.375 L 6.734375 -4.375 Z M 6.421875 -6.78125 "
             style="stroke:none;stroke-width:0" />
        </g>
        <g
           id="g1917"
           style="fill:rgb(0%,0%,0%);fill-opacity:1;">
          <path
             id="path1915"
             transform="translate(158.135,134.765)"
             d="M 3.875 -2.765625 L 1.890625 -4.75 C 1.765625 -4.875 1.75 -4.890625 1.671875 -4.890625 C 1.5625 -4.890625 1.46875 -4.8125 1.46875 -4.6875 C 1.46875 -4.625 1.484375 -4.609375 1.59375 -4.5 L 3.59375 -2.5 L 1.59375 -0.484375 C 1.484375 -0.375 1.46875 -0.359375 1.46875 -0.296875 C 1.46875 -0.171875 1.5625 -0.09375 1.671875 -0.09375 C 1.75 -0.09375 1.765625 -0.109375 1.890625 -0.234375 L 3.875 -2.21875 L 5.9375 -0.15625 C 5.953125 -0.140625 6.015625 -0.09375 6.078125 -0.09375 C 6.203125 -0.09375 6.28125 -0.171875 6.28125 -0.296875 C 6.28125 -0.3125 6.28125 -0.34375 6.25 -0.40625 C 6.234375 -0.421875 4.65625 -1.984375 4.15625 -2.5 L 5.984375 -4.3125 C 6.03125 -4.375 6.1875 -4.5 6.234375 -4.5625 C 6.234375 -4.578125 6.28125 -4.625 6.28125 -4.6875 C 6.28125 -4.8125 6.203125 -4.890625 6.078125 -4.890625 C 6 -4.890625 5.96875 -4.859375 5.859375 -4.75 Z M 3.875 -2.765625 "
             style="stroke:none;stroke-width:0" />
        </g>
        <g
           id="g1921"
           style="fill:rgb(0%,0%,0%);fill-opacity:1;">
          <path
             id="path1919"
             transform="translate(168.098,134.765)"
             d="M 2.96875 -2.25 C 3.125 -2.25 3.3125 -2.25 3.3125 -2.421875 C 3.3125 -2.5625 3.1875 -2.5625 3.015625 -2.5625 L 1.40625 -2.5625 C 1.640625 -3.40625 2.203125 -3.984375 3.109375 -3.984375 L 3.421875 -3.984375 C 3.59375 -3.984375 3.75 -3.984375 3.75 -4.15625 C 3.75 -4.296875 3.625 -4.296875 3.453125 -4.296875 L 3.09375 -4.296875 C 1.796875 -4.296875 0.46875 -3.296875 0.46875 -1.78125 C 0.46875 -0.671875 1.21875 0.109375 2.265625 0.109375 C 2.921875 0.109375 3.5625 -0.296875 3.5625 -0.40625 C 3.5625 -0.421875 3.5625 -0.53125 3.46875 -0.53125 C 3.453125 -0.53125 3.421875 -0.53125 3.34375 -0.484375 C 3.03125 -0.28125 2.65625 -0.109375 2.296875 -0.109375 C 1.71875 -0.109375 1.21875 -0.53125 1.21875 -1.40625 C 1.21875 -1.75 1.296875 -2.140625 1.328125 -2.25 Z M 2.96875 -2.25 "
             style="stroke:none;stroke-width:0" />
        </g>
        <g
           id="g1925"
           style="fill:rgb(0%,0%,0%);fill-opacity:1;">
          <path
             id="path1923"
             transform="translate(172.142,131.149)"
             d="M 5.1875 -1.578125 C 5.296875 -1.578125 5.46875 -1.578125 5.46875 -1.734375 C 5.46875 -1.921875 5.296875 -1.921875 5.1875 -1.921875 L 1.03125 -1.921875 C 0.921875 -1.921875 0.75 -1.921875 0.75 -1.75 C 0.75 -1.578125 0.90625 -1.578125 1.03125 -1.578125 Z M 5.1875 -1.578125 "
             style="stroke:none;stroke-width:0" />
        </g>
        <g
           id="g1929"
           style="fill:rgb(0%,0%,0%);fill-opacity:1;">
          <path
             id="path1927"
             transform="translate(178.368,131.149)"
             d="M 2.328125 -4.4375 C 2.328125 -4.625 2.328125 -4.625 2.125 -4.625 C 1.671875 -4.1875 1.046875 -4.1875 0.765625 -4.1875 L 0.765625 -3.9375 C 0.921875 -3.9375 1.390625 -3.9375 1.765625 -4.125 L 1.765625 -0.578125 C 1.765625 -0.34375 1.765625 -0.25 1.078125 -0.25 L 0.8125 -0.25 L 0.8125 0 C 0.9375 0 1.796875 -0.03125 2.046875 -0.03125 C 2.265625 -0.03125 3.140625 0 3.296875 0 L 3.296875 -0.25 L 3.03125 -0.25 C 2.328125 -0.25 2.328125 -0.34375 2.328125 -0.578125 Z M 2.328125 -4.4375 "
             style="stroke:none;stroke-width:0" />
        </g>
        <g
           id="g1933"
           style="fill:rgb(0%,0%,0%);fill-opacity:1;">
          <path
             id="path1931"
             transform="translate(182.838,134.765)"
             d="M 3.296875 2.390625 C 3.296875 2.359375 3.296875 2.34375 3.125 2.171875 C 1.890625 0.921875 1.5625 -0.96875 1.5625 -2.5 C 1.5625 -4.234375 1.9375 -5.96875 3.171875 -7.203125 C 3.296875 -7.328125 3.296875 -7.34375 3.296875 -7.375 C 3.296875 -7.453125 3.265625 -7.484375 3.203125 -7.484375 C 3.09375 -7.484375 2.203125 -6.796875 1.609375 -5.53125 C 1.109375 -4.4375 0.984375 -3.328125 0.984375 -2.5 C 0.984375 -1.71875 1.09375 -0.515625 1.640625 0.625 C 2.25 1.84375 3.09375 2.5 3.203125 2.5 C 3.265625 2.5 3.296875 2.46875 3.296875 2.390625 Z M 3.296875 2.390625 "
             style="stroke:none;stroke-width:0" />
        </g>
        <g
           id="g1937"
           style="fill:rgb(0%,0%,0%);fill-opacity:1;">
          <path
             id="path1935"
             transform="translate(186.712,134.765)"
             d="M 2.96875 -2.25 C 3.125 -2.25 3.3125 -2.25 3.3125 -2.421875 C 3.3125 -2.5625 3.1875 -2.5625 3.015625 -2.5625 L 1.40625 -2.5625 C 1.640625 -3.40625 2.203125 -3.984375 3.109375 -3.984375 L 3.421875 -3.984375 C 3.59375 -3.984375 3.75 -3.984375 3.75 -4.15625 C 3.75 -4.296875 3.625 -4.296875 3.453125 -4.296875 L 3.09375 -4.296875 C 1.796875 -4.296875 0.46875 -3.296875 0.46875 -1.78125 C 0.46875 -0.671875 1.21875 0.109375 2.265625 0.109375 C 2.921875 0.109375 3.5625 -0.296875 3.5625 -0.40625 C 3.5625 -0.421875 3.5625 -0.53125 3.46875 -0.53125 C 3.453125 -0.53125 3.421875 -0.53125 3.34375 -0.484375 C 3.03125 -0.28125 2.65625 -0.109375 2.296875 -0.109375 C 1.71875 -0.109375 1.21875 -0.53125 1.21875 -1.40625 C 1.21875 -1.75 1.296875 -2.140625 1.328125 -2.25 Z M 2.96875 -2.25 "
             style="stroke:none;stroke-width:0" />
        </g>
        <g
           id="g1941"
           style="fill:rgb(0%,0%,0%);fill-opacity:1;">
          <path
             id="path1939"
             transform="translate(190.756,131.149)"
             d="M 5.1875 -1.578125 C 5.296875 -1.578125 5.46875 -1.578125 5.46875 -1.734375 C 5.46875 -1.921875 5.296875 -1.921875 5.1875 -1.921875 L 1.03125 -1.921875 C 0.921875 -1.921875 0.75 -1.921875 0.75 -1.75 C 0.75 -1.578125 0.90625 -1.578125 1.03125 -1.578125 Z M 5.1875 -1.578125 "
             style="stroke:none;stroke-width:0" />
        </g>
        <g
           id="g1945"
           style="fill:rgb(0%,0%,0%);fill-opacity:1;">
          <path
             id="path1943"
             transform="translate(196.983,131.149)"
             d="M 2.328125 -4.4375 C 2.328125 -4.625 2.328125 -4.625 2.125 -4.625 C 1.671875 -4.1875 1.046875 -4.1875 0.765625 -4.1875 L 0.765625 -3.9375 C 0.921875 -3.9375 1.390625 -3.9375 1.765625 -4.125 L 1.765625 -0.578125 C 1.765625 -0.34375 1.765625 -0.25 1.078125 -0.25 L 0.8125 -0.25 L 0.8125 0 C 0.9375 0 1.796875 -0.03125 2.046875 -0.03125 C 2.265625 -0.03125 3.140625 0 3.296875 0 L 3.296875 -0.25 L 3.03125 -0.25 C 2.328125 -0.25 2.328125 -0.34375 2.328125 -0.578125 Z M 2.328125 -4.4375 "
             style="stroke:none;stroke-width:0" />
        </g>
        <g
           id="g1949"
           style="fill:rgb(0%,0%,0%);fill-opacity:1;">
          <path
             id="path1947"
             transform="translate(201.452,134.765)"
             d="M 3.296875 2.390625 C 3.296875 2.359375 3.296875 2.34375 3.125 2.171875 C 1.890625 0.921875 1.5625 -0.96875 1.5625 -2.5 C 1.5625 -4.234375 1.9375 -5.96875 3.171875 -7.203125 C 3.296875 -7.328125 3.296875 -7.34375 3.296875 -7.375 C 3.296875 -7.453125 3.265625 -7.484375 3.203125 -7.484375 C 3.09375 -7.484375 2.203125 -6.796875 1.609375 -5.53125 C 1.109375 -4.4375 0.984375 -3.328125 0.984375 -2.5 C 0.984375 -1.71875 1.09375 -0.515625 1.640625 0.625 C 2.25 1.84375 3.09375 2.5 3.203125 2.5 C 3.265625 2.5 3.296875 2.46875 3.296875 2.390625 Z M 3.296875 2.390625 "
             style="stroke:none;stroke-width:0" />
        </g>
        <g
           id="g1953"
           style="fill:rgb(0%,0%,0%);fill-opacity:1;">
          <path
             id="path1951"
             transform="translate(205.326,134.765)"
             d="M 4.453125 -6.375 L 5.25 -6.375 L 5.25 -6.84375 C 4.90625 -6.8125 4.0625 -6.8125 3.671875 -6.8125 C 3.140625 -6.8125 2.15625 -6.8125 1.6875 -6.84375 L 1.6875 -6.375 L 3.09375 -6.375 L 3.09375 -1.484375 C 3.09375 -1.296875 3.09375 -0.25 2.109375 -0.25 C 1.9375 -0.25 1.609375 -0.28125 1.3125 -0.40625 L 1.3125 -0.421875 C 1.3125 -0.421875 1.75 -0.609375 1.75 -1.140625 C 1.75 -1.671875 1.328125 -1.90625 1 -1.90625 C 0.625 -1.90625 0.234375 -1.65625 0.234375 -1.140625 C 0.234375 -0.375 1.015625 0.109375 2.15625 0.109375 C 3.484375 0.109375 4.453125 -0.453125 4.453125 -1.5 Z M 4.453125 -6.375 "
             style="stroke:none;stroke-width:0" />
        </g>
        <g
           id="g1957"
           style="fill:rgb(0%,0%,0%);fill-opacity:1;">
          <path
             id="path1955"
             transform="translate(211.249,134.765)"
             d="M 2.875 -2.5 C 2.875 -3.265625 2.765625 -4.46875 2.21875 -5.609375 C 1.625 -6.828125 0.765625 -7.484375 0.671875 -7.484375 C 0.609375 -7.484375 0.5625 -7.4375 0.5625 -7.375 C 0.5625 -7.34375 0.5625 -7.328125 0.75 -7.140625 C 1.734375 -6.15625 2.296875 -4.578125 2.296875 -2.5 C 2.296875 -0.78125 1.9375 0.96875 0.703125 2.21875 C 0.5625 2.34375 0.5625 2.359375 0.5625 2.390625 C 0.5625 2.453125 0.609375 2.5 0.671875 2.5 C 0.765625 2.5 1.671875 1.8125 2.25 0.546875 C 2.765625 -0.546875 2.875 -1.65625 2.875 -2.5 Z M 2.875 -2.5 "
             style="stroke:none;stroke-width:0" />
        </g>
        <g
           id="g1961"
           style="fill:rgb(0%,0%,0%);fill-opacity:1;">
          <path
             id="path1959"
             transform="translate(217.337,134.765)"
             d="M 3.875 -2.765625 L 1.890625 -4.75 C 1.765625 -4.875 1.75 -4.890625 1.671875 -4.890625 C 1.5625 -4.890625 1.46875 -4.8125 1.46875 -4.6875 C 1.46875 -4.625 1.484375 -4.609375 1.59375 -4.5 L 3.59375 -2.5 L 1.59375 -0.484375 C 1.484375 -0.375 1.46875 -0.359375 1.46875 -0.296875 C 1.46875 -0.171875 1.5625 -0.09375 1.671875 -0.09375 C 1.75 -0.09375 1.765625 -0.109375 1.890625 -0.234375 L 3.875 -2.21875 L 5.9375 -0.15625 C 5.953125 -0.140625 6.015625 -0.09375 6.078125 -0.09375 C 6.203125 -0.09375 6.28125 -0.171875 6.28125 -0.296875 C 6.28125 -0.3125 6.28125 -0.34375 6.25 -0.40625 C 6.234375 -0.421875 4.65625 -1.984375 4.15625 -2.5 L 5.984375 -4.3125 C 6.03125 -4.375 6.1875 -4.5 6.234375 -4.5625 C 6.234375 -4.578125 6.28125 -4.625 6.28125 -4.6875 C 6.28125 -4.8125 6.203125 -4.890625 6.078125 -4.890625 C 6 -4.890625 5.96875 -4.859375 5.859375 -4.75 Z M 3.875 -2.765625 "
             style="stroke:none;stroke-width:0" />
        </g>
        <g
           id="g1965"
           style="fill:rgb(0%,0%,0%);fill-opacity:1;">
          <path
             id="path1963"
             transform="translate(227.299,134.765)"
             d="M 2.96875 -2.25 C 3.125 -2.25 3.3125 -2.25 3.3125 -2.421875 C 3.3125 -2.5625 3.1875 -2.5625 3.015625 -2.5625 L 1.40625 -2.5625 C 1.640625 -3.40625 2.203125 -3.984375 3.109375 -3.984375 L 3.421875 -3.984375 C 3.59375 -3.984375 3.75 -3.984375 3.75 -4.15625 C 3.75 -4.296875 3.625 -4.296875 3.453125 -4.296875 L 3.09375 -4.296875 C 1.796875 -4.296875 0.46875 -3.296875 0.46875 -1.78125 C 0.46875 -0.671875 1.21875 0.109375 2.265625 0.109375 C 2.921875 0.109375 3.5625 -0.296875 3.5625 -0.40625 C 3.5625 -0.421875 3.5625 -0.53125 3.46875 -0.53125 C 3.453125 -0.53125 3.421875 -0.53125 3.34375 -0.484375 C 3.03125 -0.28125 2.65625 -0.109375 2.296875 -0.109375 C 1.71875 -0.109375 1.21875 -0.53125 1.21875 -1.40625 C 1.21875 -1.75 1.296875 -2.140625 1.328125 -2.25 Z M 2.96875 -2.25 "
             style="stroke:none;stroke-width:0" />
        </g>
        <g
           id="g1969"
           style="fill:rgb(0%,0%,0%);fill-opacity:1;">
          <path
             id="path1967"
             transform="translate(231.343,131.149)"
             d="M 5.1875 -1.578125 C 5.296875 -1.578125 5.46875 -1.578125 5.46875 -1.734375 C 5.46875 -1.921875 5.296875 -1.921875 5.1875 -1.921875 L 1.03125 -1.921875 C 0.921875 -1.921875 0.75 -1.921875 0.75 -1.75 C 0.75 -1.578125 0.90625 -1.578125 1.03125 -1.578125 Z M 5.1875 -1.578125 "
             style="stroke:none;stroke-width:0" />
        </g>
        <g
           id="g1973"
           style="fill:rgb(0%,0%,0%);fill-opacity:1;">
          <path
             id="path1971"
             transform="translate(237.57,131.149)"
             d="M 2.328125 -4.4375 C 2.328125 -4.625 2.328125 -4.625 2.125 -4.625 C 1.671875 -4.1875 1.046875 -4.1875 0.765625 -4.1875 L 0.765625 -3.9375 C 0.921875 -3.9375 1.390625 -3.9375 1.765625 -4.125 L 1.765625 -0.578125 C 1.765625 -0.34375 1.765625 -0.25 1.078125 -0.25 L 0.8125 -0.25 L 0.8125 0 C 0.9375 0 1.796875 -0.03125 2.046875 -0.03125 C 2.265625 -0.03125 3.140625 0 3.296875 0 L 3.296875 -0.25 L 3.03125 -0.25 C 2.328125 -0.25 2.328125 -0.34375 2.328125 -0.578125 Z M 2.328125 -4.4375 "
             style="stroke:none;stroke-width:0" />
        </g>
        <g
           id="g1977"
           style="fill:rgb(0%,0%,0%);fill-opacity:1;">
          <path
             id="path1975"
             transform="translate(242.039,134.765)"
             d="M 3.296875 2.390625 C 3.296875 2.359375 3.296875 2.34375 3.125 2.171875 C 1.890625 0.921875 1.5625 -0.96875 1.5625 -2.5 C 1.5625 -4.234375 1.9375 -5.96875 3.171875 -7.203125 C 3.296875 -7.328125 3.296875 -7.34375 3.296875 -7.375 C 3.296875 -7.453125 3.265625 -7.484375 3.203125 -7.484375 C 3.09375 -7.484375 2.203125 -6.796875 1.609375 -5.53125 C 1.109375 -4.4375 0.984375 -3.328125 0.984375 -2.5 C 0.984375 -1.71875 1.09375 -0.515625 1.640625 0.625 C 2.25 1.84375 3.09375 2.5 3.203125 2.5 C 3.265625 2.5 3.296875 2.46875 3.296875 2.390625 Z M 3.296875 2.390625 "
             style="stroke:none;stroke-width:0" />
        </g>
        <g
           id="g1981"
           style="fill:rgb(0%,0%,0%);fill-opacity:1;">
          <path
             id="path1979"
             transform="translate(245.914,134.765)"
             d="M 4.828125 -4.203125 L 7.234375 -6.1875 C 7.453125 -6.375 7.859375 -6.375 8.171875 -6.375 L 8.328125 -6.375 L 8.328125 -6.84375 C 7.9375 -6.8125 7.359375 -6.8125 7.3125 -6.8125 C 6.9375 -6.8125 6.21875 -6.8125 5.859375 -6.84375 L 5.859375 -6.375 C 5.984375 -6.375 6.1875 -6.375 6.4375 -6.3125 C 6.59375 -6.28125 6.484375 -6.296875 6.5625 -6.265625 L 2.875 -3.1875 L 2.875 -6.375 L 3.953125 -6.375 L 3.953125 -6.84375 C 3.578125 -6.8125 2.609375 -6.8125 2.171875 -6.8125 C 1.75 -6.8125 0.765625 -6.8125 0.390625 -6.84375 L 0.390625 -6.375 L 1.46875 -6.375 L 1.46875 -0.46875 L 0.390625 -0.46875 L 0.390625 0 C 0.765625 -0.03125 1.75 -0.03125 2.171875 -0.03125 C 2.609375 -0.03125 3.578125 -0.03125 3.953125 0 L 3.953125 -0.46875 L 2.875 -0.46875 L 2.875 -2.5625 L 3.875 -3.390625 L 5.9375 -0.6875 C 5.984375 -0.625 5.984375 -0.609375 6.015625 -0.546875 C 5.828125 -0.46875 5.625 -0.46875 5.28125 -0.46875 L 5.28125 0 C 5.6875 -0.03125 6.59375 -0.03125 7.03125 -0.03125 C 7.4375 -0.03125 8.125 -0.03125 8.5 0 L 8.5 -0.46875 L 8.203125 -0.46875 C 7.671875 -0.46875 7.640625 -0.515625 7.53125 -0.671875 Z M 4.828125 -4.203125 "
             style="stroke:none;stroke-width:0" />
        </g>
        <g
           id="g1987"
           style="fill:rgb(0%,0%,0%);fill-opacity:1;">
          <path
             id="path1983"
             transform="translate(254.894,134.765)"
             d="M 2.875 -2.5 C 2.875 -3.265625 2.765625 -4.46875 2.21875 -5.609375 C 1.625 -6.828125 0.765625 -7.484375 0.671875 -7.484375 C 0.609375 -7.484375 0.5625 -7.4375 0.5625 -7.375 C 0.5625 -7.34375 0.5625 -7.328125 0.75 -7.140625 C 1.734375 -6.15625 2.296875 -4.578125 2.296875 -2.5 C 2.296875 -0.78125 1.9375 0.96875 0.703125 2.21875 C 0.5625 2.34375 0.5625 2.359375 0.5625 2.390625 C 0.5625 2.453125 0.609375 2.5 0.671875 2.5 C 0.765625 2.5 1.671875 1.8125 2.25 0.546875 C 2.765625 -0.546875 2.875 -1.65625 2.875 -2.5 Z M 2.875 -2.5 "
             style="stroke:none;stroke-width:0" />
          <path
             id="path1985"
             transform="translate(258.768455,134.765)"
             d="M 2.875 -2.5 C 2.875 -3.265625 2.765625 -4.46875 2.21875 -5.609375 C 1.625 -6.828125 0.765625 -7.484375 0.671875 -7.484375 C 0.609375 -7.484375 0.5625 -7.4375 0.5625 -7.375 C 0.5625 -7.34375 0.5625 -7.328125 0.75 -7.140625 C 1.734375 -6.15625 2.296875 -4.578125 2.296875 -2.5 C 2.296875 -0.78125 1.9375 0.96875 0.703125 2.21875 C 0.5625 2.34375 0.5625 2.359375 0.5625 2.390625 C 0.5625 2.453125 0.609375 2.5 0.671875 2.5 C 0.765625 2.5 1.671875 1.8125 2.25 0.546875 C 2.765625 -0.546875 2.875 -1.65625 2.875 -2.5 Z M 2.875 -2.5 "
             style="stroke:none;stroke-width:0" />
        </g>
      </g>
    </g>
  </g>
</svg>
