<?xml version="1.0" encoding="UTF-8" standalone="no"?>
<!-- Created with Inkscape (http://www.inkscape.org/) -->

<svg
   xmlns:ns1="http://www.iki.fi/pav/software/textext/"
   xmlns:dc="http://purl.org/dc/elements/1.1/"
   xmlns:cc="http://creativecommons.org/ns#"
   xmlns:rdf="http://www.w3.org/1999/02/22-rdf-syntax-ns#"
   xmlns:svg="http://www.w3.org/2000/svg"
   xmlns="http://www.w3.org/2000/svg"
   xmlns:sodipodi="http://sodipodi.sourceforge.net/DTD/sodipodi-0.dtd"
   xmlns:inkscape="http://www.inkscape.org/namespaces/inkscape"
   width="110mm"
   height="95mm"
   viewBox="0 0 110 95"
   version="1.1"
   id="svg8"
   inkscape:version="0.92.4 (5da689c313, 2019-01-14)"
   sodipodi:docname="displacement_vector_proj_and_perp.svg">
  <defs
     id="defs2">
    <marker
       inkscape:stockid="Arrow1Send"
       orient="auto"
       refY="0.0"
       refX="0.0"
       id="marker4078"
       style="overflow:visible;"
       inkscape:isstock="true">
      <path
         id="path4076"
         d="M 0.0,0.0 L 5.0,-5.0 L -12.5,0.0 L 5.0,5.0 L 0.0,0.0 z "
         style="fill-rule:evenodd;stroke:#000000;stroke-width:1pt;stroke-opacity:1;fill:#000000;fill-opacity:1"
         transform="scale(0.2) rotate(180) translate(6,0)" />
    </marker>
    <marker
       inkscape:stockid="Arrow1Send"
       orient="auto"
       refY="0"
       refX="0"
       id="marker2884"
       style="overflow:visible"
       inkscape:isstock="true">
      <path
         id="path2882"
         d="M 0,0 5,-5 -12.5,0 5,5 Z"
         style="fill:#00c8c8;fill-opacity:1;fill-rule:evenodd;stroke:#00c8c8;stroke-width:1.00000003pt;stroke-opacity:1"
         transform="matrix(-0.2,0,0,-0.2,-1.2,0)"
         inkscape:connector-curvature="0" />
    </marker>
    <marker
       inkscape:stockid="Arrow1Send"
       orient="auto"
       refY="0"
       refX="0"
       id="marker1568"
       style="overflow:visible"
       inkscape:isstock="true">
      <path
         id="path1566"
         d="M 0,0 5,-5 -12.5,0 5,5 Z"
         style="fill:#c86400;fill-opacity:1;fill-rule:evenodd;stroke:#c86400;stroke-width:1.00000003pt;stroke-opacity:1"
         transform="matrix(-0.2,0,0,-0.2,-1.2,0)"
         inkscape:connector-curvature="0" />
    </marker>
    <marker
       inkscape:stockid="Arrow1Send"
       orient="auto"
       refY="0"
       refX="0"
       id="marker1305"
       style="overflow:visible"
       inkscape:isstock="true">
      <path
         id="path1303"
         d="M 0,0 5,-5 -12.5,0 5,5 Z"
         style="fill:#000000;fill-opacity:1;fill-rule:evenodd;stroke:#000000;stroke-width:1.00000003pt;stroke-opacity:1"
         transform="matrix(-0.2,0,0,-0.2,-1.2,0)"
         inkscape:connector-curvature="0" />
    </marker>
    <marker
       inkscape:stockid="Arrow1Send"
       orient="auto"
       refY="0"
       refX="0"
       id="Arrow1Send"
       style="overflow:visible"
       inkscape:isstock="true">
      <path
         id="path850"
         d="M 0,0 5,-5 -12.5,0 5,5 Z"
         style="fill:#000000;fill-opacity:1;fill-rule:evenodd;stroke:#000000;stroke-width:1.00000003pt;stroke-opacity:1"
         transform="matrix(-0.2,0,0,-0.2,-1.2,0)"
         inkscape:connector-curvature="0" />
    </marker>
  </defs>
  <sodipodi:namedview
     id="base"
     pagecolor="#ffffff"
     bordercolor="#666666"
     borderopacity="1.0"
     inkscape:pageopacity="0.0"
     inkscape:pageshadow="2"
     inkscape:zoom="1.4"
     inkscape:cx="217.10351"
     inkscape:cy="317.14286"
     inkscape:document-units="mm"
     inkscape:current-layer="layer1"
     showgrid="true"
     inkscape:window-width="1920"
     inkscape:window-height="1017"
     inkscape:window-x="-8"
     inkscape:window-y="-8"
     inkscape:window-maximized="1"
     inkscape:snap-object-midpoints="true"
     inkscape:snap-global="false">
    <inkscape:grid
       type="xygrid"
       id="grid815"
       units="mm"
       spacingx="1"
       spacingy="1" />
  </sodipodi:namedview>
  <metadata
     id="metadata5">
    <rdf:RDF>
      <cc:Work
         rdf:about="">
        <dc:format>image/svg+xml</dc:format>
        <dc:type
           rdf:resource="http://purl.org/dc/dcmitype/StillImage" />
        <dc:title></dc:title>
      </cc:Work>
    </rdf:RDF>
  </metadata>
  <g
     inkscape:label="Layer 1"
     inkscape:groupmode="layer"
     id="layer1"
     transform="translate(0,-202)">
    <path
       style="fill:none;stroke:#000000;stroke-width:1;stroke-linecap:butt;stroke-linejoin:miter;stroke-miterlimit:4;stroke-dasharray:none;stroke-opacity:1;marker-end:url(#marker1305)"
       d="M 10,281.99998 34.441219,213.39285"
       id="path1301"
       inkscape:connector-curvature="0"
       sodipodi:nodetypes="cc" />
    <path
       style="fill:none;stroke:#000000;stroke-width:1;stroke-linecap:butt;stroke-linejoin:miter;stroke-miterlimit:4;stroke-dasharray:none;stroke-opacity:1;marker-end:url(#Arrow1Send)"
       d="M 10,282.00001 98.51339,257.67708"
       id="path833"
       inkscape:connector-curvature="0"
       sodipodi:nodetypes="cc" />
    <circle
       style="fill:#00c800;fill-opacity:1;stroke:none;stroke-width:0.25;stroke-miterlimit:4;stroke-dasharray:none;stroke-dashoffset:0;stroke-opacity:1"
       id="path816-8"
       cx="100"
       cy="257"
       r="2" />
    <g
       id="g1292"
       ns1:jacobian_sqrt="0.529167"
       inkscapeversion="0.92.4"
       ns1:alignment="middle center"
       ns1:scale="1.5"
       ns1:preamble="C:\\Users\\shawn\\AppData\\Roaming\\inkscape\\extensions\\textext\\default_packages.tex"
       ns1:text="$\\mathbf{u}$"
       ns1:pdfconverter="pdf2svg"
       ns1:texconverter="pdflatex"
       ns1:version="0.11.0"
       transform="matrix(0.529167,0,0,0.529167,8.904596,193.61495)">
      <g
         id="surface1">
        <g
           id="g1289"
           style="fill:#000000;fill-opacity:1">
          <path
             id="path1287"
             transform="translate(148.712,134.765)"
             d="M 4.359375,-0.71875 V 0.0625 L 6.125,0 v -0.46875 c -0.609375,0 -0.6875,0 -0.6875,-0.390625 v -3.625 L 3.625,-4.40625 v 0.46875 c 0.609375,0 0.6875,0 0.6875,0.390625 v 1.90625 c 0,0.8125 -0.515625,1.34375 -1.234375,1.34375 -0.78125,0 -0.8125,-0.25 -0.8125,-0.796875 v -3.390625 l -1.8125,0.078125 v 0.46875 c 0.609375,0 0.6875,0 0.6875,0.390625 v 2.328125 c 0,1.0625 0.796875,1.28125 1.796875,1.28125 0.25,0 0.96875,0 1.421875,-0.78125 z m 0,0"
             style="stroke:none;stroke-width:0"
             inkscape:connector-curvature="0" />
        </g>
      </g>
    </g>
    <path
       style="fill:none;stroke:#000000;stroke-width:1;stroke-linecap:butt;stroke-linejoin:miter;stroke-miterlimit:4;stroke-dasharray:2, 1;stroke-dashoffset:0;stroke-opacity:1;marker-end:url(#marker4078)"
       d="M 51.688245,270.46352 35.377976,213.51189"
       id="path1915"
       inkscape:connector-curvature="0"
       sodipodi:nodetypes="cc" />
    <circle
       style="fill:#0000c8;fill-opacity:1;stroke:none;stroke-width:0.25;stroke-miterlimit:4;stroke-dasharray:none;stroke-dashoffset:0;stroke-opacity:1"
       id="path816-6"
       cx="35"
       cy="211.99998"
       r="2" />
    <g
       id="g1555"
       ns1:jacobian_sqrt="0.529167"
       inkscapeversion="0.92.4"
       ns1:alignment="middle center"
       ns1:scale="1.5"
       ns1:preamble="C:\\Users\\shawn\\AppData\\Roaming\\inkscape\\extensions\\textext\\default_packages.tex"
       ns1:text="$\\mathbf{v}$"
       ns1:pdfconverter="pdf2svg"
       ns1:texconverter="pdflatex"
       ns1:version="0.11.0"
       transform="matrix(0.529167,0,0,0.529167,-58.990559,190.01177)">
      <g
         id="g1553">
        <g
           id="g1551"
           style="fill:#000000;fill-opacity:1">
          <path
             id="path1549"
             transform="translate(148.712,134.765)"
             d="m 5.046875,-3.75 c 0.0625,-0.140625 0.09375,-0.203125 0.734375,-0.203125 v -0.46875 C 5.53125,-4.40625 5.25,-4.390625 5,-4.390625 c -0.25,0 -0.703125,-0.03125 -0.90625,-0.03125 v 0.46875 c 0.1875,0 0.46875,0.03125 0.46875,0.109375 0,0 0,0.03125 -0.046875,0.109375 l -1.15625,2.5 -1.265625,-2.71875 H 2.625 v -0.46875 c -0.328125,0.015625 -1.21875,0.03125 -1.234375,0.03125 -0.28125,0 -0.71875,-0.03125 -1.125,-0.03125 v 0.46875 h 0.625 l 1.75,3.75 c 0.125,0.25 0.25,0.25 0.375,0.25 0.171875,0 0.28125,-0.03125 0.375,-0.25 z m 0,0"
             style="stroke:none;stroke-width:0"
             inkscape:connector-curvature="0" />
        </g>
      </g>
    </g>
    <path
       style="fill:none;stroke:#00c8c8;stroke-width:1;stroke-linecap:butt;stroke-linejoin:miter;stroke-miterlimit:4;stroke-dasharray:3.00000008, 1.00000003;stroke-dashoffset:0;stroke-opacity:1;marker-end:url(#marker2884)"
       d="M 10,281.99998 49.999999,270.99999"
       id="path2880"
       inkscape:connector-curvature="0" />
    <path
       style="fill:none;stroke:#c86400;stroke-width:1;stroke-linecap:butt;stroke-linejoin:miter;stroke-miterlimit:4;stroke-dasharray:1, 1;stroke-dashoffset:0;stroke-opacity:1;marker-end:url(#marker1568)"
       d="m 10,281.99998 12.929313,-3.55133"
       id="path1564"
       inkscape:connector-curvature="0"
       sodipodi:nodetypes="cc" />
    <g
       id="g1902"
       ns1:jacobian_sqrt="0.529167"
       inkscapeversion="0.92.4"
       ns1:alignment="middle center"
       ns1:scale="1.5"
       ns1:preamble="C:\\Users\\shawn\\AppData\\Roaming\\inkscape\\extensions\\textext\\default_packages.tex"
       ns1:text="$\\|\\mathbf{u}\\|$"
       ns1:pdfconverter="pdf2svg"
       ns1:texconverter="pdflatex"
       ns1:version="0.11.0"
       transform="matrix(0.529167,0,0,0.529167,3.115383,186.01527)">
      <g
         id="g1900">
        <g
           id="g1890"
           style="fill:#000000;fill-opacity:1">
          <path
             id="path1888"
             transform="translate(148.712,134.765)"
             d="m 1.71875,-7.140625 c 0,-0.15625 0,-0.34375 -0.203125,-0.34375 -0.203125,0 -0.203125,0.234375 -0.203125,0.375 V 2.125 c 0,0.15625 0,0.375 0.203125,0.375 C 1.71875,2.5 1.71875,2.3125 1.71875,2.15625 Z m 1.9375,0.03125 c 0,-0.15625 0,-0.375 -0.203125,-0.375 -0.1875,0 -0.1875,0.1875 -0.1875,0.34375 V 2.15625 c 0,0.15625 0,0.34375 0.1875,0.34375 C 3.65625,2.5 3.65625,2.265625 3.65625,2.125 Z m 0,0"
             style="stroke:none;stroke-width:0"
             inkscape:connector-curvature="0" />
        </g>
        <g
           id="g1894"
           style="fill:#000000;fill-opacity:1">
          <path
             id="path1892"
             transform="translate(153.694,134.765)"
             d="M 4.359375,-0.71875 V 0.0625 L 6.125,0 v -0.46875 c -0.609375,0 -0.6875,0 -0.6875,-0.390625 v -3.625 L 3.625,-4.40625 v 0.46875 c 0.609375,0 0.6875,0 0.6875,0.390625 v 1.90625 c 0,0.8125 -0.515625,1.34375 -1.234375,1.34375 -0.78125,0 -0.8125,-0.25 -0.8125,-0.796875 v -3.390625 l -1.8125,0.078125 v 0.46875 c 0.609375,0 0.6875,0 0.6875,0.390625 v 2.328125 c 0,1.0625 0.796875,1.28125 1.796875,1.28125 0.25,0 0.96875,0 1.421875,-0.78125 z m 0,0"
             style="stroke:none;stroke-width:0"
             inkscape:connector-curvature="0" />
        </g>
        <g
           id="g1898"
           style="fill:#000000;fill-opacity:1">
          <path
             id="path1896"
             transform="translate(160.059,134.765)"
             d="m 1.71875,-7.140625 c 0,-0.15625 0,-0.34375 -0.203125,-0.34375 -0.203125,0 -0.203125,0.234375 -0.203125,0.375 V 2.125 c 0,0.15625 0,0.375 0.203125,0.375 C 1.71875,2.5 1.71875,2.3125 1.71875,2.15625 Z m 1.9375,0.03125 c 0,-0.15625 0,-0.375 -0.203125,-0.375 -0.1875,0 -0.1875,0.1875 -0.1875,0.34375 V 2.15625 c 0,0.15625 0,0.34375 0.1875,0.34375 C 3.65625,2.5 3.65625,2.265625 3.65625,2.125 Z m 0,0"
             style="stroke:none;stroke-width:0"
             inkscape:connector-curvature="0" />
        </g>
      </g>
    </g>
    <g
       id="g1964"
       ns1:jacobian_sqrt="0.529167"
       inkscapeversion="0.92.4"
       ns1:alignment="middle center"
       ns1:scale="1.5"
       ns1:preamble="C:\\Users\\shawn\\AppData\\Roaming\\inkscape\\extensions\\textext\\default_packages.tex"
       ns1:text="$\\|\\mathbf{v}\\|$"
       ns1:pdfconverter="pdf2svg"
       ns1:texconverter="pdflatex"
       ns1:version="0.11.0"
       transform="matrix(0.529167,0,0,0.529167,-68.752518,183.55842)">
      <g
         id="g1962">
        <g
           id="g1952"
           style="fill:#000000;fill-opacity:1">
          <path
             id="path1950"
             transform="translate(148.712,134.765)"
             d="m 1.71875,-7.140625 c 0,-0.15625 0,-0.34375 -0.203125,-0.34375 -0.203125,0 -0.203125,0.234375 -0.203125,0.375 V 2.125 c 0,0.15625 0,0.375 0.203125,0.375 C 1.71875,2.5 1.71875,2.3125 1.71875,2.15625 Z m 1.9375,0.03125 c 0,-0.15625 0,-0.375 -0.203125,-0.375 -0.1875,0 -0.1875,0.1875 -0.1875,0.34375 V 2.15625 c 0,0.15625 0,0.34375 0.1875,0.34375 C 3.65625,2.5 3.65625,2.265625 3.65625,2.125 Z m 0,0"
             style="stroke:none;stroke-width:0"
             inkscape:connector-curvature="0" />
        </g>
        <g
           id="g1956"
           style="fill:#000000;fill-opacity:1">
          <path
             id="path1954"
             transform="translate(153.694,134.765)"
             d="m 5.046875,-3.75 c 0.0625,-0.140625 0.09375,-0.203125 0.734375,-0.203125 v -0.46875 C 5.53125,-4.40625 5.25,-4.390625 5,-4.390625 c -0.25,0 -0.703125,-0.03125 -0.90625,-0.03125 v 0.46875 c 0.1875,0 0.46875,0.03125 0.46875,0.109375 0,0 0,0.03125 -0.046875,0.109375 l -1.15625,2.5 -1.265625,-2.71875 H 2.625 v -0.46875 c -0.328125,0.015625 -1.21875,0.03125 -1.234375,0.03125 -0.28125,0 -0.71875,-0.03125 -1.125,-0.03125 v 0.46875 h 0.625 l 1.75,3.75 c 0.125,0.25 0.25,0.25 0.375,0.25 0.171875,0 0.28125,-0.03125 0.375,-0.25 z m 0,0"
             style="stroke:none;stroke-width:0"
             inkscape:connector-curvature="0" />
        </g>
        <g
           id="g1960"
           style="fill:#000000;fill-opacity:1">
          <path
             id="path1958"
             transform="translate(159.9,134.765)"
             d="m 1.71875,-7.140625 c 0,-0.15625 0,-0.34375 -0.203125,-0.34375 -0.203125,0 -0.203125,0.234375 -0.203125,0.375 V 2.125 c 0,0.15625 0,0.375 0.203125,0.375 C 1.71875,2.5 1.71875,2.3125 1.71875,2.15625 Z m 1.9375,0.03125 c 0,-0.15625 0,-0.375 -0.203125,-0.375 -0.1875,0 -0.1875,0.1875 -0.1875,0.34375 V 2.15625 c 0,0.15625 0,0.34375 0.1875,0.34375 C 3.65625,2.5 3.65625,2.265625 3.65625,2.125 Z m 0,0"
             style="stroke:none;stroke-width:0"
             inkscape:connector-curvature="0" />
        </g>
      </g>
    </g>
    <circle
       style="fill:#c80000;fill-opacity:1;stroke:none;stroke-width:0.25;stroke-miterlimit:4;stroke-dasharray:none;stroke-dashoffset:0;stroke-opacity:1"
       id="path816"
       cx="10"
       cy="282"
       r="2" />
    <g
       id="g2024"
       ns1:jacobian_sqrt="0.529167"
       inkscapeversion="0.92.4"
       ns1:alignment="middle center"
       ns1:scale="1.5"
       ns1:preamble="C:\\Users\\shawn\\AppData\\Roaming\\inkscape\\extensions\\textext\\default_packages.tex"
       ns1:text="$1$"
       ns1:pdfconverter="pdf2svg"
       ns1:texconverter="pdflatex"
       ns1:version="0.11.0"
       transform="matrix(0.529167,0,0,0.529167,-64.305259,207.90363)">
      <g
         id="g2022">
        <g
           id="g2020"
           style="fill:#000000;fill-opacity:1">
          <path
             id="path2018"
             transform="translate(148.712,134.765)"
             d="m 2.9375,-6.375 c 0,-0.25 0,-0.265625 -0.234375,-0.265625 C 2.078125,-6 1.203125,-6 0.890625,-6 v 0.3125 c 0.203125,0 0.78125,0 1.296875,-0.265625 v 5.171875 c 0,0.359375 -0.03125,0.46875 -0.921875,0.46875 h -0.3125 V 0 c 0.34375,-0.03125 1.203125,-0.03125 1.609375,-0.03125 0.390625,0 1.265625,0 1.609375,0.03125 v -0.3125 h -0.3125 c -0.90625,0 -0.921875,-0.109375 -0.921875,-0.46875 z m 0,0"
             style="stroke:none;stroke-width:0"
             inkscape:connector-curvature="0" />
        </g>
      </g>
    </g>
    <g
       id="g2098"
       ns1:jacobian_sqrt="0.529167"
       inkscapeversion="0.92.4"
       ns1:alignment="middle center"
       ns1:scale="1.5"
       ns1:preamble="C:\\Users\\shawn\\AppData\\Roaming\\inkscape\\extensions\\textext\\default_packages.tex"
       ns1:text="$\\frac{\\mathbf{u}}{\\|\\mathbf{u}\\|}$"
       ns1:pdfconverter="pdf2svg"
       ns1:texconverter="pdflatex"
       ns1:version="0.11.0"
       transform="matrix(0.529167,0,0,0.529167,-65.382963,213.92386)"
       style="fill:#c86400;fill-opacity:1;stroke:#c86400;stroke-opacity:1">
      <g
         id="g2096"
         style="fill:#c86400;fill-opacity:1;stroke:#c86400;stroke-opacity:1">
        <g
           id="g2080"
           style="fill:#c86400;fill-opacity:1;stroke:#c86400;stroke-opacity:1">
          <path
             id="path2078"
             transform="translate(153.99,130.842)"
             d="M 2.90625,-3.078125 V -2.6875 c 0.421875,0 0.46875,0 0.46875,0.265625 V -1.125 c 0,0.578125 -0.4375,0.84375 -0.96875,0.84375 -0.59375,0 -0.609375,-0.15625 -0.609375,-0.484375 v -2.375 l -1.34375,0.0625 V -2.6875 c 0.40625,0 0.453125,0 0.453125,0.265625 v 1.578125 c 0,0.8125 0.78125,0.890625 1.375,0.890625 0.234375,0 0.75,0 1.140625,-0.5 v 0.5 L 4.734375,0 v -0.390625 c -0.40625,0 -0.46875,0 -0.46875,-0.265625 v -2.484375 z m 0,0"
             style="fill:#c86400;fill-opacity:1;stroke:#c86400;stroke-width:0;stroke-opacity:1"
             inkscape:connector-curvature="0" />
        </g>
        <path
           id="path2082"
           transform="matrix(1,0,0,-1,149.908,132.274)"
           d="M -0.00175,5.625e-4 H 13.174031"
           style="fill:#c86400;fill-opacity:1;stroke:#c86400;stroke-width:0.398;stroke-linecap:butt;stroke-linejoin:miter;stroke-miterlimit:10;stroke-opacity:1"
           inkscape:connector-curvature="0" />
        <g
           id="g2086"
           style="fill:#c86400;fill-opacity:1;stroke:#c86400;stroke-opacity:1">
          <path
             id="path2084"
             transform="translate(149.908,138.2)"
             d="m 1.4375,-4.96875 c 0,-0.09375 0,-0.25 -0.171875,-0.25 -0.171875,0 -0.171875,0.171875 -0.171875,0.296875 V 1.4375 c 0,0.125 0,0.296875 0.171875,0.296875 0.171875,0 0.171875,-0.15625 0.171875,-0.265625 z m 1.53125,0.046875 c 0,-0.125 0,-0.296875 -0.171875,-0.296875 -0.15625,0 -0.15625,0.15625 -0.15625,0.25 v 6.4375 c 0,0.109375 0,0.265625 0.15625,0.265625 0.171875,0 0.171875,-0.171875 0.171875,-0.296875 z m 0,0"
             style="fill:#c86400;fill-opacity:1;stroke:#c86400;stroke-width:0;stroke-opacity:1"
             inkscape:connector-curvature="0" />
        </g>
        <g
           id="g2090"
           style="fill:#c86400;fill-opacity:1;stroke:#c86400;stroke-opacity:1">
          <path
             id="path2088"
             transform="translate(153.99,138.2)"
             d="M 2.90625,-3.078125 V -2.6875 c 0.421875,0 0.46875,0 0.46875,0.265625 V -1.125 c 0,0.578125 -0.4375,0.84375 -0.96875,0.84375 -0.59375,0 -0.609375,-0.15625 -0.609375,-0.484375 v -2.375 l -1.34375,0.0625 V -2.6875 c 0.40625,0 0.453125,0 0.453125,0.265625 v 1.578125 c 0,0.8125 0.78125,0.890625 1.375,0.890625 0.234375,0 0.75,0 1.140625,-0.5 v 0.5 L 4.734375,0 v -0.390625 c -0.40625,0 -0.46875,0 -0.46875,-0.265625 v -2.484375 z m 0,0"
             style="fill:#c86400;fill-opacity:1;stroke:#c86400;stroke-width:0;stroke-opacity:1"
             inkscape:connector-curvature="0" />
        </g>
        <g
           id="g2094"
           style="fill:#c86400;fill-opacity:1;stroke:#c86400;stroke-opacity:1">
          <path
             id="path2092"
             transform="translate(158.999,138.2)"
             d="m 1.4375,-4.96875 c 0,-0.09375 0,-0.25 -0.171875,-0.25 -0.171875,0 -0.171875,0.171875 -0.171875,0.296875 V 1.4375 c 0,0.125 0,0.296875 0.171875,0.296875 0.171875,0 0.171875,-0.15625 0.171875,-0.265625 z m 1.53125,0.046875 c 0,-0.125 0,-0.296875 -0.171875,-0.296875 -0.15625,0 -0.15625,0.15625 -0.15625,0.25 v 6.4375 c 0,0.109375 0,0.265625 0.15625,0.265625 0.171875,0 0.171875,-0.171875 0.171875,-0.296875 z m 0,0"
             style="fill:#c86400;fill-opacity:1;stroke:#c86400;stroke-width:0;stroke-opacity:1"
             inkscape:connector-curvature="0" />
        </g>
      </g>
    </g>
    <path
       style="fill:none;stroke:#000000;stroke-width:0.25;stroke-linecap:butt;stroke-linejoin:miter;stroke-miterlimit:4;stroke-dasharray:none;stroke-opacity:1"
       d="m 50.433813,266.55149 3.855924,-1.06388 1.063885,3.85592"
       id="path2114"
       inkscape:connector-curvature="0" />
    <path
       style="fill:none;fill-opacity:1;stroke:#000000;stroke-width:0.25;stroke-miterlimit:4;stroke-dasharray:none;stroke-dashoffset:0;stroke-opacity:1"
       id="path2698"
       sodipodi:type="arc"
       sodipodi:cx="10"
       sodipodi:cy="282"
       sodipodi:rx="10"
       sodipodi:ry="10"
       sodipodi:start="5.0532165"
       sodipodi:end="6.0024455"
       sodipodi:open="true"
       d="m 13.342671,272.57522 a 10,10 0 0 1 6.265836,6.65411" />
    <g
       id="g2764"
       ns1:jacobian_sqrt="0.529167"
       inkscapeversion="0.92.4"
       ns1:alignment="middle center"
       ns1:scale="1.5"
       ns1:preamble="C:\\Users\\shawn\\AppData\\Roaming\\inkscape\\extensions\\textext\\default_packages.tex"
       ns1:text="$\\theta$"
       ns1:pdfconverter="pdf2svg"
       ns1:texconverter="pdflatex"
       ns1:version="0.11.0"
       transform="matrix(0.529167,0,0,0.529167,-61.25251,203.15884)">
      <g
         id="g2762">
        <g
           id="g2760"
           style="fill:#000000;fill-opacity:1">
          <path
             id="path2758"
             transform="translate(148.712,134.765)"
             d="m 4.53125,-4.984375 c 0,-0.65625 -0.171875,-2.046875 -1.1875,-2.046875 -1.390625,0 -2.921875,2.8125 -2.921875,5.09375 0,0.9375 0.28125,2.046875 1.1875,2.046875 1.40625,0 2.921875,-2.859375 2.921875,-5.09375 z M 1.46875,-3.625 C 1.640625,-4.25 1.84375,-5.046875 2.25,-5.765625 2.515625,-6.25 2.875,-6.8125 3.328125,-6.8125 c 0.484375,0 0.546875,0.640625 0.546875,1.203125 0,0.5 -0.078125,1 -0.3125,1.984375 z m 2,0.328125 C 3.359375,-2.84375 3.15625,-2 2.765625,-1.28125 c -0.34375,0.6875 -0.71875,1.171875 -1.15625,1.171875 -0.328125,0 -0.53125,-0.296875 -0.53125,-1.21875 0,-0.421875 0.0625,-1 0.3125,-1.96875 z m 0,0"
             style="stroke:none;stroke-width:0"
             inkscape:connector-curvature="0" />
        </g>
      </g>
    </g>
    <g
       id="g2861"
       ns1:jacobian_sqrt="0.529167"
       inkscapeversion="0.92.4"
       ns1:alignment="middle center"
       ns1:scale="1.5"
       ns1:preamble="C:\\Users\\shawn\\AppData\\Roaming\\inkscape\\extensions\\textext\\default_packages.tex"
       ns1:text="$\\|\\mathbf{v}\\|\\cos\\theta$"
       ns1:pdfconverter="pdf2svg"
       ns1:texconverter="pdflatex"
       ns1:version="0.11.0"
       transform="matrix(0.51236285,-0.13229522,0.13229522,0.51236285,-67.840386,225.68354)">
      <g
         id="g2859">
        <g
           id="g2837"
           style="fill:#000000;fill-opacity:1">
          <path
             id="path2835"
             transform="translate(148.712,134.765)"
             d="m 1.71875,-7.140625 c 0,-0.15625 0,-0.34375 -0.203125,-0.34375 -0.203125,0 -0.203125,0.234375 -0.203125,0.375 V 2.125 c 0,0.15625 0,0.375 0.203125,0.375 C 1.71875,2.5 1.71875,2.3125 1.71875,2.15625 Z m 1.9375,0.03125 c 0,-0.15625 0,-0.375 -0.203125,-0.375 -0.1875,0 -0.1875,0.1875 -0.1875,0.34375 V 2.15625 c 0,0.15625 0,0.34375 0.1875,0.34375 C 3.65625,2.5 3.65625,2.265625 3.65625,2.125 Z m 0,0"
             style="stroke:none;stroke-width:0"
             inkscape:connector-curvature="0" />
        </g>
        <g
           id="g2841"
           style="fill:#000000;fill-opacity:1">
          <path
             id="path2839"
             transform="translate(153.694,134.765)"
             d="m 5.046875,-3.75 c 0.0625,-0.140625 0.09375,-0.203125 0.734375,-0.203125 v -0.46875 C 5.53125,-4.40625 5.25,-4.390625 5,-4.390625 c -0.25,0 -0.703125,-0.03125 -0.90625,-0.03125 v 0.46875 c 0.1875,0 0.46875,0.03125 0.46875,0.109375 0,0 0,0.03125 -0.046875,0.109375 l -1.15625,2.5 -1.265625,-2.71875 H 2.625 v -0.46875 c -0.328125,0.015625 -1.21875,0.03125 -1.234375,0.03125 -0.28125,0 -0.71875,-0.03125 -1.125,-0.03125 v 0.46875 h 0.625 l 1.75,3.75 c 0.125,0.25 0.25,0.25 0.375,0.25 0.171875,0 0.28125,-0.03125 0.375,-0.25 z m 0,0"
             style="stroke:none;stroke-width:0"
             inkscape:connector-curvature="0" />
        </g>
        <g
           id="g2845"
           style="fill:#000000;fill-opacity:1">
          <path
             id="path2843"
             transform="translate(159.9,134.765)"
             d="m 1.71875,-7.140625 c 0,-0.15625 0,-0.34375 -0.203125,-0.34375 -0.203125,0 -0.203125,0.234375 -0.203125,0.375 V 2.125 c 0,0.15625 0,0.375 0.203125,0.375 C 1.71875,2.5 1.71875,2.3125 1.71875,2.15625 Z m 1.9375,0.03125 c 0,-0.15625 0,-0.375 -0.203125,-0.375 -0.1875,0 -0.1875,0.1875 -0.1875,0.34375 V 2.15625 c 0,0.15625 0,0.34375 0.1875,0.34375 C 3.65625,2.5 3.65625,2.265625 3.65625,2.125 Z m 0,0"
             style="stroke:none;stroke-width:0"
             inkscape:connector-curvature="0" />
        </g>
        <g
           id="g2853"
           style="fill:#000000;fill-opacity:1">
          <path
             id="path2847"
             transform="translate(166.541,134.765)"
             d="m 1.171875,-2.171875 c 0,-1.625 0.8125,-2.046875 1.34375,-2.046875 0.09375,0 0.71875,0.015625 1.0625,0.375 -0.40625,0.03125 -0.46875,0.328125 -0.46875,0.453125 0,0.265625 0.1875,0.453125 0.453125,0.453125 0.265625,0 0.46875,-0.15625 0.46875,-0.46875 0,-0.671875 -0.765625,-1.0625 -1.53125,-1.0625 -1.25,0 -2.15625,1.078125 -2.15625,2.3125 0,1.28125 0.984375,2.265625 2.140625,2.265625 1.328125,0 1.65625,-1.203125 1.65625,-1.296875 0,-0.09375 -0.109375,-0.09375 -0.140625,-0.09375 -0.078125,0 -0.109375,0.03125 -0.125,0.09375 -0.28125,0.921875 -0.9375,1.046875 -1.296875,1.046875 -0.53125,0 -1.40625,-0.421875 -1.40625,-2.03125 z m 0,0"
             style="stroke:none;stroke-width:0"
             inkscape:connector-curvature="0" />
          <path
             id="path2849"
             transform="translate(170.96838,134.765)"
             d="M 4.6875,-2.140625 C 4.6875,-3.40625 3.703125,-4.46875 2.5,-4.46875 c -1.25,0 -2.21875,1.09375 -2.21875,2.328125 0,1.296875 1.03125,2.25 2.203125,2.25 1.203125,0 2.203125,-0.984375 2.203125,-2.25 z m -2.1875,2 c -0.4375,0 -0.875,-0.203125 -1.140625,-0.671875 -0.25,-0.4375 -0.25,-1.046875 -0.25,-1.40625 0,-0.390625 0,-0.921875 0.234375,-1.359375 C 1.609375,-4.03125 2.078125,-4.25 2.484375,-4.25 c 0.4375,0 0.859375,0.21875 1.125,0.65625 0.265625,0.421875 0.265625,1 0.265625,1.375 0,0.359375 0,0.90625 -0.21875,1.34375 C 3.421875,-0.421875 2.984375,-0.140625 2.5,-0.140625 Z m 0,0"
             style="stroke:none;stroke-width:0"
             inkscape:connector-curvature="0" />
          <path
             id="path2851"
             transform="translate(175.94968,134.765)"
             d="m 2.078125,-1.9375 c 0.21875,0.046875 1.03125,0.203125 1.03125,0.921875 0,0.5 -0.34375,0.90625 -1.125,0.90625 -0.84375,0 -1.203125,-0.5625 -1.390625,-1.421875 C 0.5625,-1.65625 0.5625,-1.6875 0.453125,-1.6875 c -0.125,0 -0.125,0.0625 -0.125,0.234375 V -0.125 c 0,0.171875 0,0.234375 0.109375,0.234375 0.046875,0 0.0625,-0.015625 0.25,-0.203125 0.015625,-0.015625 0.015625,-0.03125 0.203125,-0.21875 0.4375,0.40625 0.890625,0.421875 1.09375,0.421875 1.140625,0 1.609375,-0.671875 1.609375,-1.390625 0,-0.515625 -0.296875,-0.828125 -0.421875,-0.9375 C 2.84375,-2.546875 2.453125,-2.625 2.03125,-2.703125 1.46875,-2.8125 0.8125,-2.9375 0.8125,-3.515625 c 0,-0.359375 0.25,-0.765625 1.109375,-0.765625 1.09375,0 1.15625,0.90625 1.171875,1.203125 0,0.09375 0.09375,0.09375 0.109375,0.09375 0.140625,0 0.140625,-0.046875 0.140625,-0.234375 v -1.015625 c 0,-0.15625 0,-0.234375 -0.109375,-0.234375 -0.046875,0 -0.078125,0 -0.203125,0.125 -0.03125,0.03125 -0.125,0.125 -0.171875,0.15625 -0.375,-0.28125 -0.78125,-0.28125 -0.9375,-0.28125 -1.21875,0 -1.59375,0.671875 -1.59375,1.234375 0,0.34375 0.15625,0.625 0.421875,0.84375 0.328125,0.25 0.609375,0.3125 1.328125,0.453125 z m 0,0"
             style="stroke:none;stroke-width:0"
             inkscape:connector-curvature="0" />
        </g>
        <g
           id="g2857"
           style="fill:#000000;fill-opacity:1">
          <path
             id="path2855"
             transform="translate(181.541,134.765)"
             d="m 4.53125,-4.984375 c 0,-0.65625 -0.171875,-2.046875 -1.1875,-2.046875 -1.390625,0 -2.921875,2.8125 -2.921875,5.09375 0,0.9375 0.28125,2.046875 1.1875,2.046875 1.40625,0 2.921875,-2.859375 2.921875,-5.09375 z M 1.46875,-3.625 C 1.640625,-4.25 1.84375,-5.046875 2.25,-5.765625 2.515625,-6.25 2.875,-6.8125 3.328125,-6.8125 c 0.484375,0 0.546875,0.640625 0.546875,1.203125 0,0.5 -0.078125,1 -0.3125,1.984375 z m 2,0.328125 C 3.359375,-2.84375 3.15625,-2 2.765625,-1.28125 c -0.34375,0.6875 -0.71875,1.171875 -1.15625,1.171875 -0.328125,0 -0.53125,-0.296875 -0.53125,-1.21875 0,-0.421875 0.0625,-1 0.3125,-1.96875 z m 0,0"
             style="stroke:none;stroke-width:0"
             inkscape:connector-curvature="0" />
        </g>
      </g>
    </g>
    <g
       id="g3737"
       ns1:jacobian_sqrt="0.352778"
       inkscapeversion="0.92.4"
       ns1:alignment="middle center"
       ns1:scale="1.0"
       ns1:preamble="C:\\Users\\shawn\\AppData\\Roaming\\inkscape\\extensions\\textext\\default_packages.tex"
       ns1:text="$\\text{proj}(\\mathbf{v}|\\mathbf{u})$"
       ns1:pdfconverter="pdf2svg"
       ns1:texconverter="pdflatex"
       ns1:version="0.11.0"
       transform="matrix(0.352778,0,0,0.352778,-19.289705,232.21429)"
       style="fill:#006464;fill-opacity:1">
      <g
         id="g3735"
         style="fill:#006464;fill-opacity:1">
        <g
           id="g3709"
           style="fill:#006464;fill-opacity:1">
          <path
             id="path3703"
             transform="translate(148.712,134.765)"
             d="m 1.71875,-3.75 v -0.65625 l -1.4375,0.109375 v 0.3125 c 0.703125,0 0.78125,0.0625 0.78125,0.5 v 4.65625 C 1.0625,1.625 0.953125,1.625 0.28125,1.625 V 1.9375 C 0.625,1.921875 1.140625,1.90625 1.390625,1.90625 c 0.28125,0 0.78125,0.015625 1.125,0.03125 V 1.625 C 1.859375,1.625 1.75,1.625 1.75,1.171875 V -0.59375 c 0.046875,0.171875 0.46875,0.703125 1.21875,0.703125 1.1875,0 2.21875,-0.984375 2.21875,-2.265625 0,-1.265625 -0.953125,-2.25 -2.078125,-2.25 -0.78125,0 -1.203125,0.4375 -1.390625,0.65625 z M 1.75,-1.140625 v -2.21875 C 2.03125,-3.875 2.515625,-4.15625 3.03125,-4.15625 c 0.734375,0 1.328125,0.875 1.328125,2 0,1.203125 -0.6875,2.046875 -1.421875,2.046875 -0.40625,0 -0.78125,-0.203125 -1.046875,-0.609375 C 1.75,-0.921875 1.75,-0.9375 1.75,-1.140625 Z m 0,0"
             style="fill:#006464;fill-opacity:1;stroke:none;stroke-width:0"
             inkscape:connector-curvature="0" />
          <path
             id="path3705"
             transform="translate(154.24722,134.765)"
             d="M 1.671875,-3.3125 V -4.40625 L 0.28125,-4.296875 v 0.3125 c 0.703125,0 0.78125,0.0625 0.78125,0.5625 V -0.75 c 0,0.4375 -0.109375,0.4375 -0.78125,0.4375 V 0 c 0.390625,-0.015625 0.859375,-0.03125 1.140625,-0.03125 0.390625,0 0.859375,0 1.265625,0.03125 V -0.3125 H 2.46875 c -0.734375,0 -0.75,-0.109375 -0.75,-0.46875 V -2.3125 c 0,-0.984375 0.421875,-1.875 1.171875,-1.875 0.0625,0 0.09375,0 0.109375,0.015625 -0.03125,0 -0.234375,0.125 -0.234375,0.390625 0,0.265625 0.21875,0.421875 0.4375,0.421875 0.171875,0 0.421875,-0.125 0.421875,-0.4375 0,-0.3125 -0.3125,-0.609375 -0.734375,-0.609375 -0.734375,0 -1.09375,0.671875 -1.21875,1.09375 z m 0,0"
             style="fill:#006464;fill-opacity:1;stroke:none;stroke-width:0"
             inkscape:connector-curvature="0" />
          <path
             id="path3707"
             transform="translate(158.14957,134.765)"
             d="M 4.6875,-2.140625 C 4.6875,-3.40625 3.703125,-4.46875 2.5,-4.46875 c -1.25,0 -2.21875,1.09375 -2.21875,2.328125 0,1.296875 1.03125,2.25 2.203125,2.25 1.203125,0 2.203125,-0.984375 2.203125,-2.25 z m -2.1875,2 c -0.4375,0 -0.875,-0.203125 -1.140625,-0.671875 -0.25,-0.4375 -0.25,-1.046875 -0.25,-1.40625 0,-0.390625 0,-0.921875 0.234375,-1.359375 C 1.609375,-4.03125 2.078125,-4.25 2.484375,-4.25 c 0.4375,0 0.859375,0.21875 1.125,0.65625 0.265625,0.421875 0.265625,1 0.265625,1.375 0,0.359375 0,0.90625 -0.21875,1.34375 C 3.421875,-0.421875 2.984375,-0.140625 2.5,-0.140625 Z m 0,0"
             style="fill:#006464;fill-opacity:1;stroke:none;stroke-width:0"
             inkscape:connector-curvature="0" />
        </g>
        <g
           id="g3713"
           style="fill:#006464;fill-opacity:1">
          <path
             id="path3711"
             transform="translate(163.68878,134.765)"
             d="m 2.09375,-4.40625 -1.515625,0.109375 v 0.3125 c 0.765625,0 0.859375,0.0625 0.859375,0.5625 v 3.9375 c 0,0.453125 -0.09375,1.3125 -0.734375,1.3125 -0.046875,0 -0.28125,0 -0.53125,-0.140625 C 0.3125,1.65625 0.515625,1.515625 0.515625,1.25 0.515625,0.984375 0.34375,0.78125 0.0625,0.78125 c -0.28125,0 -0.46875,0.203125 -0.46875,0.46875 0,0.515625 0.5625,0.796875 1.140625,0.796875 C 1.46875,2.046875 2.09375,1.40625 2.09375,0.5 Z m 0,-1.734375 c 0,-0.296875 -0.234375,-0.53125 -0.53125,-0.53125 -0.28125,0 -0.53125,0.234375 -0.53125,0.53125 0,0.28125 0.25,0.53125 0.53125,0.53125 0.296875,0 0.53125,-0.25 0.53125,-0.53125 z m 0,0"
             style="fill:#006464;fill-opacity:1;stroke:none;stroke-width:0"
             inkscape:connector-curvature="0" />
        </g>
        <g
           id="g3717"
           style="fill:#006464;fill-opacity:1">
          <path
             id="path3715"
             transform="translate(166.72338,134.765)"
             d="m 3.296875,2.390625 c 0,-0.03125 0,-0.046875 -0.171875,-0.21875 C 1.890625,0.921875 1.5625,-0.96875 1.5625,-2.5 c 0,-1.734375 0.375,-3.46875 1.609375,-4.703125 0.125,-0.125 0.125,-0.140625 0.125,-0.171875 0,-0.078125 -0.03125,-0.109375 -0.09375,-0.109375 -0.109375,0 -1,0.6875 -1.59375,1.953125 -0.5,1.09375 -0.625,2.203125 -0.625,3.03125 0,0.78125 0.109375,1.984375 0.65625,3.125 C 2.25,1.84375 3.09375,2.5 3.203125,2.5 c 0.0625,0 0.09375,-0.03125 0.09375,-0.109375 z m 0,0"
             style="fill:#006464;fill-opacity:1;stroke:none;stroke-width:0"
             inkscape:connector-curvature="0" />
        </g>
        <g
           id="g3721"
           style="fill:#006464;fill-opacity:1">
          <path
             id="path3719"
             transform="translate(170.602,134.765)"
             d="m 5.046875,-3.75 c 0.0625,-0.140625 0.09375,-0.203125 0.734375,-0.203125 v -0.46875 C 5.53125,-4.40625 5.25,-4.390625 5,-4.390625 c -0.25,0 -0.703125,-0.03125 -0.90625,-0.03125 v 0.46875 c 0.1875,0 0.46875,0.03125 0.46875,0.109375 0,0 0,0.03125 -0.046875,0.109375 l -1.15625,2.5 -1.265625,-2.71875 H 2.625 v -0.46875 c -0.328125,0.015625 -1.21875,0.03125 -1.234375,0.03125 -0.28125,0 -0.71875,-0.03125 -1.125,-0.03125 v 0.46875 h 0.625 l 1.75,3.75 c 0.125,0.25 0.25,0.25 0.375,0.25 0.171875,0 0.28125,-0.03125 0.375,-0.25 z m 0,0"
             style="fill:#006464;fill-opacity:1;stroke:none;stroke-width:0"
             inkscape:connector-curvature="0" />
        </g>
        <g
           id="g3725"
           style="fill:#006464;fill-opacity:1">
          <path
             id="path3723"
             transform="translate(176.808,134.765)"
             d="m 1.578125,-7.125 c 0,-0.171875 0,-0.359375 -0.1875,-0.359375 -0.203125,0 -0.203125,0.1875 -0.203125,0.359375 v 9.265625 c 0,0.171875 0,0.359375 0.203125,0.359375 0.1875,0 0.1875,-0.1875 0.1875,-0.359375 z m 0,0"
             style="fill:#006464;fill-opacity:1;stroke:none;stroke-width:0"
             inkscape:connector-curvature="0" />
        </g>
        <g
           id="g3729"
           style="fill:#006464;fill-opacity:1">
          <path
             id="path3727"
             transform="translate(179.576,134.765)"
             d="M 4.359375,-0.71875 V 0.0625 L 6.125,0 v -0.46875 c -0.609375,0 -0.6875,0 -0.6875,-0.390625 v -3.625 L 3.625,-4.40625 v 0.46875 c 0.609375,0 0.6875,0 0.6875,0.390625 v 1.90625 c 0,0.8125 -0.515625,1.34375 -1.234375,1.34375 -0.78125,0 -0.8125,-0.25 -0.8125,-0.796875 v -3.390625 l -1.8125,0.078125 v 0.46875 c 0.609375,0 0.6875,0 0.6875,0.390625 v 2.328125 c 0,1.0625 0.796875,1.28125 1.796875,1.28125 0.25,0 0.96875,0 1.421875,-0.78125 z m 0,0"
             style="fill:#006464;fill-opacity:1;stroke:none;stroke-width:0"
             inkscape:connector-curvature="0" />
        </g>
        <g
           id="g3733"
           style="fill:#006464;fill-opacity:1">
          <path
             id="path3731"
             transform="translate(185.941,134.765)"
             d="m 2.875,-2.5 c 0,-0.765625 -0.109375,-1.96875 -0.65625,-3.109375 -0.59375,-1.21875 -1.453125,-1.875 -1.546875,-1.875 -0.0625,0 -0.109375,0.046875 -0.109375,0.109375 0,0.03125 0,0.046875 0.1875,0.234375 0.984375,0.984375 1.546875,2.5625 1.546875,4.640625 0,1.71875 -0.359375,3.46875 -1.59375,4.71875 C 0.5625,2.34375 0.5625,2.359375 0.5625,2.390625 0.5625,2.453125 0.609375,2.5 0.671875,2.5 0.765625,2.5 1.671875,1.8125 2.25,0.546875 2.765625,-0.546875 2.875,-1.65625 2.875,-2.5 Z m 0,0"
             style="fill:#006464;fill-opacity:1;stroke:none;stroke-width:0"
             inkscape:connector-curvature="0" />
        </g>
      </g>
    </g>
    <g
       id="g3999"
       ns1:jacobian_sqrt="0.352778"
       inkscapeversion="0.92.4"
       ns1:alignment="middle center"
       ns1:scale="1.0"
       ns1:preamble="C:\\Users\\shawn\\AppData\\Roaming\\inkscape\\extensions\\textext\\default_packages.tex"
       ns1:text="$= \\frac{\\mathbf{u}}{\\|\\mathbf{u}\\|}\\|\\mathbf{v}\\|\\cos\\theta = \\frac{\\mathbf{u}}{\\|\\mathbf{u}\\|^2}\\|\\mathbf{u}\\|\\|\\mathbf{v}\\|\\cos\\theta = \\frac{\\mathbf{u} \\bullet \\mathbf{v}}{\\mathbf{u} \\bullet \\mathbf{u}} \\mathbf{u}$"
       ns1:pdfconverter="pdf2svg"
       ns1:texconverter="pdflatex"
       ns1:version="0.11.0"
       transform="matrix(0.352778,0,0,0.352778,-23.163718,236.46814)">
      <g
         id="g3997">
        <g
           id="g3859"
           style="fill:#000000;fill-opacity:1">
          <path
             id="path3857"
             transform="translate(148.712,134.765)"
             d="m 6.84375,-3.265625 c 0.15625,0 0.34375,0 0.34375,-0.1875 C 7.1875,-3.65625 7,-3.65625 6.859375,-3.65625 h -5.96875 c -0.140625,0 -0.328125,0 -0.328125,0.203125 0,0.1875 0.1875,0.1875 0.328125,0.1875 z m 0.015625,1.9375 c 0.140625,0 0.328125,0 0.328125,-0.203125 0,-0.1875 -0.1875,-0.1875 -0.34375,-0.1875 H 0.890625 c -0.140625,0 -0.328125,0 -0.328125,0.1875 0,0.203125 0.1875,0.203125 0.328125,0.203125 z m 0,0"
             style="stroke:none;stroke-width:0"
             inkscape:connector-curvature="0" />
        </g>
        <g
           id="g3863"
           style="fill:#000000;fill-opacity:1">
          <path
             id="path3861"
             transform="translate(164.506,130.842)"
             d="M 2.90625,-3.078125 V -2.6875 c 0.421875,0 0.46875,0 0.46875,0.265625 V -1.125 c 0,0.578125 -0.4375,0.84375 -0.96875,0.84375 -0.59375,0 -0.609375,-0.15625 -0.609375,-0.484375 v -2.375 l -1.34375,0.0625 V -2.6875 c 0.40625,0 0.453125,0 0.453125,0.265625 v 1.578125 c 0,0.8125 0.78125,0.890625 1.375,0.890625 0.234375,0 0.75,0 1.140625,-0.5 v 0.5 L 4.734375,0 v -0.390625 c -0.40625,0 -0.46875,0 -0.46875,-0.265625 v -2.484375 z m 0,0"
             style="stroke:none;stroke-width:0"
             inkscape:connector-curvature="0" />
        </g>
        <path
           id="path3865"
           transform="matrix(1,0,0,-1,160.424,132.274)"
           d="M 0.00178125,5.625e-4 H 13.173656"
           style="fill:none;stroke:#000000;stroke-width:0.398;stroke-linecap:butt;stroke-linejoin:miter;stroke-miterlimit:10;stroke-opacity:1"
           inkscape:connector-curvature="0" />
        <g
           id="g3869"
           style="fill:#000000;fill-opacity:1">
          <path
             id="path3867"
             transform="translate(160.424,138.2)"
             d="m 1.4375,-4.96875 c 0,-0.09375 0,-0.25 -0.171875,-0.25 -0.171875,0 -0.171875,0.171875 -0.171875,0.296875 V 1.4375 c 0,0.125 0,0.296875 0.171875,0.296875 0.171875,0 0.171875,-0.15625 0.171875,-0.265625 z m 1.53125,0.046875 c 0,-0.125 0,-0.296875 -0.171875,-0.296875 -0.15625,0 -0.15625,0.15625 -0.15625,0.25 v 6.4375 c 0,0.109375 0,0.265625 0.15625,0.265625 0.171875,0 0.171875,-0.171875 0.171875,-0.296875 z m 0,0"
             style="stroke:none;stroke-width:0"
             inkscape:connector-curvature="0" />
        </g>
        <g
           id="g3873"
           style="fill:#000000;fill-opacity:1">
          <path
             id="path3871"
             transform="translate(164.506,138.2)"
             d="M 2.90625,-3.078125 V -2.6875 c 0.421875,0 0.46875,0 0.46875,0.265625 V -1.125 c 0,0.578125 -0.4375,0.84375 -0.96875,0.84375 -0.59375,0 -0.609375,-0.15625 -0.609375,-0.484375 v -2.375 l -1.34375,0.0625 V -2.6875 c 0.40625,0 0.453125,0 0.453125,0.265625 v 1.578125 c 0,0.8125 0.78125,0.890625 1.375,0.890625 0.234375,0 0.75,0 1.140625,-0.5 v 0.5 L 4.734375,0 v -0.390625 c -0.40625,0 -0.46875,0 -0.46875,-0.265625 v -2.484375 z m 0,0"
             style="stroke:none;stroke-width:0"
             inkscape:connector-curvature="0" />
        </g>
        <g
           id="g3877"
           style="fill:#000000;fill-opacity:1">
          <path
             id="path3875"
             transform="translate(169.515,138.2)"
             d="m 1.4375,-4.96875 c 0,-0.09375 0,-0.25 -0.171875,-0.25 -0.171875,0 -0.171875,0.171875 -0.171875,0.296875 V 1.4375 c 0,0.125 0,0.296875 0.171875,0.296875 0.171875,0 0.171875,-0.15625 0.171875,-0.265625 z m 1.53125,0.046875 c 0,-0.125 0,-0.296875 -0.171875,-0.296875 -0.15625,0 -0.15625,0.15625 -0.15625,0.25 v 6.4375 c 0,0.109375 0,0.265625 0.15625,0.265625 0.171875,0 0.171875,-0.171875 0.171875,-0.296875 z m 0,0"
             style="stroke:none;stroke-width:0"
             inkscape:connector-curvature="0" />
        </g>
        <g
           id="g3881"
           style="fill:#000000;fill-opacity:1">
          <path
             id="path3879"
             transform="translate(174.792,134.765)"
             d="m 1.71875,-7.140625 c 0,-0.15625 0,-0.34375 -0.203125,-0.34375 -0.203125,0 -0.203125,0.234375 -0.203125,0.375 V 2.125 c 0,0.15625 0,0.375 0.203125,0.375 C 1.71875,2.5 1.71875,2.3125 1.71875,2.15625 Z m 1.9375,0.03125 c 0,-0.15625 0,-0.375 -0.203125,-0.375 -0.1875,0 -0.1875,0.1875 -0.1875,0.34375 V 2.15625 c 0,0.15625 0,0.34375 0.1875,0.34375 C 3.65625,2.5 3.65625,2.265625 3.65625,2.125 Z m 0,0"
             style="stroke:none;stroke-width:0"
             inkscape:connector-curvature="0" />
        </g>
        <g
           id="g3885"
           style="fill:#000000;fill-opacity:1">
          <path
             id="path3883"
             transform="translate(179.774,134.765)"
             d="m 5.046875,-3.75 c 0.0625,-0.140625 0.09375,-0.203125 0.734375,-0.203125 v -0.46875 C 5.53125,-4.40625 5.25,-4.390625 5,-4.390625 c -0.25,0 -0.703125,-0.03125 -0.90625,-0.03125 v 0.46875 c 0.1875,0 0.46875,0.03125 0.46875,0.109375 0,0 0,0.03125 -0.046875,0.109375 l -1.15625,2.5 -1.265625,-2.71875 H 2.625 v -0.46875 c -0.328125,0.015625 -1.21875,0.03125 -1.234375,0.03125 -0.28125,0 -0.71875,-0.03125 -1.125,-0.03125 v 0.46875 h 0.625 l 1.75,3.75 c 0.125,0.25 0.25,0.25 0.375,0.25 0.171875,0 0.28125,-0.03125 0.375,-0.25 z m 0,0"
             style="stroke:none;stroke-width:0"
             inkscape:connector-curvature="0" />
        </g>
        <g
           id="g3889"
           style="fill:#000000;fill-opacity:1">
          <path
             id="path3887"
             transform="translate(185.979,134.765)"
             d="m 1.71875,-7.140625 c 0,-0.15625 0,-0.34375 -0.203125,-0.34375 -0.203125,0 -0.203125,0.234375 -0.203125,0.375 V 2.125 c 0,0.15625 0,0.375 0.203125,0.375 C 1.71875,2.5 1.71875,2.3125 1.71875,2.15625 Z m 1.9375,0.03125 c 0,-0.15625 0,-0.375 -0.203125,-0.375 -0.1875,0 -0.1875,0.1875 -0.1875,0.34375 V 2.15625 c 0,0.15625 0,0.34375 0.1875,0.34375 C 3.65625,2.5 3.65625,2.265625 3.65625,2.125 Z m 0,0"
             style="stroke:none;stroke-width:0"
             inkscape:connector-curvature="0" />
        </g>
        <g
           id="g3897"
           style="fill:#000000;fill-opacity:1">
          <path
             id="path3891"
             transform="translate(192.621,134.765)"
             d="m 1.171875,-2.171875 c 0,-1.625 0.8125,-2.046875 1.34375,-2.046875 0.09375,0 0.71875,0.015625 1.0625,0.375 -0.40625,0.03125 -0.46875,0.328125 -0.46875,0.453125 0,0.265625 0.1875,0.453125 0.453125,0.453125 0.265625,0 0.46875,-0.15625 0.46875,-0.46875 0,-0.671875 -0.765625,-1.0625 -1.53125,-1.0625 -1.25,0 -2.15625,1.078125 -2.15625,2.3125 0,1.28125 0.984375,2.265625 2.140625,2.265625 1.328125,0 1.65625,-1.203125 1.65625,-1.296875 0,-0.09375 -0.109375,-0.09375 -0.140625,-0.09375 -0.078125,0 -0.109375,0.03125 -0.125,0.09375 -0.28125,0.921875 -0.9375,1.046875 -1.296875,1.046875 -0.53125,0 -1.40625,-0.421875 -1.40625,-2.03125 z m 0,0"
             style="stroke:none;stroke-width:0"
             inkscape:connector-curvature="0" />
          <path
             id="path3893"
             transform="translate(197.04838,134.765)"
             d="M 4.6875,-2.140625 C 4.6875,-3.40625 3.703125,-4.46875 2.5,-4.46875 c -1.25,0 -2.21875,1.09375 -2.21875,2.328125 0,1.296875 1.03125,2.25 2.203125,2.25 1.203125,0 2.203125,-0.984375 2.203125,-2.25 z m -2.1875,2 c -0.4375,0 -0.875,-0.203125 -1.140625,-0.671875 -0.25,-0.4375 -0.25,-1.046875 -0.25,-1.40625 0,-0.390625 0,-0.921875 0.234375,-1.359375 C 1.609375,-4.03125 2.078125,-4.25 2.484375,-4.25 c 0.4375,0 0.859375,0.21875 1.125,0.65625 0.265625,0.421875 0.265625,1 0.265625,1.375 0,0.359375 0,0.90625 -0.21875,1.34375 C 3.421875,-0.421875 2.984375,-0.140625 2.5,-0.140625 Z m 0,0"
             style="stroke:none;stroke-width:0"
             inkscape:connector-curvature="0" />
          <path
             id="path3895"
             transform="translate(202.02968,134.765)"
             d="m 2.078125,-1.9375 c 0.21875,0.046875 1.03125,0.203125 1.03125,0.921875 0,0.5 -0.34375,0.90625 -1.125,0.90625 -0.84375,0 -1.203125,-0.5625 -1.390625,-1.421875 C 0.5625,-1.65625 0.5625,-1.6875 0.453125,-1.6875 c -0.125,0 -0.125,0.0625 -0.125,0.234375 V -0.125 c 0,0.171875 0,0.234375 0.109375,0.234375 0.046875,0 0.0625,-0.015625 0.25,-0.203125 0.015625,-0.015625 0.015625,-0.03125 0.203125,-0.21875 0.4375,0.40625 0.890625,0.421875 1.09375,0.421875 1.140625,0 1.609375,-0.671875 1.609375,-1.390625 0,-0.515625 -0.296875,-0.828125 -0.421875,-0.9375 C 2.84375,-2.546875 2.453125,-2.625 2.03125,-2.703125 1.46875,-2.8125 0.8125,-2.9375 0.8125,-3.515625 c 0,-0.359375 0.25,-0.765625 1.109375,-0.765625 1.09375,0 1.15625,0.90625 1.171875,1.203125 0,0.09375 0.09375,0.09375 0.109375,0.09375 0.140625,0 0.140625,-0.046875 0.140625,-0.234375 v -1.015625 c 0,-0.15625 0,-0.234375 -0.109375,-0.234375 -0.046875,0 -0.078125,0 -0.203125,0.125 -0.03125,0.03125 -0.125,0.125 -0.171875,0.15625 -0.375,-0.28125 -0.78125,-0.28125 -0.9375,-0.28125 -1.21875,0 -1.59375,0.671875 -1.59375,1.234375 0,0.34375 0.15625,0.625 0.421875,0.84375 0.328125,0.25 0.609375,0.3125 1.328125,0.453125 z m 0,0"
             style="stroke:none;stroke-width:0"
             inkscape:connector-curvature="0" />
        </g>
        <g
           id="g3901"
           style="fill:#000000;fill-opacity:1">
          <path
             id="path3899"
             transform="translate(207.62,134.765)"
             d="m 4.53125,-4.984375 c 0,-0.65625 -0.171875,-2.046875 -1.1875,-2.046875 -1.390625,0 -2.921875,2.8125 -2.921875,5.09375 0,0.9375 0.28125,2.046875 1.1875,2.046875 1.40625,0 2.921875,-2.859375 2.921875,-5.09375 z M 1.46875,-3.625 C 1.640625,-4.25 1.84375,-5.046875 2.25,-5.765625 2.515625,-6.25 2.875,-6.8125 3.328125,-6.8125 c 0.484375,0 0.546875,0.640625 0.546875,1.203125 0,0.5 -0.078125,1 -0.3125,1.984375 z m 2,0.328125 C 3.359375,-2.84375 3.15625,-2 2.765625,-1.28125 c -0.34375,0.6875 -0.71875,1.171875 -1.15625,1.171875 -0.328125,0 -0.53125,-0.296875 -0.53125,-1.21875 0,-0.421875 0.0625,-1 0.3125,-1.96875 z m 0,0"
             style="stroke:none;stroke-width:0"
             inkscape:connector-curvature="0" />
        </g>
        <g
           id="g3905"
           style="fill:#000000;fill-opacity:1">
          <path
             id="path3903"
             transform="translate(215.341,134.765)"
             d="m 6.84375,-3.265625 c 0.15625,0 0.34375,0 0.34375,-0.1875 C 7.1875,-3.65625 7,-3.65625 6.859375,-3.65625 h -5.96875 c -0.140625,0 -0.328125,0 -0.328125,0.203125 0,0.1875 0.1875,0.1875 0.328125,0.1875 z m 0.015625,1.9375 c 0.140625,0 0.328125,0 0.328125,-0.203125 0,-0.1875 -0.1875,-0.1875 -0.34375,-0.1875 H 0.890625 c -0.140625,0 -0.328125,0 -0.328125,0.1875 0,0.203125 0.1875,0.203125 0.328125,0.203125 z m 0,0"
             style="stroke:none;stroke-width:0"
             inkscape:connector-curvature="0" />
        </g>
        <g
           id="g3909"
           style="fill:#000000;fill-opacity:1">
          <path
             id="path3907"
             transform="translate(233.079,130.842)"
             d="M 2.90625,-3.078125 V -2.6875 c 0.421875,0 0.46875,0 0.46875,0.265625 V -1.125 c 0,0.578125 -0.4375,0.84375 -0.96875,0.84375 -0.59375,0 -0.609375,-0.15625 -0.609375,-0.484375 v -2.375 l -1.34375,0.0625 V -2.6875 c 0.40625,0 0.453125,0 0.453125,0.265625 v 1.578125 c 0,0.8125 0.78125,0.890625 1.375,0.890625 0.234375,0 0.75,0 1.140625,-0.5 v 0.5 L 4.734375,0 v -0.390625 c -0.40625,0 -0.46875,0 -0.46875,-0.265625 v -2.484375 z m 0,0"
             style="stroke:none;stroke-width:0"
             inkscape:connector-curvature="0" />
        </g>
        <path
           id="path3911"
           transform="matrix(1,0,0,-1,227.053,132.274)"
           d="M 0.0016875,5.625e-4 H 17.060281"
           style="fill:none;stroke:#000000;stroke-width:0.398;stroke-linecap:butt;stroke-linejoin:miter;stroke-miterlimit:10;stroke-opacity:1"
           inkscape:connector-curvature="0" />
        <g
           id="g3915"
           style="fill:#000000;fill-opacity:1">
          <path
             id="path3913"
             transform="translate(227.053,138.2)"
             d="m 1.4375,-4.96875 c 0,-0.09375 0,-0.25 -0.171875,-0.25 -0.171875,0 -0.171875,0.171875 -0.171875,0.296875 V 1.4375 c 0,0.125 0,0.296875 0.171875,0.296875 0.171875,0 0.171875,-0.15625 0.171875,-0.265625 z m 1.53125,0.046875 c 0,-0.125 0,-0.296875 -0.171875,-0.296875 -0.15625,0 -0.15625,0.15625 -0.15625,0.25 v 6.4375 c 0,0.109375 0,0.265625 0.15625,0.265625 0.171875,0 0.171875,-0.171875 0.171875,-0.296875 z m 0,0"
             style="stroke:none;stroke-width:0"
             inkscape:connector-curvature="0" />
        </g>
        <g
           id="g3919"
           style="fill:#000000;fill-opacity:1">
          <path
             id="path3917"
             transform="translate(231.135,138.2)"
             d="M 2.90625,-3.078125 V -2.6875 c 0.421875,0 0.46875,0 0.46875,0.265625 V -1.125 c 0,0.578125 -0.4375,0.84375 -0.96875,0.84375 -0.59375,0 -0.609375,-0.15625 -0.609375,-0.484375 v -2.375 l -1.34375,0.0625 V -2.6875 c 0.40625,0 0.453125,0 0.453125,0.265625 v 1.578125 c 0,0.8125 0.78125,0.890625 1.375,0.890625 0.234375,0 0.75,0 1.140625,-0.5 v 0.5 L 4.734375,0 v -0.390625 c -0.40625,0 -0.46875,0 -0.46875,-0.265625 v -2.484375 z m 0,0"
             style="stroke:none;stroke-width:0"
             inkscape:connector-curvature="0" />
        </g>
        <g
           id="g3923"
           style="fill:#000000;fill-opacity:1">
          <path
             id="path3921"
             transform="translate(236.144,138.2)"
             d="m 1.4375,-4.96875 c 0,-0.09375 0,-0.25 -0.171875,-0.25 -0.171875,0 -0.171875,0.171875 -0.171875,0.296875 V 1.4375 c 0,0.125 0,0.296875 0.171875,0.296875 0.171875,0 0.171875,-0.15625 0.171875,-0.265625 z m 1.53125,0.046875 c 0,-0.125 0,-0.296875 -0.171875,-0.296875 -0.15625,0 -0.15625,0.15625 -0.15625,0.25 v 6.4375 c 0,0.109375 0,0.265625 0.15625,0.265625 0.171875,0 0.171875,-0.171875 0.171875,-0.296875 z m 0,0"
             style="stroke:none;stroke-width:0"
             inkscape:connector-curvature="0" />
        </g>
        <g
           id="g3927"
           style="fill:#000000;fill-opacity:1">
          <path
             id="path3925"
             transform="translate(240.226,136.208)"
             d="M 2.9375,-0.96875 H 2.71875 c 0,0.09375 -0.0625,0.40625 -0.140625,0.453125 -0.03125,0.03125 -0.453125,0.03125 -0.53125,0.03125 H 1.078125 C 1.40625,-0.71875 1.765625,-1 2.0625,-1.203125 c 0.453125,-0.3125 0.875,-0.59375 0.875,-1.125 0,-0.640625 -0.609375,-0.984375 -1.3125,-0.984375 -0.671875,0 -1.171875,0.375 -1.171875,0.875 0,0.25 0.21875,0.296875 0.296875,0.296875 0.125,0 0.28125,-0.09375 0.28125,-0.296875 0,-0.171875 -0.125,-0.28125 -0.28125,-0.28125 0.140625,-0.234375 0.4375,-0.375 0.765625,-0.375 0.484375,0 0.890625,0.28125 0.890625,0.765625 0,0.421875 -0.296875,0.75 -0.671875,1.0625 l -1.21875,1.03125 C 0.46875,-0.1875 0.453125,-0.1875 0.453125,-0.15625 V 0 h 2.3125 z m 0,0"
             style="stroke:none;stroke-width:0"
             inkscape:connector-curvature="0" />
        </g>
        <g
           id="g3931"
           style="fill:#000000;fill-opacity:1">
          <path
             id="path3929"
             transform="translate(245.31,134.765)"
             d="m 1.71875,-7.140625 c 0,-0.15625 0,-0.34375 -0.203125,-0.34375 -0.203125,0 -0.203125,0.234375 -0.203125,0.375 V 2.125 c 0,0.15625 0,0.375 0.203125,0.375 C 1.71875,2.5 1.71875,2.3125 1.71875,2.15625 Z m 1.9375,0.03125 c 0,-0.15625 0,-0.375 -0.203125,-0.375 -0.1875,0 -0.1875,0.1875 -0.1875,0.34375 V 2.15625 c 0,0.15625 0,0.34375 0.1875,0.34375 C 3.65625,2.5 3.65625,2.265625 3.65625,2.125 Z m 0,0"
             style="stroke:none;stroke-width:0"
             inkscape:connector-curvature="0" />
        </g>
        <g
           id="g3935"
           style="fill:#000000;fill-opacity:1">
          <path
             id="path3933"
             transform="translate(250.291,134.765)"
             d="M 4.359375,-0.71875 V 0.0625 L 6.125,0 v -0.46875 c -0.609375,0 -0.6875,0 -0.6875,-0.390625 v -3.625 L 3.625,-4.40625 v 0.46875 c 0.609375,0 0.6875,0 0.6875,0.390625 v 1.90625 c 0,0.8125 -0.515625,1.34375 -1.234375,1.34375 -0.78125,0 -0.8125,-0.25 -0.8125,-0.796875 v -3.390625 l -1.8125,0.078125 v 0.46875 c 0.609375,0 0.6875,0 0.6875,0.390625 v 2.328125 c 0,1.0625 0.796875,1.28125 1.796875,1.28125 0.25,0 0.96875,0 1.421875,-0.78125 z m 0,0"
             style="stroke:none;stroke-width:0"
             inkscape:connector-curvature="0" />
        </g>
        <g
           id="g3941"
           style="fill:#000000;fill-opacity:1">
          <path
             id="path3937"
             transform="translate(256.656,134.765)"
             d="m 1.71875,-7.140625 c 0,-0.15625 0,-0.34375 -0.203125,-0.34375 -0.203125,0 -0.203125,0.234375 -0.203125,0.375 V 2.125 c 0,0.15625 0,0.375 0.203125,0.375 C 1.71875,2.5 1.71875,2.3125 1.71875,2.15625 Z m 1.9375,0.03125 c 0,-0.15625 0,-0.375 -0.203125,-0.375 -0.1875,0 -0.1875,0.1875 -0.1875,0.34375 V 2.15625 c 0,0.15625 0,0.34375 0.1875,0.34375 C 3.65625,2.5 3.65625,2.265625 3.65625,2.125 Z m 0,0"
             style="stroke:none;stroke-width:0"
             inkscape:connector-curvature="0" />
          <path
             id="path3939"
             transform="translate(261.6373,134.765)"
             d="m 1.71875,-7.140625 c 0,-0.15625 0,-0.34375 -0.203125,-0.34375 -0.203125,0 -0.203125,0.234375 -0.203125,0.375 V 2.125 c 0,0.15625 0,0.375 0.203125,0.375 C 1.71875,2.5 1.71875,2.3125 1.71875,2.15625 Z m 1.9375,0.03125 c 0,-0.15625 0,-0.375 -0.203125,-0.375 -0.1875,0 -0.1875,0.1875 -0.1875,0.34375 V 2.15625 c 0,0.15625 0,0.34375 0.1875,0.34375 C 3.65625,2.5 3.65625,2.265625 3.65625,2.125 Z m 0,0"
             style="stroke:none;stroke-width:0"
             inkscape:connector-curvature="0" />
        </g>
        <g
           id="g3945"
           style="fill:#000000;fill-opacity:1">
          <path
             id="path3943"
             transform="translate(266.619,134.765)"
             d="m 5.046875,-3.75 c 0.0625,-0.140625 0.09375,-0.203125 0.734375,-0.203125 v -0.46875 C 5.53125,-4.40625 5.25,-4.390625 5,-4.390625 c -0.25,0 -0.703125,-0.03125 -0.90625,-0.03125 v 0.46875 c 0.1875,0 0.46875,0.03125 0.46875,0.109375 0,0 0,0.03125 -0.046875,0.109375 l -1.15625,2.5 -1.265625,-2.71875 H 2.625 v -0.46875 c -0.328125,0.015625 -1.21875,0.03125 -1.234375,0.03125 -0.28125,0 -0.71875,-0.03125 -1.125,-0.03125 v 0.46875 h 0.625 l 1.75,3.75 c 0.125,0.25 0.25,0.25 0.375,0.25 0.171875,0 0.28125,-0.03125 0.375,-0.25 z m 0,0"
             style="stroke:none;stroke-width:0"
             inkscape:connector-curvature="0" />
        </g>
        <g
           id="g3949"
           style="fill:#000000;fill-opacity:1">
          <path
             id="path3947"
             transform="translate(272.825,134.765)"
             d="m 1.71875,-7.140625 c 0,-0.15625 0,-0.34375 -0.203125,-0.34375 -0.203125,0 -0.203125,0.234375 -0.203125,0.375 V 2.125 c 0,0.15625 0,0.375 0.203125,0.375 C 1.71875,2.5 1.71875,2.3125 1.71875,2.15625 Z m 1.9375,0.03125 c 0,-0.15625 0,-0.375 -0.203125,-0.375 -0.1875,0 -0.1875,0.1875 -0.1875,0.34375 V 2.15625 c 0,0.15625 0,0.34375 0.1875,0.34375 C 3.65625,2.5 3.65625,2.265625 3.65625,2.125 Z m 0,0"
             style="stroke:none;stroke-width:0"
             inkscape:connector-curvature="0" />
        </g>
        <g
           id="g3957"
           style="fill:#000000;fill-opacity:1">
          <path
             id="path3951"
             transform="translate(279.466,134.765)"
             d="m 1.171875,-2.171875 c 0,-1.625 0.8125,-2.046875 1.34375,-2.046875 0.09375,0 0.71875,0.015625 1.0625,0.375 -0.40625,0.03125 -0.46875,0.328125 -0.46875,0.453125 0,0.265625 0.1875,0.453125 0.453125,0.453125 0.265625,0 0.46875,-0.15625 0.46875,-0.46875 0,-0.671875 -0.765625,-1.0625 -1.53125,-1.0625 -1.25,0 -2.15625,1.078125 -2.15625,2.3125 0,1.28125 0.984375,2.265625 2.140625,2.265625 1.328125,0 1.65625,-1.203125 1.65625,-1.296875 0,-0.09375 -0.109375,-0.09375 -0.140625,-0.09375 -0.078125,0 -0.109375,0.03125 -0.125,0.09375 -0.28125,0.921875 -0.9375,1.046875 -1.296875,1.046875 -0.53125,0 -1.40625,-0.421875 -1.40625,-2.03125 z m 0,0"
             style="stroke:none;stroke-width:0"
             inkscape:connector-curvature="0" />
          <path
             id="path3953"
             transform="translate(283.89338,134.765)"
             d="M 4.6875,-2.140625 C 4.6875,-3.40625 3.703125,-4.46875 2.5,-4.46875 c -1.25,0 -2.21875,1.09375 -2.21875,2.328125 0,1.296875 1.03125,2.25 2.203125,2.25 1.203125,0 2.203125,-0.984375 2.203125,-2.25 z m -2.1875,2 c -0.4375,0 -0.875,-0.203125 -1.140625,-0.671875 -0.25,-0.4375 -0.25,-1.046875 -0.25,-1.40625 0,-0.390625 0,-0.921875 0.234375,-1.359375 C 1.609375,-4.03125 2.078125,-4.25 2.484375,-4.25 c 0.4375,0 0.859375,0.21875 1.125,0.65625 0.265625,0.421875 0.265625,1 0.265625,1.375 0,0.359375 0,0.90625 -0.21875,1.34375 C 3.421875,-0.421875 2.984375,-0.140625 2.5,-0.140625 Z m 0,0"
             style="stroke:none;stroke-width:0"
             inkscape:connector-curvature="0" />
          <path
             id="path3955"
             transform="translate(288.87468,134.765)"
             d="m 2.078125,-1.9375 c 0.21875,0.046875 1.03125,0.203125 1.03125,0.921875 0,0.5 -0.34375,0.90625 -1.125,0.90625 -0.84375,0 -1.203125,-0.5625 -1.390625,-1.421875 C 0.5625,-1.65625 0.5625,-1.6875 0.453125,-1.6875 c -0.125,0 -0.125,0.0625 -0.125,0.234375 V -0.125 c 0,0.171875 0,0.234375 0.109375,0.234375 0.046875,0 0.0625,-0.015625 0.25,-0.203125 0.015625,-0.015625 0.015625,-0.03125 0.203125,-0.21875 0.4375,0.40625 0.890625,0.421875 1.09375,0.421875 1.140625,0 1.609375,-0.671875 1.609375,-1.390625 0,-0.515625 -0.296875,-0.828125 -0.421875,-0.9375 C 2.84375,-2.546875 2.453125,-2.625 2.03125,-2.703125 1.46875,-2.8125 0.8125,-2.9375 0.8125,-3.515625 c 0,-0.359375 0.25,-0.765625 1.109375,-0.765625 1.09375,0 1.15625,0.90625 1.171875,1.203125 0,0.09375 0.09375,0.09375 0.109375,0.09375 0.140625,0 0.140625,-0.046875 0.140625,-0.234375 v -1.015625 c 0,-0.15625 0,-0.234375 -0.109375,-0.234375 -0.046875,0 -0.078125,0 -0.203125,0.125 -0.03125,0.03125 -0.125,0.125 -0.171875,0.15625 -0.375,-0.28125 -0.78125,-0.28125 -0.9375,-0.28125 -1.21875,0 -1.59375,0.671875 -1.59375,1.234375 0,0.34375 0.15625,0.625 0.421875,0.84375 0.328125,0.25 0.609375,0.3125 1.328125,0.453125 z m 0,0"
             style="stroke:none;stroke-width:0"
             inkscape:connector-curvature="0" />
        </g>
        <g
           id="g3961"
           style="fill:#000000;fill-opacity:1">
          <path
             id="path3959"
             transform="translate(294.466,134.765)"
             d="m 4.53125,-4.984375 c 0,-0.65625 -0.171875,-2.046875 -1.1875,-2.046875 -1.390625,0 -2.921875,2.8125 -2.921875,5.09375 0,0.9375 0.28125,2.046875 1.1875,2.046875 1.40625,0 2.921875,-2.859375 2.921875,-5.09375 z M 1.46875,-3.625 C 1.640625,-4.25 1.84375,-5.046875 2.25,-5.765625 2.515625,-6.25 2.875,-6.8125 3.328125,-6.8125 c 0.484375,0 0.546875,0.640625 0.546875,1.203125 0,0.5 -0.078125,1 -0.3125,1.984375 z m 2,0.328125 C 3.359375,-2.84375 3.15625,-2 2.765625,-1.28125 c -0.34375,0.6875 -0.71875,1.171875 -1.15625,1.171875 -0.328125,0 -0.53125,-0.296875 -0.53125,-1.21875 0,-0.421875 0.0625,-1 0.3125,-1.96875 z m 0,0"
             style="stroke:none;stroke-width:0"
             inkscape:connector-curvature="0" />
        </g>
        <g
           id="g3965"
           style="fill:#000000;fill-opacity:1">
          <path
             id="path3963"
             transform="translate(302.187,134.765)"
             d="m 6.84375,-3.265625 c 0.15625,0 0.34375,0 0.34375,-0.1875 C 7.1875,-3.65625 7,-3.65625 6.859375,-3.65625 h -5.96875 c -0.140625,0 -0.328125,0 -0.328125,0.203125 0,0.1875 0.1875,0.1875 0.328125,0.1875 z m 0.015625,1.9375 c 0.140625,0 0.328125,0 0.328125,-0.203125 0,-0.1875 -0.1875,-0.1875 -0.34375,-0.1875 H 0.890625 c -0.140625,0 -0.328125,0 -0.328125,0.1875 0,0.203125 0.1875,0.203125 0.328125,0.203125 z m 0,0"
             style="stroke:none;stroke-width:0"
             inkscape:connector-curvature="0" />
        </g>
        <g
           id="g3969"
           style="fill:#000000;fill-opacity:1">
          <path
             id="path3967"
             transform="translate(313.96,130.842)"
             d="M 2.90625,-3.078125 V -2.6875 c 0.421875,0 0.46875,0 0.46875,0.265625 V -1.125 c 0,0.578125 -0.4375,0.84375 -0.96875,0.84375 -0.59375,0 -0.609375,-0.15625 -0.609375,-0.484375 v -2.375 l -1.34375,0.0625 V -2.6875 c 0.40625,0 0.453125,0 0.453125,0.265625 v 1.578125 c 0,0.8125 0.78125,0.890625 1.375,0.890625 0.234375,0 0.75,0 1.140625,-0.5 v 0.5 L 4.734375,0 v -0.390625 c -0.40625,0 -0.46875,0 -0.46875,-0.265625 v -2.484375 z m 0,0"
             style="stroke:none;stroke-width:0"
             inkscape:connector-curvature="0" />
        </g>
        <g
           id="g3973"
           style="fill:#000000;fill-opacity:1">
          <path
             id="path3971"
             transform="translate(318.969,130.842)"
             d="m 3.53125,-1.734375 c 0,-0.84375 -0.671875,-1.5 -1.5,-1.5 -0.828125,0 -1.5,0.671875 -1.5,1.484375 0,0.84375 0.6875,1.5 1.5,1.5 0.84375,0 1.5,-0.671875 1.5,-1.484375 z m 0,0"
             style="stroke:none;stroke-width:0"
             inkscape:connector-curvature="0" />
        </g>
        <g
           id="g3977"
           style="fill:#000000;fill-opacity:1">
          <path
             id="path3975"
             transform="translate(323.051,130.842)"
             d="m 4,-2.578125 c 0.046875,-0.09375 0.046875,-0.109375 0.1875,-0.125 0.09375,0 0.265625,0 0.3125,0 V -3.09375 C 4.28125,-3.078125 4.140625,-3.0625 3.921875,-3.0625 3.703125,-3.0625 3.4375,-3.078125 3.21875,-3.09375 v 0.390625 c 0.1875,0 0.234375,0.015625 0.3125,0.046875 l -0.9375,1.828125 -0.953125,-1.875 H 1.96875 V -3.09375 C 1.671875,-3.078125 1.359375,-3.0625 1.0625,-3.0625 0.796875,-3.0625 0.515625,-3.078125 0.25,-3.09375 v 0.390625 H 0.703125 L 2,-0.15625 c 0.09375,0.1875 0.171875,0.203125 0.375,0.203125 0.203125,0 0.265625,-0.015625 0.375,-0.203125 z m 0,0"
             style="stroke:none;stroke-width:0"
             inkscape:connector-curvature="0" />
        </g>
        <path
           id="path3979"
           transform="matrix(1,0,0,-1,313.898,132.274)"
           d="M 4.375e-4,5.625e-4 H 14.098094"
           style="fill:none;stroke:#000000;stroke-width:0.398;stroke-linecap:butt;stroke-linejoin:miter;stroke-miterlimit:10;stroke-opacity:1"
           inkscape:connector-curvature="0" />
        <g
           id="g3983"
           style="fill:#000000;fill-opacity:1">
          <path
             id="path3981"
             transform="translate(313.898,138.2)"
             d="M 2.90625,-3.078125 V -2.6875 c 0.421875,0 0.46875,0 0.46875,0.265625 V -1.125 c 0,0.578125 -0.4375,0.84375 -0.96875,0.84375 -0.59375,0 -0.609375,-0.15625 -0.609375,-0.484375 v -2.375 l -1.34375,0.0625 V -2.6875 c 0.40625,0 0.453125,0 0.453125,0.265625 v 1.578125 c 0,0.8125 0.78125,0.890625 1.375,0.890625 0.234375,0 0.75,0 1.140625,-0.5 v 0.5 L 4.734375,0 v -0.390625 c -0.40625,0 -0.46875,0 -0.46875,-0.265625 v -2.484375 z m 0,0"
             style="stroke:none;stroke-width:0"
             inkscape:connector-curvature="0" />
        </g>
        <g
           id="g3987"
           style="fill:#000000;fill-opacity:1">
          <path
             id="path3985"
             transform="translate(318.907,138.2)"
             d="m 3.53125,-1.734375 c 0,-0.84375 -0.671875,-1.5 -1.5,-1.5 -0.828125,0 -1.5,0.671875 -1.5,1.484375 0,0.84375 0.6875,1.5 1.5,1.5 0.84375,0 1.5,-0.671875 1.5,-1.484375 z m 0,0"
             style="stroke:none;stroke-width:0"
             inkscape:connector-curvature="0" />
        </g>
        <g
           id="g3991"
           style="fill:#000000;fill-opacity:1">
          <path
             id="path3989"
             transform="translate(322.989,138.2)"
             d="M 2.90625,-3.078125 V -2.6875 c 0.421875,0 0.46875,0 0.46875,0.265625 V -1.125 c 0,0.578125 -0.4375,0.84375 -0.96875,0.84375 -0.59375,0 -0.609375,-0.15625 -0.609375,-0.484375 v -2.375 l -1.34375,0.0625 V -2.6875 c 0.40625,0 0.453125,0 0.453125,0.265625 v 1.578125 c 0,0.8125 0.78125,0.890625 1.375,0.890625 0.234375,0 0.75,0 1.140625,-0.5 v 0.5 L 4.734375,0 v -0.390625 c -0.40625,0 -0.46875,0 -0.46875,-0.265625 v -2.484375 z m 0,0"
             style="stroke:none;stroke-width:0"
             inkscape:connector-curvature="0" />
        </g>
        <g
           id="g3995"
           style="fill:#000000;fill-opacity:1">
          <path
             id="path3993"
             transform="translate(329.194,134.765)"
             d="M 4.359375,-0.71875 V 0.0625 L 6.125,0 v -0.46875 c -0.609375,0 -0.6875,0 -0.6875,-0.390625 v -3.625 L 3.625,-4.40625 v 0.46875 c 0.609375,0 0.6875,0 0.6875,0.390625 v 1.90625 c 0,0.8125 -0.515625,1.34375 -1.234375,1.34375 -0.78125,0 -0.8125,-0.25 -0.8125,-0.796875 v -3.390625 l -1.8125,0.078125 v 0.46875 c 0.609375,0 0.6875,0 0.6875,0.390625 v 2.328125 c 0,1.0625 0.796875,1.28125 1.796875,1.28125 0.25,0 0.96875,0 1.421875,-0.78125 z m 0,0"
             style="stroke:none;stroke-width:0"
             inkscape:connector-curvature="0" />
        </g>
      </g>
    </g>
    <g
       id="g4633"
       ns1:jacobian_sqrt="0.352778"
       inkscapeversion="0.92.4"
       ns1:alignment="middle center"
       ns1:scale="1.0"
       ns1:preamble="C:\\Users\\shawn\\AppData\\Roaming\\inkscape\\extensions\\textext\\default_packages.tex"
       ns1:text="$\\text{perp}(\\mathbf{v}|\\mathbf{u}) = \\mathbf{v} - \\text{proj}(\\mathbf{v}|\\mathbf{u})$"
       ns1:pdfconverter="pdf2svg"
       ns1:texconverter="pdflatex"
       ns1:version="0.11.0"
       transform="matrix(0.352778,0,0,0.352778,-8.2648883,190.20313)">
      <g
         id="g4631">
        <g
           id="g4559"
           style="fill:#000000;fill-opacity:1">
          <path
             id="path4557"
             transform="translate(148.712,134.765)"
             d="m 1.71875,-3.75 v -0.65625 l -1.4375,0.109375 v 0.3125 c 0.703125,0 0.78125,0.0625 0.78125,0.5 v 4.65625 C 1.0625,1.625 0.953125,1.625 0.28125,1.625 V 1.9375 C 0.625,1.921875 1.140625,1.90625 1.390625,1.90625 c 0.28125,0 0.78125,0.015625 1.125,0.03125 V 1.625 C 1.859375,1.625 1.75,1.625 1.75,1.171875 V -0.59375 c 0.046875,0.171875 0.46875,0.703125 1.21875,0.703125 1.1875,0 2.21875,-0.984375 2.21875,-2.265625 0,-1.265625 -0.953125,-2.25 -2.078125,-2.25 -0.78125,0 -1.203125,0.4375 -1.390625,0.65625 z M 1.75,-1.140625 v -2.21875 C 2.03125,-3.875 2.515625,-4.15625 3.03125,-4.15625 c 0.734375,0 1.328125,0.875 1.328125,2 0,1.203125 -0.6875,2.046875 -1.421875,2.046875 -0.40625,0 -0.78125,-0.203125 -1.046875,-0.609375 C 1.75,-0.921875 1.75,-0.9375 1.75,-1.140625 Z m 0,0"
             style="stroke:none;stroke-width:0"
             inkscape:connector-curvature="0" />
        </g>
        <g
           id="g4569"
           style="fill:#000000;fill-opacity:1">
          <path
             id="path4561"
             transform="translate(154.52617,134.765)"
             d="M 1.109375,-2.515625 C 1.171875,-4 2.015625,-4.25 2.359375,-4.25 c 1.015625,0 1.125,1.34375 1.125,1.734375 z m 0,0.21875 h 2.78125 c 0.21875,0 0.25,0 0.25,-0.21875 0,-0.984375 -0.546875,-1.953125 -1.78125,-1.953125 -1.15625,0 -2.078125,1.03125 -2.078125,2.28125 0,1.328125 1.046875,2.296875 2.1875,2.296875 C 3.6875,0.109375 4.140625,-1 4.140625,-1.1875 4.140625,-1.28125 4.0625,-1.3125 4,-1.3125 c -0.078125,0 -0.109375,0.0625 -0.125,0.140625 -0.34375,1.03125 -1.25,1.03125 -1.34375,1.03125 -0.5,0 -0.890625,-0.296875 -1.125,-0.671875 -0.296875,-0.46875 -0.296875,-1.125 -0.296875,-1.484375 z m 0,0"
             style="stroke:none;stroke-width:0"
             inkscape:connector-curvature="0" />
          <path
             id="path4563"
             transform="translate(158.95355,134.765)"
             d="M 1.671875,-3.3125 V -4.40625 L 0.28125,-4.296875 v 0.3125 c 0.703125,0 0.78125,0.0625 0.78125,0.5625 V -0.75 c 0,0.4375 -0.109375,0.4375 -0.78125,0.4375 V 0 c 0.390625,-0.015625 0.859375,-0.03125 1.140625,-0.03125 0.390625,0 0.859375,0 1.265625,0.03125 V -0.3125 H 2.46875 c -0.734375,0 -0.75,-0.109375 -0.75,-0.46875 V -2.3125 c 0,-0.984375 0.421875,-1.875 1.171875,-1.875 0.0625,0 0.09375,0 0.109375,0.015625 -0.03125,0 -0.234375,0.125 -0.234375,0.390625 0,0.265625 0.21875,0.421875 0.4375,0.421875 0.171875,0 0.421875,-0.125 0.421875,-0.4375 0,-0.3125 -0.3125,-0.609375 -0.734375,-0.609375 -0.734375,0 -1.09375,0.671875 -1.21875,1.09375 z m 0,0"
             style="stroke:none;stroke-width:0"
             inkscape:connector-curvature="0" />
          <path
             id="path4565"
             transform="translate(162.8559,134.765)"
             d="m 1.71875,-3.75 v -0.65625 l -1.4375,0.109375 v 0.3125 c 0.703125,0 0.78125,0.0625 0.78125,0.5 v 4.65625 C 1.0625,1.625 0.953125,1.625 0.28125,1.625 V 1.9375 C 0.625,1.921875 1.140625,1.90625 1.390625,1.90625 c 0.28125,0 0.78125,0.015625 1.125,0.03125 V 1.625 C 1.859375,1.625 1.75,1.625 1.75,1.171875 V -0.59375 c 0.046875,0.171875 0.46875,0.703125 1.21875,0.703125 1.1875,0 2.21875,-0.984375 2.21875,-2.265625 0,-1.265625 -0.953125,-2.25 -2.078125,-2.25 -0.78125,0 -1.203125,0.4375 -1.390625,0.65625 z M 1.75,-1.140625 v -2.21875 C 2.03125,-3.875 2.515625,-4.15625 3.03125,-4.15625 c 0.734375,0 1.328125,0.875 1.328125,2 0,1.203125 -0.6875,2.046875 -1.421875,2.046875 -0.40625,0 -0.78125,-0.203125 -1.046875,-0.609375 C 1.75,-0.921875 1.75,-0.9375 1.75,-1.140625 Z m 0,0"
             style="stroke:none;stroke-width:0"
             inkscape:connector-curvature="0" />
          <path
             id="path4567"
             transform="translate(168.39112,134.765)"
             d="m 3.296875,2.390625 c 0,-0.03125 0,-0.046875 -0.171875,-0.21875 C 1.890625,0.921875 1.5625,-0.96875 1.5625,-2.5 c 0,-1.734375 0.375,-3.46875 1.609375,-4.703125 0.125,-0.125 0.125,-0.140625 0.125,-0.171875 0,-0.078125 -0.03125,-0.109375 -0.09375,-0.109375 -0.109375,0 -1,0.6875 -1.59375,1.953125 -0.5,1.09375 -0.625,2.203125 -0.625,3.03125 0,0.78125 0.109375,1.984375 0.65625,3.125 C 2.25,1.84375 3.09375,2.5 3.203125,2.5 c 0.0625,0 0.09375,-0.03125 0.09375,-0.109375 z m 0,0"
             style="stroke:none;stroke-width:0"
             inkscape:connector-curvature="0" />
        </g>
        <g
           id="g4573"
           style="fill:#000000;fill-opacity:1">
          <path
             id="path4571"
             transform="translate(172.263,134.765)"
             d="m 5.046875,-3.75 c 0.0625,-0.140625 0.09375,-0.203125 0.734375,-0.203125 v -0.46875 C 5.53125,-4.40625 5.25,-4.390625 5,-4.390625 c -0.25,0 -0.703125,-0.03125 -0.90625,-0.03125 v 0.46875 c 0.1875,0 0.46875,0.03125 0.46875,0.109375 0,0 0,0.03125 -0.046875,0.109375 l -1.15625,2.5 -1.265625,-2.71875 H 2.625 v -0.46875 c -0.328125,0.015625 -1.21875,0.03125 -1.234375,0.03125 -0.28125,0 -0.71875,-0.03125 -1.125,-0.03125 v 0.46875 h 0.625 l 1.75,3.75 c 0.125,0.25 0.25,0.25 0.375,0.25 0.171875,0 0.28125,-0.03125 0.375,-0.25 z m 0,0"
             style="stroke:none;stroke-width:0"
             inkscape:connector-curvature="0" />
        </g>
        <g
           id="g4577"
           style="fill:#000000;fill-opacity:1">
          <path
             id="path4575"
             transform="translate(178.469,134.765)"
             d="m 1.578125,-7.125 c 0,-0.171875 0,-0.359375 -0.1875,-0.359375 -0.203125,0 -0.203125,0.1875 -0.203125,0.359375 v 9.265625 c 0,0.171875 0,0.359375 0.203125,0.359375 0.1875,0 0.1875,-0.1875 0.1875,-0.359375 z m 0,0"
             style="stroke:none;stroke-width:0"
             inkscape:connector-curvature="0" />
        </g>
        <g
           id="g4581"
           style="fill:#000000;fill-opacity:1">
          <path
             id="path4579"
             transform="translate(181.236,134.765)"
             d="M 4.359375,-0.71875 V 0.0625 L 6.125,0 v -0.46875 c -0.609375,0 -0.6875,0 -0.6875,-0.390625 v -3.625 L 3.625,-4.40625 v 0.46875 c 0.609375,0 0.6875,0 0.6875,0.390625 v 1.90625 c 0,0.8125 -0.515625,1.34375 -1.234375,1.34375 -0.78125,0 -0.8125,-0.25 -0.8125,-0.796875 v -3.390625 l -1.8125,0.078125 v 0.46875 c 0.609375,0 0.6875,0 0.6875,0.390625 v 2.328125 c 0,1.0625 0.796875,1.28125 1.796875,1.28125 0.25,0 0.96875,0 1.421875,-0.78125 z m 0,0"
             style="stroke:none;stroke-width:0"
             inkscape:connector-curvature="0" />
        </g>
        <g
           id="g4585"
           style="fill:#000000;fill-opacity:1">
          <path
             id="path4583"
             transform="translate(187.601,134.765)"
             d="m 2.875,-2.5 c 0,-0.765625 -0.109375,-1.96875 -0.65625,-3.109375 -0.59375,-1.21875 -1.453125,-1.875 -1.546875,-1.875 -0.0625,0 -0.109375,0.046875 -0.109375,0.109375 0,0.03125 0,0.046875 0.1875,0.234375 0.984375,0.984375 1.546875,2.5625 1.546875,4.640625 0,1.71875 -0.359375,3.46875 -1.59375,4.71875 C 0.5625,2.34375 0.5625,2.359375 0.5625,2.390625 0.5625,2.453125 0.609375,2.5 0.671875,2.5 0.765625,2.5 1.671875,1.8125 2.25,0.546875 2.765625,-0.546875 2.875,-1.65625 2.875,-2.5 Z m 0,0"
             style="stroke:none;stroke-width:0"
             inkscape:connector-curvature="0" />
        </g>
        <g
           id="g4589"
           style="fill:#000000;fill-opacity:1">
          <path
             id="path4587"
             transform="translate(194.24506,134.765)"
             d="m 6.84375,-3.265625 c 0.15625,0 0.34375,0 0.34375,-0.1875 C 7.1875,-3.65625 7,-3.65625 6.859375,-3.65625 h -5.96875 c -0.140625,0 -0.328125,0 -0.328125,0.203125 0,0.1875 0.1875,0.1875 0.328125,0.1875 z m 0.015625,1.9375 c 0.140625,0 0.328125,0 0.328125,-0.203125 0,-0.1875 -0.1875,-0.1875 -0.34375,-0.1875 H 0.890625 c -0.140625,0 -0.328125,0 -0.328125,0.1875 0,0.203125 0.1875,0.203125 0.328125,0.203125 z m 0,0"
             style="stroke:none;stroke-width:0"
             inkscape:connector-curvature="0" />
        </g>
        <g
           id="g4593"
           style="fill:#000000;fill-opacity:1">
          <path
             id="path4591"
             transform="translate(204.759,134.765)"
             d="m 5.046875,-3.75 c 0.0625,-0.140625 0.09375,-0.203125 0.734375,-0.203125 v -0.46875 C 5.53125,-4.40625 5.25,-4.390625 5,-4.390625 c -0.25,0 -0.703125,-0.03125 -0.90625,-0.03125 v 0.46875 c 0.1875,0 0.46875,0.03125 0.46875,0.109375 0,0 0,0.03125 -0.046875,0.109375 l -1.15625,2.5 -1.265625,-2.71875 H 2.625 v -0.46875 c -0.328125,0.015625 -1.21875,0.03125 -1.234375,0.03125 -0.28125,0 -0.71875,-0.03125 -1.125,-0.03125 v 0.46875 h 0.625 l 1.75,3.75 c 0.125,0.25 0.25,0.25 0.375,0.25 0.171875,0 0.28125,-0.03125 0.375,-0.25 z m 0,0"
             style="stroke:none;stroke-width:0"
             inkscape:connector-curvature="0" />
        </g>
        <g
           id="g4597"
           style="fill:#000000;fill-opacity:1">
          <path
             id="path4595"
             transform="translate(213.179,134.765)"
             d="m 6.5625,-2.296875 c 0.171875,0 0.359375,0 0.359375,-0.203125 0,-0.1875 -0.1875,-0.1875 -0.359375,-0.1875 H 1.171875 c -0.171875,0 -0.34375,0 -0.34375,0.1875 0,0.203125 0.171875,0.203125 0.34375,0.203125 z m 0,0"
             style="stroke:none;stroke-width:0"
             inkscape:connector-curvature="0" />
        </g>
        <g
           id="g4605"
           style="fill:#000000;fill-opacity:1">
          <path
             id="path4599"
             transform="translate(223.141,134.765)"
             d="m 1.71875,-3.75 v -0.65625 l -1.4375,0.109375 v 0.3125 c 0.703125,0 0.78125,0.0625 0.78125,0.5 v 4.65625 C 1.0625,1.625 0.953125,1.625 0.28125,1.625 V 1.9375 C 0.625,1.921875 1.140625,1.90625 1.390625,1.90625 c 0.28125,0 0.78125,0.015625 1.125,0.03125 V 1.625 C 1.859375,1.625 1.75,1.625 1.75,1.171875 V -0.59375 c 0.046875,0.171875 0.46875,0.703125 1.21875,0.703125 1.1875,0 2.21875,-0.984375 2.21875,-2.265625 0,-1.265625 -0.953125,-2.25 -2.078125,-2.25 -0.78125,0 -1.203125,0.4375 -1.390625,0.65625 z M 1.75,-1.140625 v -2.21875 C 2.03125,-3.875 2.515625,-4.15625 3.03125,-4.15625 c 0.734375,0 1.328125,0.875 1.328125,2 0,1.203125 -0.6875,2.046875 -1.421875,2.046875 -0.40625,0 -0.78125,-0.203125 -1.046875,-0.609375 C 1.75,-0.921875 1.75,-0.9375 1.75,-1.140625 Z m 0,0"
             style="stroke:none;stroke-width:0"
             inkscape:connector-curvature="0" />
          <path
             id="path4601"
             transform="translate(228.67622,134.765)"
             d="M 1.671875,-3.3125 V -4.40625 L 0.28125,-4.296875 v 0.3125 c 0.703125,0 0.78125,0.0625 0.78125,0.5625 V -0.75 c 0,0.4375 -0.109375,0.4375 -0.78125,0.4375 V 0 c 0.390625,-0.015625 0.859375,-0.03125 1.140625,-0.03125 0.390625,0 0.859375,0 1.265625,0.03125 V -0.3125 H 2.46875 c -0.734375,0 -0.75,-0.109375 -0.75,-0.46875 V -2.3125 c 0,-0.984375 0.421875,-1.875 1.171875,-1.875 0.0625,0 0.09375,0 0.109375,0.015625 -0.03125,0 -0.234375,0.125 -0.234375,0.390625 0,0.265625 0.21875,0.421875 0.4375,0.421875 0.171875,0 0.421875,-0.125 0.421875,-0.4375 0,-0.3125 -0.3125,-0.609375 -0.734375,-0.609375 -0.734375,0 -1.09375,0.671875 -1.21875,1.09375 z m 0,0"
             style="stroke:none;stroke-width:0"
             inkscape:connector-curvature="0" />
          <path
             id="path4603"
             transform="translate(232.57857,134.765)"
             d="M 4.6875,-2.140625 C 4.6875,-3.40625 3.703125,-4.46875 2.5,-4.46875 c -1.25,0 -2.21875,1.09375 -2.21875,2.328125 0,1.296875 1.03125,2.25 2.203125,2.25 1.203125,0 2.203125,-0.984375 2.203125,-2.25 z m -2.1875,2 c -0.4375,0 -0.875,-0.203125 -1.140625,-0.671875 -0.25,-0.4375 -0.25,-1.046875 -0.25,-1.40625 0,-0.390625 0,-0.921875 0.234375,-1.359375 C 1.609375,-4.03125 2.078125,-4.25 2.484375,-4.25 c 0.4375,0 0.859375,0.21875 1.125,0.65625 0.265625,0.421875 0.265625,1 0.265625,1.375 0,0.359375 0,0.90625 -0.21875,1.34375 C 3.421875,-0.421875 2.984375,-0.140625 2.5,-0.140625 Z m 0,0"
             style="stroke:none;stroke-width:0"
             inkscape:connector-curvature="0" />
        </g>
        <g
           id="g4609"
           style="fill:#000000;fill-opacity:1">
          <path
             id="path4607"
             transform="translate(238.11778,134.765)"
             d="m 2.09375,-4.40625 -1.515625,0.109375 v 0.3125 c 0.765625,0 0.859375,0.0625 0.859375,0.5625 v 3.9375 c 0,0.453125 -0.09375,1.3125 -0.734375,1.3125 -0.046875,0 -0.28125,0 -0.53125,-0.140625 C 0.3125,1.65625 0.515625,1.515625 0.515625,1.25 0.515625,0.984375 0.34375,0.78125 0.0625,0.78125 c -0.28125,0 -0.46875,0.203125 -0.46875,0.46875 0,0.515625 0.5625,0.796875 1.140625,0.796875 C 1.46875,2.046875 2.09375,1.40625 2.09375,0.5 Z m 0,-1.734375 c 0,-0.296875 -0.234375,-0.53125 -0.53125,-0.53125 -0.28125,0 -0.53125,0.234375 -0.53125,0.53125 0,0.28125 0.25,0.53125 0.53125,0.53125 0.296875,0 0.53125,-0.25 0.53125,-0.53125 z m 0,0"
             style="stroke:none;stroke-width:0"
             inkscape:connector-curvature="0" />
        </g>
        <g
           id="g4613"
           style="fill:#000000;fill-opacity:1">
          <path
             id="path4611"
             transform="translate(241.15238,134.765)"
             d="m 3.296875,2.390625 c 0,-0.03125 0,-0.046875 -0.171875,-0.21875 C 1.890625,0.921875 1.5625,-0.96875 1.5625,-2.5 c 0,-1.734375 0.375,-3.46875 1.609375,-4.703125 0.125,-0.125 0.125,-0.140625 0.125,-0.171875 0,-0.078125 -0.03125,-0.109375 -0.09375,-0.109375 -0.109375,0 -1,0.6875 -1.59375,1.953125 -0.5,1.09375 -0.625,2.203125 -0.625,3.03125 0,0.78125 0.109375,1.984375 0.65625,3.125 C 2.25,1.84375 3.09375,2.5 3.203125,2.5 c 0.0625,0 0.09375,-0.03125 0.09375,-0.109375 z m 0,0"
             style="stroke:none;stroke-width:0"
             inkscape:connector-curvature="0" />
        </g>
        <g
           id="g4617"
           style="fill:#000000;fill-opacity:1">
          <path
             id="path4615"
             transform="translate(245.032,134.765)"
             d="m 5.046875,-3.75 c 0.0625,-0.140625 0.09375,-0.203125 0.734375,-0.203125 v -0.46875 C 5.53125,-4.40625 5.25,-4.390625 5,-4.390625 c -0.25,0 -0.703125,-0.03125 -0.90625,-0.03125 v 0.46875 c 0.1875,0 0.46875,0.03125 0.46875,0.109375 0,0 0,0.03125 -0.046875,0.109375 l -1.15625,2.5 -1.265625,-2.71875 H 2.625 v -0.46875 c -0.328125,0.015625 -1.21875,0.03125 -1.234375,0.03125 -0.28125,0 -0.71875,-0.03125 -1.125,-0.03125 v 0.46875 h 0.625 l 1.75,3.75 c 0.125,0.25 0.25,0.25 0.375,0.25 0.171875,0 0.28125,-0.03125 0.375,-0.25 z m 0,0"
             style="stroke:none;stroke-width:0"
             inkscape:connector-curvature="0" />
        </g>
        <g
           id="g4621"
           style="fill:#000000;fill-opacity:1">
          <path
             id="path4619"
             transform="translate(251.237,134.765)"
             d="m 1.578125,-7.125 c 0,-0.171875 0,-0.359375 -0.1875,-0.359375 -0.203125,0 -0.203125,0.1875 -0.203125,0.359375 v 9.265625 c 0,0.171875 0,0.359375 0.203125,0.359375 0.1875,0 0.1875,-0.1875 0.1875,-0.359375 z m 0,0"
             style="stroke:none;stroke-width:0"
             inkscape:connector-curvature="0" />
        </g>
        <g
           id="g4625"
           style="fill:#000000;fill-opacity:1">
          <path
             id="path4623"
             transform="translate(254.005,134.765)"
             d="M 4.359375,-0.71875 V 0.0625 L 6.125,0 v -0.46875 c -0.609375,0 -0.6875,0 -0.6875,-0.390625 v -3.625 L 3.625,-4.40625 v 0.46875 c 0.609375,0 0.6875,0 0.6875,0.390625 v 1.90625 c 0,0.8125 -0.515625,1.34375 -1.234375,1.34375 -0.78125,0 -0.8125,-0.25 -0.8125,-0.796875 v -3.390625 l -1.8125,0.078125 v 0.46875 c 0.609375,0 0.6875,0 0.6875,0.390625 v 2.328125 c 0,1.0625 0.796875,1.28125 1.796875,1.28125 0.25,0 0.96875,0 1.421875,-0.78125 z m 0,0"
             style="stroke:none;stroke-width:0"
             inkscape:connector-curvature="0" />
        </g>
        <g
           id="g4629"
           style="fill:#000000;fill-opacity:1">
          <path
             id="path4627"
             transform="translate(260.37,134.765)"
             d="m 2.875,-2.5 c 0,-0.765625 -0.109375,-1.96875 -0.65625,-3.109375 -0.59375,-1.21875 -1.453125,-1.875 -1.546875,-1.875 -0.0625,0 -0.109375,0.046875 -0.109375,0.109375 0,0.03125 0,0.046875 0.1875,0.234375 0.984375,0.984375 1.546875,2.5625 1.546875,4.640625 0,1.71875 -0.359375,3.46875 -1.59375,4.71875 C 0.5625,2.34375 0.5625,2.359375 0.5625,2.390625 0.5625,2.453125 0.609375,2.5 0.671875,2.5 0.765625,2.5 1.671875,1.8125 2.25,0.546875 2.765625,-0.546875 2.875,-1.65625 2.875,-2.5 Z m 0,0"
             style="stroke:none;stroke-width:0"
             inkscape:connector-curvature="0" />
        </g>
      </g>
    </g>
  </g>
</svg>
